v -28.393102810924884 -16.469242575573535 -6.4184730956921285 
v -24.857207074109766 -10.39698697161274 -5.191746167721079 
v -24.168331972856354 -4.135260647594494 -2.338755081361844 
v -27.703095608965377 -2.9174991560257615 2.0599558227489516 
v -31.67553598196772 -1.7275637650136635 7.834057466835805 
v -31.592665021141524 -0.5269049015903803 14.544441261225607 
v -28.307464558858527 2.7376470119882175 19.47292744702355 
v -25.09617767462152 5.851447798665408 20.70083157012778 
v -22.360530877660537 8.50404782252355 21.74686453373022 
v -18.535287276405786 12.21316789394028 23.209527468372013 
v -14.580613333752908 16.301962527876118 24.91036827583337 
v -10.80864949471351 20.440402822600113 24.777712575472464 
v -6.8988389177209815 25.621837789635123 22.881839300246465 
v -4.512798814222626 31.13265409232533 19.394917989052445 
v 0.21280216514753447 36.15993317009643 19.921122316615712 
v 6.519082596001442 34.86570215278703 22.302934800429156 
v 10.072983066773645 29.369004737227428 20.108622458199456 
v 9.901185142585836 26.459519025731527 13.762770431478014 
v 8.341419407739297 27.826311943437155 7.768998200420057 
v 6.964574618902357 29.392898930300305 2.833864322491868 
v 5.134564616564625 31.288271110040725 -2.8713977130028736 
v 6.788170839331521 34.8283250855931 -8.436468077255123 
v 11.999233435948563 37.099435709369104 -11.999887159358863 
v 17.298036079729933 32.95225532243136 -11.033195979775853 
v 17.59823897735372 25.846007941187104 -11.025870190132743 
v 16.812710681884305 22.53979691690547 -16.809572537543957 
v 19.240633583849444 22.256234164561878 -23.317666872804516 
v 21.99773292464463 17.941115353749918 -23.833443016332716 
v 25.217552012395217 11.691378622757929 -24.862032436524473 
v 24.820672880201172 6.223194746880596 -24.376736600710498 
v 24.580943003396055 -0.27473257321726247 -21.988824189362703 
v 25.91660996691056 -3.4272367371196033 -17.678176174342237 
v 26.35740136327154 -8.475233028092495 -13.052690930600132 
v 25.579150289477496 -12.433744907963444 -9.783884821232654 
v 25.14235500258472 -15.734902768109439 -7.780840417383035 
v 24.629428413726536 -19.61143569319915 -5.428675787441353 
v 21.094964778819975 -25.11754997360755 -3.2444807045049715 
v 14.86633550803539 -26.861226843078246 -0.5628904303837845 
v 10.64044573611431 -27.262393155880545 5.141831978062073 
v 6.050682835870606 -31.813185232502708 7.185006159787726 
v 2.6093442694063977 -34.11652683754092 1.8068419074426119 
v -0.23034505038246836 -29.41846902007543 -2.3047848313646804 
v -4.534666930183765 -24.923123266527664 0.49186088970458297 
v -9.105154088494544 -28.033233490766865 4.385816748173849 
v -11.217442633268567 -33.29799169678459 2.1802552339999823 
v -13.308415878021915 -37.55861483680632 -1.6807680163816794 
v -17.988161855938035 -36.86802475829899 -6.767346923977495 
v -23.24656632225117 -32.5289742348212 -8.733976677362799 
v -26.05963849729175 -26.66945398650622 -11.329518825460255 
v -26.19435326344838 -22.160972974228496 -15.270539261362133 
v -23.599654632631946 -18.138881005996062 -18.71067423128432 
v -21.006562106014833 -14.118431479213015 -22.16434597126982 
v -18.261900972604803 -10.155177479743784 -25.36097978674448 
v -17.070608833022092 -6.487897880713521 -28.722861783342562 
v -16.12127346666965 -1.3369050646177096 -33.539960697576 
v -10.199804827889018 1.4954006945441418 -33.33771458560706 
v -5.1879070421663736 1.565401614054399 -30.964903483269058 
v -0.1597215106187505 2.304389362371323 -29.2793234214143 
v 4.945061495841271 2.224751481502817 -27.79811969384183 
v 10.419162675600274 5.41444553777982 -25.593353926780644 
v 12.230306845297005 10.813205856644531 -24.540070494157963 
v 13.408107301640404 16.1761327304084 -23.12332699186503 
v 13.865721155610348 21.372415721049475 -20.90860044880485 
v 12.19285252050688 23.089453676369125 -14.217428455019515 
v 10.841143706691405 23.535963291468693 -8.59437922674135 
v 15.12482023746163 24.19492240586955 -3.209208704967743 
v 19.996804355900128 28.864610894941862 -2.1959019055783537 
v 21.012277804198384 35.4076851741336 -1.0130060973557036 
v 15.620910749592761 38.98980768249441 1.5678856179449117 
v 9.368327879821374 39.28466566506001 4.936525382020863 
v 3.193596216910544 38.605228437322786 8.391721135008664 
v -2.6637186237332835 35.14725983965605 9.979780214891775 
v -3.638171797631742 28.451554336453952 8.877669361090986 
v 1.5552768749094887 23.90619760901742 9.28051802591151 
v 4.719024283268313 22.986962302964802 15.157307940485671 
v -0.5213930222100951 22.66330069729544 19.37454198370802 
v -7.101350907712018 21.08279808477834 20.453369469791042 
v -8.54539000446491 16.1205624921603 24.617370417081275 
v -5.817573867557389 13.141982881308373 28.97361646596313 
v -1.9503970294264315 8.657660534847697 32.36789904815518 
v 2.032615548947845 3.275775911143752 32.11895014985174 
v 3.937375498036547 -1.474885676242426 30.14364646886783 
v 5.527363551906702 -6.093233830953187 27.341300483003067 
v 6.805105947620781 -10.131909274712429 25.694417827409723 
v 7.792760272915164 -15.588674006381286 24.615435789675164 
v 8.906997354473306 -21.404752843990515 23.106226430220193 
v 9.392313620834281 -26.556205946754194 22.750925085395544 
v 10.802032562701603 -32.32075957259313 19.477056893112287 
v 12.154625054491156 -35.19597506148235 13.464800533829145 
v 11.077906173563601 -35.857123884394326 6.771774778126769 
v 8.261732950347609 -36.131735133346396 2.048836775161807 
v 2.0630340743412123 -38.50373543286627 -0.18253587416091904 
v -4.2644478166818445 -40.332840611599764 -2.4168968248277984 
v -6.925642999105241 -36.68778525393738 -7.452030883430781 
v -6.234923786037047 -32.12859978858796 -9.983923725452485 
v -5.818945953219174 -25.446954814676555 -8.951448650603485 
v -10.018706818778693 -24.015039201569408 -3.86174677143268 
v -16.239448276611856 -27.178410004413543 -3.3573936399916784 
v -22.713815553108557 -26.979491998498194 -5.820796846372888 
v -28.198107124998273 -23.289198328431148 -7.51136939291018 
l 1 2
l 2 3
l 3 4
l 4 5
l 5 6
l 6 7
l 7 8
l 8 9
l 9 10
l 10 11
l 11 12
l 12 13
l 13 14
l 14 15
l 15 16
l 16 17
l 17 18
l 18 19
l 19 20
l 20 21
l 21 22
l 22 23
l 23 24
l 24 25
l 25 26
l 26 27
l 27 28
l 28 29
l 29 30
l 30 31
l 31 32
l 32 33
l 33 34
l 34 35
l 35 36
l 36 37
l 37 38
l 38 39
l 39 40
l 40 41
l 41 42
l 42 43
l 43 44
l 44 45
l 45 46
l 46 47
l 47 48
l 48 49
l 49 50
l 50 51
l 51 52
l 52 53
l 53 54
l 54 55
l 55 56
l 56 57
l 57 58
l 58 59
l 59 60
l 60 61
l 61 62
l 62 63
l 63 64
l 64 65
l 65 66
l 66 67
l 67 68
l 68 69
l 69 70
l 70 71
l 71 72
l 72 73
l 73 74
l 74 75
l 75 76
l 76 77
l 77 78
l 78 79
l 79 80
l 80 81
l 81 82
l 82 83
l 83 84
l 84 85
l 85 86
l 86 87
l 87 88
l 88 89
l 89 90
l 90 91
l 91 92
l 92 93
l 93 94
l 94 95
l 95 96
l 96 97
l 97 98
l 98 99
l 99 100
l 100 1
