v -12.224535567120768 -1.9994531736207852 -9.137152162951748 
v -13.739553351041973 -2.536340863088066 -12.797753188631566 
v -14.771662335840446 -2.992047118315707 -16.63214509699002 
v -15.20537790373798 -3.3222840670209255 -20.590491569456965 
v -14.930090197486157 -3.480925845070915 -24.57211792584681 
v -13.860017684467538 -3.424702396133188 -28.41836760722125 
v -11.961041347489157 -3.120708266332675 -31.915607861406865 
v -9.278801471753997 -2.5556440494266175 -34.81457253591276 
v -5.969948974132408 -1.738553280306775 -36.88840960250319 
v -2.2873366015877807 -0.6923501543066625 -38.013686433063455 
v 1.5032856646685453 0.5480465935021669 -38.163988989719265 
v 5.163904199289674 1.9435515383315685 -37.395075081011875 
v 8.515381357462203 3.442303257541292 -35.82312906472502 
v 11.461316492290827 4.9611685691861265 -33.59262300268299 
v 13.97096223334379 6.423449831323524 -30.847862590869124 
v 16.059448776795186 7.771961476542709 -27.717688927291015 
v 17.745309540770712 8.966470146376302 -24.295542899382742 
v 19.011042095404516 9.976619053283475 -20.640750291777145 
v 19.838237987578374 10.774231311030677 -16.812022932749322 
v 20.2120951393674 11.332683996837588 -12.871562737143758 
v 20.121853532873715 11.62716421086862 -8.886222039748358 
v 19.56178561004043 11.635269942068764 -4.928614855477965 
v 18.532755194294225 11.338011908909708 -1.0779818199904443 
v 17.044322002949006 10.721255110561689 2.579437056558341 
v 15.117304502804807 9.777602823289355 5.950818547718576 
v 12.78661522270808 8.508663391974942 8.93829369919199 
v 10.104049900097648 6.9275464793421175 11.441932637027532 
v 7.140558564649627 5.061313195667909 13.364419477086939 
v 3.9873861951869873 2.952970138359511 14.617465780588953 
v 0.7501234928641699 0.6702938960058271 15.132709735650232 
v -2.48033373785717 -1.6658748467005298 14.882713342132838 
v -5.620327424720388 -3.9198112182525753 13.874733446578642 
v -8.58698087164909 -5.962508081708718 12.14772335016446 
v -11.286411148821097 -7.714767207376385 9.780874035768576 
v -13.634132312024626 -9.134772463325055 6.876705314283255 
v -15.567343053779007 -10.198106621910743 3.545429586861797 
v -17.043608500445075 -10.895634652316204 -0.10179529249964304 
v -18.038364498383487 -11.230848395777281 -3.9577980732523086 
v -18.541882888180165 -11.217110592450533 -7.9225372054303795 
v -18.556194210079475 -10.875117875976434 -11.90469764950747 
v -18.09230695708954 -10.23076897641999 -15.82208826646763 
v -17.167919946243494 -9.313516411969257 -19.601203704929837 
v -15.80571459257718 -8.155204515541847 -23.176280307126763 
v -14.032239795323877 -6.789350884613681 -26.488119512981097 
v -11.877358166083514 -5.250804821108854 -29.48289477217751 
v -9.374199345522499 -3.575706679222981 -32.11111021174841 
v -6.5565904596492475 -1.8026275644532936 -34.323540204904035 
v -3.435059794362364 0.01461013920924153 -36.03334546395811 
v -0.03160024334948606 1.8000695885175022 -37.12368197017464 
v 3.584554212111341 3.457356286899278 -37.47916475857159 
v 7.283493001189577 4.882679214319712 -37.00449451732788 
v 10.864824774066577 6.009078543096397 -35.64944618694878 
v 14.089070097489323 6.7972015985364065 -33.43422254962119 
v 16.714247702151308 7.225721502690726 -30.460317368182086 
v 18.536054343904517 7.299073737245028 -26.911250708161244 
v 19.468116643505617 7.047760572842798 -23.038240445376662 
v 19.535369791969753 6.523771882659259 -19.08023987838921 
v 18.82620511595795 5.790240323328154 -15.21809195671469 
v 17.461343785707733 4.91063437629134 -11.566831811245015 
v 15.568867767351412 3.942096884544706 -8.181841871868777 
v 13.268364846741767 2.9327532662542484 -5.071497221364376 
v 10.663456868965136 1.9218334051772967 -2.2107775504120144 
v 7.840380833360941 0.9413619867862703 0.4471133315579962 
v 4.8702620908186285 0.01848516109162014 2.9620449938660256 
v 1.8133466493955697 -0.8221284936350399 5.400921007128427 
v -1.2757747993797526 -1.5564679773003516 7.833514220374854 
v -4.337708995181377 -2.1884887475740706 10.328344670037264 
v -7.301585881281922 -2.76776040665737 12.950736724059867 
v -10.093154787328828 -3.3352271206759574 15.757712221998062 
v -12.649245626495702 -3.8857591250812673 18.783273636196654 
v -14.899774801210532 -4.402192966103446 22.04746516435682 
v -16.76230691578235 -4.8646498962131295 25.55438113076777 
v -18.143435369399803 -5.250443933285125 29.285163761165467 
v -18.9432815602109 -5.534586021136929 33.18993687269289 
v -19.064354037513656 -5.691195514977983 37.179953124582454 
v -18.4255634713689 -5.696087110208042 41.122325710519256 
v -16.980878418320938 -5.530578011676651 44.840740249906766 
v -14.7398242431777 -5.186101646714119 48.12575466438556 
v -11.784339092015328 -4.668594068209261 50.75673950898003 
v -8.274892761783052 -4.001121256236085 52.533722506812964 
v -4.440119441248082 -3.2232676346507123 53.31236876295292 
v -0.5492581786192515 -2.3866806610590663 53.03174741320054 
v 3.1263870522847763 -1.5476199022524078 51.72533476344726 
v 6.351855022197924 -0.7586196939644976 49.51146680801877 
v 8.955956109293943 -0.06166662738466838 46.56725373976633 
v 10.842041849022856 0.5155263610295111 43.09535587228389 
v 11.983107552520524 0.9599150176553014 39.2934769310743 
v 12.406772745490365 1.2710445916361996 35.3328809832181 
v 12.176714092807925 1.457772423719724 31.347557051686426 
v 11.37554592215626 1.5348965334810476 27.432236909615217 
v 10.091702007361349 1.5203555916299323 23.6460862517344 
v 8.410848450848988 1.433243303050344 20.019056955900474 
v 6.411198467852763 1.2926036103321321 16.558761003660873 
v 4.161694291239789 1.1168405427599106 13.256664512116032 
v 1.7334996903465565 0.9039613488832308 10.085462765449378 
v -0.7880988264944659 0.6118857591369256 6.9942551510981135 
v -3.323740280219856 0.20838976056828118 3.927109495684433 
v -5.805995430738184 -0.285710220064079 0.829759045418134 
v -8.167649146965553 -0.8394971773625421 -2.3504153258560434 
v -10.335104038015906 -1.4217549492069272 -5.660639923575606 
l 1 2
l 2 3
l 3 4
l 4 5
l 5 6
l 6 7
l 7 8
l 8 9
l 9 10
l 10 11
l 11 12
l 12 13
l 13 14
l 14 15
l 15 16
l 16 17
l 17 18
l 18 19
l 19 20
l 20 21
l 21 22
l 22 23
l 23 24
l 24 25
l 25 26
l 26 27
l 27 28
l 28 29
l 29 30
l 30 31
l 31 32
l 32 33
l 33 34
l 34 35
l 35 36
l 36 37
l 37 38
l 38 39
l 39 40
l 40 41
l 41 42
l 42 43
l 43 44
l 44 45
l 45 46
l 46 47
l 47 48
l 48 49
l 49 50
l 50 51
l 51 52
l 52 53
l 53 54
l 54 55
l 55 56
l 56 57
l 57 58
l 58 59
l 59 60
l 60 61
l 61 62
l 62 63
l 63 64
l 64 65
l 65 66
l 66 67
l 67 68
l 68 69
l 69 70
l 70 71
l 71 72
l 72 73
l 73 74
l 74 75
l 75 76
l 76 77
l 77 78
l 78 79
l 79 80
l 80 81
l 81 82
l 82 83
l 83 84
l 84 85
l 85 86
l 86 87
l 87 88
l 88 89
l 89 90
l 90 91
l 91 92
l 92 93
l 93 94
l 94 95
l 95 96
l 96 97
l 97 98
l 98 99
l 99 100
l 100 1
