v -3.9140839205136384 7.379656587461127 3.21026581991014 
v -6.479569286230853 1.8199627558073308 6.429122347240736 
v -6.004189120626407 -3.0994324706478427 10.13940708762837 
v -5.844057541546424 -6.290705418480702 12.486148748318673 
v -5.684053644192001 -9.47943387580089 14.831019325120234 
v -5.460619409499876 -13.932274478487297 18.10546961444429 
v -5.19423475856247 -18.892363740056968 21.514042186245124 
v -9.621679141109686 -24.251682644089037 21.96704912867124 
v -16.514561385087596 -25.68100350598543 22.039829417649877 
v -22.018017418051446 -24.935680819033372 26.255646535010374 
v -22.84162914044175 -24.870479716686006 33.235173302187306 
v -20.33440279393975 -25.424993047124627 39.61530045075943 
v -17.20670178513562 -24.485914387259918 45.86786699651654 
v -14.474468045742183 -22.78233374970293 50.9594202423022 
v -11.870223408766638 -19.9827867594388 55.04919931317806 
v -9.478669648892032 -14.512805801679626 56.56414555853484 
v -8.015493427158118 -10.876145169378834 57.254892001061044 
v -5.976501467253695 -5.80831916748572 58.21747300347379 
v -3.068774795064579 0.4981142128241135 56.8446694827464 
v 1.0519065000870844 4.89613933775995 53.15319385975029 
v 5.603446717494339 5.953088449739401 47.85103632087889 
v 7.748124928701862 4.79817311960199 41.233851591846204 
v 5.417048159437349 4.529268469900699 34.62824814709459 
v 1.0587488957688072 5.957115728478314 30.61405684876828 
v -1.4764353901690703 5.371069854327406 25.046940383943806 
v -1.9958405231217207 3.207594563677129 19.41357501220788 
v -0.4841300646921194 0.45640659300333947 15.98290978760295 
v 0.8034322134493431 -1.8868502515640706 13.060924869450032 
v 2.324299404548846 -4.654702827792534 9.609479207173257 
v 4.219268922816538 -8.298686488844004 3.7886946020715317 
v 2.7964966494538386 -9.194818505952615 -2.978214413313743 
v -1.8484444571749583 -6.484579536937958 -7.267123173160822 
v -6.128582064087591 -1.6596796044541813 -10.070104431500338 
v -6.1598732614063145 5.200905246480302 -11.217143021129997 
v -2.8024343921028034 10.967485968461958 -12.318032759714512 
v 4.169553381445862 11.439208414868288 -13.618767108120919 
v 10.172765419125044 11.04160552673648 -14.730459307645203 
v 12.990553311288123 6.411448939972521 -18.971331990981856 
v 10.240911192149921 3.7275460602873736 -24.78591554410726 
v 7.539581980125517 5.950941284668099 -30.888271918905758 
v 8.200556177654617 8.847211764420088 -37.30170744503867 
v 9.354923502180112 7.5949782713254566 -44.08335295213522 
v 6.933724598611413 2.980039160242346 -48.752837791720424 
v 1.4208126564969714 -1.034077015240187 -50.603117143977485 
v -3.996657737074129 -5.403314188909037 -51.6176328270256 
v -8.054236571727555 -9.961324924738634 -52.131210019760545 
v -10.149832618743407 -15.400361481131505 -48.28503958361368 
v -11.509950174396263 -16.44142287180634 -41.51886476536695 
v -16.15026016618839 -13.622415063830456 -37.221536847430706 
v -22.982636347298108 -13.638707946107939 -38.15834271502296 
v -26.723888473524546 -19.348977273400816 -39.15263787366351 
v -26.361002514909817 -25.266764813917323 -35.49545652239144 
v -25.237534958149148 -27.390415295544646 -28.877804653885256 
v -25.078165959068254 -26.621424343076015 -21.81187026101326 
v -26.164061457671018 -23.231586451966148 -15.72642411913139 
v -28.31845867263192 -18.132787148930596 -11.268083284402424 
v -30.33440885973447 -14.854696135875017 -5.290896517985228 
v -29.434080862835536 -15.717598455506279 1.4937563009054646 
v -25.509576682363775 -19.629141750386683 5.929206768058366 
v -20.452512191812765 -21.510140791210926 10.428221658748841 
v -15.636934405731557 -19.222032713671496 15.13407142263093 
v -11.918624374740757 -13.45963551719529 15.777193652677747 
v -11.229204951954763 -6.866604311916856 13.220125668116635 
v -10.907591852435564 -0.2752665250368023 15.00651779026647 
v -7.629803425778602 -0.4877195702133876 20.796423112191054 
v -4.029925300043903 -5.270889672368807 20.88383655734594 
v 1.1543104260543566 -8.823495833377788 18.523245610114575 
v 4.644046304694191 -4.06792078206647 15.32219055580179 
v 4.81692020679666 2.0088147930334337 18.602391442567104 
v 7.411718011870718 3.852471876103319 24.77723683013424 
v 14.070815887706452 4.068633773047663 26.37001225549108 
v 18.025191715922936 7.2205074108235054 21.78171267305308 
v 19.492739455846174 9.829812765935658 18.246579406791753 
v 21.056559386888303 15.649404788835598 14.699736862761746 
v 23.6608457844898 22.213804134480718 14.497055031648365 
v 29.569208957368005 25.26623257155843 12.670486394390243 
v 32.37337583651979 23.655061993441002 6.641021234711797 
v 28.738211528780297 24.17288017383573 0.8295407065067484 
v 26.50614140350581 30.20960780509324 -1.533034626932921 
v 31.225360218062132 34.74924517608201 -3.342400342752274 
v 35.36879237760884 32.108496129691815 -7.997800897533473 
v 32.25828008129383 29.231298592176454 -13.421257324079313 
v 27.78998811198289 31.845211667514878 -18.132005624724677 
v 26.909708357095017 36.13390794496225 -23.672358217671544 
v 26.972349181898828 37.010022633613225 -30.63946741758434 
v 24.043392953340177 33.72775271694708 -36.056401120019395 
v 19.73127997605917 29.3667878011767 -39.20327018046068 
v 15.102612206150168 24.054195286308577 -39.83752342658986 
v 11.393715673185941 19.468064101307814 -39.8068547918235 
v 7.671278714971556 14.889842681385916 -39.75683312283791 
v 3.129185502488024 11.88387555131547 -35.423560645131865 
v -0.5163687560179171 11.165288359893115 -29.340311125104147 
v -3.9038053057263085 7.314250634499421 -24.60549279311225 
v -3.7846682471422994 0.5092397323698725 -23.00168992063185 
v 1.0046541527582364 -3.884751234162497 -20.673977792220274 
v 4.837717099836477 -2.4547382242072864 -16.066080574662788 
v 7.374687012384602 -0.891725976949564 -12.515580286917649 
v 8.185904513121912 3.035236456855137 -6.879901118801082 
v 7.791918594105775 7.126969652828777 -2.1428941744013748 
v 2.55479691464735 9.600730764467341 1.5912613894378371 
l 1 2
l 2 3
l 3 4
l 4 5
l 5 6
l 6 7
l 7 8
l 8 9
l 9 10
l 10 11
l 11 12
l 12 13
l 13 14
l 14 15
l 15 16
l 16 17
l 17 18
l 18 19
l 19 20
l 20 21
l 21 22
l 22 23
l 23 24
l 24 25
l 25 26
l 26 27
l 27 28
l 28 29
l 29 30
l 30 31
l 31 32
l 32 33
l 33 34
l 34 35
l 35 36
l 36 37
l 37 38
l 38 39
l 39 40
l 40 41
l 41 42
l 42 43
l 43 44
l 44 45
l 45 46
l 46 47
l 47 48
l 48 49
l 49 50
l 50 51
l 51 52
l 52 53
l 53 54
l 54 55
l 55 56
l 56 57
l 57 58
l 58 59
l 59 60
l 60 61
l 61 62
l 62 63
l 63 64
l 64 65
l 65 66
l 66 67
l 67 68
l 68 69
l 69 70
l 70 71
l 71 72
l 72 73
l 73 74
l 74 75
l 75 76
l 76 77
l 77 78
l 78 79
l 79 80
l 80 81
l 81 82
l 82 83
l 83 84
l 84 85
l 85 86
l 86 87
l 87 88
l 88 89
l 89 90
l 90 91
l 91 92
l 92 93
l 93 94
l 94 95
l 95 96
l 96 97
l 97 98
l 98 99
l 99 100
l 100 1
