v -28.394907512599396 -16.439226947738636 -6.426404229040828 
v -27.599421982008327 -14.880131560434855 -6.0632621813563965 
v -26.66893957414293 -13.389870121744272 -5.757702338397264 
v -25.720335732863127 -11.906163994277177 -5.486592350357985 
v -24.85901177578428 -10.366971343777843 -5.199677301069778 
v -24.173039572825495 -8.76303068747275 -4.82897020121739 
v -23.796664993810218 -7.094142862432934 -4.2589129910376 
v -23.75221991622321 -5.494453388499218 -3.473295540273344 
v -24.170136674530866 -4.105245019759597 -2.3466862147105436 
v -24.83538540007696 -3.08051540091196 -1.0895651824933448 
v -25.876724003354227 -2.7339410009573424 0.47544677161083154 
v -26.825246087322764 -2.486260855213713 1.7969029622585817 
v -27.70490031063989 -2.887483528190864 2.052024689400252 
v -28.67230551511101 -2.5655155222628183 3.5059232485475174 
v -29.6966648907922 -2.2980325273762894 4.933034081185233 
v -30.615325118564236 -2.0510003757669164 6.230004124551631 
v -31.67734068364223 -1.697548137178766 7.826126333487106 
v -32.08793228073688 -1.4088073282253508 9.416111090982646 
v -31.91608061052983 -1.0411674980096668 11.32504591390753 
v -31.757112060576446 -0.775561553060682 12.900947423652719 
v -31.594469722816036 -0.49688927375548275 14.536510127876907 
v -31.428170916516184 -0.1411417900380013 16.383682544045165 
v -30.613088840655074 0.6065312648616957 17.791462209651105 
v -29.613808856295027 1.5027256499785426 18.9661763017118 
v -28.30926926053304 2.767662639823115 19.464996313674853 
v -27.15244033363168 3.889373289985663 19.90733447969702 
v -26.467363264008238 4.553653273775617 20.16928831318377 
v -25.782543095935072 5.217684151743783 20.43114405546386 
v -25.09798237629603 5.881463426500305 20.69290043677908 
v -24.41368068176794 6.544991578758106 20.9545577986223 
v -23.729638446766522 7.208268196601886 21.21611592892204 
v -23.045856826753493 7.871292047028678 21.477574428034007 
v -22.36233557933505 8.534063450358447 21.738933400381523 
v -21.679073648829906 9.196583476595057 22.000193118540057 
v -20.996068382371128 9.858854553667415 22.261354765885013 
v -19.766452459337547 11.051142692512178 22.73152475824124 
v -18.537091978080298 12.243183521775178 23.201596335023314 
v -18.097007360312993 12.818563503198597 23.875508323596353 
v -17.045741070461403 13.837916230574951 24.277482556351305 
v -15.632063513048692 15.208678913552598 24.818031391037476 
v -14.582418035427418 16.331978155711017 24.902437142484672 
v -13.904737514780022 17.116608725484237 24.734297916827003 
v -13.177686143746268 17.821589076096103 25.01230100385994 
v -12.128098398909415 18.94482655669534 25.096702038559137 
v -10.81045419638802 20.470418450435012 24.769781442123765 
v -9.819079858319606 21.58341395027104 24.477909343634035 
v -8.70930549639137 22.84272121974018 24.15898842670254 
v -7.518428781952278 24.22154161522386 23.863515002565737 
v -6.900643619395493 25.651853417470022 22.873908166897767 
v -6.369866860085761 26.953796413838752 21.902130552963776 
v -5.854831182729465 28.23861330074852 20.949545304460358 
v -5.227083575752896 29.692007395074423 19.94396968993936 
v -4.514603515897138 31.162669720160228 19.386986855703746 
v -3.6460657543332773 32.73888633107893 19.000063858962022 
v -2.5649054687243 34.131487118238795 19.029343074293333 
v -1.265224307843726 35.3681581977865 19.335875155062123 
v 0.21099746347302353 36.18994879793133 19.913191183267013 
v 1.8205578519215118 36.59088015431141 20.63464497797188 
v 3.458919851224247 36.47191128275184 21.358369889970994 
v 5.056035562812549 35.888638895468844 21.95629495251833 
v 6.517277894326931 34.89571778062193 22.295003667080458 
v 7.786510797603543 33.623124871483945 22.30499559294568 
v 8.811575947299318 32.19056444863193 21.928374129969633 
v 9.577594179484635 30.747981113229653 21.19393311789277 
v 10.071178365099135 29.399020365062327 20.100691324850757 
v 10.329601760360113 28.24552754891186 18.769595573685788 
v 10.348497495739014 27.356436700330505 17.188813900518003 
v 10.215444706344224 26.737163381984125 15.543474611016695 
v 9.899380440911326 26.489534653566427 13.754839298129314 
v 9.535059585793274 26.47299524421766 12.058570493894923 
v 9.05979333919814 27.00550496430523 10.318010407433261 
v 8.666032789855244 27.522554983245783 8.774589979810072 
v 8.339614706064786 27.856327571272054 7.761067067071358 
v 8.027949902984439 28.20553102456538 6.619662256829796 
v 7.73797747900481 28.586296121131063 5.483059272778686 
v 7.411575534285431 28.920052205022333 4.469586474147732 
v 6.962769917227845 29.422914558135204 2.8259331891431683 
v 6.54515588724546 29.971287616216248 1.189012635585879 
v 5.997561702854338 30.261209797249464 0.4055466951291396 
v 5.590100635211804 30.717747868870084 -1.0866910601080122 
v 5.132759914890114 31.318286737875624 -2.8793288463515734 
v 5.183586512128103 32.0627150909608 -4.3671031465996 
v 5.799960278219664 33.09380757639893 -5.901755753006414 
v 6.288663470500595 33.96622078209967 -7.1619782094742135 
v 6.7863661376570095 34.858340713428 -8.444399210603823 
v 7.392674242519693 35.87258500707615 -9.953972518645651 
v 8.629224084115627 36.59192064271118 -10.964641421186043 
v 10.244245328371694 37.08852052015813 -11.708637541083565 
v 11.997428734274052 37.129451337204 -12.007818292707563 
v 13.779409607994817 36.7143139953114 -11.973767042618377 
v 15.318130845795903 35.86727931787416 -11.713168923173683 
v 16.51906263881382 34.520538833351175 -11.336808205803766 
v 17.29623137805542 32.98227095026626 -11.041127113124553 
v 17.39873926266839 31.069086024033187 -11.075695513113226 
v 17.446007158675577 29.429344063068676 -11.037969482079209 
v 17.493133260033545 27.804115019675443 -10.998956314758964 
v 17.596434275679208 25.876023569022003 -11.033801323481443 
v 17.40789231966839 24.35690207289238 -11.921374878213188 
v 17.122679707558323 23.18678553003879 -13.320754537518695 
v 16.89101750284862 22.654001380545 -15.011905052783293 
v 16.810905980209792 22.56981254474037 -16.817503670892656 
v 16.977306066686005 22.746787673010257 -18.57546661718717 
v 17.45093108762639 22.92983435052717 -20.30717787327099 
v 18.203838636719112 22.868455275603182 -21.920071479238484 
v 19.238828882174932 22.286249792396777 -23.325598006153214 
v 20.281068358237363 21.270550904759784 -24.332083272898604 
v 21.155774132221666 19.57428156259589 -24.633905363165546 
v 21.895862695506846 18.141462364726 -24.830121179392904 
v 21.995928222970118 17.971130981584817 -23.841374149681414 
v 22.799702135950035 16.41241579490793 -24.11872074330118 
v 23.60898487147555 14.845635969008876 -24.333281679805374 
v 24.37467800088914 13.35266682589672 -24.57976630234127 
v 25.215747310720705 11.721394250592827 -24.86996356987317 
v 25.15195540535268 9.86565265622993 -24.773511447943154 
v 24.968445394191654 8.186336452201548 -24.599129175324016 
v 24.85240196952078 7.228724344536321 -24.43536999835657 
v 24.81886817852666 6.2532103747154935 -24.384667734059196 
v 24.635569709776675 4.575830726534671 -24.210486601449254 
v 24.41500526811562 2.755690087599692 -23.899228087677937 
v 24.45320129864451 1.2080998529564684 -23.01602819144851 
v 24.579138301721542 -0.2447169453823649 -21.9967553227114 
v 25.03176805441398 -1.3202717355506812 -20.55115656759055 
v 25.461949107040997 -2.2602402583033268 -19.205792708557134 
v 25.677087985604008 -2.8323492383371933 -18.445323006556077 
v 25.914805265236048 -3.3972211092847058 -17.686107307690936 
v 26.34747072983883 -4.34261829469562 -16.332973482235367 
v 26.755030209915418 -5.42642311122107 -14.89233770976982 
v 26.54728317277458 -6.996513181744676 -13.939652631725558 
v 26.355596661597026 -8.445217400257597 -13.060622063948832 
v 26.08567432453396 -8.561942079850144 -12.122898848342478 
v 25.88609124198439 -10.070330564291046 -11.207652641619816 
v 25.686485454984044 -11.578886214651956 -10.292306054564486 
v 25.577345587802984 -12.403729280128546 -9.791815954581354 
v 25.468183296391313 -13.228743359503524 -9.291221817350534 
v 25.3589974193955 -14.053934768188787 -8.790520267894161 
v 25.249786626046397 -14.879313750811654 -8.289705005529147 
v 25.140550300910206 -15.704887140274542 -7.7887715507317345 
v 25.031287111160477 -16.530663080223455 -7.287715310252871 
v 24.92199611558133 -17.356647853885434 -6.7865325228736095 
v 24.812676597622914 -18.18284991870744 -6.28521762968437 
v 24.627623712052024 -19.581420065364252 -5.4366069207900525 
v 24.413018361178572 -21.203332945916916 -4.452479186409881 
v 23.615279590500386 -22.656602060605483 -3.9273836806887097 
v 22.475061460508925 -24.0481569682066 -3.538375617609092 
v 21.093160077145463 -25.08753434577265 -3.2524118378536713 
v 19.484003850904383 -25.88001675616563 -2.8998348719668425 
v 17.888238339853235 -26.39292077442941 -2.399191810905339 
v 16.271554199482114 -26.666743237246372 -1.5598463694923321 
v 14.864530806360879 -26.831211215243346 -0.570821563732484 
v 13.718157356581456 -26.969849125792454 0.9229877622244896 
v 12.747599414681982 -27.029974116382363 2.2784224330115848 
v 11.792993109946915 -27.09276903931622 3.6296892352103725 
v 10.6386410344398 -27.232377528045646 5.133900844713374 
v 9.53329277327922 -27.96994921845073 6.254715181790553 
v 8.33930161875187 -29.053346214613985 7.153497438161005 
v 7.184114095091604 -30.380615721035614 7.437258538373819 
v 6.048878134196094 -31.78316960466781 7.177075026439026 
v 5.024941290585707 -32.99094847752174 6.323648150699354 
v 4.109138234113359 -33.85902546850481 5.0243432173912375 
v 3.3154337029603247 -34.23358443673624 3.451955688784335 
v 2.607539567731887 -34.08651120970602 1.7989107740939123 
v 1.9469420777650055 -33.43002609647903 0.2590829918824954 
v 1.282416905074187 -32.34402956995548 -1.0152858099862652 
v 0.5690797463811892 -30.947810054945304 -1.8979514779010964 
v -0.2321497520569793 -29.38845339224053 -2.31271596471338 
v -1.1433226349361785 -27.83844698671393 -2.2319610863750317 
v -2.176205977072606 -26.468296850906334 -1.6752089099008913 
v -3.3138356656921033 -25.44081075306565 -0.7316877032041958 
v -4.5364716318582765 -24.893107638692765 0.4839297563558834 
v -5.781064615687146 -24.88594384365069 1.7807886986060415 
v -7.007648742341591 -25.475592380587997 2.9881317235507283 
v -8.126097686008594 -26.51317413355868 3.9148005012649856 
v -9.106958790169054 -28.003217862931965 4.37788561482515 
v -9.898146639193275 -29.561530886778762 4.417359129812301 
v -10.476166681868651 -31.225612886365337 3.669890508059923 
v -10.926710919003868 -32.55569732230648 2.7982277485978226 
v -11.219247334943077 -33.26797606894969 2.1723241006512826 
v -11.5186242675065 -34.12986280208418 1.7851837165630724 
v -11.972334924130887 -35.46929502742557 0.9073948732279642 
v -12.532276161688687 -36.83266103311493 -0.2906413110836353 
v -13.310220579696425 -37.52859920897142 -1.688699149730379 
v -14.264193800640179 -37.94814351658643 -3.1950992764151 
v -15.390725523604264 -37.88514509338266 -4.566787505130154 
v -16.648094146462313 -37.52027880903202 -5.808291582717514 
v -17.989966557612547 -36.838009130464094 -6.775278057326195 
v -19.358640951611065 -35.96822543254885 -7.523958354849507 
v -20.720527882421454 -34.91752407998733 -8.035147650652778 
v -22.024230134119684 -33.77908399777372 -8.41827204892359 
v -23.24837102392568 -32.4989586069863 -8.7419078107115 
v -24.348896607824056 -31.165626327449495 -9.092982503848626 
v -25.23769867364419 -29.66956782700378 -9.629532942369698 
v -25.91302816679038 -28.195302720326527 -10.277811005629566 
v -26.061443198966263 -26.63943835867132 -11.337449958808955 
v -26.107771973601796 -25.279412904483802 -12.30205168315378 
v -26.010314718640537 -25.044090927884945 -13.252136194091038 
v -26.145031397264074 -23.6318286207277 -14.21397352777937 
v -26.196157965122893 -22.130957346393597 -15.278470394710833 
v -25.422652138823537 -20.858679113736244 -16.36049903681153 
v -24.7073433484892 -19.681066838334612 -17.378254637492866 
v -24.122205671239943 -18.965399334721088 -17.990152844108756 
v -23.60145933430646 -18.108865378161163 -18.718605364633017 
v -23.084235491087796 -17.25736010747584 -19.4545218552095 
v -22.499159778006877 -16.541768387319323 -20.066355264772525 
v -21.864349222617424 -15.497619408371254 -20.954367853408588 
v -21.008366807689345 -14.088415851378118 -22.17227710461852 
v -20.48669735405551 -13.026902005761475 -23.11603229826358 
v -19.602678075192667 -12.603157355749243 -23.191736124987195 
v -18.967996799887004 -11.558281759079751 -24.094773613310576 
v -18.263705674279315 -10.125161851908887 -25.368910920093178 
v -17.931493715354904 -9.032311853695457 -26.38054770360145 
v -17.761824215477926 -8.277386459459107 -27.07313108506876 
v -17.404475418279517 -7.550238685976746 -27.719613013854932 
v -17.072413534696604 -6.4578822528786235 -28.73079291669126 
v -16.739528807950574 -4.976748973973581 -30.089613679714876 
v -16.59736956057228 -3.8807512822113766 -31.140542295552127 
v -16.436050078598186 -2.699415330008045 -32.27036247273095 
v -16.12307816834416 -1.306889436782812 -33.5478918309247 
v -15.008551675652267 -0.0686661688463323 -34.21840450703885 
v -13.525778628635829 0.9463718103180325 -34.468141387994216 
v -11.721351794322109 1.2836147790031824 -33.88603563876373 
v -10.201609529563529 1.5254163223790393 -33.34564571895576 
v -8.533080924155698 1.7623969499700856 -32.78315876283548 
v -6.869371650019292 2.0733077870958336 -32.246418839775004 
v -6.85760763476741 1.3585264937732158 -31.535108265531086 
v -5.189711743840885 1.5954172418892965 -30.972834616617757 
v -3.525363881601173 1.9064473809394804 -30.435888624264983 
v -2.4868276440148844 1.9520626893722257 -30.054312561634315 
v -1.32278334418327 2.1173914734583588 -29.661895232465632 
v -0.16152621229326145 2.3344049902062207 -29.287254554763 
v 0.8771484306717453 2.380026377538878 -28.905627642544886 
v 2.5450975925425596 2.616924584064349 -28.343336236664786 
v 4.209514500302488 2.9279679074899545 -27.80636779486374 
v 4.94325679416676 2.2547671093377146 -27.80605082719053 
v 6.445062135766129 2.4680679522882967 -27.29976910553402 
v 8.280660557701859 2.8111015337577507 -26.7075746472573 
v 9.571746864272258 3.768232425341901 -26.177895627073188 
v 10.417357973925764 5.444461165614718 -25.601285060129342 
v 10.911317399313724 6.880132597716957 -25.0939816564629 
v 10.94308321406495 7.7090065815118916 -25.643409719181218 
v 11.594249317872217 8.999793183646037 -25.19938849757643 
v 12.228502143622494 10.843221484479429 -24.54800162750666 
v 12.510365615214875 12.19158737793072 -23.915877251330873 
v 12.556682659521398 13.018159111668506 -24.469164189338628 
v 13.023515761364298 14.374989405397905 -23.98971974610838 
v 13.406302599965894 16.2061483582433 -23.13125812521373 
v 13.538982054400673 17.45579323995489 -22.282024255907753 
v 13.389645327170772 18.352299491844075 -22.681118455136563 
v 13.695335588120361 19.814647398448752 -21.995558272474906 
v 13.863916453935838 21.402431348884374 -20.91653158215355 
v 13.447771775487658 21.9032468710007 -19.110735593612063 
v 13.033836484266669 22.268326319774115 -17.568895748857898 
v 12.576116787034625 22.65613106636034 -15.896261636987113 
v 12.19104781883237 23.119469304204024 -14.225359588368216 
v 11.481337836253685 22.654680038106704 -13.688275671701675 
v 11.053986375649671 23.016755158059592 -12.126615527335014 
v 10.642541143252563 23.51183079718147 -10.34126059827409 
v 10.839339005016894 23.565978919303593 -8.60231036009005 
v 11.360997617578827 23.527046922550188 -6.854065116162702 
v 12.365500150201177 23.533606342287634 -5.375526106131399 
v 13.624500180323325 23.68890346086937 -4.108642976796142 
v 15.12301553578712 24.22493803370445 -3.217139838316443 
v 16.564642639594783 25.015729257313705 -2.6008095950837786 
v 17.803265032590968 26.447503512577068 -2.4166461071020224 
v 18.904783837254346 27.677112910417993 -2.3114342064073528 
v 19.994999654225616 28.89462652277676 -2.2038330389270535 
v 21.244598552946343 30.339103188572082 -2.018038482199794 
v 21.67577591466869 32.016213815371856 -1.7764531518232392 
v 21.624260662229428 33.834489087339556 -1.4461046905160226 
v 21.01047310252387 35.4377008019685 -1.0209372307044031 
v 19.94147806600682 36.82546959182092 -0.47908493552228365 
v 18.66357406358207 37.86591930491901 0.11840595251809617 
v 17.115709986863376 38.56180375372083 0.8400939534975155 
v 15.619106047918251 39.01982331032931 1.559954484596212 
v 13.968096350850795 39.10945603830838 2.446340640522077 
v 12.490602961812218 39.163046328182205 3.2430582075862544 
v 10.949924933552532 39.22872840860712 4.078500355412146 
v 9.366523178146863 39.31468129289491 4.928594248672164 
v 7.800698266465909 39.133869781574305 5.796246221678221 
v 6.280525692363739 38.97081593886912 6.655525220525074 
v 4.820254511667083 38.823296776931045 7.481436355860119 
v 3.191791515236033 38.635244065157686 8.383790001659964 
v 1.656647486189241 38.14191361832307 9.004235933157338 
v 0.043865043382221997 37.45292368391023 9.553088783814593 
v -1.3745174502254518 36.45353446203809 9.846176549604474 
v -2.6655233254077944 35.17727546749095 9.971849081543075 
v -3.58022928945544 33.649884960606904 9.872768714756571 
v -4.1062567952338815 31.937032665969813 9.612197687568646 
v -4.116552067323954 30.180259372317348 9.247265803981007 
v -3.6399764993062527 28.481569964288852 8.869738227742285 
v -2.717270764924877 26.967389620646514 8.58845974227804 
v -1.4541770159414513 25.689018052472008 8.500931639219823 
v 0.016948964649468858 24.68160664931793 8.703135176916613 
v 1.5534721732349779 23.936213236852318 9.27258689256281 
v 2.977165289805811 23.433346593913626 10.249356152787652 
v 4.099240222862857 23.143893638117994 11.639994891609865 
v 4.7345528466667295 23.021465861417056 13.323253802654017 
v 4.717219581593802 23.0169779307997 15.14937680713697 
v 4.094918630196458 23.053269667829046 16.828850458688198 
v 2.823588114763593 23.05904318234563 18.172041010521617 
v 1.3383903309127863 22.99065790022127 19.08321310225789 
v -0.5231977238846061 22.69331632513034 19.366610850359322 
v -2.1503105446110147 22.464670597644353 19.52848356776726 
v -3.794081113724873 22.23483874308145 19.69256284162192 
v -5.638717575148159 21.940199105914658 19.97337586851122 
v -7.103155609386529 21.11281371261324 20.445438336442344 
v -8.403712788740705 20.009270683789588 21.1142580888543 
v -9.077809224653807 18.65539646792903 22.119912261780808 
v -9.274236597753138 17.315631910008165 23.273936997338907 
v -8.54719470613942 16.1505781199952 24.609439283732577 
v -7.896604553842114 15.192005662678932 25.771451958766622 
v -7.197670718885873 15.289750879022852 26.469686741593257 
v -6.523671338411925 14.209695848616427 27.707754906566258 
v -5.8193785692319 13.17199850914327 28.96568533261443 
v -5.16004995987103 12.181413937453152 30.171621236962622 
v -4.453837843179481 11.049887372992167 31.46864990532181 
v -3.163758340129915 9.791969999480855 31.9334082422011 
v -1.9522017311009423 8.687676162682594 32.35996791480648 
v -0.7467362281870662 7.589951887469124 32.78947184378915 
v 0.5489909546956309 6.3265236470233885 33.25624339894898 
v 1.426686712374749 4.750212012066173 32.74681780059514 
v 2.030810847273334 3.3057915389786494 32.11101901650304 
v 2.3191971044895237 2.450501187657367 31.74164524778929 
v 2.775010365952405 1.6318760995662567 31.477085512026015 
v 3.410347024607244 0.11282844729624557 30.808437632898915 
v 3.935570796362036 -1.4448700484075285 30.13571533551913 
v 4.0171815323388484 -1.584059423993928 29.155107046414024 
v 4.557076113134854 -2.8749115556122 28.586905241579196 
v 5.163843632061082 -4.674451103665308 27.809739265244023 
v 5.525558850232191 -6.063218203118289 27.33336934965437 
v 5.878316898751804 -7.109424552295006 26.881544709349562 
v 6.2310468039816715 -8.155544561117727 26.429757624582173 
v 6.516258993004289 -9.25058655870291 26.05414029880219 
v 6.80330124594627 -10.101893646877532 25.686486694061024 
v 7.250286927874488 -11.427555859421982 25.113973948727672 
v 7.741263357992745 -13.312608229771957 24.467370288448986 
v 8.029407336552493 -14.74848859653321 24.094499678268132 
v 7.790955571240652 -15.558658378546388 24.607504656326466 
v 8.156896465897143 -16.963650109637516 24.125569672901836 
v 8.54457371691491 -18.89552521131204 23.623898758902243 
v 8.75834102831263 -20.382419888589236 23.32837856555402 
v 8.905192652798796 -21.374737216155616 23.098295296871495 
v 9.101403806472888 -22.352497627698106 22.84438969134985 
v 9.349374166597512 -24.07729752577534 22.50158586882175 
v 9.602791100450672 -25.789706134121467 22.104538851148643 
v 9.390508919159771 -26.526190318919294 22.742993952046845 
v 9.62563656568685 -28.16166084534963 22.41794437586716 
v 9.892597394840319 -29.965588860208808 21.99967711296137 
v 10.361137626115381 -31.1930918692417 20.66917429073413 
v 10.800227861027093 -32.29074394475823 19.46912575976359 
v 11.246421837395449 -33.39082858838641 18.269037658568564 
v 11.714080803532747 -34.616004501446625 16.941023491007446 
v 11.92975264650887 -34.933233137006624 15.115127435166785 
v 12.152820352816645 -35.16595943364745 13.456869400480445 
v 12.38228848079087 -35.40557870648011 11.785942836056739 
v 12.59624435229939 -35.72028790553324 9.974453644851456 
v 11.89484070564645 -35.77358508619702 8.259552741157178 
v 11.07610147188909 -35.82710825655943 6.76384364477807 
v 10.513393076807281 -35.89374377270748 5.960596709346038 
v 10.141390436564182 -35.922010916732674 5.051066683173967 
v 9.329032411932314 -35.97511693342922 3.567015138149795 
v 8.259928248673098 -36.1017195055115 2.040905641813107 
v 6.7893465271455735 -36.553069774759486 1.1150750782479537 
v 5.279769856979208 -37.06896648932727 0.35747314827042276 
v 3.604474941850334 -37.7835605783051 0.04047422340375326 
v 2.0612293726667015 -38.47371980503137 -0.19046700750961862 
v 0.5613462593961064 -39.15187776140571 -0.41556332753674613 
v -1.1559984504948853 -39.88440572577132 -0.7405209579957814 
v -2.6954874908940716 -40.210024748540796 -1.4377444420731098 
v -4.266252518356356 -40.302824983764864 -2.424827958176498 
v -5.511076163375003 -39.98553483458764 -3.6159831432453595 
v -6.46156025963256 -39.22236877933961 -5.018648192125658 
v -6.998819078422563 -38.19992285567966 -6.315907359958519 
v -6.927447700779752 -36.65776962610248 -7.45996201677948 
v -6.692415034536732 -35.23599445620469 -8.256741229451398 
v -6.509859599551011 -34.323877911447134 -8.60037024703111 
v -6.473026777467312 -33.52801526950631 -9.190785226543046 
v -6.2367284877115585 -32.09858416075306 -9.991854858801185 
v -5.884955840363429 -30.34099370429336 -10.654006046045218 
v -5.654689529155914 -28.615382968794496 -10.531128184618304 
v -5.569073283518623 -26.85741083742651 -9.983555790132566 
v -5.820750654893685 -25.416939186841656 -8.959379783952185 
v -6.406706550035217 -24.307488689629984 -7.6391963221253425 
v -7.356097397315704 -23.719855130072574 -6.224605476279767 
v -8.588667962320319 -23.6215531344567 -4.9054003545592835 
v -10.020511520453203 -23.98502357373451 -3.86967790478138 
v -11.539749720462373 -24.65487791923968 -3.1935104755475794 
v -13.102866977284364 -25.509955673784038 -2.924419525945051 
v -14.65280783293129 -26.378580629283327 -2.9851253429492193 
v -16.24125297828637 -27.148394376578644 -3.365324773340378 
v -17.822840062948554 -27.718142073208554 -3.909491117236788 
v -19.499560055686764 -27.913335296081573 -4.605934744773882 
v -21.110225212113445 -27.80037868444862 -5.275982086546187 
v -22.71562025478307 -26.949476370663294 -5.828727979721587 
v -24.11717897167723 -26.220905727790083 -6.3278697325938005 
v -25.510309698311357 -25.50092244581865 -6.815224893278269 
v -27.128286665717326 -24.643340757091256 -7.372299715117584 
v -28.199911826672786 -23.25918270059625 -7.5193005262588795 
v -28.95912268028318 -21.5896984680012 -7.461935699992823 
v -29.159949888684515 -19.838773818235246 -7.189532831444546 
v -28.965905486337576 -18.08449245728423 -6.81896158972043 
l 1 2
l 2 3
l 3 4
l 4 5
l 5 6
l 6 7
l 7 8
l 8 9
l 9 10
l 10 11
l 11 12
l 12 13
l 13 14
l 14 15
l 15 16
l 16 17
l 17 18
l 18 19
l 19 20
l 20 21
l 21 22
l 22 23
l 23 24
l 24 25
l 25 26
l 26 27
l 27 28
l 28 29
l 29 30
l 30 31
l 31 32
l 32 33
l 33 34
l 34 35
l 35 36
l 36 37
l 37 38
l 38 39
l 39 40
l 40 41
l 41 42
l 42 43
l 43 44
l 44 45
l 45 46
l 46 47
l 47 48
l 48 49
l 49 50
l 50 51
l 51 52
l 52 53
l 53 54
l 54 55
l 55 56
l 56 57
l 57 58
l 58 59
l 59 60
l 60 61
l 61 62
l 62 63
l 63 64
l 64 65
l 65 66
l 66 67
l 67 68
l 68 69
l 69 70
l 70 71
l 71 72
l 72 73
l 73 74
l 74 75
l 75 76
l 76 77
l 77 78
l 78 79
l 79 80
l 80 81
l 81 82
l 82 83
l 83 84
l 84 85
l 85 86
l 86 87
l 87 88
l 88 89
l 89 90
l 90 91
l 91 92
l 92 93
l 93 94
l 94 95
l 95 96
l 96 97
l 97 98
l 98 99
l 99 100
l 100 101
l 101 102
l 102 103
l 103 104
l 104 105
l 105 106
l 106 107
l 107 108
l 108 109
l 109 110
l 110 111
l 111 112
l 112 113
l 113 114
l 114 115
l 115 116
l 116 117
l 117 118
l 118 119
l 119 120
l 120 121
l 121 122
l 122 123
l 123 124
l 124 125
l 125 126
l 126 127
l 127 128
l 128 129
l 129 130
l 130 131
l 131 132
l 132 133
l 133 134
l 134 135
l 135 136
l 136 137
l 137 138
l 138 139
l 139 140
l 140 141
l 141 142
l 142 143
l 143 144
l 144 145
l 145 146
l 146 147
l 147 148
l 148 149
l 149 150
l 150 151
l 151 152
l 152 153
l 153 154
l 154 155
l 155 156
l 156 157
l 157 158
l 158 159
l 159 160
l 160 161
l 161 162
l 162 163
l 163 164
l 164 165
l 165 166
l 166 167
l 167 168
l 168 169
l 169 170
l 170 171
l 171 172
l 172 173
l 173 174
l 174 175
l 175 176
l 176 177
l 177 178
l 178 179
l 179 180
l 180 181
l 181 182
l 182 183
l 183 184
l 184 185
l 185 186
l 186 187
l 187 188
l 188 189
l 189 190
l 190 191
l 191 192
l 192 193
l 193 194
l 194 195
l 195 196
l 196 197
l 197 198
l 198 199
l 199 200
l 200 201
l 201 202
l 202 203
l 203 204
l 204 205
l 205 206
l 206 207
l 207 208
l 208 209
l 209 210
l 210 211
l 211 212
l 212 213
l 213 214
l 214 215
l 215 216
l 216 217
l 217 218
l 218 219
l 219 220
l 220 221
l 221 222
l 222 223
l 223 224
l 224 225
l 225 226
l 226 227
l 227 228
l 228 229
l 229 230
l 230 231
l 231 232
l 232 233
l 233 234
l 234 235
l 235 236
l 236 237
l 237 238
l 238 239
l 239 240
l 240 241
l 241 242
l 242 243
l 243 244
l 244 245
l 245 246
l 246 247
l 247 248
l 248 249
l 249 250
l 250 251
l 251 252
l 252 253
l 253 254
l 254 255
l 255 256
l 256 257
l 257 258
l 258 259
l 259 260
l 260 261
l 261 262
l 262 263
l 263 264
l 264 265
l 265 266
l 266 267
l 267 268
l 268 269
l 269 270
l 270 271
l 271 272
l 272 273
l 273 274
l 274 275
l 275 276
l 276 277
l 277 278
l 278 279
l 279 280
l 280 281
l 281 282
l 282 283
l 283 284
l 284 285
l 285 286
l 286 287
l 287 288
l 288 289
l 289 290
l 290 291
l 291 292
l 292 293
l 293 294
l 294 295
l 295 296
l 296 297
l 297 298
l 298 299
l 299 300
l 300 301
l 301 302
l 302 303
l 303 304
l 304 305
l 305 306
l 306 307
l 307 308
l 308 309
l 309 310
l 310 311
l 311 312
l 312 313
l 313 314
l 314 315
l 315 316
l 316 317
l 317 318
l 318 319
l 319 320
l 320 321
l 321 322
l 322 323
l 323 324
l 324 325
l 325 326
l 326 327
l 327 328
l 328 329
l 329 330
l 330 331
l 331 332
l 332 333
l 333 334
l 334 335
l 335 336
l 336 337
l 337 338
l 338 339
l 339 340
l 340 341
l 341 342
l 342 343
l 343 344
l 344 345
l 345 346
l 346 347
l 347 348
l 348 349
l 349 350
l 350 351
l 351 352
l 352 353
l 353 354
l 354 355
l 355 356
l 356 357
l 357 358
l 358 359
l 359 360
l 360 361
l 361 362
l 362 363
l 363 364
l 364 365
l 365 366
l 366 367
l 367 368
l 368 369
l 369 370
l 370 371
l 371 372
l 372 373
l 373 374
l 374 375
l 375 376
l 376 377
l 377 378
l 378 379
l 379 380
l 380 381
l 381 382
l 382 383
l 383 384
l 384 385
l 385 386
l 386 387
l 387 388
l 388 389
l 389 390
l 390 391
l 391 392
l 392 393
l 393 394
l 394 395
l 395 396
l 396 397
l 397 398
l 398 399
l 399 400
l 400 1
