v -12.224537649925932 -1.9994483116744814 -9.137153034857215 
v -12.642444075739965 -2.1389993140222354 -10.034883578928458 
v -13.035377525356752 -2.275415339736174 -10.944299417596584 
v -13.401656376429555 -2.4080740979466384 -11.865324996505203 
v -13.739555433847137 -2.536336001141762 -12.797754060537033 
v -14.047311205752806 -2.6595443906321745 -13.74123797594952 
v -14.323128717233741 -2.7770261644641563 -14.695273807847746 
v -14.565190003643846 -2.8880928614945978 -15.659192303734386 
v -14.77166441864561 -2.992042256369403 -16.632145968895486 
v -14.940720879333975 -3.088160519792664 -17.613097456856618 
v -15.070542151195077 -3.1757249963773932 -18.600808537306182 
v -15.159341248141946 -3.2540076481515703 -19.59382994365473 
v -15.205379986543145 -3.3222792050746217 -20.590492441362432 
v -15.206989686287647 -3.379814054337379 -21.58889949454306 
v -15.162593956063397 -3.425895887457772 -22.58692193999811 
v -15.070733434118507 -3.4598241080104093 -23.582195102268873 
v -14.930092280291321 -3.4809209831246113 -24.572118797752278 
v -14.739526131143762 -3.4885394986967966 -25.553860677461888 
v -14.498091139459827 -3.482071851836076 -26.524363343635702 
v -14.205073624850531 -3.460958484884571 -27.480355642250615 
v -13.860019767272702 -3.424697534186884 -28.418368479126716 
v -13.462764684303833 -3.3728545346781296 -29.334755429856166 
v -13.013460151118174 -3.305072189652026 -30.225718312389997 
v -12.51260015515406 -3.221079985405887 -31.087337765927664 
v -11.961043430294321 -3.1207034043863713 -31.915608733312332 
v -11.360032100956104 -3.003872471638205 -32.7064805759606 
v -10.711205548022097 -2.8706293491296035 -33.45590138484858 
v -10.016608836438701 -2.7211347365237017 -34.159865806490394 
v -9.278803554559161 -2.5556391874803137 -34.81457340781823 
v -8.501260415220342 -2.374349100086258 -35.41702186545915 
v -7.687884197210147 -2.177511017340602 -35.964790248731816 
v -6.842727613564798 -1.965447210494727 -36.45581722634026 
v -5.969951056937571 -1.7385484183604711 -36.88841047440866 
v -5.073781394134536 -1.4972657469413824 -37.26125253707021 
v -4.158471544860436 -1.2421019934645459 -37.57340098534094 
v -3.228261026847178 -0.9736024225005924 -37.824283419552124 
v -2.2873386843929437 -0.6923452923603586 -38.013687304968926 
v -1.3398091491132107 -0.39893276591930876 -38.14174606070501 
v -0.3896608239742757 -0.09398152275546094 -38.20892193740621 
v 0.5592620270303541 0.22188624588025965 -38.215985033503415 
v 1.5032835818633823 0.5480514554484708 -38.163989861624735 
v 2.4389168547573825 0.8839062118844878 -38.05424997799403 
v 3.3628801875338614 1.228861283757972 -37.88831129886108 
v 4.272116637966412 1.5823372517945917 -37.66792954465033 
v 5.163902116484511 1.9435564002778722 -37.395075952917345 
v 6.0359075985376895 2.3114698854778277 -37.07190337648866 
v 6.8861664027002165 2.6848584427225215 -36.70066194626822 
v 7.713084395952886 3.062298900179839 -36.283636865290774 
v 8.51537927465704 3.442308119487596 -35.823129936630494 
v 9.292023515789232 3.823481867414902 -35.321464732104715 
v 10.04223125533507 4.204497274314413 -34.78096391279192 
v 10.765443827518846 4.584113878798536 -34.20392918622564 
v 11.461314409485663 4.961173431132431 -33.59262387458846 
v 12.129691976683732 5.334598495931341 -32.94925832522145 
v 12.7706054423021 5.703390335367953 -32.27597747439152 
v 13.384247788264847 6.066626021866366 -31.57485055973717 
v 13.970960150538627 6.423454693269829 -30.84786346277459 
v 14.531216734782777 6.773093461291118 -30.096912906039414 
v 15.065610387237447 7.114822938848515 -29.323802509893337 
v 15.574839100361341 7.447982609399984 -28.53024022514291 
v 16.059446693990022 7.771966338489014 -27.71768979919648 
v 16.51915706393529 8.086278552732141 -26.8870742994268 
v 16.95360272465052 8.390444821880136 -26.039260840760758 
v 17.362431802444565 8.683997405597625 -25.17512344886689 
v 17.74530745796555 8.966475008322606 -24.29554377128821 
v 18.10190737613011 9.237422550836001 -23.40141192502474 
v 18.431923374064173 9.496390992689573 -22.493627408718055 
v 18.735061126653605 9.74293720749532 -21.573100076269892 
v 19.011040012599352 9.976623915229778 -20.640751163682612 
v 19.25959308355433 10.197019675531612 -19.697514361095354 
v 19.48046715884681 10.403698945961947 -18.744336921743546 
v 19.673423048202405 10.59624220918082 -17.7821807992922 
v 19.83823590477321 10.77423617297698 -16.81202380465479 
v 19.974695710658942 10.93727404706643 -15.834860773010364 
v 20.08260789695275 11.084955900542683 -14.851704731271067 
v 20.16179410015494 11.216889103812976 -13.863588055731308 
v 20.212093056562235 11.332688858783891 -12.871563609049225 
v 20.233361635949542 11.43197882096037 -11.876705845073584 
v 20.225476015505286 11.514391816987514 -10.880111869337949 
v 20.188332994551846 11.579570660987262 -9.882902442304102 
v 20.12185145006855 11.627169072814924 -8.886222911653824 
v 20.0259739324274 11.656852701075247 -7.891244059110803 
v 19.90066840004122 11.668300253386494 -6.899162846431498 
v 19.745930090800993 11.661204735955149 -5.911203044347294 
v 19.561783527235267 11.635274804015067 -4.928615727383433 
v 19.348284651251266 11.59023622408468 -3.952679616639046 
v 19.105523083107954 11.52583344829583 -2.984701251805433 
v 18.83362449791944 11.441831300240118 -2.02601497294714 
v 18.53275311148906 11.338016770856012 -1.0779826918959117 
v 18.203114265627285 11.214200921835621 -0.14199343253728916 
v 17.844957101310964 11.070220892859028 0.7805373811679582 
v 17.458577306099674 10.905942007661986 1.688168910858857 
v 17.044319920143842 10.721259972507992 2.5794361846528737 
v 16.60258218290859 10.516103159068031 3.45285169457781 
v 16.133816400411295 10.290434962013634 4.306907331478337 
v 15.638532810349142 10.044256219807043 5.140076677580727 
v 15.117302419999643 9.777607685235658 5.950817675813108 
v 14.570759789242521 9.490572530199936 6.737575693504621 
v 13.999605728511881 9.183278867142215 7.498786996187959 
v 13.40460987898554 8.855902267321282 8.232882644870308 
v 12.786613139902917 8.508668253921245 8.938292827286523 
v 12.14652990562922 8.141854745766924 9.613451630278702 
v 11.48535007301332 7.755794425239614 10.256802256539073 
v 10.804140777786627 7.3508770018909875 10.866802684496644 
v 10.104047817292484 6.927551341288422 11.441931765122066 
v 9.38629671579585 6.4863274268462145 11.980695743880542 
v 8.6521933880787 6.027778120862412 12.481635190004871 
v 7.903124357062675 5.552540689755979 12.943332308728346 
v 7.140556481844464 5.061318057614213 13.364418605181472 
v 6.36603615427748 4.554879751974751 13.743582861305592 
v 5.581187921624258 4.034062503847331 14.079579379969456 
v 4.7877125189551215 3.4997704812825137 14.371236441305419 
v 3.9873841123818243 2.952975000305815 14.617464908683486 
v 3.1820480420885233 2.3947146639970986 14.817267012000533 
v 2.3731788853708924 1.8267852021499007 14.970003683763991 
v 1.562096315864146 1.2512775792938529 15.075252200060417 
v 0.7501214100590069 0.670298757952131 15.132708863744766 
v -0.06142513271168242 0.08596745744008828 15.142189035998781 
v -0.8712250477698122 -0.4995902590205523 15.103627268331797 
v -1.677964436543412 -1.0842453050374132 15.017077379213525 
v -2.480335820662333 -1.665869984754226 14.882712470227371 
v -3.2770401466085812 -2.2423423798092927 14.700824842186366 
v -4.066788804933241 -2.811550757757272 14.47182584415586 
v -4.8483057650086145 -3.3713980756763378 14.19624556951683 
v -5.620329507525551 -3.9198063563062715 13.874732574673175 
v -6.38161538792537 -4.454721389812179 13.508053323249984 
v -7.130932814682001 -4.974124336042269 13.097095386610498 
v -7.866593977491443 -5.477019889919343 12.643182227574352 
v -8.586982954454253 -5.9625032197624135 12.147722478258993 
v -9.290566049883534 -6.429742303109952 11.612195236895444 
v -9.975893790214094 -6.877977922231008 11.03814125757877 
v -10.641602151944236 -7.306523129193215 10.427154371845479 
v -11.28641323162626 -7.71476234543008 9.78087316386311 
v -11.909135373784178 -8.102150115922726 9.100972955636086 
v -12.508662799910576 -8.468209556727526 8.389158144271496 
v -13.083974780649113 -8.812530532599492 7.647154927004431 
v -13.63413439482979 -9.134767601378751 6.876704442377787 
v -14.158286919491722 -9.43463776098909 6.07955634915985 
v -14.655657894921262 -9.711918033724684 5.257462858146503 
v -15.125550908070693 -9.966442920999059 4.4121732260194575 
v -15.567345136584171 -10.19810175996444 3.5454287149563295 
v -15.98049269411609 -10.406836011438115 2.658958016741132 
v -16.36451581575475 -10.592636506450162 1.7544731357184717 
v -16.719003920229813 -10.755540676504637 0.8336657210736125 
v -17.04361058325024 -10.8956297903699 -0.10179616440511047 
v -17.338050453849984 -11.013026217923796 -1.0502708547322908 
v -17.602096143065488 -11.10789073931135 -2.010145488263999 
v -17.835575111680125 -11.180419915456579 -2.979838032182237 
v -18.03836658118865 -11.230843533830978 -3.957798945157776 
v -18.21039848959466 -11.259422141339206 -4.942512500449779 
v -18.351644511187192 -11.26644467425332 -5.932497792371443 
v -18.462121157072676 -11.252226193321565 -6.926309449406081 
v -18.54188497098533 -11.21710573050423 -7.922538077335847 
v -18.59102983277747 -11.161444252251512 -8.919810455583923 
v -18.609684380010904 -11.085622742838078 -9.91678950960636 
v -18.59800955623859 -10.990040410005147 -10.912174081636309 
v -18.55619629288464 -10.87511301403013 -11.904698521412937 
v -18.484463330101203 -10.7412713203414 -12.893132117749538 
v -18.383055180599918 -10.588959674915419 -13.876278390936742 
v -18.252240239219635 -10.418634700928086 -14.852974265061592 
v -18.092309039894705 -10.230764114473686 -15.822089138373096 
v -17.903572660722176 -10.02582565660495 -16.78252386885815 
v -17.68636127698323 -9.804306138477662 -17.733209691225266 
v -17.441022861245504 -9.566700595994137 -18.673107080540795 
v -17.167922029048658 -9.313511550022954 -19.601204576835304 
v -16.867439028146286 -9.045248368018992 -20.51651758410611 
v -16.539968868832805 -8.762426722669664 -21.41808715629311 
v -16.185920592514805 -8.465568143042221 -22.304978782005687 
v -15.805716675382344 -8.155199653595544 -23.17628117903223 
v -15.399792563787722 -7.831853496340728 -24.031105108974753 
v -14.96859633773792 -7.496066931381098 -24.868582221720168 
v -14.512588498743076 -7.148382111027946 -25.68786393888859 
v -14.03224187812904 -6.7893460226673765 -26.488120384886564 
v -13.528041661808357 -6.4195104955406945 -27.268539373738943 
v -13.000485527403649 -6.03943226659098 -28.028325459474885 
v -12.450083889522737 -5.649673100517435 -28.76669905749885 
v -11.877360248888678 -5.25079995916255 -29.482895644082976 
v -11.282851640924022 -4.843385215331866 -30.176165040869304 
v -10.667109179266452 -4.428006906106142 -30.845770791067533 
v -10.03069868960604 -4.0052490206863025 -31.49098963382341 
v -9.374201428327662 -3.575701817276677 -32.11111108365388 
v -8.698214890761006 -3.1399621699184435 -32.705437114418885 
v -8.003320360209472 -2.6986439168655783 -33.273250467001354 
v -7.289505647040095 -2.252556949512138 -33.813187474886846 
v -6.5565925424544105 -1.8026227025069899 -34.323541076809505 
v -5.804529032654808 -1.3498331767429512 -34.80255290390655 
v -5.0334012269278166 -0.8952546015437299 -35.248420453962986 
v -4.243445787873767 -0.4400307029877848 -35.65930580820024 
v -3.435061877167527 0.014615001155545386 -36.033346335863584 
v -2.6088237858436014 0.46737722990727615 -36.368666795788116 
v -1.7654929458719744 0.9168681227299249 -36.66339373674531 
v -0.9060293904238838 1.3616175097753687 -36.91567192516895 
v -0.03160232615464912 1.800074450463806 -37.12368284208011 
v 0.8564005176636126 2.2306101968404968 -37.28566521221817 
v 1.7563651214193472 2.6515227294250145 -37.399937477507954 
v 2.666445423997249 3.061043019215263 -37.464922052400105 
v 3.584552129306178 3.4573611488455818 -37.47916563047706 
v 4.508244539842092 3.8388923264121 -37.44132385455884 
v 5.434734544398645 4.204313927224744 -37.35020096222693 
v 6.3609354853382865 4.552524721884657 -37.204824372457225 
v 7.283490918384414 4.882684076266016 -37.00449538923335 
v 8.198862415337944 5.194082754454219 -36.74879423570533 
v 9.10339136236462 5.486038124509481 -36.4375734593699 
v 9.993321093835386 5.757904423178454 -36.070975421898545 
v 10.864822691261413 6.009083405042701 -35.64944705885425 
v 11.714022728386112 6.239034735779773 -35.17375196628027 
v 12.537033612516712 6.447286457511026 -34.64497994904479 
v 13.329986968477506 6.633445350331044 -34.06455238252949 
v 14.089068014684159 6.797206460482711 -33.43422342152666 
v 14.810551100768265 6.938361891271225 -32.756076835645494 
v 15.490835657921666 7.056808601564129 -32.03251827209568 
v 16.126481901315017 7.152555032134198 -31.26626289984713 
v 16.714245619346144 7.225726364637031 -30.460318240087553 
v 17.251111208501612 7.276568420464083 -29.617963589773336 
v 17.734546377734056 7.305446711719827 -28.742852222455173 
v 18.163129336230682 7.312779045183567 -27.839188405934166 
v 18.536052261099353 7.299078599191332 -26.91125158006671 
v 18.85289671844739 7.264968238467675 -25.963226028248084 
v 19.113610851384625 7.211166951117712 -24.999161601838843 
v 19.318483383280892 7.138476069388936 -24.0229391284065 
v 19.468114560700453 7.047765434789103 -23.03824131728213 
v 19.56338508543897 6.9399598336596116 -22.048529110335192 
v 19.6054238783799 6.816025956934183 -21.05702340186479 
v 19.595575468880526 6.676960096616874 -20.066691893815012 
v 19.53536770916459 6.523776744605563 -19.080240750294678 
v 19.426480413181473 6.357498214394442 -18.100110634497682 
v 19.270715414256816 6.179145363853237 -17.128476656719304 
v 19.06996843128929 5.989729459002047 -16.167251731125138 
v 18.826203033152787 5.7902451852744585 -15.218092828620158 
v 18.541426898407245 5.581664784614033 -14.282409620312416 
v 18.217670484520422 5.364933273982129 -13.36137502725791 
v 17.85696814882405 5.140964683308908 -12.455937224042382 
v 17.46134170290257 4.9106392382376445 -11.566832683150482 
v 17.032786332972723 4.6748014047034845 -10.69459989117056 
v 16.57325878052594 4.434258707878991 -9.839593414260108 
v 16.08466764921005 4.189781236703843 -9.001998036955245 
v 15.568865684546248 3.94210174649101 -8.181842743774244 
v 15.02764386142226 3.6919162753932846 -7.379014355965563 
v 14.462727109153127 3.4398851952981393 -6.593270675369308 
v 13.875771504066659 3.186634623532034 -5.824253023190181 
v 13.268362763936603 2.932758128200552 -5.0714980932698435 
v 12.642015886142257 2.6788186667374756 -4.334449067151332 
v 11.998175781288186 2.425350704017657 -3.6124659619590522 
v 11.338218765407717 2.1728624629971534 -2.904835202099122 
v 10.663454786159972 1.9218382671236005 -2.210778422317482 
v 9.975130271090517 1.6727409395986546 -1.529460523083882 
v 9.274431498646024 1.4260142298984169 -0.8599970099666615 
v 8.562488404893465 1.182085242723003 -0.20146065699662993 
v 7.840378750555778 0.9413668487325741 0.44711245965252877 
v 7.10913258386529 0.7042600600311769 1.0867175066791257 
v 6.3697369501660575 0.4711563581028729 1.7183759584371692 
v 5.623140794475123 0.24243996224799208 2.3431311277626428 
v 4.8702600080134655 0.018490023037923995 2.962044121960558 
v 4.1119826087688764 -0.20031726509228098 3.576190153175785 
v 3.34917403584885 -0.4136066333475237 4.186655129341825 
v 2.582682527343 -0.6210018002268485 4.7945324766803745 
v 1.8133445665904067 -0.822123631688736 5.400920135222959 
v 1.0419903849026353 -1.0165884064151156 6.006917668942131 
v 0.26944948617392483 -1.204006199268516 6.6136234516925585 
v -0.5034437100401375 -1.3839793654232904 7.222131788460165 
v -1.2757768821849156 -1.5564631153540478 7.833513348469386 
v -2.046463827556105 -1.7223110480700006 8.448795825703879 
v -2.814416562453553 -1.882370904940534 9.069010035267677 
v -3.5785373890102763 -2.037483850513985 9.695185152065688 
v -4.33771107798654 -2.188483885627767 10.328343798131797 
v -5.090797141134136 -2.336197329968464 10.96949685258525 
v -5.836622250453677 -2.4814423297912147 11.61963792147919 
v -6.573972847281059 -2.6250283429356234 12.279737375914927 
v -7.301587964087085 -2.767755544711066 12.9507358521544 
v -8.018179448570107 -2.91036241784054 13.633519517334573 
v -8.72290285107129 -3.052628787465805 14.328615676891387 
v -9.414871936023756 -3.194327187365168 15.036523700935982 
v -10.093156870133992 -3.3352222587296536 15.757711350092595 
v -10.756782601516274 -3.4750701724373014 16.49261077602642 
v -11.404727439929552 -3.6136180766369606 17.241614156484122 
v -12.03592187940954 -3.7506035776333397 18.00506895078092 
v -12.649247709300866 -3.8857542631349635 18.783272764291187 
v -13.243537464905618 -4.018787278135766 19.57646781423067 
v -13.817574274277353 -4.149408964975011 20.38483499367392 
v -14.370092163004797 -4.277314580443756 21.208487536453227 
v -14.899776884015695 -4.402188104157141 22.04746429245135 
v -15.405267344325381 -4.5237021537617546 22.90172263094195 
v -15.885157705057981 -4.641518023859633 23.77113099914811 
v -16.338000234745675 -4.755285866760453 24.655461174163122 
v -16.762308998587514 -4.864645034266825 25.554380258862302 
v -17.15656446771002 -4.969224600590633 26.46744248644692 
v -17.51921913216459 -5.0686440871171445 27.394080913768477 
v -17.848704199035595 -5.162514409994704 28.333599100488055 
v -18.143437452204967 -5.250439071338821 29.28516288926 
v -18.401832342595245 -5.332015614100704 30.247792421229327 
v -18.622308366662892 -5.406837359257191 31.220354540831476 
v -18.803302776126014 -5.474495441825613 32.2015557636975 
v -18.943283643016063 -5.534581159190624 33.18993600078742 
v -19.04076428084566 -5.586688641256591 34.183863249956154 
v -19.094318994794705 -5.630417846930936 35.181529482125725 
v -19.102600101288957 -5.665377885347295 36.18094796209679 
v -19.06435612031882 -5.691190653031679 37.17995225267698 
v -18.97845100268552 -5.707494769922567 38.17619715405482 
v -18.84388420969397 -5.713949787851194 39.16716182699148 
v -18.659811415557424 -5.710240634907218 40.15015533724814 
v -18.425565554174064 -5.696082248261738 41.122324838613785 
v -18.140677883537887 -5.671224336772268 42.08066658202044 
v -17.804898694720766 -5.635456203405735 43.02203989786528 
v -17.418217250247327 -5.588611546610081 43.94318424749614 
v -16.9808805011261 -5.530573149730347 44.840739378001295 
v -16.49341010526344 -5.461277358936101 45.71126854265559 
v -15.956617254933912 -5.380718243465602 46.55128466889131 
v -15.37161481973073 -5.288951327858383 47.35727926839922 
v -14.739826325982865 -5.186096784767815 48.12575379248009 
v -14.062991325535098 -5.0723419793729105 48.85325304321184 
v -13.343166756930094 -4.947943262688566 49.536400161028546 
v -12.582723970497561 -4.813226921402559 50.171932625943406 
v -11.784341174820492 -4.668589206262957 50.75673863707456 
v -10.950991163703904 -4.51449537931397 51.28789317747338 
v -10.085924297316163 -4.351477742026312 51.7626930323129 
v -9.192646834875596 -4.180132630967935 52.17869001148116 
v -8.274894844588216 -4.001116394289781 52.533721634907494 
v -7.336604044391875 -3.815140389968608 52.825938571832985 
v -6.381876048992707 -3.6229650743441137 53.0538281837898 
v -5.4149416092494365 -3.4253932758398626 53.216233604036454 
v -4.440121524053245 -3.2232627727044085 53.31236789104745 
v -3.461785978003358 -3.0174383140679777 53.34182291659937 
v -2.4843131068796724 -2.8088032396477645 53.3045727852247 
v -1.5120476148383615 -2.5982508643271007 53.2009717257503 
v -0.5492602614244145 -2.3866757991127625 53.03174654129507 
v 0.39989099666709443 -2.1749653794578094 52.79798384539657 
v 1.3313974828439208 -1.9639913657359944 52.50111244308437 
v 2.241433251838111 -1.754602069161262 52.14288133156914 
v 3.1263849694796133 -1.547615040306104 51.72533389154179 
v 3.982877788868927 -1.3438104374325788 51.25077891377881 
v 4.807796912461105 -1.143925169100365 50.72175915499414 
v 5.5983046543084765 -0.9486478810261257 50.141018141118 
v 6.351852939392761 -0.7586148320181937 49.5114659361133 
v 7.0661912929736435 -0.5744066790299316 48.83614457185205 
v 7.739370478258094 -0.3965461678900836 48.11819379216927 
v 8.369742032375813 -0.2254967048595084 47.36081770535848 
v 8.95595402648878 -0.061661765438364526 46.56725286786086 
v 9.496943434671115 0.09461491877305961 45.74073824168049 
v 9.99192553767048 0.2430484666389656 44.88448738302092 
v 10.440380812304252 0.3834113278422274 44.00166313341039 
v 10.842039766217692 0.515531222975815 43.09535500037842 
v 11.196866172715431 0.6392886318255329 42.16855933525971 
v 11.505039143400003 0.7546139180488665 41.22416234304894 
v 11.7669344496387 0.8614841758385231 40.264925894936184 
v 11.98310546971536 0.9599198796016053 39.29347605916883 
v 12.154264099128268 1.0499814116224913 38.312294220642094 
v 12.28126191893533 1.131765535533854 37.32371062409363 
v 12.36507187316524 1.205401875590936 36.32990014957483 
v 12.4067706626852 1.2710494535825034 35.332880111312626 
v 12.407522020831506 1.3288933270213161 34.334509861279344 
v 12.368560996570329 1.3791413642874253 33.33649197574889 
v 12.291179334689406 1.4220211848453503 32.34037480577145 
v 12.176712010002761 1.4577772856660278 31.34755617978096 
v 12.026524944037085 1.4866683686543154 30.359288057440175 
v 11.842003908231664 1.5089648782695697 29.3766819473785 
v 11.624544597247187 1.5249467536522567 28.40071491684171 
v 11.375543839351096 1.5349013954273514 27.43223603770975 
v 11.096391897754742 1.5391218439170296 26.47197313022354 
v 10.788465806892393 1.5379051627162723 25.520539682583635 
v 10.453123680595292 1.5315510194099198 24.57844184093519 
v 10.091699924556185 1.520360453576236 23.646085379828932 
v 9.705501283035462 1.504634821065025 22.723782577824736 
v 9.295803649080282 1.4846749027925639 21.81175893633712 
v 8.863849568287508 1.4607801658979631 20.910159692027605 
v 8.410846368043824 1.4332481649966478 20.019056083995007 
v 7.9379648469585975 1.402374071391797 19.138451346711033 
v 7.446338462635592 1.3684503184145285 18.2682864081344 
v 6.9370629598107705 1.331766351514699 17.4084452797757 
v 6.4111963850476 1.292608472278436 16.558760131755406 
v 5.869759438490296 1.251259766173333 15.7190160511877 
v 5.313736117512256 1.2080001044898248 14.888955486619585 
v 4.744074611729229 1.1631062116631357 14.068282385356609 
v 4.161692208434626 1.1168454047062144 13.256663640210565 
v 3.5680470348119777 1.0685140067563452 12.453367816197366 
v 2.964554265699342 1.0174013937188866 11.657617132472083 
v 2.3525900968169666 0.9627922486454649 10.868596638205249 
v 1.7334976075413935 0.9039662108295347 10.085461893543911 
v 1.108592930342267 0.8401975184478544 9.307346185519943 
v 0.47917166524781235 0.770754683628212 8.533367379015171 
v -0.15348447049501965 0.6949002441017709 7.762634539414903 
v -0.788100909299629 0.6118906210832294 6.994254279192646 
v -1.4234536679129102 0.5212302895702403 6.227348442979683 
v -2.05852095377648 0.42342785509920605 5.461083878689185 
v -2.692288006226337 0.3189844440426906 4.694619197355564 
v -3.323742363025019 0.20839462251458504 3.9271086237789654 
v -3.951869072748098 0.0921474475212954 3.157705909413976 
v -4.575645962003481 -0.02927237726233705 2.3855682498730313 
v -5.194038961844745 -0.1553832530699086 1.609860276428362 
v -5.805997513543347 -0.28570535811777514 0.8297581735126666 
v -6.410450076147599 -0.4197592528289168 0.04445397408542233 
v -7.006299761710715 -0.5570644307655164 -0.7468399160214787 
v -7.592420137904571 -0.6971378302348602 -1.5448859271962507 
v -8.167651229770717 -0.8394923154162383 -2.350416197761511 
v -8.730795743064645 -0.9836351417548699 -3.1641270478235666 
v -9.280615568754213 -1.1290664244595023 -3.986673030835476 
v -9.81582862850197 -1.2752776269025297 -4.818660521371681 
v -10.33510612082107 -1.4217500872606235 -5.660640795481074 
v -10.837070240379976 -1.567953604990251 -6.513102570473687 
v -11.320292452530111 -1.713345111477296 -7.376463978043318 
v -11.783292415131871 -1.857367452271755 -8.251063953498962 
l 1 2
l 2 3
l 3 4
l 4 5
l 5 6
l 6 7
l 7 8
l 8 9
l 9 10
l 10 11
l 11 12
l 12 13
l 13 14
l 14 15
l 15 16
l 16 17
l 17 18
l 18 19
l 19 20
l 20 21
l 21 22
l 22 23
l 23 24
l 24 25
l 25 26
l 26 27
l 27 28
l 28 29
l 29 30
l 30 31
l 31 32
l 32 33
l 33 34
l 34 35
l 35 36
l 36 37
l 37 38
l 38 39
l 39 40
l 40 41
l 41 42
l 42 43
l 43 44
l 44 45
l 45 46
l 46 47
l 47 48
l 48 49
l 49 50
l 50 51
l 51 52
l 52 53
l 53 54
l 54 55
l 55 56
l 56 57
l 57 58
l 58 59
l 59 60
l 60 61
l 61 62
l 62 63
l 63 64
l 64 65
l 65 66
l 66 67
l 67 68
l 68 69
l 69 70
l 70 71
l 71 72
l 72 73
l 73 74
l 74 75
l 75 76
l 76 77
l 77 78
l 78 79
l 79 80
l 80 81
l 81 82
l 82 83
l 83 84
l 84 85
l 85 86
l 86 87
l 87 88
l 88 89
l 89 90
l 90 91
l 91 92
l 92 93
l 93 94
l 94 95
l 95 96
l 96 97
l 97 98
l 98 99
l 99 100
l 100 101
l 101 102
l 102 103
l 103 104
l 104 105
l 105 106
l 106 107
l 107 108
l 108 109
l 109 110
l 110 111
l 111 112
l 112 113
l 113 114
l 114 115
l 115 116
l 116 117
l 117 118
l 118 119
l 119 120
l 120 121
l 121 122
l 122 123
l 123 124
l 124 125
l 125 126
l 126 127
l 127 128
l 128 129
l 129 130
l 130 131
l 131 132
l 132 133
l 133 134
l 134 135
l 135 136
l 136 137
l 137 138
l 138 139
l 139 140
l 140 141
l 141 142
l 142 143
l 143 144
l 144 145
l 145 146
l 146 147
l 147 148
l 148 149
l 149 150
l 150 151
l 151 152
l 152 153
l 153 154
l 154 155
l 155 156
l 156 157
l 157 158
l 158 159
l 159 160
l 160 161
l 161 162
l 162 163
l 163 164
l 164 165
l 165 166
l 166 167
l 167 168
l 168 169
l 169 170
l 170 171
l 171 172
l 172 173
l 173 174
l 174 175
l 175 176
l 176 177
l 177 178
l 178 179
l 179 180
l 180 181
l 181 182
l 182 183
l 183 184
l 184 185
l 185 186
l 186 187
l 187 188
l 188 189
l 189 190
l 190 191
l 191 192
l 192 193
l 193 194
l 194 195
l 195 196
l 196 197
l 197 198
l 198 199
l 199 200
l 200 201
l 201 202
l 202 203
l 203 204
l 204 205
l 205 206
l 206 207
l 207 208
l 208 209
l 209 210
l 210 211
l 211 212
l 212 213
l 213 214
l 214 215
l 215 216
l 216 217
l 217 218
l 218 219
l 219 220
l 220 221
l 221 222
l 222 223
l 223 224
l 224 225
l 225 226
l 226 227
l 227 228
l 228 229
l 229 230
l 230 231
l 231 232
l 232 233
l 233 234
l 234 235
l 235 236
l 236 237
l 237 238
l 238 239
l 239 240
l 240 241
l 241 242
l 242 243
l 243 244
l 244 245
l 245 246
l 246 247
l 247 248
l 248 249
l 249 250
l 250 251
l 251 252
l 252 253
l 253 254
l 254 255
l 255 256
l 256 257
l 257 258
l 258 259
l 259 260
l 260 261
l 261 262
l 262 263
l 263 264
l 264 265
l 265 266
l 266 267
l 267 268
l 268 269
l 269 270
l 270 271
l 271 272
l 272 273
l 273 274
l 274 275
l 275 276
l 276 277
l 277 278
l 278 279
l 279 280
l 280 281
l 281 282
l 282 283
l 283 284
l 284 285
l 285 286
l 286 287
l 287 288
l 288 289
l 289 290
l 290 291
l 291 292
l 292 293
l 293 294
l 294 295
l 295 296
l 296 297
l 297 298
l 298 299
l 299 300
l 300 301
l 301 302
l 302 303
l 303 304
l 304 305
l 305 306
l 306 307
l 307 308
l 308 309
l 309 310
l 310 311
l 311 312
l 312 313
l 313 314
l 314 315
l 315 316
l 316 317
l 317 318
l 318 319
l 319 320
l 320 321
l 321 322
l 322 323
l 323 324
l 324 325
l 325 326
l 326 327
l 327 328
l 328 329
l 329 330
l 330 331
l 331 332
l 332 333
l 333 334
l 334 335
l 335 336
l 336 337
l 337 338
l 338 339
l 339 340
l 340 341
l 341 342
l 342 343
l 343 344
l 344 345
l 345 346
l 346 347
l 347 348
l 348 349
l 349 350
l 350 351
l 351 352
l 352 353
l 353 354
l 354 355
l 355 356
l 356 357
l 357 358
l 358 359
l 359 360
l 360 361
l 361 362
l 362 363
l 363 364
l 364 365
l 365 366
l 366 367
l 367 368
l 368 369
l 369 370
l 370 371
l 371 372
l 372 373
l 373 374
l 374 375
l 375 376
l 376 377
l 377 378
l 378 379
l 379 380
l 380 381
l 381 382
l 382 383
l 383 384
l 384 385
l 385 386
l 386 387
l 387 388
l 388 389
l 389 390
l 390 391
l 391 392
l 392 393
l 393 394
l 394 395
l 395 396
l 396 397
l 397 398
l 398 399
l 399 400
l 400 1
