v -3.9066306409048304 7.373815900681667 3.2206421261821254 
v -5.115610935473982 6.199386800504426 3.750053573379822 
v -5.99177294123563 4.769950525365243 4.489614791827717 
v -6.5487121294734845 3.3406306675319137 5.316962205102247 
v -6.472116006622045 1.814122069027871 6.439498653512722 
v -6.40508992107958 0.4783561998439105 7.42177041817259 
v -6.1402072143006095 -0.24601024938544228 8.047189652856469 
v -6.068468160509109 -1.675715928767064 9.09854101444462 
v -5.996735841017599 -3.1052731574273023 10.149783393900355 
v -5.956689965756497 -3.9033493317022514 10.736658509591043 
v -5.916652427545153 -4.701262032178015 11.323413360878053 
v -5.876623666365613 -5.498997532764637 11.910037901046158 
v -5.836604261937616 -6.296546105260162 12.496525054590657 
v -5.796593635484745 -7.0939214153759025 13.082884777149516 
v -5.7565901897054115 -7.891152756609444 13.669138576784977 
v -5.71659255879332 -8.688267365321627 14.255306607050402 
v -5.676600364583193 -9.485274562580349 14.841395631392219 
v -5.636614348299333 -10.28215898884263 15.427394264566933 
v -5.596635161868171 -11.078905985097562 16.013291950923858 
v -5.524896680255121 -12.508586531671764 17.064625110639977 
v -5.453166129891068 -13.938115165266757 18.115845920716275 
v -4.927019445933057 -14.47210976784531 18.770642258334167 
v -4.85986293308257 -15.810475039163048 19.754825634009237 
v -4.783405200943663 -17.334215533832918 20.875326040575505 
v -5.186781478953662 -18.89820442683643 21.52441849251711 
v -5.858625320677924 -20.537509053494833 21.998592521774157 
v -6.873733910406384 -21.98023268122436 22.152019607594053 
v -8.139768754099823 -23.271592787079516 22.13112802745398 
v -9.614225861500877 -24.257523330868498 21.977425434943225 
v -11.24295203451281 -24.993173584629794 21.797270005367828 
v -12.966959167645767 -25.441186135435615 21.69381195590637 
v -14.743631737812919 -25.665023826588627 21.745844321983725 
v -16.50710810547879 -25.68684419276489 22.050205723921863 
v -18.193568543379378 -25.57304836611189 22.639455317135326 
v -19.720069198637134 -25.370536462305783 23.565586382111686 
v -21.01689625488863 -25.144081773264322 24.772897214046164 
v -22.01056413844264 -24.941521505812833 26.26602284128236 
v -22.698292524641833 -24.798003055666765 27.896138943432653 
v -23.024646135403966 -24.74702735399726 29.681661554262366 
v -23.103546117861626 -24.764369898194545 31.43523540364052 
v -22.834175860832943 -24.876320403465467 33.24554960845929 
v -22.445646826682868 -25.00615441818204 34.92506757098912 
v -21.6903632278927 -25.139462014073594 36.624896464685015 
v -20.992105155752544 -25.28641654461301 38.15708634358719 
v -20.32694951433094 -25.430833733904088 39.625676757031414 
v -19.541712496738377 -25.56942584667831 41.392914070192425 
v -18.823625323817208 -25.452646385433294 42.86293028757031 
v -17.939984029544043 -24.984952503307493 44.528417504019856 
v -17.199248505526814 -24.49175507403938 45.878243302788526 
v -16.808431619934506 -24.485358247138333 46.7936415330795 
v -16.112867788448906 -24.117209996432116 48.10464030806596 
v -15.181279740773723 -23.49693879118315 49.802252346258214 
v -14.467014766133374 -22.78817443648239 50.96979654857419 
v -13.988102461010715 -22.184357489673566 51.66366836906992 
v -13.512765960279088 -21.867868270927577 52.52986341990936 
v -12.763859492378481 -21.124729101380545 53.754032883429396 
v -11.862770129157829 -19.98862744621826 55.059575619450044 
v -11.144486735128345 -18.67748671454955 55.784592565122125 
v -10.428789109246623 -16.89865201216744 56.12246458913929 
v -9.836757844889997 -15.42718391041737 56.401954555216896 
v -9.471216369283223 -14.518646488459085 56.574521864806826 
v -9.105602847459782 -13.609930187444201 56.747123345620594 
v -8.739881435822317 -12.700945458469608 56.91977545867056 
v -8.374024367300338 -11.791623603698097 57.09249178353451 
v -8.008040147549309 -10.881985856158293 57.26526830733303 
v -7.641964010654941 -9.972119426579322 57.43808792384319 
v -7.275824874021386 -9.062096481417337 57.610937406597714 
v -6.6547771059800285 -7.518509476678249 57.90412614041897 
v -5.969048187644887 -5.8141598542651804 58.22784930974578 
v -5.317771938678575 -4.20802803056374 58.12765145082088 
v -4.616583699831258 -2.538608731695571 57.89538559546867 
v -3.87687680646312 -1.012127927887999 57.44199473665354 
v -3.061321515455771 0.4922735260446537 56.855045789018384 
v -2.1634876936724985 1.823860505180347 56.11446564242274 
v -1.1702746952139171 3.0497627379144725 55.24826421063216 
v -0.09237690411233268 4.060542849208888 54.26031177286776 
v 1.0593597796958927 4.8902986509804895 53.163570166022275 
v 2.246462896335778 5.474409078189014 51.967824785570436 
v 3.4357428454319816 5.845276047875408 50.68393518306679 
v 4.571397076558281 5.985895436863494 49.31152893248866 
v 5.6108999971031475 5.947247762959941 47.86141262715088 
v 6.49119488704706 5.748244285819996 46.3146340799993 
v 7.178025851105012 5.4576103656705355 44.69744292825155 
v 7.596670663652876 5.116106738339479 42.98227269472585 
v 7.75557820831067 4.79233243282253 41.24422789811819 
v 7.560003026772649 4.54293852817532 39.46041945305738 
v 7.1295883825038615 4.390494127011971 37.76042878049087 
v 6.322778142388282 4.413635443954865 36.11328073114047 
v 5.424501439046157 4.523427783121239 34.638624453366575 
v 4.17661234428863 4.8577700490573665 33.28673053629437 
v 3.056315176083267 5.148927122106034 32.06226467234392 
v 2.2103422014462413 5.644729831311346 31.8639309915421 
v 1.0662021753776154 5.951275041698854 30.624433155040265 
v -0.15683553105022308 6.269133571849552 29.287673507567042 
v -0.8368508588215775 6.025152155567501 27.59229043843995 
v -1.3156919116745802 5.666516690304819 25.982788474492725 
v -1.468982110560262 5.3652291675479455 25.057316690215792 
v -1.8332190463943345 5.234545309034329 24.14921787547497 
v -2.3044876287414127 4.8815813034311715 22.565168693224145 
v -2.5962806293408316 4.308070344573859 20.803502078516587 
v -1.9883872435129124 3.201753876897669 19.423951318479865 
v -1.440662574982504 2.204940385069124 18.180948945583847 
v -1.119494221338293 1.6204405660559342 17.452091756307684 
v -0.7981657524013152 1.0356491766894504 16.722870820064344 
v -0.4766767850833112 0.45056590622387965 15.993286093874934 
v -0.15502769118711524 -0.13480881519519092 15.263337926560329 
v 0.1667817459540146 -0.7204754776595038 14.533025593862865 
v 0.48875248664631915 -1.3064355407792456 13.802347519721062 
v 0.8108854930581514 -1.8926909383435304 13.071301175722017 
v 1.1331820249799103 -2.4792440469572883 12.339883493402198 
v 1.4556436744680694 -3.0660975171636227 11.608091359078243 
v 1.778271208953666 -3.653252901918163 10.875922764080798 
v 2.331752684157654 -4.6605435145719945 9.619855513445241 
v 2.9337610082516155 -5.75614867148833 8.253662282428765 
v 3.461369713610659 -6.674264939011126 6.8850428232392655 
v 3.9659892279935254 -7.593823277505274 5.386586235936241 
v 4.226722202425346 -8.304527175623463 3.7990709083435172 
v 4.333118901717188 -8.914156960336642 2.0998857619979003 
v 4.098675697682562 -9.25281136952288 0.3592749038541976 
v 3.6396673395695993 -9.400736484383302 -1.3595489088273836 
v 2.8039499290626466 -9.200659192732074 -2.9678381070417577 
v 1.8372778692093044 -8.81946621293036 -4.374293247254841 
v 0.5211843070901514 -7.9752127596459985 -5.430432734930047 
v -0.6598384247243563 -7.230813805382104 -6.344687582815002 
v -1.84099117756615 -6.490420223717418 -7.256746866888837 
v -3.159201561995548 -5.6448035454867425 -8.314577551680445 
v -4.26025177737309 -4.518481219230053 -8.99873945574908 
v -5.335566724814465 -3.141623752736114 -9.612223310587154 
v -6.121128784478783 -1.665520291233641 -10.059728125228354 
v -6.6613150308161195 0.0646323159475312 -10.439064016227572 
v -6.885547252916848 1.7467067343396567 -10.74092129614583 
v -6.48107014804274 3.5886188121418376 -10.998996318677822 
v -6.1524199817975065 5.195064559700842 -11.206766714858013 
v -5.82387739798462 6.806144076965489 -11.415891830782483 
v -5.42041066166528 8.643405349476698 -11.67331567637243 
v -4.2517282639502785 9.964745027932477 -11.980019638776144 
v -2.7949811124939954 10.961645281682499 -12.307656453442528 
v -0.9326533306356438 11.09439319500841 -12.666985363731865 
v 0.6918794218057193 11.19789014063228 -12.963877543253867 
v 2.4374547886840223 11.309429852081818 -13.272748398782172 
v 4.17700666105467 11.433367728088829 -13.608390801848934 
v 5.15452991580061 11.3524342106323 -13.443489624039795 
v 6.773904693577982 11.45590988672708 -13.730029900243514 
v 8.643261742040988 11.589095681635674 -14.090717985710775 
v 10.180218698733853 11.035764839957022 -14.720083001373219 
v 11.553948345936984 10.136313610045967 -15.540710310004297 
v 12.44616849015035 8.964863191467193 -16.53881755818846 
v 12.9541764381701 7.663992392096715 -17.691999385290025 
v 12.998006590896932 6.405608253193061 -18.96095568470987 
v 12.67023537316704 5.284977927633866 -20.331635433821702 
v 12.02900669252913 4.432431316220207 -21.76894280253614 
v 11.184196158068001 3.8957891487336767 -23.259602971429793 
v 10.24836447175873 3.721705373507914 -24.775539237835275 
v 9.330136142344196 3.8943691355561887 -26.30512501653526 
v 8.531072144185746 4.374770624060133 -27.831540608311037 
v 7.921576916767295 5.089239102836067 -29.35507535279607 
v 7.547035259734325 5.945100597888639 -30.877895612633772 
v 7.418879829529723 6.84460882377901 -32.41792413544647 
v 7.517824524971847 7.68615883792139 -33.98949450675112 
v 7.803763409545744 8.377998363289255 -35.61424276305865 
v 8.208009457263426 8.841371077640629 -37.29133113876669 
v 8.654156767805231 9.008398379641756 -39.019509224344745 
v 9.050536746685768 8.855866309130285 -40.755531734996 
v 9.30719129234396 8.360704160962852 -42.46505463343218 
v 9.362376781788921 7.5891375845459965 -44.072976645863235 
v 9.140143853692338 6.5601751891193 -45.539497356772685 
v 8.674027937783489 5.4160749961968815 -46.812567763012815 
v 7.887522993261558 4.170923662737252 -47.87504760574637 
v 6.941177878220221 2.9741984734628866 -48.74246148544844 
v 5.69115999572069 1.805408516782142 -49.402887846740725 
v 4.422809942678871 0.7584817929214873 -49.93318674931223 
v 2.860393058192339 -0.19565531392944766 -50.28625086275828 
v 1.4282659361057797 -1.0399177020196468 -50.5927408377055 
v -0.048139146959668824 -1.9101262750113623 -50.91724695212786 
v -1.5640493010138963 -2.835860673460797 -51.259798309697 
v -2.8123530526895704 -4.1310898324976995 -51.45316701834344 
v -3.989204457465321 -5.409154875688497 -51.607256520753616 
v -4.719770026477686 -5.931462440877712 -52.035286836877866 
v -5.87427388395661 -7.129365684328639 -52.214125473859056 
v -7.144391651529008 -8.508718452088635 -52.380426620743656 
v -8.046783292118747 -9.967165611518093 -52.12083371348856 
v -8.864063406543861 -11.535615731122125 -51.634297665949845 
v -9.422848332811387 -12.979976982677366 -50.78926782318089 
v -9.85372799787757 -14.3355729296647 -49.66562425627254 
v -10.142379339134598 -15.406202167910964 -48.274663277341695 
v -10.378681102981426 -16.205492620865567 -46.67691753420315 
v -10.630187259514079 -16.632357466422512 -44.96122652560494 
v -10.977728205369287 -16.7128854397647 -43.19941388528283 
v -11.502496894787454 -16.4472635585858 -41.50848845909496 
v -12.262026288969938 -15.903704140270397 -39.97340549042687 
v -13.294943098682783 -15.169851980323582 -38.703191744178106 
v -14.601047657197594 -14.365441327919962 -37.76555352408115 
v -16.14280688657958 -13.628255750609915 -37.21116054115872 
v -17.85034533005149 -13.09104185403283 -37.03748173501861 
v -19.626668280423424 -12.869963697924915 -37.199490726640754 
v -21.369340263933303 -13.043936858737343 -37.609290442811016 
v -22.9751830676893 -13.644548632887398 -38.147966408750975 
v -24.359973335052256 -14.659610005737033 -38.685750147252016 
v -25.461007774477913 -16.018320700783157 -39.09531553697538 
v -26.24461631150921 -17.62983438844487 -39.26880950772652 
v -26.71643519391574 -19.354817960180277 -39.14226156739152 
v -26.898206662383664 -21.083736196178467 -38.66880594818736 
v -26.86004682956094 -22.688095103489744 -37.886503369524924 
v -26.6474164563203 -24.101243419157544 -36.78360522409909 
v -26.35354923530101 -25.272605500696784 -35.48508021611946 
v -26.013081863195875 -26.170383213897253 -33.94647811978626 
v -25.694879558071676 -26.83501424819791 -32.351853983712964 
v -25.430778330966728 -27.199777053493957 -30.57686779257032 
v -25.23008167854034 -27.396255982324107 -28.86742834761327 
v -25.187466781564062 -27.19531062014644 -27.008483080748018 
v -25.150172234002493 -27.010050419834702 -25.334298736761717 
v -25.112825709738008 -26.825871137891998 -23.638721393124197 
v -25.070712679459447 -26.627265029855476 -21.801493954741275 
v -25.225506420228992 -26.01815349290579 -20.153382803840145 
v -25.42883832830201 -25.300851191706816 -18.520380200589 
v -25.778396329455816 -24.28886352742996 -17.0709594742834 
v -26.15660817806221 -23.23742713874561 -15.716047812859406 
v -26.711573046228185 -21.926714998436548 -14.547145227463615 
v -27.232570556839892 -20.68883066056498 -13.484759871117074 
v -27.763321714635865 -19.432129083419003 -12.411260291799815 
v -28.311005393023112 -18.138627835710057 -11.25770697813044 
v -28.81377761856513 -17.312767602948757 -9.718152511326224 
v -29.317212005351617 -16.500347006614515 -8.269540163686306 
v -29.802623181658582 -15.721808897632082 -6.886124619428677 
v -30.326955580125663 -14.860536822654476 -5.280520211713243 
v -30.467320715684895 -14.588950466324432 -3.5627995878613827 
v -30.40741212952463 -14.596559231636194 -1.7304511976538435 
v -30.02334479049794 -15.032101705771343 -0.04937414079384985 
v -29.42662758322673 -15.723439142285738 1.50413260717745 
v -28.61667072480133 -16.634274086956918 2.811623738795159 
v -27.683666604567453 -17.633774831321062 3.9561216379598676 
v -26.624288571928805 -18.661354741298766 4.96914507745973 
v -25.502123402754968 -19.634982437166144 5.9395830743303515 
v -24.28115609980977 -20.47303081880365 6.960724225608903 
v -23.037014262232844 -21.136565683211764 8.02749469052785 
v -21.714111580968837 -21.455014703721556 9.239920985353102 
v -20.445058912203958 -21.515981477990387 10.438597965020826 
v -19.156467848053357 -20.903060429621075 11.675110160101108 
v -18.03727559141766 -20.370825414592748 12.790594185172967 
v -16.929365161130484 -19.846175873813564 13.897102152984617 
v -15.629481126122748 -19.227873400450957 15.144447728902914 
v -14.491659263014284 -18.09116600670495 15.831067574228056 
v -13.401244199643202 -16.671835857241902 16.232601306247858 
v -12.563279554183222 -15.106869804358634 16.160811338997366 
v -11.911171095131948 -13.465476203974749 15.787569958949732 
v -11.50540482835849 -11.846514456644261 15.172571188838614 
v -11.276469645776762 -10.220747496887522 14.454542109644148 
v -11.203147733077158 -8.581704371992656 13.768260673579006 
v -11.221751672345954 -6.872444998696316 13.23050197438862 
v -11.274310118011677 -5.101217993689404 12.994405879642379 
v -11.289205263826762 -3.3080784628303177 13.173808420120718 
v -11.188280343161932 -1.641065799713749 13.849730669925236 
v -10.900138572826755 -0.28110721181626214 15.016894096538454 
v -10.392014514479152 0.5805670165708672 16.52119314914069 
v -9.642086033084807 0.8078310298018904 18.17036077863761 
v -8.72388742715732 0.45287002065648796 19.667965526783515 
v -7.622350146169794 -0.4935602569928474 20.80679941846304 
v -6.506693306216922 -1.663748126148199 21.482190574029012 
v -5.257413081290378 -3.111649062855169 21.362013027847702 
v -4.156589614802682 -4.3063787369817765 21.106807503778892 
v -4.022472020435095 -5.276730359148267 20.894212863617927 
v -2.9527933305115153 -6.516475268955609 20.79131239872661 
v -1.667488741703008 -7.911423142221087 20.493338237404316 
v -0.29098745779173674 -8.605979346209313 19.65071738590606 
v 1.161763705663165 -8.829336520157247 18.53362191638656 
v 2.4376449722576323 -8.345649245102496 17.368330945619086 
v 3.498487278213668 -7.29918007696091 16.320014708291723 
v 4.227018802247581 -5.809184080333723 15.613642157305094 
v 4.651499584302999 -4.07376146884593 15.332566862073774 
v 4.816126974615082 -2.2934004920515956 15.537608705076435 
v 4.82443553239289 -0.6190986742075617 16.19666096386461 
v 4.788873465741791 0.8323077172031376 17.253292128651648 
v 4.824373486405468 2.002974106253974 18.61276774883909 
v 5.037120200781378 2.8653434799082804 20.172211910874825 
v 5.5074130661077305 3.4327026504623426 21.8068377510697 
v 6.299344630787248 3.7375162118925704 23.39111632749966 
v 7.419171291479526 3.8466311893238596 24.787613136406225 
v 8.863857695236941 3.8363536830773883 25.866895384566394 
v 10.527000543107635 3.80637698959694 26.53332804141944 
v 12.3347164697683 3.8590190193357476 26.68636930549618 
v 14.078269167315261 4.062793086268203 26.380388561763066 
v 15.644377934089487 4.540391289308521 25.541529273323775 
v 16.868091372935535 5.198834718956634 24.480153905784817 
v 17.52223306583369 6.290423534486877 23.05741550362032 
v 18.032644995531744 7.214666724044045 21.792088979325065 
v 18.33893688800881 7.769293656214164 21.03278216458133 
v 18.677560547645697 8.33436698527682 20.296285651848596 
v 18.983598403204926 8.888533912898206 19.537608575854062 
v 19.50019273545498 9.8239720791562 18.25695571306374 
v 20.147247772007162 10.90373638577214 16.84962957107615 
v 20.494145266652854 12.329544938321316 15.909504650394146 
v 20.789070056129354 13.952984423028587 15.127309779942564 
v 21.06401266649711 15.64356410205614 14.71011316903373 
v 21.41012154755942 17.40085628657482 14.479000599633645 
v 21.928412962150876 19.09493129586197 14.440443067704418 
v 22.660667434440953 20.7384729281541 14.47951929183657 
v 23.66829906409861 22.207963447701257 14.50743133792035 
v 24.94200943053643 23.477300917626213 14.429435299166498 
v 26.4300022033443 24.43375577948572 14.13966842823392 
v 28.02883524576294 25.041026545042573 13.571545216450644 
v 29.576662236976812 25.26039188477897 12.680862700662228 
v 30.912877063901444 25.129124282390343 11.477555183804343 
v 31.880807903583307 24.727810155379302 10.01271510816618 
v 32.38347373552061 24.184650107679744 8.370098481086869 
v 32.3808291161286 23.64922130666154 6.651397540983782 
v 31.904219905091374 23.27013653593358 4.957523249457094 
v 31.04276838188283 23.17675396683334 3.380545472564153 
v 29.933859310955807 23.460946707447953 1.9921731517353618 
v 28.745664808389105 24.167039487056268 0.8399170127787338 
v 27.65761625114504 25.28399077602713 -0.05898951655498113 
v 26.83927680891684 26.745572970286613 -0.7185634747558138 
v 26.42856012876979 28.436324644814405 -1.1833079977986651 
v 26.51359468311462 30.203767118313777 -1.5226583206609356 
v 27.118505964073673 31.875376530632263 -1.822378673699732 
v 28.19582693279986 33.27923145460075 -2.17292999562222 
v 29.626756580914428 34.267943827099835 -2.6561672962874314 
v 31.23281349767094 34.743404489302556 -3.3320240364802887 
v 32.800414952558526 34.6778628550863 -4.227849096651936 
v 34.11686809507461 34.123686754410436 -5.334125803717434 
v 35.009459999345296 33.20687828974502 -6.60831087708605 
v 35.37624565721765 32.10265544291236 -7.987424591261488 
v 35.19989910070964 31.002145197550895 -9.403632356046987 
v 34.5397456192557 30.07797547434568 -10.800348896126359 
v 33.51333226639912 29.460264026802708 -12.140422738842778 
v 32.265733360902644 29.225457905396993 -13.410881017807329 
v 30.950086753369643 29.392224546105027 -14.617884676989602 
v 29.701242438786796 29.934337996371895 -15.784647404465575 
v 28.62720206599752 30.77938515115411 -16.940153668327714 
v 27.797441391591697 31.839370980735417 -18.12162931845269 
v 27.236745220717673 33.00142398905713 -19.357152348136307 
v 26.93901356577382 34.16691711877956 -20.6833386071337 
v 26.85192593546415 35.235603934176645 -22.10888268471446 
v 26.917161636703824 36.128067258182796 -23.661981911399558 
v 27.04401026246663 36.78935940168302 -25.311698777004118 
v 27.14940290894679 37.15857864925409 -27.06877178525455 
v 27.159585024070264 37.24907922825245 -28.84430476321635 
v 26.979802461507635 37.00418194683377 -30.629091111312352 
v 26.626677819666213 36.534973926847016 -32.29403943871368 
v 25.971620089904334 35.7512330650532 -33.81611572322563 
v 25.200140602262863 34.88197063244764 -35.106345291428546 
v 24.050846232948984 33.72191203016762 -36.04602481374741 
v 23.02052813109168 32.6911052611416 -36.864196737462535 
v 22.000947411017265 31.6747960622859 -37.67803070796381 
v 20.840519432616887 30.503500338771012 -38.62680600400663 
v 19.738733255667977 29.360947114397238 -39.19289387418869 
v 18.49041517945827 28.026822563692196 -39.64881096218337 
v 17.37704949588962 26.786983730289624 -39.898630226292866 
v 16.161981360233852 25.324609030988114 -39.85702543025301 
v 15.110065485758977 24.048354599529116 -39.827147120317875 
v 13.990540252606676 22.66920317916501 -39.81357723652935 
v 12.855996522046215 21.303738127246568 -39.77470837970235 
v 12.179826744118852 20.421457746129043 -39.80591664922395 
v 11.40116895279475 19.462223414528353 -39.79647848555151 
v 10.612251872464336 18.51273274587396 -39.76945055165519 
v 9.936155804917682 17.630548541829462 -39.800655420859535 
v 8.890915242259245 16.342908889745804 -39.78798600898698 
v 7.678731994580364 14.884001994606457 -39.746456816565924 
v 6.488750738696441 13.794762409660152 -39.07728068579917 
v 5.264504638914707 12.848166698233927 -38.10146600164514 
v 4.1695098951129905 12.26167010383952 -36.838953263240164 
v 3.1366387820968322 11.87803486453601 -35.41318433885988 
v 2.2057493126393957 11.694688387933176 -33.91448091085208 
v 1.3036569696529208 11.580972932133262 -32.37070332305414 
v 0.4121414928007373 11.436089178013074 -30.841833204228514 
v -0.5089154764091088 11.159447673113656 -29.32993481883216 
v -1.4463042653478644 10.645156374634542 -27.902442521840342 
v -2.373753597885854 9.838308242934595 -26.593504902724266 
v -3.2147869302492538 8.716028236196557 -25.480487761979504 
v -3.8963520261175004 7.308409947719961 -24.595116486840265 
v -4.337426674433607 5.695993432401285 -23.95338710690714 
v -4.481721530184467 3.9589525276982305 -23.521255659528766 
v -4.304032464364758 2.2048319497768945 -23.230366176230106 
v -3.7772149675334914 0.5033990455904127 -22.991313614359864 
v -2.941857819435415 -1.047925481665102 -22.707472628932308 
v -1.788145046657556 -2.3668890010992145 -22.265490331712652 
v -0.4579579897343621 -3.3639290261455717 -21.626430619618684 
v 1.0121074323670447 -3.8905919209419566 -20.663601485948288 
v 2.357391783278794 -3.9932854709421197 -19.537362054037125 
v 3.406012302439597 -3.3472387717621803 -18.069815449599147 
v 4.303836011862734 -2.794092199240905 -16.813304395145007 
v 4.845170379445285 -2.460578910986746 -16.0557042683908 
v 5.3865969203152515 -2.127010049799797 -15.297976408030232 
v 5.928112134229873 -1.7933840248431105 -14.540121686411688 
v 6.469716978565709 -1.4597040014452995 -13.782142920534003 
v 7.38214029199341 -0.8975666637290238 -12.505203980645664 
v 8.415688002533633 -0.2608001179097666 -11.058745142859312 
v 8.344596418976996 0.8934373524458499 -9.56607305258738 
v 8.27159425776724 1.9258235998632598 -8.258914981609136 
v 8.19335779273072 3.0293957700756775 -6.869524812529097 
v 8.126407233449344 4.115054235365233 -5.465577143744204 
v 7.943882152552836 4.930637837277404 -4.930282473705451 
v 7.871446214401421 5.952390070611952 -3.6439030855448573 
v 7.799371873714583 7.121128966049317 -2.1325178681293893 
v 6.973937711725601 8.073781555130006 -0.9142122364556367 
v 5.7564717273414665 8.897149163772928 0.1823741494163238 
v 4.249557648099085 9.38343647061853 0.9814449515915462 
v 2.562250194256158 9.594890077687882 1.6016376957098224 
v 0.8488473900193986 9.481142922924299 2.051951512966738 
v -0.8655992284228076 9.06059868863786 2.4259415260655177 
v -2.4582638628731868 8.369526481092487 2.7860923135469986 
l 1 2
l 2 3
l 3 4
l 4 5
l 5 6
l 6 7
l 7 8
l 8 9
l 9 10
l 10 11
l 11 12
l 12 13
l 13 14
l 14 15
l 15 16
l 16 17
l 17 18
l 18 19
l 19 20
l 20 21
l 21 22
l 22 23
l 23 24
l 24 25
l 25 26
l 26 27
l 27 28
l 28 29
l 29 30
l 30 31
l 31 32
l 32 33
l 33 34
l 34 35
l 35 36
l 36 37
l 37 38
l 38 39
l 39 40
l 40 41
l 41 42
l 42 43
l 43 44
l 44 45
l 45 46
l 46 47
l 47 48
l 48 49
l 49 50
l 50 51
l 51 52
l 52 53
l 53 54
l 54 55
l 55 56
l 56 57
l 57 58
l 58 59
l 59 60
l 60 61
l 61 62
l 62 63
l 63 64
l 64 65
l 65 66
l 66 67
l 67 68
l 68 69
l 69 70
l 70 71
l 71 72
l 72 73
l 73 74
l 74 75
l 75 76
l 76 77
l 77 78
l 78 79
l 79 80
l 80 81
l 81 82
l 82 83
l 83 84
l 84 85
l 85 86
l 86 87
l 87 88
l 88 89
l 89 90
l 90 91
l 91 92
l 92 93
l 93 94
l 94 95
l 95 96
l 96 97
l 97 98
l 98 99
l 99 100
l 100 101
l 101 102
l 102 103
l 103 104
l 104 105
l 105 106
l 106 107
l 107 108
l 108 109
l 109 110
l 110 111
l 111 112
l 112 113
l 113 114
l 114 115
l 115 116
l 116 117
l 117 118
l 118 119
l 119 120
l 120 121
l 121 122
l 122 123
l 123 124
l 124 125
l 125 126
l 126 127
l 127 128
l 128 129
l 129 130
l 130 131
l 131 132
l 132 133
l 133 134
l 134 135
l 135 136
l 136 137
l 137 138
l 138 139
l 139 140
l 140 141
l 141 142
l 142 143
l 143 144
l 144 145
l 145 146
l 146 147
l 147 148
l 148 149
l 149 150
l 150 151
l 151 152
l 152 153
l 153 154
l 154 155
l 155 156
l 156 157
l 157 158
l 158 159
l 159 160
l 160 161
l 161 162
l 162 163
l 163 164
l 164 165
l 165 166
l 166 167
l 167 168
l 168 169
l 169 170
l 170 171
l 171 172
l 172 173
l 173 174
l 174 175
l 175 176
l 176 177
l 177 178
l 178 179
l 179 180
l 180 181
l 181 182
l 182 183
l 183 184
l 184 185
l 185 186
l 186 187
l 187 188
l 188 189
l 189 190
l 190 191
l 191 192
l 192 193
l 193 194
l 194 195
l 195 196
l 196 197
l 197 198
l 198 199
l 199 200
l 200 201
l 201 202
l 202 203
l 203 204
l 204 205
l 205 206
l 206 207
l 207 208
l 208 209
l 209 210
l 210 211
l 211 212
l 212 213
l 213 214
l 214 215
l 215 216
l 216 217
l 217 218
l 218 219
l 219 220
l 220 221
l 221 222
l 222 223
l 223 224
l 224 225
l 225 226
l 226 227
l 227 228
l 228 229
l 229 230
l 230 231
l 231 232
l 232 233
l 233 234
l 234 235
l 235 236
l 236 237
l 237 238
l 238 239
l 239 240
l 240 241
l 241 242
l 242 243
l 243 244
l 244 245
l 245 246
l 246 247
l 247 248
l 248 249
l 249 250
l 250 251
l 251 252
l 252 253
l 253 254
l 254 255
l 255 256
l 256 257
l 257 258
l 258 259
l 259 260
l 260 261
l 261 262
l 262 263
l 263 264
l 264 265
l 265 266
l 266 267
l 267 268
l 268 269
l 269 270
l 270 271
l 271 272
l 272 273
l 273 274
l 274 275
l 275 276
l 276 277
l 277 278
l 278 279
l 279 280
l 280 281
l 281 282
l 282 283
l 283 284
l 284 285
l 285 286
l 286 287
l 287 288
l 288 289
l 289 290
l 290 291
l 291 292
l 292 293
l 293 294
l 294 295
l 295 296
l 296 297
l 297 298
l 298 299
l 299 300
l 300 301
l 301 302
l 302 303
l 303 304
l 304 305
l 305 306
l 306 307
l 307 308
l 308 309
l 309 310
l 310 311
l 311 312
l 312 313
l 313 314
l 314 315
l 315 316
l 316 317
l 317 318
l 318 319
l 319 320
l 320 321
l 321 322
l 322 323
l 323 324
l 324 325
l 325 326
l 326 327
l 327 328
l 328 329
l 329 330
l 330 331
l 331 332
l 332 333
l 333 334
l 334 335
l 335 336
l 336 337
l 337 338
l 338 339
l 339 340
l 340 341
l 341 342
l 342 343
l 343 344
l 344 345
l 345 346
l 346 347
l 347 348
l 348 349
l 349 350
l 350 351
l 351 352
l 352 353
l 353 354
l 354 355
l 355 356
l 356 357
l 357 358
l 358 359
l 359 360
l 360 361
l 361 362
l 362 363
l 363 364
l 364 365
l 365 366
l 366 367
l 367 368
l 368 369
l 369 370
l 370 371
l 371 372
l 372 373
l 373 374
l 374 375
l 375 376
l 376 377
l 377 378
l 378 379
l 379 380
l 380 381
l 381 382
l 382 383
l 383 384
l 384 385
l 385 386
l 386 387
l 387 388
l 388 389
l 389 390
l 390 391
l 391 392
l 392 393
l 393 394
l 394 395
l 395 396
l 396 397
l 397 398
l 398 399
l 399 400
l 400 1
