v 16.015969861582146 12.866145286099917 44.728132683387784 
v 17.176373050050145 15.773584695782302 42.25262122299898 
v 17.94468559783942 18.144979281465567 39.134444248277994 
v 18.31346129891579 19.90072612059673 35.56689376200365 
v 18.302105644799063 21.015179086541462 31.731169191939845 
v 17.94772346942431 21.504145798739977 27.781697338632483 
v 17.296650806254945 21.410907487987014 23.839932996668455 
v 16.39789693792026 20.79376604087649 19.9944806758943 
v 15.298783046331444 19.71649319860433 16.304960050529594 
v 14.042502524684078 18.241861008415007 12.807471697832746 
v 12.66711079141688 16.427791554014505 9.520235362147897 
v 11.205452035945864 14.32545010997557 6.4486275930339 
v 9.685627537010946 11.97863668619935 3.58931196007115 
v 8.13172861528825 9.423963136619609 0.9334325755904949 
v 6.482482649105906 6.7399801190038735 -1.530161043115608 
v 4.544743759779348 4.102007176882562 -3.827751258984847 
v 2.370839516059093 1.5696269320679694 -6.031686967916146 
v 0.03465519207851399 -0.8219164707473012 -8.227153579594457 
v -2.394981276755464 -3.0392026684650997 -10.502397873245913 
v -4.847350113424413 -5.043852222114627 -12.943729154078808 
v -7.242219104399163 -6.7871181986671605 -15.629351493851749 
v -9.482441543678124 -8.206383013471756 -18.620238443381524 
v -11.44837495586138 -9.224795925078498 -21.946600454812142 
v -12.996954565882918 -9.756108748534432 -25.58965390895456 
v -13.972857096376913 -9.714525827717722 -29.460247499663403 
v -14.248152674785095 -9.021171633123174 -33.37969317876986 
v -13.740521960581322 -7.643135242462149 -37.08720243160839 
v -12.439133624914433 -5.627401787309812 -40.270323159816506 
v -10.429699992238282 -3.1130787448731088 -42.62010702158496 
v -7.894744357480799 -0.31725105572921186 -43.899726292698645 
v -5.082941164810334 2.5058558761280425 -43.99945366146007 
v -2.2576641097098418 5.117759648441153 -42.953602611526556 
v 0.35394312688673624 7.339334111356424 -40.914533335057875 
v 2.592846185798811 9.070887942073668 -38.100328660175876 
v 4.375291047876914 10.288314513807245 -34.74057933551924 
v 5.681498440981353 11.024767370085126 -31.037446587597838 
v 6.536397723117499 11.348847070011972 -27.146693326264703 
v 6.9907710024555785 11.346456189011247 -23.17468047009354 
v 7.1069385728249 11.108875397150374 -19.18463663469053 
v 6.949782895026555 10.726645002097287 -15.20664540662216 
v 6.607268939992339 10.242050714542778 -11.251134541083648 
v 6.220373922713242 9.59296387180014 -7.323506625712015 
v 5.936822192254951 8.703328283922678 -3.435066937080083 
v 5.905304005724808 7.50115480610365 0.37755296076843897 
v 6.106899440371859 6.00405510113756 4.080683221175439 
v 6.237753962504248 4.3576796579704915 7.72320102744276 
v 5.96932361033164 2.718500396170691 11.358564407801127 
v 5.089028682523435 1.1357536025542658 14.920634518877431 
v 3.626738030376646 -0.5990244625277935 18.208722632312682 
v 1.6688288510391138 -2.6971964589744117 20.983916518396544 
v -0.6666155173850374 -5.194469005743596 23.044399996948517 
v -3.2579639084389953 -7.96077676514877 24.298131266145955 
v -5.979141340075523 -10.853958663942512 24.70784548268019 
v -8.708965292608974 -13.737648406340716 24.283864963111174 
v -11.339105366767983 -16.489971556387527 23.076059759136903 
v -13.779035439137033 -19.008889014476914 21.16352202770269 
v -15.958061301620802 -21.21430244006519 18.643984500505645 
v -17.82499171544909 -23.047568660232788 15.624464689628395 
v -19.346225385634988 -24.469289686612708 12.21394357605882 
v -20.503007062810273 -25.456217610786 8.518301653200693 
v -21.288458498930463 -25.99794651385003 4.637334609353215 
v -21.70480124192139 -26.093853016222813 0.6634612581069416 
v -21.761014955930985 -25.750555572572214 -3.3183269192424443 
v -21.471042912965256 -24.980018053927616 -7.2296996833704945 
v -20.852569443932495 -23.798329314034078 -10.997765499870278 
v -19.926344710064217 -22.225138213834374 -14.553682150689154 
v -18.716008221844863 -20.283699258123477 -17.831333070017106 
v -17.248352094448745 -18.001473686135345 -20.766266410957822 
v -15.553957634572818 -15.411222116887597 -23.29508026789911 
v -13.668125859157433 -12.552506870807687 -25.35544120891727 
v -11.631837061570502 -9.4736102289603 -26.88698010092947 
v -9.480253630223887 -6.24274865640527 -27.836800986628774 
v -7.2350133526899505 -2.953531218962663 -28.165018171816623 
v -4.923548696288135 0.2896819218571595 -27.842951119682525 
v -2.5821956637878984 3.373049069900325 -26.856738783598924 
v -0.25717996965636286 6.174649698056141 -25.21259858753415 
v 1.9952528371691116 8.568002145320655 -22.94279388129279 
v 4.1100073328517315 10.42818224261889 -20.111430412572087 
v 6.016007294405191 11.640666965765721 -16.8187828200782 
v 7.635598925628113 12.122864640962181 -13.201039903998213 
v 8.85004505229029 11.924907358107097 -9.401361837181602 
v 9.541943025761423 11.177433844067155 -5.538844441464043 
v 9.61916009037613 10.029809867175551 -1.7132718721220606 
v 9.011553268123027 8.643720070971323 1.983437755077961 
v 7.799600242846335 7.108728493107005 5.469548281680162 
v 6.321232002111105 5.334308221897826 8.733769541487256 
v 4.926386156110269 3.1980053672274695 11.811185803159233 
v 3.8351383744360317 0.7544709151424637 14.782512842033471 
v 3.0479386211694894 -1.7027931924519253 17.837265378345787 
v 2.549453684226769 -3.8644134293009285 21.161275370238894 
v 2.361301696942781 -5.524971282786189 24.79016121208508 
v 2.5251176891844302 -6.578637480917916 28.639366130389973 
v 3.0713517969311623 -6.929600021070412 32.57928056007729 
v 4.010086060747954 -6.505401555709462 36.435974521325825 
v 5.322313435034344 -5.275831538303096 39.99864881511384 
v 6.953663605193296 -3.2707419802816484 43.03791237368189 
v 8.813558344372874 -0.5909457370615573 45.334151591390835 
v 10.781930644418 2.593480418901525 46.710860855362995 
v 12.723326277596016 6.06001339056741 47.064123191820954 
v 14.505283393599843 9.562775302256595 46.37906537319071 
l 1 2
l 2 3
l 3 4
l 4 5
l 5 6
l 6 7
l 7 8
l 8 9
l 9 10
l 10 11
l 11 12
l 12 13
l 13 14
l 14 15
l 15 16
l 16 17
l 17 18
l 18 19
l 19 20
l 20 21
l 21 22
l 22 23
l 23 24
l 24 25
l 25 26
l 26 27
l 27 28
l 28 29
l 29 30
l 30 31
l 31 32
l 32 33
l 33 34
l 34 35
l 35 36
l 36 37
l 37 38
l 38 39
l 39 40
l 40 41
l 41 42
l 42 43
l 43 44
l 44 45
l 45 46
l 46 47
l 47 48
l 48 49
l 49 50
l 50 51
l 51 52
l 52 53
l 53 54
l 54 55
l 55 56
l 56 57
l 57 58
l 58 59
l 59 60
l 60 61
l 61 62
l 62 63
l 63 64
l 64 65
l 65 66
l 66 67
l 67 68
l 68 69
l 69 70
l 70 71
l 71 72
l 72 73
l 73 74
l 74 75
l 75 76
l 76 77
l 77 78
l 78 79
l 79 80
l 80 81
l 81 82
l 82 83
l 83 84
l 84 85
l 85 86
l 86 87
l 87 88
l 88 89
l 89 90
l 90 91
l 91 92
l 92 93
l 93 94
l 94 95
l 95 96
l 96 97
l 97 98
l 98 99
l 99 100
l 100 1
