v -24.924842011791956 -10.418410164451103 -13.648320636696477 
v -28.099459321149922 -11.227943442479317 -15.93086023127966 
v -31.04979018164772 -11.291401979563988 -18.619006985099066 
v -33.6054107869341 -10.55388227376696 -21.594084893169686 
v -35.59501972622061 -9.015678272474107 -24.691587213942046 
v -36.87056020094848 -6.745147920645439 -27.713479221415707 
v -37.33199291106689 -3.8801942494551214 -30.450444971251677 
v -36.94559955947611 -0.6154021051987182 -32.70974236149904 
v -35.74980765279113 2.8232206413606398 -34.34136533831647 
v -33.84664269772237 6.209234840495184 -35.25525791851613 
v -31.382000660339052 9.343984085191167 -35.42563980445874 
v -28.521260434951564 12.075437388661005 -34.88323180398542 
v -25.426908845659604 14.305277839251142 -33.69976338820521 
v -22.242490517076188 15.985879668643092 -31.970201025217662 
v -19.084110839380326 17.110985446279543 -29.796984868062403 
v -16.03840443755152 17.704041389756945 -27.27848261077982 
v -13.16485323361217 17.807077895183593 -24.502015805350347 
v -10.50034378772769 17.471660487494052 -21.54070354599086 
v -8.064378148507243 16.752348754158806 -18.452975345679473 
v -5.863977248754406 15.702454027073172 -15.283668240148454 
v -3.8978238399270158 14.37161336243616 -12.065881478288816 
v -2.1595247348062694 12.804659029703004 -8.823046623104654 
v -0.6400529445154634 11.041337612899458 -5.570903924653558 
v 0.7388618943970395 9.074807925702197 -2.3733657077072166 
v 2.182571831278201 6.84838289021699 0.6185084162387379 
v 3.739401945193466 4.4567983575196495 3.4207775109136245 
v 5.443802038268953 2.0030280401119462 6.079979261303704 
v 7.334345945728789 -0.41416674174991897 8.644994329250903 
v 9.449589712239252 -2.6926603963640527 11.160378875733684 
v 11.822137456569994 -4.719879441847033 13.660083932814166 
v 14.469921999136997 -6.367720823919921 16.160570084978964 
v 17.383999816570178 -7.491805625401858 18.652893171274673 
v 20.513241891743363 -7.938468801834692 21.0944094583592 
v 23.751934916367226 -7.565437609907014 23.39830459408464 
v 26.94514668257675 -6.282355755690191 25.41730457306111 
v 29.883484945420697 -4.081731955652359 26.97500026631498 
v 32.323329126486854 -1.0690408636084705 27.902650674896645 
v 34.03265212247111 2.5266346549024163 28.078567505817045 
v 34.84513539134862 6.379075026460514 27.462995261308443 
v 34.70078305877665 10.126034587765188 26.111841257581442 
v 33.65473774825014 13.442564566506688 24.16138217697061 
v 31.85228867079989 16.09711307980362 21.791166524573654 
v 29.484773131830647 17.972765659722505 19.18212251461436 
v 26.74618178439441 19.055667473517794 16.48505540765608 
v 23.803525103226907 19.40533814004772 13.805533948650647 
v 20.783764586427704 19.122384148522674 11.202751506665052 
v 17.773388205193033 18.322971140094637 8.696432194468594 
v 14.824932011417891 17.122840466898733 6.2764179877311985 
v 11.96593474801676 15.629726422896747 3.911715920603076 
v 9.17943927854186 13.939461395686912 1.5929691951870195 
v 6.3657188108920275 12.13465047464309 -0.6031658094721216 
v 3.415933302592935 10.297282584147549 -2.5818041060400385 
v 0.23856076251036 8.520126978960164 -4.233587668864204 
v -3.1356270729848505 6.816525276380647 -5.540116895249144 
v -6.507846413603002 5.00494859158022 -6.69869981117324 
v -9.6645461634942 2.8833690318294476 -7.9277530792511754 
v -12.416603650474931 0.3210304017510386 -9.280358092420656 
v -14.730293490598942 -2.7064230996796437 -10.480970298243335 
v -16.57947863462973 -6.168864153212331 -11.20912109421929 
v -17.90404752744138 -9.934167088029076 -11.261369176698713 
v -18.644819492361844 -13.80743068060593 -10.639259959289053 
v -18.778238516785112 -17.599032513570688 -9.395150293040084 
v -18.315108046060924 -21.141087234202068 -7.610335615199628 
v -17.294368857837505 -24.29632911314794 -5.3847427408425625 
v -15.77529038219196 -26.961885761157742 -2.8269330199682625 
v -13.829601217110952 -29.068730383681718 -0.045763736705444646 
v -11.534645944198685 -30.578136922939073 2.855638074928162 
v -8.968134663161779 -31.47653717079849 5.783533502453265 
v -6.204609970913553 -31.76995002847943 8.655196144384036 
v -3.3134637588397573 -31.478798975075033 11.39901576564365 
v -0.35819184020502826 -30.633586411628148 13.953613402116822 
v 2.6034600721022203 -29.271621123839825 16.26642999038198 
v 5.518776058886937 -27.434814894987113 18.292147948361183 
v 8.3390368544148 -25.168464023017957 19.991206300123693 
v 11.018378814990516 -22.520887364241112 21.328592567550384 
v 13.512705859684985 -19.543780026680103 22.27304333713109 
v 15.778788906074656 -16.293140313402922 22.79675703583448 
v 17.77367871532759 -12.830621048375885 22.875709654538117 
v 19.45456360928019 -9.225133273368048 22.490656858287252 
v 20.77868487638584 -5.554109773690456 21.629607728585036 
v 21.69278016334626 -1.8959168237719715 20.306213247180796 
v 22.13676776883879 1.6708439059407485 18.560347137532144 
v 22.057964230171144 5.059640080958423 16.445205919003005 
v 21.415408634002137 8.175966611057069 14.02941806087351 
v 20.18515733259491 10.919190304409023 11.399302037592031 
v 18.366559986600063 13.186573594877258 8.660054710308426 
v 15.98876394941849 14.879804491054514 5.93496635904066 
v 13.116220845536821 15.91394302382746 3.3617692771023684 
v 9.867237878935441 16.229623644410978 1.0619615267910711 
v 6.447792396375019 15.808258345763551 -0.9584181843517486 
v 3.0634847132668144 14.664626427191545 -2.7458581263947015 
v -0.09802828292440087 12.837226106710757 -4.365324689999676 
v -2.865564371586151 10.390198433337718 -5.885400636829054 
v -5.258026845124793 7.495144841468974 -7.2555126628470425 
v -7.523825964759553 4.379029845607931 -8.32530250714608 
v -9.92589618780457 1.2491794856432759 -8.968882876493817 
v -12.559437068975555 -1.73909368792957 -9.32553837676501 
v -15.418803546724979 -4.502731468878672 -9.741376213989373 
v -18.47871078772309 -6.945068138743773 -10.541213129856676 
v -21.677267163827256 -8.954319005370367 -11.84222039262645 
l 1 2
l 2 3
l 3 4
l 4 5
l 5 6
l 6 7
l 7 8
l 8 9
l 9 10
l 10 11
l 11 12
l 12 13
l 13 14
l 14 15
l 15 16
l 16 17
l 17 18
l 18 19
l 19 20
l 20 21
l 21 22
l 22 23
l 23 24
l 24 25
l 25 26
l 26 27
l 27 28
l 28 29
l 29 30
l 30 31
l 31 32
l 32 33
l 33 34
l 34 35
l 35 36
l 36 37
l 37 38
l 38 39
l 39 40
l 40 41
l 41 42
l 42 43
l 43 44
l 44 45
l 45 46
l 46 47
l 47 48
l 48 49
l 49 50
l 50 51
l 51 52
l 52 53
l 53 54
l 54 55
l 55 56
l 56 57
l 57 58
l 58 59
l 59 60
l 60 61
l 61 62
l 62 63
l 63 64
l 64 65
l 65 66
l 66 67
l 67 68
l 68 69
l 69 70
l 70 71
l 71 72
l 72 73
l 73 74
l 74 75
l 75 76
l 76 77
l 77 78
l 78 79
l 79 80
l 80 81
l 81 82
l 82 83
l 83 84
l 84 85
l 85 86
l 86 87
l 87 88
l 88 89
l 89 90
l 90 91
l 91 92
l 92 93
l 93 94
l 94 95
l 95 96
l 96 97
l 97 98
l 98 99
l 99 100
l 100 1
