v 7.489447718680821 -2.254127809326462 -19.60599300988927 
v 10.278387553369866 0.29313719581130876 -18.30478345630682 
v 12.717503460309462 2.8128362566690774 -16.39070635164788 
v 14.744747844105353 5.221770356800021 -13.930966110637035 
v 16.304460280498386 7.445070467296797 -11.0006601560461 
v 17.340374570200858 9.416376061327526 -7.683729263864411 
v 17.807747007379238 11.073775925739591 -4.078968630521924 
v 17.677351152439066 12.361489898484274 -0.2997053497003374 
v 16.9384275348028 13.232481111282349 3.528035270643521 
v 15.601511583579132 13.651377722988508 7.268559345948844 
v 13.700751654673475 13.597493214218602 10.780914280220566 
v 11.29525611204712 13.067632446602083 13.924704499409334 
v 8.468998056127386 12.078291538558322 16.567115921328064 
v 5.328886212163551 10.666830947170729 18.590691495488446 
v 2.0014033557782778 8.89259319078716 19.9051235998122 
v -1.3758078218505092 6.835951322206973 20.466067638335293 
v -4.669952113143112 4.586185402612482 20.267296738169808 
v -7.760901914630944 2.234784610385931 19.33368267193248 
v -10.546505501197563 -0.12610980963735371 17.71400417467433 
v -12.943075563944637 -2.4089058043478517 15.477032703749638 
v -14.884630693672944 -4.534639480152851 12.707218206940588 
v -16.311428561460534 -6.439332095024269 9.498368146133453 
v -17.172495247207138 -8.070274657361855 5.954532925558024 
v -17.43346227095863 -9.382680494469104 2.1903142379467933 
v -17.07783901693207 -10.340808478930917 -1.6716656360471844 
v -16.108042654757984 -10.919113409324453 -5.503607689896113 
v -14.546205297880062 -11.103351595070107 -9.175754233269622 
v -12.434634492592922 -10.89158587251383 -12.560051374326335 
v -9.836391046097264 -10.292935206161491 -15.534370813884538 
v -6.837267138829336 -9.32099438240917 -17.986900447228415 
v -3.5429847720621934 -8.001851004068872 -19.820031452599043 
v -0.07593312679721342 -6.376697875349346 -20.955719715312757 
v 3.428985608987201 -4.501273424651416 -21.340898995711406 
v 6.8299450839750335 -2.444280530009769 -20.952114034396892 
v 9.98496228723176 -0.2847323881652782 -19.798761396014267 
v 12.759405828381338 1.8916894547400607 -17.92443887770212 
v 15.035420807172418 3.9973323359355186 -15.407717365162291 
v 16.72269714732128 5.947874980286467 -12.358440601005052 
v 17.773613469224966 7.665282241572758 -8.90893493321451 
v 18.176111134861245 9.086052823873791 -5.197364910936542 
v 17.94463021758253 10.163620904983192 -1.3574721593320536 
v 17.114239217884677 10.867283485816412 2.486687266872995 
v 15.72566537444607 11.180523854093849 6.219871507893707 
v 13.818602941073946 11.097476775587602 9.729685690810344 
v 11.444716021148905 10.622450321942148 12.90789522127102 
v 8.669912466713267 9.770687813596288 15.653104683036569 
v 5.573820627217336 8.568684806090719 17.873377690666644 
v 2.248922441286311 7.054396756047194 19.489239252321386 
v -1.2008553196250173 5.277205717473061 20.43703381320481 
v -4.6622874575831865 3.297489681260473 20.672513450736567 
v -8.015468485899067 1.1847737261108469 20.17502264693295 
v -11.135366189225993 -0.9904829685242635 18.954991940730665 
v -13.89999144575019 -3.15649307623153 17.052798333142224 
v -16.197690553361113 -5.2395973126270405 14.53615062107354 
v -17.93241180574037 -7.16727680742896 11.498666815890978 
v -19.028642077595755 -8.871420175506737 8.057001334540168 
v -19.435625276895262 -10.291616345279648 4.3465008060295 
v -19.13046943590167 -11.378231264646967 0.5155422007149857 
v -18.12107705690104 -12.09483850980146 -3.281571899749198 
v -16.456068734977958 -12.418610392615934 -6.897579374463298 
v -14.214277522882059 -12.342096565544553 -10.202622799351497 
v -11.491656845503313 -11.872250906689588 -13.08767059643026 
v -8.395782316415717 -11.027594333489953 -15.467007285758797 
v -5.037531124608948 -9.842658523284374 -17.277905486232335 
v -1.527247250319148 -8.360560752595486 -18.479755285944883 
v 2.027293562869114 -6.625952011738718 -19.044648660101892 
v 5.516979637282212 -4.683173371122541 -18.94892360397074 
v 8.829416448811024 -2.5843256381220336 -18.18566572685846 
v 11.851427844903498 -0.38963197007513595 -16.768260987970542 
v 14.47261248680059 1.8334408606742982 -14.732636750600065 
v 16.589813243612962 4.011721851249627 -12.138981729208313 
v 18.11238160851498 6.068650272176496 -9.072491038380175 
v 18.967934056108145 7.927395500718523 -5.642662591216124 
v 19.10810129592679 9.514690152434559 -1.9807362119481884 
v 18.513663020929197 10.765131897444105 1.764978016521878 
v 17.204387821099644 11.625443879862976 5.4383344517640175 
v 15.247680368115962 12.060234196365938 8.892674594211112 
v 12.739659529436489 12.054694130743554 12.001136145613145 
v 9.792149579679199 11.612347875731432 14.660417441281874 
v 6.525277845606258 10.75230447403406 16.792453666320526 
v 3.0611204992613863 9.505872152361356 18.343472260788598 
v -0.4818568454406193 7.910094338650957 19.27082915279207 
v -3.9850570901963924 6.009420456537608 19.541873382600404 
v -7.328142404847439 3.8593256134417446 19.143838114573526 
v -10.393298681112684 1.5271046556039207 18.084567483154153 
v -13.0705922460119 -0.906501171692989 16.391942804593125 
v -15.260296886909918 -3.3530003626600484 14.117297603285758 
v -16.884618976818235 -5.716581369676029 11.337069361602513 
v -17.89801931984612 -7.898715911591858 8.14853597202245 
v -18.279225800762017 -9.808936249534261 4.661140409427133 
v -18.02971235166252 -11.368083900042242 0.9918575704062336 
v -17.171677553680176 -12.510429897179893 -2.738540528798824 
v -15.736168698833383 -13.18655747469631 -6.404326604646922 
v -13.767587860588518 -13.363570524835264 -9.87532878183033 
v -11.331495155113046 -13.026669377486126 -13.022584819243034 
v -8.511797406843321 -12.185627057984368 -15.72338825409502 
v -5.40882182934182 -10.873517996445395 -17.868505945640898 
v -2.13670727875418 -9.143103777181576 -19.368478799103848 
v 1.18179992010816 -7.067697393201905 -20.16385115269901 
v 4.426478980234484 -4.739277949875607 -20.238281684223356 
l 1 2
l 2 3
l 3 4
l 4 5
l 5 6
l 6 7
l 7 8
l 8 9
l 9 10
l 10 11
l 11 12
l 12 13
l 13 14
l 14 15
l 15 16
l 16 17
l 17 18
l 18 19
l 19 20
l 20 21
l 21 22
l 22 23
l 23 24
l 24 25
l 25 26
l 26 27
l 27 28
l 28 29
l 29 30
l 30 31
l 31 32
l 32 33
l 33 34
l 34 35
l 35 36
l 36 37
l 37 38
l 38 39
l 39 40
l 40 41
l 41 42
l 42 43
l 43 44
l 44 45
l 45 46
l 46 47
l 47 48
l 48 49
l 49 50
l 50 51
l 51 52
l 52 53
l 53 54
l 54 55
l 55 56
l 56 57
l 57 58
l 58 59
l 59 60
l 60 61
l 61 62
l 62 63
l 63 64
l 64 65
l 65 66
l 66 67
l 67 68
l 68 69
l 69 70
l 70 71
l 71 72
l 72 73
l 73 74
l 74 75
l 75 76
l 76 77
l 77 78
l 78 79
l 79 80
l 80 81
l 81 82
l 82 83
l 83 84
l 84 85
l 85 86
l 86 87
l 87 88
l 88 89
l 89 90
l 90 91
l 91 92
l 92 93
l 93 94
l 94 95
l 95 96
l 96 97
l 97 98
l 98 99
l 99 100
l 100 1
