v 20.07889162205348 -13.810919008477512 15.718207746865579 
v 20.550036220807904 -11.050969152565246 18.569100007809745 
v 20.61239666459677 -7.93964041847689 21.076088617337103 
v 20.303935879444936 -4.5511306078002995 23.172250022372406 
v 19.654367312026693 -0.9666931150039176 24.816323344241088 
v 18.682822460284466 2.727815286327828 25.99168284635099 
v 17.41064375914186 6.4518241981759 26.69115156851819 
v 15.861113686659891 10.129564095633357 26.91439533245146 
v 14.059236209923208 13.688874338318413 26.666474923579745 
v 12.03199235435889 17.059903174135332 25.957121585601257 
v 9.808993283018017 20.17392282830914 24.80072105947183 
v 7.423452752312593 22.96246502716101 23.216976838740326 
v 4.913389252861809 25.356985860321014 21.23220840447438 
v 2.32294014337442 27.289286640559126 18.881211115558962 
v -0.2963784021524095 28.692936101256514 16.20954835718618 
v -2.8847007535300238 29.505937769550286 13.276053169816214 
v -5.373447512228188 29.674834617123114 10.155182054905449 
v -7.68595983129164 29.16030424754899 6.9386978889444535 
v -9.7395576044945 27.944037390062157 3.7359952306026547 
v -11.449386160278175 26.03629783014195 0.6722846543805481 
v -12.734206836856663 23.48307229451104 -2.1160828201581956 
v -13.523897279008532 20.37125405045971 -4.489545850124614 
v -13.767889662922265 16.830068376319872 -6.316278358875733 
v -13.443219254121848 13.027178012036707 -7.4850388228015925 
v -12.556652622818783 9.161954870822782 -7.950473507531624 
v -11.117153524919019 5.435173393381871 -7.9108163008479835 
v -9.12542653075523 1.9796691127369432 -7.664774455687133 
v -6.645730473689379 -1.1477028957083077 -7.43325794919308 
v -3.9363536958401366 -4.074779082203485 -7.135133071112416 
v -1.2628694554875297 -7.003897371202234 -6.621764663521807 
v 1.1539660680085597 -10.075958120793794 -5.781142413198459 
v 3.3521937533647304 -13.222790420151444 -4.6590500680643565 
v 5.452562262662195 -16.35604257749035 -3.3289858616307564 
v 7.585541627972531 -19.402363122636515 -1.8565868798731102 
v 9.859031755869427 -22.28847242646123 -0.2768153452623656 
v 12.299481988392003 -24.93327105698007 1.4661395221582387 
v 14.904908086175654 -27.23779369182341 3.4363894439838134 
v 17.649963338903664 -29.081675129974528 5.680387376857639 
v 20.475369411454597 -30.32607569979617 8.215444291632869 
v 23.278107598214536 -30.825546783538986 11.01509118854265 
v 25.906842565514278 -30.45188905565804 13.994398959300183 
v 28.168928293690467 -29.129714362841646 17.001752181372527 
v 29.85450786548859 -26.87633387485379 19.82587311566584 
v 30.777206848362844 -23.83018675667211 22.224569843437177 
v 30.82048570597419 -20.24924548628714 23.972424332848476 
v 29.97051841008609 -16.470663902113643 24.91205336241922 
v 28.31925114012392 -12.842966092439921 24.987525530949306 
v 26.035994015673413 -9.657986128517113 24.24626176916079 
v 23.321857629212808 -7.108254304589397 22.81245677585338 
v 20.36670593435731 -5.278847417252984 20.847600546841825 
v 17.33124455649441 -4.15872394362428 18.50500316706959 
v 14.342180386364 -3.6650259622481007 15.898867445778054 
v 11.478316502196876 -3.682660433082072 13.109798052898666 
v 8.779741290437935 -4.0859938935379745 10.18681962055926 
v 6.260274326781858 -4.749961429890941 7.1527778862739995 
v 3.918610223406402 -5.553896669829939 4.011595490180239 
v 1.7472844427874434 -6.380803433643051 0.7560203350272168 
v -0.2603509993620821 -7.114382284634143 -2.6243164779007384 
v -2.1046172214177874 -7.635701769288366 -6.134043049735022 
v -3.8403598985014384 -7.866092024511887 -9.729774187825354 
v -5.6951825260522275 -7.869250208720099 -13.272916087415352 
v -7.705125914775915 -7.631343802719142 -16.721998550098068 
v -9.867643881930341 -7.11972837114958 -20.04650887728877 
v -12.176152040470178 -6.300882081241136 -23.206935728495118 
v -14.617775240489028 -5.14217978656395 -26.153231253991727 
v -17.170570034488623 -3.6147237558588845 -28.82359996754651 
v -19.80030722721549 -1.697523922604823 -31.144090296312992 
v -22.45709867945895 0.616767292059685 -33.02969234264321 
v -25.07245952765833 3.314619545258611 -34.387855216603526 
v -27.557791406067384 6.353453545319438 -35.12540350462756 
v -29.805649000896466 9.653890976773692 -35.15954960748513 
v -31.69528039989805 13.094727615471289 -34.43283077881528 
v -33.10347440982522 16.513639611970156 -32.93023956889736 
v -33.92042373706557 19.71644609550837 -30.69484948818897 
v -34.06821578645366 22.49603579104657 -27.836742172105307 
v -33.51745700413921 24.658813108375146 -24.530285274943225 
v -32.29672488625087 26.052882233166656 -20.997622021780355 
v -30.491059752605274 26.590219915179862 -17.48097622360548 
v -28.229299999664782 26.25640715993664 -14.210783320610721 
v -25.663986947991503 25.10580350017087 -11.378194561887153 
v -22.94972358389596 23.245081521783415 -9.118312341374365 
v -20.22535763350028 20.811189923492336 -7.506075592809465 
v -17.60294370554562 17.94997468175497 -6.562554096913356 
v -15.163708048846496 14.799628223677773 -6.267264352169212 
v -12.959424036783261 11.480425050351226 -6.571999113778451 
v -11.021527852706882 8.064338451543087 -7.321832359570737 
v -9.361081597101784 4.52740404078549 -8.173429311980957 
v -7.975300881632673 0.8258738269272761 -8.771526310984108 
v -6.721335310218817 -2.9665778544363253 -8.954201736284435 
v -5.2811484039209455 -6.692161996612 -8.788512970540394 
v -3.3524920836957177 -10.162996661881952 -8.35150388742466 
v -0.8818347231859875 -13.217257136093465 -7.627315570775155 
v 1.981430651241553 -15.773214024127684 -6.52064183504471 
v 5.065519802326557 -17.76531642678507 -4.9485640382896285 
v 8.17502226896182 -19.13821652439481 -2.853280042134443 
v 11.107527759174927 -19.849467199609432 -0.2386182969723357 
v 13.738234834168168 -19.879766302829758 2.7655846399983437 
v 15.987494944604776 -19.24261146576941 6.003864859049962 
v 17.80558647765843 -17.978128344551834 9.328287493087878 
v 19.169609617135492 -16.144585852895407 12.605154783576916 
l 1 2
l 2 3
l 3 4
l 4 5
l 5 6
l 6 7
l 7 8
l 8 9
l 9 10
l 10 11
l 11 12
l 12 13
l 13 14
l 14 15
l 15 16
l 16 17
l 17 18
l 18 19
l 19 20
l 20 21
l 21 22
l 22 23
l 23 24
l 24 25
l 25 26
l 26 27
l 27 28
l 28 29
l 29 30
l 30 31
l 31 32
l 32 33
l 33 34
l 34 35
l 35 36
l 36 37
l 37 38
l 38 39
l 39 40
l 40 41
l 41 42
l 42 43
l 43 44
l 44 45
l 45 46
l 46 47
l 47 48
l 48 49
l 49 50
l 50 51
l 51 52
l 52 53
l 53 54
l 54 55
l 55 56
l 56 57
l 57 58
l 58 59
l 59 60
l 60 61
l 61 62
l 62 63
l 63 64
l 64 65
l 65 66
l 66 67
l 67 68
l 68 69
l 69 70
l 70 71
l 71 72
l 72 73
l 73 74
l 74 75
l 75 76
l 76 77
l 77 78
l 78 79
l 79 80
l 80 81
l 81 82
l 82 83
l 83 84
l 84 85
l 85 86
l 86 87
l 87 88
l 88 89
l 89 90
l 90 91
l 91 92
l 92 93
l 93 94
l 94 95
l 95 96
l 96 97
l 97 98
l 98 99
l 99 100
l 100 1
