v -5.3836475174104965 -8.143781811218767 10.018266666876077 
v -5.596439896831711 -11.692668123307334 11.847349583593516 
v -6.310069744448736 -15.125117715462984 13.765864940908626 
v -7.65546064813233 -18.301234612952626 15.779749728850343 
v -9.71164179749945 -21.02181366283105 17.85433721395734 
v -12.469539799068182 -23.063858144940273 19.888900793001753 
v -15.813926467953785 -24.214095991643635 21.730019477871718 
v -19.516096899281834 -24.306497401870917 23.20235830002986 
v -23.248491293137253 -23.27725187426713 24.14146884859087 
v -26.636929563881953 -21.203120700718088 24.433245277338685 
v -29.33777997694982 -18.300216983607857 24.043988638616398 
v -31.109489709753454 -14.87827206623284 23.026453901802846 
v -31.84890382061009 -11.26973467926545 21.499529207582157 
v -31.583259400850316 -7.76435885564364 19.612897052210755 
v -30.431436804239617 -4.570963852781535 17.512701416392897 
v -28.55692951232749 -1.8097255724725296 15.318829975024908 
v -26.129416494667748 0.4747148978313851 13.115799960725912 
v -23.301243720775577 2.2918927557325808 10.95361768243099 
v -20.197377114313237 3.6848556020643595 8.853661255322981 
v -16.914399248213567 4.714270234930019 6.815824592192341 
v -13.524299379851907 5.447972620964359 4.824899534800283 
v -10.080148344322694 5.955040086540821 2.8554951963567423 
v -6.62208680285319 6.3030665392625185 0.8755349990192574 
v -3.1865814280288935 6.553021244001015 -1.1578359786359507 
v 0.18196709442307196 6.753139640925328 -3.3052380226867113 
v 3.4314870873806766 6.9487689120157246 -5.628623942910613 
v 6.510344169987642 7.194082145130919 -8.16923841197665 
v 9.41350243319715 7.585908961322467 -10.891656888623686 
v 12.14244820740292 8.232311867157724 -13.742112520477797 
v 14.685612145332545 9.241777670341277 -16.657127098490044 
v 16.997467683537845 10.70895254720655 -19.56888786694497 
v 18.976857985132632 12.692776272560826 -22.416956231938073 
v 20.496885352984894 15.219790669335442 -25.11058494441193 
v 21.41754664283959 18.26580289500957 -27.521114121673673 
v 21.60485711819882 21.732579230157032 -29.48726472065636 
v 20.961743384851076 25.430625530065843 -30.8337228311117 
v 19.46568969679736 29.080600768076017 -31.40488979180692 
v 17.199897776214144 32.34459384815725 -31.107838023738314 
v 14.360286538969937 34.88718999866258 -29.94901061288033 
v 11.22729647401739 36.44815506571087 -28.045981621911658 
v 8.10898770236681 36.89690028021071 -25.60508018672538 
v 5.278327652427998 36.245986349402 -22.87353862519396 
v 2.929276091200424 34.62308923305261 -20.087359926315262 
v 1.1629257143730058 32.2204413108638 -17.434206318245142 
v -0.0011478218075240939 29.244881212188968 -15.03860504744224 
v -0.6011298023729252 25.882796459763245 -12.96541352894509 
v -0.7083767674985179 22.28282579920736 -11.232873298636166 
v -0.40631556588152606 18.553330218331396 -9.825197111812795 
v 0.24633751998614822 14.780218486124632 -8.673518910931202 
v 1.2139201159781987 11.030473114456026 -7.675576493580075 
v 2.467798187813542 7.353781737364242 -6.724838337291555 
v 3.9797635424370026 3.790038024683425 -5.720604707241849 
v 5.677013128884911 0.3368065433182601 -4.6285882617213 
v 7.470015669350699 -3.036676049453336 -3.4435312142484484 
v 9.275034576092258 -6.365535164153567 -2.1549800817205123 
v 11.016345975455803 -9.674736129744332 -0.7353548232072338 
v 12.61900932867326 -12.976866907546814 0.8530423698149006 
v 14.000420516312913 -16.27355836874238 2.64607285515983 
v 15.067775814767307 -19.549923281014056 4.673800225525381 
v 15.71764221539636 -22.76772177318266 6.954345316311615 
v 15.83931766154578 -25.857858141934294 9.484796182706019 
v 15.32439751990843 -28.713888273028317 12.229190836911163 
v 14.084995828880912 -31.18996239959905 15.105118302484666 
v 12.081379818224283 -33.10841628565015 17.973121742947377 
v 9.355177463499064 -34.282462481997314 20.6361472779697 
v 6.057080385548543 -34.5556178355411 22.857359437035047 
v 2.4520550575684004 -33.85030050731365 24.4000898485017 
v -1.1120443070454378 -32.207093332223955 25.082137854644714 
v -4.270517003783525 -29.793042715957267 24.8239044875284 
v -6.719171890009378 -26.86959742648344 23.667507551822126 
v -8.270535077018183 -23.732577664220496 21.7578218792876 
v -8.868955639691274 -20.650768476021955 19.29682038914906 
v -8.568057001179683 -17.82567127097572 16.49350768180964 
v -7.49501293086791 -15.36640221765351 13.53526387129259 
v -5.8156824837955705 -13.27941933864255 10.569842014507106 
v -3.698501122488114 -11.506890801761122 7.678551844493202 
v -1.2868767257514664 -9.954685544133914 4.891405714362398 
v 1.3028255870900867 -8.51069801651833 2.2068173603601724 
v 3.9721962497814896 -7.0549115022322475 -0.39223217602280697 
v 6.628151348017988 -5.4648922256852925 -2.925021363467156 
v 9.168636096461535 -3.621296858524441 -5.402471409967259 
v 11.46305604649342 -1.4245221301006261 -7.829378952577597 
v 13.344907839754256 1.1928559599829947 -10.189965659297034 
v 14.615686282455117 4.247525496761081 -12.4254750350254 
v 15.061181778929878 7.670866617766254 -14.425434783420542 
v 14.495470149029769 11.27540858027577 -16.03060360996009 
v 12.853046126986408 14.76253381689921 -17.034768090871264 
v 10.25208501205577 17.769356767092788 -17.242551519494448 
v 6.987389765130483 19.941620695922342 -16.560164567061783 
v 3.477384289744815 21.035341620378343 -15.033182913738857 
v 0.15859247424740897 20.983547615686795 -12.831607696928858 
v -2.6206122185511638 19.893294948414226 -10.190711729349559 
v -4.680294696685543 17.971772667697767 -7.365713250596315 
v -6.0077944365764075 15.445745241811146 -4.573196082549693 
v -6.690749896371334 12.515254810630406 -1.9448051013947523 
v -6.8673895096635995 9.328237056138029 0.46153517745370803 
v -6.6929786718818365 5.9790271898822835 2.6391861028315673 
v -6.3191385162276665 2.5242857678044257 4.619531951536167 
v -5.88521825757796 -0.998140105117954 6.464539166612499 
v -5.527400596008293 -4.563288350902574 8.242382759301389 
l 1 2
l 2 3
l 3 4
l 4 5
l 5 6
l 6 7
l 7 8
l 8 9
l 9 10
l 10 11
l 11 12
l 12 13
l 13 14
l 14 15
l 15 16
l 16 17
l 17 18
l 18 19
l 19 20
l 20 21
l 21 22
l 22 23
l 23 24
l 24 25
l 25 26
l 26 27
l 27 28
l 28 29
l 29 30
l 30 31
l 31 32
l 32 33
l 33 34
l 34 35
l 35 36
l 36 37
l 37 38
l 38 39
l 39 40
l 40 41
l 41 42
l 42 43
l 43 44
l 44 45
l 45 46
l 46 47
l 47 48
l 48 49
l 49 50
l 50 51
l 51 52
l 52 53
l 53 54
l 54 55
l 55 56
l 56 57
l 57 58
l 58 59
l 59 60
l 60 61
l 61 62
l 62 63
l 63 64
l 64 65
l 65 66
l 66 67
l 67 68
l 68 69
l 69 70
l 70 71
l 71 72
l 72 73
l 73 74
l 74 75
l 75 76
l 76 77
l 77 78
l 78 79
l 79 80
l 80 81
l 81 82
l 82 83
l 83 84
l 84 85
l 85 86
l 86 87
l 87 88
l 88 89
l 89 90
l 90 91
l 91 92
l 92 93
l 93 94
l 94 95
l 95 96
l 96 97
l 97 98
l 98 99
l 99 100
l 100 1
