v 19.803657547564587 -9.153863842402428 29.929620362456763 
v 17.43534907400017 -10.752439789822917 27.144107411753595 
v 15.602528968393163 -11.862899864419553 23.77554205302128 
v 14.335168454511896 -12.505804692379758 20.042604106566934 
v 13.608067004685804 -12.7394390716076 16.12022154445634 
v 13.281103563610026 -12.673133984746281 12.13537284730223 
v 13.102203593948714 -12.456403631727804 8.14525157109631 
v 12.807445476184077 -12.22201725784773 4.163582192771091 
v 12.127649734075222 -11.988816303600805 0.2312732944948636 
v 10.862700453966813 -11.643888609051466 -3.5423384336132147 
v 8.898929779872999 -11.02788086578853 -6.962015093788377 
v 6.227101714316386 -10.034227364505877 -9.752444592799112 
v 3.0190499447137973 -8.775132383960457 -11.766826250087576 
v -0.5319060651148096 -7.443059771202933 -13.019581285674272 
v -4.287354424139831 -6.207354379902417 -13.599602974095466 
v -8.145855863391246 -5.162067011424115 -13.680249969189186 
v -12.039495176549742 -4.256887034056785 -13.539739708697295 
v -15.932702279187929 -3.3445438574065136 -13.452856523833827 
v -19.772407541744283 -2.258899377121596 -13.68981556644472 
v -23.44433209390233 -0.8861113088602071 -14.46074486798439 
v -26.796019852170158 0.7919625499848982 -15.838912965388133 
v -29.636538009458434 2.751174635602888 -17.845781634565103 
v -31.749240304946767 4.922427280367027 -20.44220708034857 
v -32.92368217614441 7.185903237578998 -23.508477218828734 
v -33.00173728931609 9.377064724368696 -26.83793848807385 
v -31.925836843280706 11.308247194087013 -30.15425975895531 
v -29.76967533080135 12.80287022521365 -33.15431652363156 
v -26.73435689341728 13.731258997617065 -35.56525614594074 
v -23.10793397962408 14.034099235368586 -37.19461231029716 
v -19.204434908176676 13.725154651876547 -37.95496516041725 
v -15.30643869083662 12.875280787066895 -37.85820054577113 
v -11.628698152287667 11.587321220790363 -36.98842517096853 
v -8.306807242684227 9.97212762449183 -35.46817562799888 
v -5.404522716315946 8.131699457516346 -33.42943597876604 
v -2.9301108819977246 6.150567347725965 -30.99446607698064 
v -0.8540179398069319 4.093626280011028 -28.266237289354986 
v 0.8763218350340017 2.007847687476988 -25.325874250247562 
v 2.3258671880609967 -0.07425670358189838 -22.23423277173222 
v 3.5652620221665696 -2.1307570375986105 -19.035441092254977 
v 4.667143754507524 -4.146672339590616 -15.761094767168297 
v 5.7045000404280195 -6.1107971625275646 -12.434482848098536 
v 6.7502396256917585 -8.01296369704836 -9.074671173348383 
v 7.889374245030763 -9.861461657546453 -5.7154803954772735 
v 9.195869194044068 -11.632224511338562 -2.3757499664060746 
v 10.646117392895066 -13.122990197768312 1.0389638984201857 
v 12.183050786222415 -14.094345677594047 4.597193060679737 
v 13.660389398510336 -14.358057467329557 8.298466464104477 
v 14.858762522166495 -13.870323796375528 12.07652683365013 
v 15.57010149862613 -12.719966852233439 15.83353611908157 
v 15.613094153661603 -11.040930973575456 19.45528709457988 
v 14.93102652571155 -8.965295966061893 22.79731004340301 
v 13.585632064825525 -6.605035458354761 25.724318845392297 
v 11.66535535891083 -4.0691345448654355 28.14000739825088 
v 9.27069996438813 -1.4577314865772142 29.985301855348293 
v 6.504951532775534 1.1419117690277807 31.23268536227188 
v 3.4677297744125877 3.6567989816941284 31.879255648806613 
v 0.25122737988879884 6.02770213056155 31.939898026076524 
v -3.0613688708225673 8.207531031803697 31.441401574580215 
v -6.395887772333185 10.159185661096787 30.417886675659997 
v -9.68618131551654 11.853328392180789 28.90760367818409 
v -12.872585701909433 13.266353357312772 26.950994455687482 
v -15.900171620487432 14.378712411337364 24.589842460900645 
v -18.717022677022698 15.17368426992381 21.867331359154473 
v -21.27271788369832 15.636637713309408 18.828853767285405 
v -23.517165918847198 15.754830416178457 15.523435602457596 
v -25.399940976077367 15.517790617301653 12.005650566065151 
v -26.870294762918792 14.918337783391342 8.337879908773242 
v -27.87805501489286 13.954297370578976 4.59271380434852 
v -28.375649618659963 12.630937386535686 0.8551847077576756 
v -28.32148889170303 10.964080947606998 -2.7756296100073667 
v -27.684856594314866 8.983709156303554 -6.1862771485249635 
v -26.452254785187037 6.737650460886491 -9.250682359185525 
v -24.63477895722299 4.294669282161909 -11.834832912162009 
v -22.2755703264376 1.7459786315981667 -13.805069343710324 
v -19.455793291732462 -0.7959666948192698 -15.040081652950931 
v -16.293901658006817 -3.1973423517202093 -15.45522628605244 
v -12.896436111483109 -5.268699248724422 -15.117741275556241 
v -9.331843042537894 -6.819709700223788 -14.201294335785148 
v -5.6586580252094265 -7.704441629569473 -12.905176317611497 
v -1.9425879594913624 -7.879648423564687 -11.448367128763683 
v 1.7444077443834414 -7.437817508449782 -9.968807579906542 
v 5.361352404482439 -6.554871843164152 -8.509884988201483 
v 8.91206238561346 -5.391412900191132 -7.083281345189723 
v 12.388582323387562 -4.035660542735969 -5.643251811768509 
v 15.776345400957993 -2.548080740751372 -4.123948648356692 
v 19.060176230802885 -0.9867473189982533 -2.4579343225300505 
v 22.218615579412877 0.5892511902939466 -0.5778449979040478 
v 25.218462528845834 2.116130163421677 1.5807445577126746 
v 28.009532513073264 3.521897534508555 4.074241820824858 
v 30.52013483726257 4.723756924312069 6.942671199890724 
v 32.65457141777714 5.627690552711987 10.197192128742698 
v 34.2949868455212 6.132103648319072 13.803629307690619 
v 35.310766912258366 6.137727583773813 17.66430896092679 
v 35.57843436041395 5.565213362052678 21.603976499855552 
v 35.01223068709463 4.379074602799507 25.369201363317472 
v 33.59956658396134 2.611781768322746 28.65125787149416 
v 31.428307568773114 0.37712162452363246 31.135959436804463 
v 28.690201198042118 -2.137949175749612 32.56991185595468 
v 25.65234525283064 -4.705528361651719 32.81891025039267 
v 22.60456208911111 -7.102817490858463 31.893132722948103 
l 1 2
l 2 3
l 3 4
l 4 5
l 5 6
l 6 7
l 7 8
l 8 9
l 9 10
l 10 11
l 11 12
l 12 13
l 13 14
l 14 15
l 15 16
l 16 17
l 17 18
l 18 19
l 19 20
l 20 21
l 21 22
l 22 23
l 23 24
l 24 25
l 25 26
l 26 27
l 27 28
l 28 29
l 29 30
l 30 31
l 31 32
l 32 33
l 33 34
l 34 35
l 35 36
l 36 37
l 37 38
l 38 39
l 39 40
l 40 41
l 41 42
l 42 43
l 43 44
l 44 45
l 45 46
l 46 47
l 47 48
l 48 49
l 49 50
l 50 51
l 51 52
l 52 53
l 53 54
l 54 55
l 55 56
l 56 57
l 57 58
l 58 59
l 59 60
l 60 61
l 61 62
l 62 63
l 63 64
l 64 65
l 65 66
l 66 67
l 67 68
l 68 69
l 69 70
l 70 71
l 71 72
l 72 73
l 73 74
l 74 75
l 75 76
l 76 77
l 77 78
l 78 79
l 79 80
l 80 81
l 81 82
l 82 83
l 83 84
l 84 85
l 85 86
l 86 87
l 87 88
l 88 89
l 89 90
l 90 91
l 91 92
l 92 93
l 93 94
l 94 95
l 95 96
l 96 97
l 97 98
l 98 99
l 99 100
l 100 1
