v -11.404180089832106 5.10659652262231 6.3710228769161406 
v -15.393890125378146 5.315827460321605 6.40716519314275 
v -19.343097684151513 5.092898107051467 5.852707821620694 
v -23.091056908069334 4.389150439815907 4.669629456985967 
v -26.43460502845232 3.1808136496400596 2.8557649309865396 
v -29.14018953066459 1.4848480848278551 0.4641841491234625 
v -30.97116127204728 -0.6264172026826682 -2.3806902858135186 
v -31.729659892251227 -3.0182424065825453 -5.4784329540774035 
v -31.304430251953217 -5.500788139147493 -8.567231577693887 
v -29.708301470184892 -7.853662907345204 -11.359701501985235 
v -27.088289545738338 -9.862900739648406 -13.591778265818965 
v -23.701015812807082 -11.358414071973838 -15.06838046833256 
v -19.861792170910586 -12.238856884043004 -15.689833451685253 
v -15.886811708110043 -12.477068287684284 -15.452357485179425 
v -12.04745488364013 -12.108334217249922 -14.427569906565223 
v -8.546381425035593 -11.210430433191789 -12.731782386681914 
v -5.514107075238382 -9.88217532024287 -10.497546358217509 
v -3.0188343434517018 -8.225567093695378 -7.8537461086606015 
v -1.07282787044185 -6.3312235560006584 -4.921746984406397 
v 0.4417491691951922 -4.229962719083607 -1.8756430830001567 
v 1.7194186161046554 -1.9004147782079939 1.1132993888844063 
v 2.9615657629979832 0.6937339033885325 3.890900169031453 
v 4.372967255624726 3.4984024994807235 6.366646499797656 
v 6.17242165881752 6.290235102155011 8.59009522687384 
v 8.51595168121079 8.79859674955241 10.633453309364615 
v 11.41588336186089 10.709490163084958 12.600861558581844 
v 14.766994620705878 11.708617962429754 14.519358647823395 
v 18.351694285278786 11.650111667787169 16.26509226481715 
v 21.89717813750112 10.506957533149317 17.685857100346713 
v 25.113249832726048 8.35759256575693 18.65066699080673 
v 27.734189592925457 5.382775039892868 19.07049306765163 
v 29.55749561409983 1.8401944828855246 18.911028928777064 
v 30.46818915954963 -1.9759607736356894 18.19366939917585 
v 30.4432090064571 -5.778000618960374 16.985420703285783 
v 29.53811462440604 -9.318663580695237 15.382213007975782 
v 27.863564355872892 -12.40987200276566 13.491234594340835 
v 25.559937693382686 -14.926539708917986 11.416568648359094 
v 22.776087970521175 -16.799724233109387 9.250019022310475 
v 19.654829158984178 -18.004458271713077 7.066960086395643 
v 16.32509537483709 -18.54658712813492 4.925951801042914 
v 12.89932865001514 -18.45123277176575 2.8706319208333513 
v 9.474319186217095 -17.75400495644733 0.9326561517178618 
v 6.133966907683551 -16.495114291126058 -0.8651355377415325 
v 2.9528616941754544 -14.716078010720016 -2.5057855384255636 
v -2.909459059680367e-05 -12.458583217297669 -3.9757270685896686 
v -2.658009880302129 -9.765123450775793 -5.2628048261221325 
v -4.95681372714943 -6.6822139864187955 -6.352170845515881 
v -6.906419274305674 -3.287385097838099 -7.159840167156103 
v -8.589127181226983 0.31809150226956273 -7.540178859573822 
v -10.027363284844487 4.045678248023247 -7.426887485908905 
v -11.183590362121874 7.8260873053984445 -6.836761013802557 
v -12.019733312461932 11.592102012635515 -5.790785110309369 
v -12.498246790624275 15.274327400060375 -4.31197777699674 
v -12.582167483306737 18.79760796859976 -2.4273872093851394 
v -12.236490100581982 22.077865175390944 -0.17146226933747533 
v -11.431212081226011 25.019885375844076 2.4092760485821167 
v -10.146406745400606 27.516882881013444 5.250503986887659 
v -8.379540640149088 29.45300652663884 8.26392901655081 
v -6.154813005109265 30.710201663795274 11.331946358811564 
v -3.533436920114952 31.180695175496638 14.305196167106892 
v -0.6225081536794229 30.785433864330294 17.00581371990998 
v 2.421240595802045 29.496745205779924 19.239170573122596 
v 5.397092483908119 27.360479380141058 20.81542264856044 
v 8.078393766591464 24.510108738521517 21.57880868661438 
v 10.242154294371415 21.164836378067665 21.438198858586134 
v 11.704020355674238 17.607536810034375 20.389267571479525 
v 12.348489845670375 14.145800501924338 18.51963112679806 
v 12.144738068615343 11.066771750008835 15.99404732335632 
v 11.143793882631403 8.598903213362856 13.02472289127432 
v 9.456965542753736 6.821031682678013 9.8731917852986 
v 7.203254782940501 5.570630145501286 6.820306847054619 
v 4.492890167358238 4.600361736636224 4.046763506269192 
v 1.4896251098330817 3.6300002865610463 1.591858860246575 
v -1.6427661337073596 2.4141762899296766 -0.576074258215094 
v -4.735255584003089 0.9111601683655666 -2.618235165872723 
v -7.6217866426007514 -0.8755190507057886 -4.730360729803819 
v -10.110575703088424 -2.930218947591507 -7.086653156583812 
v -12.02539324264491 -5.222787449745444 -9.739187424996148 
v -13.231510169153585 -7.71044282720948 -12.621036500167811 
v -13.600198327312828 -10.31649054354652 -15.622543081654557 
v -13.029353335824442 -12.924011592777946 -18.58877186211535 
v -11.47355012979472 -15.375716954154862 -21.323534271917485 
v -8.97617139114036 -17.48669542833829 -23.60496315908175 
v -5.692026753734439 -19.070065223214726 -25.21605838394283 
v -1.8870281100183728 -19.971377972209353 -25.98555448694144 
v 2.092805896745201 -20.102318794924066 -25.826094369710137 
v 5.877843352664329 -19.460848296857307 -24.754689000171275 
v 9.138497662832144 -18.129393160936694 -22.886558859797553 
v 11.634002624363973 -16.252529559384893 -20.405411462928907 
v 13.232797554543348 -14.004224353904618 -17.52297649493123 
v 13.90499308599753 -11.556773101587115 -14.442250360821804 
v 13.697381684525203 -9.059427291200883 -11.333352253490473 
v 12.703469403126219 -6.628611422969569 -8.323505160835007 
v 11.037335592792727 -4.347346461424871 -5.497765621697725 
v 8.815069678650179 -2.2700581965177706 -2.905715247238246 
v 6.143833355362613 -0.4294630092795496 -0.5701630909053327 
v 3.1168549456068826 1.1565720739868715 1.5045500729982992 
v -0.19005103972776002 2.4971860895591607 3.3079165238111226 
v -3.736523056631983 3.635731268728041 4.759741436076907 
v -7.491622359574563 4.525581742457442 5.800982004437833 
l 1 2
l 2 3
l 3 4
l 4 5
l 5 6
l 6 7
l 7 8
l 8 9
l 9 10
l 10 11
l 11 12
l 12 13
l 13 14
l 14 15
l 15 16
l 16 17
l 17 18
l 18 19
l 19 20
l 20 21
l 21 22
l 22 23
l 23 24
l 24 25
l 25 26
l 26 27
l 27 28
l 28 29
l 29 30
l 30 31
l 31 32
l 32 33
l 33 34
l 34 35
l 35 36
l 36 37
l 37 38
l 38 39
l 39 40
l 40 41
l 41 42
l 42 43
l 43 44
l 44 45
l 45 46
l 46 47
l 47 48
l 48 49
l 49 50
l 50 51
l 51 52
l 52 53
l 53 54
l 54 55
l 55 56
l 56 57
l 57 58
l 58 59
l 59 60
l 60 61
l 61 62
l 62 63
l 63 64
l 64 65
l 65 66
l 66 67
l 67 68
l 68 69
l 69 70
l 70 71
l 71 72
l 72 73
l 73 74
l 74 75
l 75 76
l 76 77
l 77 78
l 78 79
l 79 80
l 80 81
l 81 82
l 82 83
l 83 84
l 84 85
l 85 86
l 86 87
l 87 88
l 88 89
l 89 90
l 90 91
l 91 92
l 92 93
l 93 94
l 94 95
l 95 96
l 96 97
l 97 98
l 98 99
l 99 100
l 100 1
