v 4.544880475652703 -20.995425311158613 9.122101299552341 
v 7.786852097582636 -21.029899089876757 6.781126948633063 
v 10.977378515270008 -20.74059156036405 4.387694399342582 
v 14.044592246532494 -20.144708055454874 1.8922279493852028 
v 16.91046288862126 -19.258172139932856 -0.7512838915093863 
v 19.485958668043885 -18.098296255884847 -3.580472940064131 
v 21.667749315537172 -16.687979604804678 -6.6181235147500335 
v 23.337779556378116 -15.061370860230747 -9.8636562196941 
v 24.367670388899445 -13.270580083928682 -13.282806891504388 
v 24.630263410217772 -11.3922862730703 -16.796966393013825 
v 24.02002102868214 -9.532001365194972 -20.275466705437363 
v 22.481551975412877 -7.82272199161834 -23.53597104855393 
v 20.040879964920148 -6.41466792334159 -26.358613220572636 
v 16.828620907766574 -5.454950819073299 -28.516661341150932 
v 13.083309295937209 -5.05863048468016 -29.824512869452622 
v 9.120241925106908 -5.2673793872099015 -30.222891544441104 
v 5.234216823616278 -6.054688908807275 -29.772920090463973 
v 1.645455796009369 -7.343602099317201 -28.59107310794538 
v -1.5059626555107115 -9.004514649459496 -26.785781790056223 
v -4.148808985474139 -10.902793307578474 -24.46810482275103 
v -6.266474437356109 -12.916740182183418 -21.74264544855382 
v -7.8806737527056905 -14.941880092486993 -18.698163570923636 
v -9.036868211129716 -16.890221430060837 -15.404504328278735 
v -9.793254382722644 -18.686757609641305 -11.913803770838584 
v -10.213518549211186 -20.26494669954938 -8.264223625122462 
v -10.36276730082385 -21.562304316809282 -4.485079144045927 
v -10.305816431212664 -22.51682814724163 -0.6027938552923452 
v -10.107054090295069 -23.06480013991995 3.3525042976425836 
v -9.831187280090218 -23.140549124354145 7.339785831493758 
v -9.544223498960422 -22.6789218124302 11.299484041348848 
v -9.313991353248802 -21.621371151772653 15.146022010558033 
v -9.20938770390068 -19.926503065693925 18.761899272590433 
v -9.297458357196247 -17.585282772384787 21.99581160201649 
v -9.63740062169648 -14.639763151968653 24.66862165502024 
v -10.235492895376408 -11.229475071781343 26.659500787080244 
v -11.0054713203375 -7.560128801492787 28.04400952145967 
v -11.851811112043954 -3.764469224866192 28.9740748270899 
v -12.613949753630848 0.11385692321168556 29.581039000419306 
v -13.066262605749804 4.072531021049208 29.90113529877375 
v -12.995022078772207 8.065610775442304 29.836957599605185 
v -12.291999033525718 11.942451330196079 29.200790433953753 
v -11.02445927214747 15.463287494057226 27.818663448112147 
v -9.425374624495982 18.39259599246809 25.633626621188515 
v -7.80046926990889 20.60108533089189 22.73398777471504 
v -6.420299735050876 22.115225535726424 19.30688424715542 
v -5.502783240930796 23.053427765749753 15.534776887026593 
v -5.121759942696102 23.503614814207438 11.583324998774314 
v -5.194964461801819 23.491004856494403 7.587541600223414 
v -5.620779183593362 23.048958214994297 3.6374943005421425 
v -6.295377411843524 22.213936756244046 -0.21386402915440977 
v -7.117481775517991 21.01963478060854 -3.9403745186960544 
v -7.989320152092385 19.49451971789739 -7.532733048582625 
v -8.815355936608963 17.661994351352874 -10.989753657894628 
v -9.500088720795041 15.542626304697439 -14.310838624345562 
v -9.946018347064115 13.158192646549798 -17.489329624598685 
v -10.052858444527326 10.53750221668003 -20.506430853023836 
v -9.719271946507659 7.72396590012192 -23.32568635990657 
v -8.848661073056368 4.784545800964384 -25.888554028399216 
v -7.360584446850531 1.8188705527910036 -28.112434163383735 
v -5.208665184854928 -1.0341037168869167 -29.8934156605074 
v -2.403723099891084 -3.5961580659172183 -31.11648077868982 
v 0.9629962962592119 -5.661698446962443 -31.67500981313012 
v 4.70613414474861 -7.02475371475579 -31.49818397116776 
v 8.554689124851519 -7.5224790130349435 -30.583999250316424 
v 12.210192700318787 -7.105602738590789 -29.045128065875836 
v 15.429274152199135 -5.830639782187817 -27.062916469674526 
v 18.047774848175933 -3.8234651723994477 -24.81702581387722 
v 19.964145759631847 -1.2602706877061853 -22.42993466282729 
v 21.14430120435317 1.6761769801811321 -19.993568295103913 
v 21.607790204829218 4.819770944658348 -17.572020113022084 
v 21.408329488635914 8.030834945320715 -15.201744130315234 
v 20.617198089824733 11.197802752178488 -12.895279672216875 
v 19.31141780494279 14.233832873002543 -10.64635165312458 
v 17.566760435659454 17.071020436568 -8.434982745499246 
v 15.45474951613554 19.654033789132956 -6.232009187319522 
v 13.042644130827858 21.93423050649862 -4.002924822225383 
v 10.395544312137933 23.864799154328814 -1.7112904258610926 
v 7.579984425776741 25.39724395459922 0.6778972765912794 
v 4.668533127633273 26.47952293399254 3.194424261709209 
v 1.7449108301164964 27.056291876321236 5.858237606255458 
v -1.0910850635046152 27.071905982106028 8.67369681623585 
v -3.720010152701304 26.476951403357166 11.622748669439469 
v -6.002342619257236 25.238898915069583 14.65770828314436 
v -7.783804563104976 23.35690685465119 17.695296516722646 
v -8.98394923691508 20.916832852522475 20.621645785766574 
v -9.721165790735734 18.097064548554044 23.35730677616389 
v -10.172503644970567 15.031318594922572 25.88473112959665 
v -10.543848255274058 11.759535177617282 28.153321619918678 
v -11.010817656951343 8.254482939583216 30.016005556813504 
v -11.630289114707175 4.502525792331184 31.235253969113828 
v -12.303007331677513 0.5834271935614299 31.569633688177046 
v -12.810667452804879 -3.315203913262077 30.895398788691548 
v -12.911018317750331 -6.964058482730033 29.286069012580104 
v -12.437954095520524 -10.189932545616594 26.983782646695616 
v -11.348995307673043 -12.944275888821862 24.304691479268893 
v -9.64597228839152 -15.275023538848858 21.542995631737835 
v -7.399638870085602 -17.213494598209156 18.86618015284308 
v -4.744817279608792 -18.74535698281238 16.300564585775344 
v -1.8029701127863702 -19.874599068182537 13.840168401780211 
v 1.3227539583817496 -20.617531160905127 11.45993926443212 
l 1 2
l 2 3
l 3 4
l 4 5
l 5 6
l 6 7
l 7 8
l 8 9
l 9 10
l 10 11
l 11 12
l 12 13
l 13 14
l 14 15
l 15 16
l 16 17
l 17 18
l 18 19
l 19 20
l 20 21
l 21 22
l 22 23
l 23 24
l 24 25
l 25 26
l 26 27
l 27 28
l 28 29
l 29 30
l 30 31
l 31 32
l 32 33
l 33 34
l 34 35
l 35 36
l 36 37
l 37 38
l 38 39
l 39 40
l 40 41
l 41 42
l 42 43
l 43 44
l 44 45
l 45 46
l 46 47
l 47 48
l 48 49
l 49 50
l 50 51
l 51 52
l 52 53
l 53 54
l 54 55
l 55 56
l 56 57
l 57 58
l 58 59
l 59 60
l 60 61
l 61 62
l 62 63
l 63 64
l 64 65
l 65 66
l 66 67
l 67 68
l 68 69
l 69 70
l 70 71
l 71 72
l 72 73
l 73 74
l 74 75
l 75 76
l 76 77
l 77 78
l 78 79
l 79 80
l 80 81
l 81 82
l 82 83
l 83 84
l 84 85
l 85 86
l 86 87
l 87 88
l 88 89
l 89 90
l 90 91
l 91 92
l 92 93
l 93 94
l 94 95
l 95 96
l 96 97
l 97 98
l 98 99
l 99 100
l 100 1
