v -5.262981597811377 0.7989989535601283 2.5740382444460077 
v -8.22866605261676 2.1582834852572264 4.887174864551789 
v -11.310252027171027 3.140244489437639 7.2382899659470334 
v -14.472528110176707 3.632904505833699 9.633710081291921 
v -17.649143463130446 3.516692534015614 12.055788982910332 
v -20.73140968100504 2.676808213157178 14.454200952654698 
v -23.560332777505813 1.0266219152103653 16.738185703092746 
v -25.92862999896734 -1.4572183828634484 18.774359857288278 
v -27.601131068278242 -4.693843021581809 20.39660189629702 
v -28.35853696355577 -8.467084657088549 21.433257641960548 
v -28.05816145201061 -12.426840802534844 21.749811351962354 
v -26.689722080497557 -16.138994588765872 21.293626108585045 
v -24.397032832721933 -19.176282755162394 20.11964744531525 
v -21.449155123201916 -21.215066866971302 18.381669711152274 
v -18.172040839680914 -22.095607804090097 16.292013244077527 
v -14.872562838827168 -21.82485170781408 14.069383590598633 
v -11.785160590708918 -20.532898189261477 11.897182079199172 
v -9.052603363813835 -18.412282983076718 9.903574261307611 
v -6.734013802275241 -15.665669332330896 8.161470161279771 
v -4.826010636791677 -12.473273701196284 6.699889440163872 
v -3.2852268488521528 -8.97915979384072 5.518462757405647 
v -1.9688357256989166 -5.322097930465174 4.57888112115785 
v -0.6588581175527214 -1.620710682675247 3.8158244873850617 
v 0.8676488400837371 2.01864096949763 3.1639388254369667 
v 2.8577735629949927 5.444156060097342 2.619148581959726 
v 5.477499538316326 8.436009668962392 2.225007482246209 
v 8.585211790354773 10.947114465231337 2.208884302906144 
v 12.000289044938432 12.934687767960632 2.7893667620306357 
v 15.477289390220594 14.342083883314656 4.151545785610392 
v 18.68116481307523 15.105687825791009 6.4016840401964705 
v 21.307703772559826 15.148270913707053 9.402135851159077 
v 23.122289099158678 14.448421366362542 12.882839271788912 
v 23.975497115997527 13.063008177890437 16.522638077277662 
v 23.822810727767706 11.115563067795286 19.998366274847736 
v 22.720875930389788 8.771676638806538 23.030329112435627 
v 20.80454188347702 6.209921134847429 25.412115498595114 
v 18.254724789066973 3.5967489746366894 27.020329546855564 
v 15.267432069533605 1.0703319263065065 27.807407660639193 
v 12.030593529644914 -1.2659430791698758 27.784676970946048 
v 8.71073635157951 -3.3425042929593545 27.00282274931908 
v 5.44823298971272 -5.118308231459484 25.534662918493126 
v 2.358436646414897 -6.5739942255516635 23.462488189187333 
v -0.46399406751195504 -7.705301655337105 20.870298382067045 
v -2.9396499903824553 -8.517676715805331 17.840271074836515 
v -4.999160616526182 -9.022381256824774 14.45250448215985 
v -6.579042958415699 -9.234090526625677 10.787151241383256 
v -7.619154039322552 -9.169845783446734 6.928241104621855 
v -8.068322931332068 -8.845937652275708 2.9695574983294386 
v -8.003772414915943 -8.214576310392088 -0.9771554059974338 
v -7.5075856703821975 -7.2264032574463934 -4.818813820256908 
v -6.662280359780128 -5.831365048074197 -8.468455218728563 
v -5.551969205903483 -3.9820580712327605 -11.833789645291493 
v -4.2663459215197905 -1.641052182399531 -14.80776987080212 
v -2.829833142068443 1.1180076998874775 -17.317896623076773 
v -1.2553537440523592 4.206216208523232 -19.307578613703978 
v 0.44388141212839366 7.533531911539532 -20.726590393380242 
v 2.2523112323175534 11.005426864748788 -21.528878957187924 
v 4.149459798563937 14.518717996779113 -21.67279942731323 
v 6.106971549751229 17.957323113687913 -21.12418690152902 
v 8.085482977939497 21.188951721829785 -19.862679266563916 
v 10.031822651896743 24.06417644523486 -17.89149751585455 
v 11.877396506891534 26.419800910211976 -15.250255965401951 
v 13.538999324341873 28.08863036375974 -12.029139494483521 
v 14.92347120694552 28.917148596884054 -8.380993547351418 
v 15.93723513143823 28.79066393876773 -4.526068002541568 
v 16.50048339316195 27.662103490985178 -0.7435415149949756 
v 16.5636848126296 25.576785538348965 2.6539694030066534 
v 16.121953649422554 22.68343829039539 5.3612971285548445 
v 15.222065563218022 19.223930164578544 7.128233920544713 
v 13.958647777427494 15.501125094465628 7.799913267944309 
v 12.452981221605768 11.834898718107297 7.3449017901442435 
v 10.707637100091315 8.516216226549533 5.974412588337761 
v 8.689229064327993 5.7222357629197615 3.9552000134982763 
v 6.342796036348157 3.549116999608576 1.559838954006504 
v 3.608559102832568 2.0493291326643304 -0.941050565190651 
v 0.6349196891683697 1.0864939041236445 -3.4366145564641277 
v -2.40611606567831 0.4149708976612524 -5.946850566329954 
v -5.37310927426324 -0.1567701336010991 -8.56704348577966 
v -8.122115228790866 -0.8167505304284343 -11.393904151497843 
v -10.491806486971965 -1.7215107207211446 -14.48260484300134 
v -12.3527771606533 -2.926066581831687 -17.806485115606854 
v -13.553499584963749 -4.4657143606157215 -21.290079483086043 
v -13.936327082645956 -6.340592702279222 -24.7927308229363 
v -13.368985545287481 -8.4976461433222 -28.099738655442923 
v -11.790686642199484 -10.816537864395054 -30.932306859331522 
v -9.261466804286666 -13.109866901486114 -32.98622457035629 
v -5.991962370381607 -15.146939077991638 -33.99821086949141 
v -2.3294526483241462 -16.700633248789643 -33.820023282314175 
v 1.3066228932061354 -17.602004584376942 -32.46689260936655 
v 4.517533047041339 -17.77876281446701 -30.114112037449665 
v 7.006428754004409 -17.261036253007536 -27.04304264485418 
v 8.616642951637692 -16.156275959557874 -23.564491831613495 
v 9.322883802437769 -14.609853088035093 -19.953047864415108 
v 9.193377811793368 -12.769365964434014 -16.41106056611504 
v 8.345939077495029 -10.76230178212156 -13.061777133160184 
v 6.912929005360397 -8.687486572520166 -9.960618834010663 
v 5.019726281957003 -6.615977355284376 -7.113002726439745 
v 2.7748727208177018 -4.59655590137588 -4.49130396586802 
v 0.2679989305998566 -2.662464231988871 -2.0479049505535296 
v -2.427930414674065 -0.8376826685907364 0.27599047373775054 
l 1 2
l 2 3
l 3 4
l 4 5
l 5 6
l 6 7
l 7 8
l 8 9
l 9 10
l 10 11
l 11 12
l 12 13
l 13 14
l 14 15
l 15 16
l 16 17
l 17 18
l 18 19
l 19 20
l 20 21
l 21 22
l 22 23
l 23 24
l 24 25
l 25 26
l 26 27
l 27 28
l 28 29
l 29 30
l 30 31
l 31 32
l 32 33
l 33 34
l 34 35
l 35 36
l 36 37
l 37 38
l 38 39
l 39 40
l 40 41
l 41 42
l 42 43
l 43 44
l 44 45
l 45 46
l 46 47
l 47 48
l 48 49
l 49 50
l 50 51
l 51 52
l 52 53
l 53 54
l 54 55
l 55 56
l 56 57
l 57 58
l 58 59
l 59 60
l 60 61
l 61 62
l 62 63
l 63 64
l 64 65
l 65 66
l 66 67
l 67 68
l 68 69
l 69 70
l 70 71
l 71 72
l 72 73
l 73 74
l 74 75
l 75 76
l 76 77
l 77 78
l 78 79
l 79 80
l 80 81
l 81 82
l 82 83
l 83 84
l 84 85
l 85 86
l 86 87
l 87 88
l 88 89
l 89 90
l 90 91
l 91 92
l 92 93
l 93 94
l 94 95
l 95 96
l 96 97
l 97 98
l 98 99
l 99 100
l 100 1
