v -16.33565644784482 -12.586287903178366 -20.793391328015872 
v -20.1177718934455 -13.120093685515107 -21.94725736319572 
v -24.051977649241884 -13.76348387237338 -22.108886029542788 
v -27.885427021921007 -14.469253046402548 -21.25793463636207 
v -31.37108838803828 -15.184982151043208 -19.453151025478586 
v -34.29636534203204 -15.85895367199983 -16.824137325590385 
v -36.504363015468726 -16.445615164805936 -13.551636669620507 
v -37.90373315312785 -16.90938997119255 -9.841926609650749 
v -38.46688481721481 -17.2262813480866 -5.901770258076129 
v -38.21951375558626 -17.383426603393314 -1.918849373510776 
v -37.22577959634393 -17.377229627400425 1.9501044993837573 
v -35.573096277074725 -17.210832106170916 5.5837663684378 
v -33.35916897411429 -16.891555890269508 8.895048823278941 
v -30.682441671992027 -16.428710591750082 11.826527806796937 
v -27.636013620943313 -15.831932653460541 14.344399559853928 
v -24.304472296822272 -15.110063072256779 16.432326041999964 
v -20.76288448916946 -14.27048751559069 18.08594736272248 
v -17.077226891155266 -13.318836324258637 19.308399024185984 
v -13.305685532647914 -12.25894950602617 20.106894776868312 
v -9.500421570979867 -11.093034880239165 20.490294079954833 
v -5.7095454275086395 -9.821974721022743 20.467523782680384 
v -1.9791466017992183 -8.445761974190786 20.04672920106675 
v 1.6447084499871385 -6.964069252940196 19.23506369020798 
v 5.114069523011403 -5.376971668243495 18.039071363062096 
v 8.377350698840257 -3.685857386443649 16.46566435307622 
v 11.377833086766202 -1.894565675112592 14.52373592205388 
v 14.051710991639299 -0.009338973680851216 12.226695512778317 
v 16.3105615446399 1.984868819120966 9.60082632574752 
v 18.040298590163687 4.113348475604133 6.6949035884620836 
v 19.13831834861618 6.369212216597104 3.5852237924637764 
v 19.596980220341376 8.680023468964448 0.35740000686662793 
v 19.44535008957203 10.969098730869334 -2.915195210838292 
v 18.72357687492754 13.17008323002207 -6.172558027586041 
v 17.47773224567532 15.225645776216378 -9.366384600711303 
v 15.75639644599522 17.085680436313012 -12.457812857530977 
v 13.608777081760884 18.705415581787285 -15.414992001668988 
v 11.0840935998453 20.04370052876741 -18.210735730151107 
v 8.23197672941016 21.061652764057524 -20.82040271368623 
v 5.1036744458767185 21.721804785798795 -23.22008411956455 
v 1.7538934873529448 21.987880891076067 -25.38515541178992 
v -1.7568826167813203 21.82534900809981 -27.289259480512943 
v -5.359786988620005 21.20291562955454 -28.90382162791971 
v -8.974944045590108 20.095142082772146 -30.19824412868876 
v -12.509235920989026 18.486327955125553 -31.140974369950385 
v -15.855063875887984 16.37569248384679 -31.701662234146312 
v -18.890917144731848 13.783642008654438 -31.85458333147616 
v -21.48470678388797 10.758508932149203 -31.58335876794017 
v -23.500767154055737 7.382601933245066 -30.8867077791888 
v -24.81100164568608 3.7758345839559366 -29.784522689587373 
v -25.309723135412135 0.09485196527730512 -28.323036828162294 
v -24.930365038306142 -3.4741930756141794 -26.57746500991522 
v -23.660787514168558 -6.729953900896895 -24.650522176023873 
v -21.553065813595 -9.476080884735353 -22.665909079890973 
v -18.724150153033765 -11.543852059801257 -20.757171885710342 
v -15.346334699291448 -12.812329605088195 -19.052864541560474 
v -11.68131835062511 -13.2248790695463 -17.523734469737118 
v -8.077526432329256 -12.796780579470472 -15.8604658833951 
v -4.853297384807638 -11.701098292208615 -13.77570324388634 
v -2.1220976252174193 -10.375022109356948 -11.177848589951157 
v 0.31017641648042216 -9.20707309043461 -8.226555278110714 
v 2.772140849491368 -8.246622921813602 -5.224454949333785 
v 5.431608814999294 -7.210421741141352 -2.424497186759925 
v 8.163604877791169 -5.722032927115422 0.08181631167077563 
v 10.735971411895695 -3.546665958194401 2.2274141926333955 
v 13.088949165714647 -0.8581227914164734 4.019731059372179 
v 15.276441794243453 2.1234467824770946 5.54214840265526 
v 17.395306267453446 5.228078537312672 6.910159992683325 
v 19.5292954862301 8.334165195518429 8.251326111280939 
v 21.683136896880136 11.378827798515246 9.696561090435619 
v 23.842375826652884 14.296863831319053 11.374160410888011 
v 25.976973106031807 17.000193481599904 13.403244639751092 
v 28.03176906134346 19.367842307555176 15.881073325216585 
v 29.91809570505806 21.241737699850578 18.860907918556407 
v 31.510648749338223 22.434929085247916 22.32022402094219 
v 32.65626587866304 22.76009559140502 26.126017640229723 
v 33.20097654222505 22.081403903302178 30.01461609961355 
v 33.034469877711864 20.37824716567172 33.61064645369697 
v 32.1368045178369 17.79047105905697 36.499956717893994 
v 30.601115177436085 14.610302696185055 38.338675009145824 
v 28.61379257467734 11.212313194914511 38.94706255257359 
v 26.399951469917173 7.954067102464593 38.33904104845753 
v 24.16366038856882 5.097529829869062 36.68054195199164 
v 22.04969239828034 2.7797371280339065 34.211855067625144 
v 20.13396491138512 1.0268319771168513 31.176436696049276 
v 18.433731675605856 -0.2118751421217732 27.77818436748851 
v 16.92488305819531 -1.0300827566400315 24.16712825200354 
v 15.557911033156635 -1.540365020975483 20.4435184455773 
v 14.269395044586462 -1.860767208190992 16.670434801678226 
v 12.98920780278922 -2.1094351622803607 12.888917171378722 
v 11.652801658911443 -2.417191494661941 9.131548986470102 
v 10.218906056289585 -2.950464653203757 5.436833618295931 
v 8.66048722336297 -3.8794932938008646 1.874980107291749 
v 6.970658919461338 -5.356351088259656 -1.4304055506359497 
v 5.04674355304371 -7.2731342754584 -4.362624538478061 
v 2.6459040423387843 -9.209904885839885 -6.9012749339206225 
v -0.28757528438680013 -10.722410963072308 -9.150547762632286 
v -3.5089776925727056 -11.558766103365711 -11.360763693436734 
v -6.706577239166223 -11.847748864054417 -13.743197800047048 
v -9.782453191071415 -11.967091890368764 -16.297415101661084 
v -12.908900523782904 -12.198215609114897 -18.779854140265083 
l 1 2
l 2 3
l 3 4
l 4 5
l 5 6
l 6 7
l 7 8
l 8 9
l 9 10
l 10 11
l 11 12
l 12 13
l 13 14
l 14 15
l 15 16
l 16 17
l 17 18
l 18 19
l 19 20
l 20 21
l 21 22
l 22 23
l 23 24
l 24 25
l 25 26
l 26 27
l 27 28
l 28 29
l 29 30
l 30 31
l 31 32
l 32 33
l 33 34
l 34 35
l 35 36
l 36 37
l 37 38
l 38 39
l 39 40
l 40 41
l 41 42
l 42 43
l 43 44
l 44 45
l 45 46
l 46 47
l 47 48
l 48 49
l 49 50
l 50 51
l 51 52
l 52 53
l 53 54
l 54 55
l 55 56
l 56 57
l 57 58
l 58 59
l 59 60
l 60 61
l 61 62
l 62 63
l 63 64
l 64 65
l 65 66
l 66 67
l 67 68
l 68 69
l 69 70
l 70 71
l 71 72
l 72 73
l 73 74
l 74 75
l 75 76
l 76 77
l 77 78
l 78 79
l 79 80
l 80 81
l 81 82
l 82 83
l 83 84
l 84 85
l 85 86
l 86 87
l 87 88
l 88 89
l 89 90
l 90 91
l 91 92
l 92 93
l 93 94
l 94 95
l 95 96
l 96 97
l 97 98
l 98 99
l 99 100
l 100 1
