v -14.92849092920894 -21.769311069552174 -18.834761261008904 
v -13.996560690607009 -22.004043362614844 -19.1170208166488 
v -13.051500515519404 -22.195340047337737 -19.388188007130243 
v -12.095428226428618 -22.343640455212654 -19.647415078950257 
v -11.130388646529658 -22.449500271063073 -19.89390909705484 
v -10.158348246207911 -22.51358130977784 -20.126930841720363 
v -9.181190876217325 -22.53664140033804 -20.34579334113628 
v -8.200714529784918 -22.519524479715326 -20.549860091073192 
v -7.218629068047846 -22.463150985229436 -20.73854301198682 
v -6.236554837539785 -22.368508620167127 -20.911300192152115 
v -5.256022104709919 -22.236643554154316 -21.0676334630843 
v -4.278471230482022 -22.068652107153795 -21.207085850720695 
v -3.305253507429483 -21.865672954196285 -21.329238942735294 
v -2.3376325830369153 -21.628879877159836 -21.433710209051124 
v -1.3767863945235115 -21.35947508016445 -21.520150309205587 
v -0.4238095436093772 -21.058683076481167 -21.588240416798502 
v 0.5202839567822092 -20.72774514727094 -21.637689587885507 
v 1.4545576277563028 -20.367914365945595 -21.668232196931545 
v 2.3781492209805024 -19.98045117643622 -21.67962546085765 
v 3.290267221169752 -19.56661950910351 -21.67164706883587 
v 4.190187204352127 -19.127683414357435 -21.64409293283696 
v 5.077248096936952 -18.664904191190562 -21.596775071530054 
v 5.95084837589283 -18.17953798568623 -21.529519637981213 
v 6.810442245794513 -17.672833833054284 -21.442165099699785 
v 7.655535824168734 -17.146032115788543 -21.33456057793433 
v 8.485683362500941 -16.600363410049773 -21.206564351714572 
v 9.30048352648594 -16.03704769227784 -21.05804253096068 
v 10.099575755634316 -15.457293878253905 -20.888867902021232 
v 10.882636719192787 -14.86229966730078 -20.698918948239967 
v 11.649376882502079 -14.253251664965651 -20.48807904757088 
v 12.399537195397645 -13.631325758318434 -20.25623584884236 
v 13.132885912047442 -12.997687718872196 -20.003280827994672 
v 13.849215549705514 -12.353494009045361 -19.729109025461494 
v 14.548339992225554 -11.699892769000526 -19.433618965815725 
v 15.23009174280817 -11.038024961578833 -19.116712760833174 
v 15.894319329331914 -10.369025653873251 -18.778296397224896 
v 16.540884864722305 -9.694025414724868 -18.41828021043145 
v 17.169661764126623 -9.014151808063373 -18.03657954604012 
v 17.78053262016626 -8.330530962529647 -17.633115610560242 
v 18.37338723721423 -7.644289198201648 -17.207816513453004 
v 18.94812082547507 -6.956554691484519 -16.76061850243986 
v 19.504632355609473 -6.268459159314825 -16.29146739418911 
v 20.042823074729814 -5.581139543762318 -15.800320202481268 
v 20.562595184777145 -4.895739677889367 -15.28714696586051 
v 21.06385068455924 -4.213411913348464 -14.751932776568522 
v 21.546490377065386 -3.535318689666344 -14.194680012206762 
v 22.01041304405996 -2.862634024485624 -13.61541077105893 
v 22.45551479037659 -2.1965449032215756 -13.01416951130357 
v 22.8816885607695 -1.538252545656029 -12.391025893431964 
v 23.288823832610944 -0.8889735259498898 -11.746077824033375 
v 23.676806488133607 -0.24994072143182752 -11.079454697693023 
v 24.045518870284756 0.3775959356603497 -10.391320832042464 
v 24.39484002656329 0.9923689305156286 -9.681879088983324 
v 24.72464614542897 1.5930928903881574 -8.951374672750795 
v 25.034811189981387 2.178464590903279 -8.200099092772874 
v 25.325207733579173 2.7471632744321024 -7.428394276198403 
v 25.59570800188135 3.2978513118098687 -6.636656811499627 
v 25.846185125415165 3.8291752393228675 -5.825342300697814 
v 26.07651460617999 4.339767203242804 -4.994969793515329 
v 26.286576000956927 4.828246844168685 -4.1461262721364545 
v 26.476254822880183 5.293223652961031 -3.2794711502852034 
v 26.645444661412924 5.733299829032297 -2.395740745038233 
v 26.79404951913178 6.147073670097807 -1.4957526742369844 
v 26.921986361639654 6.533143520097871 -0.5804101266151981 
v 27.0291878744787 6.890112298778606 0.3492940540944484 
v 27.115605418093878 7.216592632274186 1.292273535657217 
v 27.181212168699094 7.511212598880879 2.247344984726481 
v 27.226006429329875 7.7726220979782745 3.213224950828628 
v 27.250015091446357 7.999499842676316 4.188527227580542 
v 27.253297223183864 8.190560968208525 5.171760776028093 
v 27.235947763241587 8.34456523799923 6.16132829938068 
v 27.198099162872865 8.46032594769943 7.155525523858565 
v 27.139722350526117 8.536759021821526 8.152526034129837 
v 27.06020977744723 8.573073066128819 9.150332410001829 
v 26.958856787088994 8.568640137765156 10.146808785351105 
v 26.83501690272191 8.522928296568091 11.139698547093015 
v 26.688113200178996 8.435510369466055 12.126629194378683 
v 26.517645646176277 8.306075551628888 13.105118269527258 
v 26.323198484459954 8.134440952597473 14.072580877132909 
v 26.104447495134792 7.920562880172127 15.026339140002907 
v 25.861167084148473 7.664547731805694 15.963633210186131 
v 25.593237033466377 7.366662266638125 16.88163413221963 
v 25.3006487153578 7.02734296821172 17.777458681474684 
v 24.9835108107937 6.647204482482866 18.648185508570126 
v 24.642054366651273 6.227046916108208 19.49087280253352 
v 24.276636679536228 5.767861204067244 20.302577847050756 
v 23.887768473575683 5.270895563068016 21.080429793988518 
v 23.476240983839986 4.7378588717032795 21.821890886761096 
v 23.043129265872935 4.170868349012852 22.52487344349533 
v 22.589607606790874 3.572177665410016 23.18754764704598 
v 22.116889202686227 2.9441096993475226 23.80828796716881 
v 21.626216531551965 2.2890404092768257 24.385675415297136 
v 21.118851750080662 1.6093828763119011 24.91849757905708 
v 20.596067385312434 0.9075718618677269 25.405746798809638 
v 20.059137419886103 0.186049046775692 25.846616623220182 
v 19.50932885604754 -0.5527509051066934 26.24049670182032 
v 18.947893829393347 -1.3064133400589244 26.586966286654196 
v 18.37606232889208 -2.072555570389571 26.88578652442899 
v 17.795035565425668 -2.8488377234340887 27.136891725345283 
v 17.205980017280957 -3.632972437593417 27.340379795310785 
v 16.610022167992962 -4.422733381543378 27.496502014975235 
v 16.008243939934957 -5.2159625931773395 27.60565234246424 
v 15.401678816244427 -6.010576653215935 27.668356407371324 
v 14.791308634188818 -6.804571724528757 27.68526035204082 
v 14.178061024977271 -7.596027501956066 27.65711966298169 
v 13.562807468332156 -8.383110128768815 27.5847881209115 
v 12.94636192482304 -9.164074144908515 27.469206982918813 
v 12.329480004976825 -9.937263538909974 27.31139449498074 
v 11.712858631424458 -10.70111198008091 27.112435817954466 
v 11.097136148720244 -11.454142310278714 26.87347343549169 
v 10.482892834853356 -12.194965375694402 26.595698098359097 
v 9.870651768734605 -12.922278278648337 26.28034034658422 
v 9.260880008954079 -13.634862127745965 25.92866263882741 
v 8.653990040737906 -14.331579362055894 25.541952107502315 
v 8.050341450162007 -15.011370721468175 25.12151394847939 
v 7.45024278719164 -15.673251931265101 24.66866544572268 
v 6.85395358190272 -16.316310164370126 24.184730623911445 
v 6.261686481209915 -16.939700339893236 23.671035515941046 
v 5.673609476494983 -17.54264131160412 23.12890402711925 
v 5.089848195626124 -18.12441199495768 22.559654373796764 
v 4.510488235926031 -18.684347476370395 21.964596071007318 
v 3.9355775176347825 -19.221835143682615 21.345027441350194 
v 3.365128640285564 -19.736310872204744 20.702233615730986 
v 2.799121227137527 -20.227255296483683 20.037484995590358 
v 2.237504245369904 -20.694190193974094 19.352036145802643 
v 1.6801982921212528 -21.13667500317904 18.647125087428904 
v 1.1270978386490944 -21.554303495548897 17.92397295987935 
v 0.578073426885823 -21.94670061749862 17.183784022701758 
v 0.032973814477150025 -22.313519516317513 16.42774596809548 
v -0.5083719339857957 -22.65443876149247 15.657030516292155 
v -1.046152410384136 -22.969159771030856 14.872794267087324 
v -1.5805718807075313 -23.25740445073368 14.076179782002782 
v -2.111848355365194 -23.518913053013772 13.26831687276306 
v -2.640211709666952 -23.753442260753168 12.450324072943596 
v -3.1659018511509975 -23.9607635008256 11.623310270759935 
v -3.689166929748792 -24.140661491248313 10.788376481988765 
v -4.210261586214879 -24.29293302544683 9.946617742919265 
v -4.72944523380192 -24.417385996791037 9.099125104007292 
v -5.246980367821811 -24.51383866636463 8.246987705529154 
v -5.76313089749624 -24.582119176836667 7.391294916993025 
v -6.278160494359659 -24.622065315286978 6.533138522354026 
v -6.792330951430766 -24.633524527870403 5.673614933186057 
v -7.3059005474131675 -24.616354189260697 4.813827411884386 
v -7.819122410320931 -24.570422129867154 3.9548882867049286 
v -8.332242875150923 -24.495607423836713 3.097921139988786 
v -8.845499830542785 -24.391801440813826 2.2440629502760623 
v -9.359121049782319 -24.2589091643 1.3944661681861652 
v -9.87332250201885 -24.09685077920456 0.5503007049405431 
v -10.388306640187121 -23.90556353077679 -0.2872441887606237 
v -10.90426066285515 -23.685003856525267 -1.1169581771089683 
v -11.421354748067811 -23.435149791930023 -1.937608251848706 
v -11.939740258228474 -23.156003649704033 -2.747937329817398 
v -12.459547916164468 -22.847594971028713 -3.546663063579008 
v -12.980885953763106 -22.509983745540467 -4.332476895024351 
v -13.503838235948766 -22.143263894849323 -5.104043383475048 
v -14.028462364302497 -21.747567011995503 -5.859999841437288 
v -14.554787766306218 -21.32306634646751 -6.598956312653814 
v -15.082813778023382 -20.869981021191617 -7.3194959284317 
v -15.612507730003708 -20.388580464238593 -8.020175679305897 
v -16.143803048313796 -19.87918903386776 -8.699527639852251 
v -16.676597384835553 -19.342190810937453 -9.356060684798313 
v -17.210750793322646 -18.778034527663515 -9.98826273439779 
v -17.746083970136887 -18.187238596224347 -10.594603566230376 
v -18.282376581069606 -17.570396194829907 -11.173538229052962 
v -18.819365698147692 -16.928180362647492 -11.72351109194834 
v -19.356744372780994 -16.261349048485336 -12.242960558680219 
v -19.89416037396949 -15.570750051473697 -12.730324472759111 
v -20.43121512248707 -14.857325785275538 -13.184046233150026 
v -20.967462853917485 -14.122117790753801 -13.602581633720012 
v -21.50241004502626 -13.366270915685135 -13.984406431352474 
v -22.03551514547959 -12.591037078083062 -14.328024639366806 
v -22.56618698605207 -11.797777224758804 -14.631977252504509 
v -23.093611717842844 -10.987850647226908 -14.894849410676308 
v -23.616356503753607 -10.16240004494734 -15.11536584501393 
v -24.13278847362497 -9.32262199534453 -15.29236263777235 
v -24.641221124972887 -8.469847531066458 -15.42475477948397 
v -25.13992344783512 -7.605545848454586 -15.51154768844242 
v -25.62712586742992 -6.731324768294459 -15.551850927552552 
v -26.10102724225403 -5.848929873244695 -15.544892193816873 
v -26.559802842101107 -4.960242307359324 -15.490031409045656 
v -27.001613349734992 -4.067275028422154 -15.386774732555896 
v -27.424614917988457 -3.1721672664185 -15.2347882450002 
v -27.82697001460625 -2.2771775302523967 -15.033911113556556 
v -28.20685898872106 -1.3846751717502663 -14.784168108139207 
v -28.562492686032535 -0.4971295181208935 -14.485780988675067 
v -28.89212543348136 0.38290245095240033 -14.139178353505715 
v -29.194100885280275 1.2528130135569078 -13.745079220545447 
v -29.467048471630747 2.1100591854160307 -13.304764732573203 
v -29.70996956220891 2.952253949243487 -12.820051945369583 
v -29.92205698903522 3.777143367948164 -12.292959395638087 
v -30.10263570628653 4.582605398243139 -11.725620445294892 
v -30.251161199707774 5.3666583426927845 -11.12026643171407 
v -30.36721654884931 6.127467550295531 -10.479209540730475 
v -30.45050846952352 6.863350463902395 -9.804825856679253 
v -30.500862447645073 7.572780052455524 -9.099538795494334 
v -30.518217084124277 8.254386691849017 -8.36580310598054 
v -30.502617774706202 8.906958579100213 -7.606089601217159 
v -30.45420984993263 9.529440781846318 -6.822870757492898 
v -30.373231299002654 10.120933038850817 -6.018607292979464 
v -30.26000519753012 10.680686437239267 -5.195735813229463 
v -30.11493195339037 11.208099098717193 -4.356657586157986 
v -29.938481477382762 11.702711010276719 -3.5037284859647806 
v -29.73118537668278 12.16419813516702 -2.639250123903051 
v -29.493629259382185 12.5923659375315 -1.7654621642263773 
v -29.22644522816094 12.987142449477892 -0.8845358062716515 
v -28.930304630615268 13.3485710028374 0.0014316014053089596 
v -28.605911123259872 13.67680273987496 0.8904208615863821 
v -28.253994095968658 13.972089008110547 1.7804942006926625 
v -27.875302493814363 14.23477373455293 2.6697975779241094 
v -27.470599064069656 14.465285864352433 3.556562102239067 
v -27.040655047657726 14.664131938431153 4.439104632123474 
v -26.58624532666872 14.831888874291508 5.315827635283892 
v -26.108144032737314 14.969197004140163 6.185218386030598 
v -25.607120615123943 15.076753414857258 7.04584757741441 
v -25.08393636225189 15.155305625316382 7.896367423359675 
v -24.53934136619812 15.205645628209199 8.73550932330462 
v -23.974071916175593 15.228604315909179 9.562081158415193 
v -23.38884830432479 15.225046303053437 10.37496428446063 
v -22.784373025090655 15.195865152438248 11.173110282091582 
v -22.161329348030748 15.141979005501357 11.955537520688752 
v -21.5203802430118 15.064326614075885 12.72132758727701 
v -20.862167636335553 14.96386376620763 13.469621627332947 
v -20.187311976322274 14.84156009558212 14.199616639740753 
v -19.496412087207094 14.698396261456198 14.910561763743392 
v -18.790045290808315 14.535361483873807 15.601754591548946 
v -18.068767776252134 14.353451417307827 16.272537536327302 
v -17.333115199032143 14.153666344650716 16.922294281699756 
v -16.58360349179832 13.937009672618224 17.55044633550225 
v -15.82072987046701 13.70448670907775 18.156449707601798 
v -15.044974020483142 13.457103702513557 18.73979172886723 
v -14.256799449317118 13.19586712374645 19.299988026036033 
v -13.456654992511957 12.921783170091096 19.83657966516899 
v -12.644976461787575 12.635857472318941 20.34913047463152 
v -11.822188424836886 12.339094985062209 20.837224557067533 
v -10.988706107494083 12.032500041612012 21.30046399862129 
v -10.14493740990329 11.717076554402338 21.738466782693237 
v -9.291285029151155 11.393828342806545 22.150864914766974 
v -8.42814868153793 11.063759570182365 22.537302764292804 
v -7.555927418236423 10.72787527236714 22.897435629236167 
v -6.675022028516897 10.387181960031697 23.23092852867265 
v -5.785837524988978 10.042688277437142 23.537455228711025 
v -4.888785705419565 9.695405700194222 23.81669750702751 
v -3.9842877856202747 9.346349254593548 24.06834466137242 
v -3.0727770976503557 8.996538240952825 24.29209326753941 
v -2.154701847143415 8.646996943213333 24.487647192440576 
v -1.2305279229306871 8.298755306713755 24.654717868080382 
v -0.3007417512928506 7.952849565679587 24.79302483233925 
v 0.6341468138802016 7.610322801498199 24.90229654253362 
v 1.5736015750122567 7.2722254123138095 24.98227146768246 
v 2.5170570603286118 6.9396154738871285 25.0326994652476 
v 3.463915592106764 6.61355897103892 25.053343447793047 
v 4.4135443688274565 6.2951298783566845 25.043981344490774 
v 5.365272578523681 5.985410068214948 25.004408361650608 
v 6.31838856299891 5.685489023572237 24.93443954543181 
v 7.272137055160931 5.396463332496777 24.833912648564926 
v 8.225716514476472 5.11943594097785 24.702691301236236 
v 9.178276588470142 4.855515140345362 24.540668484225133 
v 10.128915731236289 4.605813265596023 24.3477702999009 
v 11.076679013063373 4.371445081165169 24.123960033746155 
v 12.02055615843597 4.153525831247155 23.86924249565032 
v 12.9594798528172 3.953168932717255 23.583668626284584 
v 13.892324361650402 3.7714832901092374 23.267340349415072 
v 14.817904507866437 3.6095702140224533 22.920415646027816 
v 15.734975056742766 3.468519926837324 22.54311382063591 
v 16.642230559120033 3.349407642773684 22.135720924138134 
v 17.538305705616757 3.2532892131930478 21.69859529114113 
v 18.42177624545705 3.1811963326768358 21.23217314280471 
v 19.29116052369498 3.1341313068504535 20.736974199107948 
v 20.1449216898302 3.1130613891959897 20.21360723707267 
v 20.981470628887493 3.1189127012034854 19.662775524043866 
v 21.79916966735926 3.1525637612926523 19.085282052912405 
v 22.596336021108765 3.214837774209048 18.482032881989205 
v 23.371144891027704 3.306384149401518 17.85389993235612 
v 24.12144409079615 3.4273472181109956 17.201459728019444 
v 24.844981481320346 3.5776616533965853 16.525325777691844 
v 25.539474803641237 3.7571727044156193 15.826246784512811 
v 26.20262444088578 3.9656330908979935 15.105114213087342 
v 26.832125913567477 4.202696046658909 14.362966626365859 
v 27.42568376227338 4.467908776182904 13.600992928789319 
v 27.981026543833877 4.76070637635621 12.82053457678423 
v 28.495922989453998 5.080406398332655 12.023086462071293 
v 28.96819920571607 5.426204214447679 11.210296284189477 
v 29.395756754077222 5.797169366412955 10.383962229241346 
v 29.776590967957684 6.192242598381887 9.546029777019658 
v 30.10881027254451 6.610234461859483 8.698585795118456 
v 30.390655205745013 7.049825256435582 7.843851078881717 
v 30.620592790711477 7.509527076731897 6.984170160311106 
v 30.79765801459184 7.987590293800753 6.121991331375733 
v 30.921528201103527 8.482074091005085 5.259789656680349 
v 30.99218141177494 8.990994979338678 4.399988265879394 
v 31.009799692549922 9.512357212262977 3.5449310585099263 
v 30.974760144567416 10.044164563026495 2.6968708951814246 
v 30.887624335920677 10.584431547881115 1.8579591671696387 
v 30.749126598880842 11.131193942120428 1.0302368019758905 
v 30.560161429472192 11.682518496444263 0.21562673036141142 
v 30.321770207291554 12.236511781685836 -0.584072187083054 
v 30.03512744855546 12.791328109748203 -1.367189799725596 
v 29.701526796428304 13.345176497807637 -2.1321879202905656 
v 29.322366940353522 13.896326661018502 -2.877662257583521 
v 28.89913764103761 14.443114035740274 -3.6023431096613265 
v 28.43340602059377 14.983943850428325 -4.305094910833433 
v 27.926803258791516 15.51729427459582 -4.98491473505775 
v 27.381011816997034 16.041718687552123 -5.6409298645079184 
v 26.797753291788332 16.555847117914578 -6.27239453553714 
v 26.178776980884823 17.058386912199456 -6.878685975199802 
v 25.52584922536488 17.548122696202118 -7.45929984020709 
v 24.840743574501193 18.02391569649755 -8.013845167000266 
v 24.125231803190072 18.484702491384056 -8.54203893684723 
v 23.38107579708016 18.929493261131473 -9.043700353823665 
v 22.610020307243403 19.357369606670826 -9.51874492653496 
v 21.813786564639305 19.767482004069578 -9.967178436754796 
v 20.994066734712614 20.159046959468988 -10.389090870059285 
v 20.1525191841995 20.531343925803032 -10.784650375251225 
v 19.29076452552653 20.883712038746463 -11.154097311094798 
v 18.410382398971517 21.215546725111434 -11.49773843078175 
v 17.512908948896115 21.526296232470337 -11.815941246760174 
v 16.59983494772449 21.81545812425128 -12.109128611180173 
v 15.672604519790834 22.08257578003759 -12.37777354032385 
v 14.732614416569211 22.32723493639236 -12.622394305042645 
v 13.781213794992677 22.549060299293625 -12.843549803453516 
v 12.819704451430663 22.747712255261153 -13.041835226959126 
v 11.849341465297815 22.922883704521972 -13.21787802605316 
v 10.871334208097108 23.07429703612731 -13.372334178334317 
v 9.886847675849024 23.201701261814893 -13.505884757656334 
v 8.897004105231723 23.30486932261541 -13.619232800353817 
v 7.902884836270813 23.383595579729356 -13.713100461966915 
v 6.905532386998829 23.437693499043885 -13.788226455800947 
v 5.905952708091443 23.466993536806037 -13.845363762956737 
v 4.905117588027478 23.47134123240293 -13.885277602110682 
v 3.9039671817694037 23.45059551290175 -13.908743646267132 
v 2.903412638284835 23.404627212950967 -13.91654647290835 
v 1.9043388043993534 23.333317812816983 -13.909478233389304 
v 0.9076069844649635 23.23655839670218 -13.888337527028785 
v -0.08594226286990685 23.114248833038108 -13.853928465100172 
v -1.0754863079055377 22.96629717814549 -13.807059909792997 
v -2.060217628882524 22.79261930447677 -13.748544873171411 
v -3.0393410012826463 22.59313875458246 -13.679200061171956 
v -4.012070711051939 22.36778682194463 -13.59984554773765 
v -4.977627804627411 22.11650285987607 -13.5113045642583 
v -5.935237388133524 21.83923481976645 -13.414403389560565 
v -6.884125987811633 21.53594002004423 -13.309971325751052 
v -7.823518983649619 21.20658614728936 -13.19884074524927 
v -8.752638128283587 20.85115249095318 -13.081847194344983 
v -9.670699163540665 20.469631413092333 -12.959829538568876 
v -10.576909547472194 20.0620300543781 -12.833630135071967 
v -11.470466305379473 19.62837227737385 -12.704095017064754 
v -12.35055401914639 19.168700847655515 -12.572074075172262 
v -13.216342970150782 18.683079852754233 -12.438421220317773 
v -14.06698745211133 18.17159735809945 -12.303994512461438 
v -14.901624271419829 17.63436829810507 -12.169656239197748 
v -15.719371453785962 17.071537599242934 -12.036272927868465 
v -16.51932717735679 16.4832835303576 -11.904715274488854 
v -17.300568953833977 15.869821273566824 -11.775857972431275 
v -18.06215308046291 15.231406706836815 -11.650579423481933 
v -18.803114387067282 14.568340386696088 -11.529761313606905 
v -19.522466303503695 13.880971716536182 -11.414288035560029 
v -20.219201273959836 13.169703282524997 -11.305045940368316 
v -20.892291545357654 12.434995335319467 -11.202922399774868 
v -21.540690357683403 11.677370391505448 -11.1088046619426 
v -22.163333564277714 10.89741792402168 -11.023578483165617 
v -22.7591417099031 10.095799105758845 -10.948126519042608 
v -23.327022593680326 9.273251565096938 -10.883326459584396 
v -23.865874342662636 8.430594106400688 -10.830048894102976 
v -24.37458901980881 7.56873134250017 -10.789154893509622 
v -24.852056787333133 6.688658180026605 -10.761493299881245 
v -25.297170642766588 5.791464092259453 -10.747897715880416 
v -25.708831740477972 4.878337108000938 -10.749183189873824 
v -26.085955305805378 3.9505674390833065 -10.766142596417168 
v -26.427477142280754 3.009550663612945 -10.799542716183126 
v -26.73236072463325 2.0567903771691984 -10.850120024393805 
v -26.99960486694907 1.0939002211595183 -10.918576207280587 
v -27.228250404484104 0.1226046478935872 -11.005572057610484 
v -27.417257318055473 -0.8553023788740767 -11.111567939025154 
v -27.565298711576208 -1.8380310900230934 -11.236418222432834 
v -27.67105065937826 -2.823691631242303 -11.379764469449837 
v -27.733270928447997 -3.810266271110826 -11.54118378029566 
v -27.750813981703708 -4.79561136338922 -11.720189699423536 
v -27.72264489943333 -5.777461549621909 -11.91622872990921 
v -27.647853598586508 -6.753435467120948 -12.128677236466018 
v -27.525669152927513 -7.721043351433566 -12.356838867588026 
v -27.355474024351178 -8.677696181534186 -12.599942499508762 
v -27.136817996470548 -9.620716641565755 -12.857140826175144 
v -26.86943156969133 -10.547351882804678 -13.127509672225026 
v -26.553238399258113 -11.454788497426833 -13.410048244331346 
v -26.188367103365316 -12.340167868223594 -13.703679843384787 
v -25.7751611930509 -13.200604254320945 -14.007253940783684 
v -25.314254765532866 -14.03325025215309 -14.319525190395732 
v -24.806844616322515 -14.835522138694442 -14.63912297133252 
v -24.254681755870614 -15.60520931086803 -14.964617601194771 
v -23.659725699653205 -16.340328023109322 -15.294583850443557 
v -23.024046733794123 -17.039083373983427 -15.62760672222835 
v -22.3498089494217 -17.699873407362475 -15.962288748111993 
v -21.639252989061323 -18.32129107876952 -16.297256719150287 
v -20.89467899312508 -18.902124376374182 -16.63116781790737 
v -20.118429950973553 -19.441354708631355 -16.962715107897775 
v -19.312875639925025 -19.938153693418823 -17.290632351368647 
v -18.480397312279255 -20.391878499940965 -17.613698139666553 
v -17.623373265773097 -20.802065906513693 -17.930739332960563 
v -16.744165407655515 -21.16842524477133 -18.240633817574672 
v -15.845106897462738 -21.490830404098908 -18.54231259943247 
l 1 2
l 2 3
l 3 4
l 4 5
l 5 6
l 6 7
l 7 8
l 8 9
l 9 10
l 10 11
l 11 12
l 12 13
l 13 14
l 14 15
l 15 16
l 16 17
l 17 18
l 18 19
l 19 20
l 20 21
l 21 22
l 22 23
l 23 24
l 24 25
l 25 26
l 26 27
l 27 28
l 28 29
l 29 30
l 30 31
l 31 32
l 32 33
l 33 34
l 34 35
l 35 36
l 36 37
l 37 38
l 38 39
l 39 40
l 40 41
l 41 42
l 42 43
l 43 44
l 44 45
l 45 46
l 46 47
l 47 48
l 48 49
l 49 50
l 50 51
l 51 52
l 52 53
l 53 54
l 54 55
l 55 56
l 56 57
l 57 58
l 58 59
l 59 60
l 60 61
l 61 62
l 62 63
l 63 64
l 64 65
l 65 66
l 66 67
l 67 68
l 68 69
l 69 70
l 70 71
l 71 72
l 72 73
l 73 74
l 74 75
l 75 76
l 76 77
l 77 78
l 78 79
l 79 80
l 80 81
l 81 82
l 82 83
l 83 84
l 84 85
l 85 86
l 86 87
l 87 88
l 88 89
l 89 90
l 90 91
l 91 92
l 92 93
l 93 94
l 94 95
l 95 96
l 96 97
l 97 98
l 98 99
l 99 100
l 100 101
l 101 102
l 102 103
l 103 104
l 104 105
l 105 106
l 106 107
l 107 108
l 108 109
l 109 110
l 110 111
l 111 112
l 112 113
l 113 114
l 114 115
l 115 116
l 116 117
l 117 118
l 118 119
l 119 120
l 120 121
l 121 122
l 122 123
l 123 124
l 124 125
l 125 126
l 126 127
l 127 128
l 128 129
l 129 130
l 130 131
l 131 132
l 132 133
l 133 134
l 134 135
l 135 136
l 136 137
l 137 138
l 138 139
l 139 140
l 140 141
l 141 142
l 142 143
l 143 144
l 144 145
l 145 146
l 146 147
l 147 148
l 148 149
l 149 150
l 150 151
l 151 152
l 152 153
l 153 154
l 154 155
l 155 156
l 156 157
l 157 158
l 158 159
l 159 160
l 160 161
l 161 162
l 162 163
l 163 164
l 164 165
l 165 166
l 166 167
l 167 168
l 168 169
l 169 170
l 170 171
l 171 172
l 172 173
l 173 174
l 174 175
l 175 176
l 176 177
l 177 178
l 178 179
l 179 180
l 180 181
l 181 182
l 182 183
l 183 184
l 184 185
l 185 186
l 186 187
l 187 188
l 188 189
l 189 190
l 190 191
l 191 192
l 192 193
l 193 194
l 194 195
l 195 196
l 196 197
l 197 198
l 198 199
l 199 200
l 200 201
l 201 202
l 202 203
l 203 204
l 204 205
l 205 206
l 206 207
l 207 208
l 208 209
l 209 210
l 210 211
l 211 212
l 212 213
l 213 214
l 214 215
l 215 216
l 216 217
l 217 218
l 218 219
l 219 220
l 220 221
l 221 222
l 222 223
l 223 224
l 224 225
l 225 226
l 226 227
l 227 228
l 228 229
l 229 230
l 230 231
l 231 232
l 232 233
l 233 234
l 234 235
l 235 236
l 236 237
l 237 238
l 238 239
l 239 240
l 240 241
l 241 242
l 242 243
l 243 244
l 244 245
l 245 246
l 246 247
l 247 248
l 248 249
l 249 250
l 250 251
l 251 252
l 252 253
l 253 254
l 254 255
l 255 256
l 256 257
l 257 258
l 258 259
l 259 260
l 260 261
l 261 262
l 262 263
l 263 264
l 264 265
l 265 266
l 266 267
l 267 268
l 268 269
l 269 270
l 270 271
l 271 272
l 272 273
l 273 274
l 274 275
l 275 276
l 276 277
l 277 278
l 278 279
l 279 280
l 280 281
l 281 282
l 282 283
l 283 284
l 284 285
l 285 286
l 286 287
l 287 288
l 288 289
l 289 290
l 290 291
l 291 292
l 292 293
l 293 294
l 294 295
l 295 296
l 296 297
l 297 298
l 298 299
l 299 300
l 300 301
l 301 302
l 302 303
l 303 304
l 304 305
l 305 306
l 306 307
l 307 308
l 308 309
l 309 310
l 310 311
l 311 312
l 312 313
l 313 314
l 314 315
l 315 316
l 316 317
l 317 318
l 318 319
l 319 320
l 320 321
l 321 322
l 322 323
l 323 324
l 324 325
l 325 326
l 326 327
l 327 328
l 328 329
l 329 330
l 330 331
l 331 332
l 332 333
l 333 334
l 334 335
l 335 336
l 336 337
l 337 338
l 338 339
l 339 340
l 340 341
l 341 342
l 342 343
l 343 344
l 344 345
l 345 346
l 346 347
l 347 348
l 348 349
l 349 350
l 350 351
l 351 352
l 352 353
l 353 354
l 354 355
l 355 356
l 356 357
l 357 358
l 358 359
l 359 360
l 360 361
l 361 362
l 362 363
l 363 364
l 364 365
l 365 366
l 366 367
l 367 368
l 368 369
l 369 370
l 370 371
l 371 372
l 372 373
l 373 374
l 374 375
l 375 376
l 376 377
l 377 378
l 378 379
l 379 380
l 380 381
l 381 382
l 382 383
l 383 384
l 384 385
l 385 386
l 386 387
l 387 388
l 388 389
l 389 390
l 390 391
l 391 392
l 392 393
l 393 394
l 394 395
l 395 396
l 396 397
l 397 398
l 398 399
l 399 400
l 400 1
