v 16.01596608774492 12.866143823180996 44.72813221112135 
v 16.341175265428692 13.636636217878532 44.17991176509604 
v 16.643435070074325 14.379544323845574 43.58267327688033 
v 16.922024519461235 15.09255141957747 42.93926189272186 
v 17.17636927621292 15.773583232863382 42.25262075073255 
v 17.406037561674882 16.420809750362107 41.52576157702216 
v 17.610734705453048 17.032644038361504 40.76173659009604 
v 17.790296536269512 17.60773834923956 39.963612057058356 
v 17.944681824002195 18.144977818546646 39.13444377601156 
v 18.073963980867074 18.64347207639248 38.27725469033744 
v 18.17832222251783 19.102545104809714 37.39501477450098 
v 18.258032378310883 19.521723671145747 36.490623269428795 
v 18.313457525078565 19.90072465767781 35.566893289737216 
v 18.3450386014175 20.239441591030513 34.62653877604861 
v 18.35328514062365 20.53793065310298 33.67216372386485 
v 18.338766240793742 20.796396429536248 32.70625358613913 
v 18.302101870961838 21.01517762362254 31.731168719673413 
v 18.243954593030058 21.194732934183772 30.749139725405552 
v 18.16502176114375 21.335627266370327 29.762264518989838 
v 18.06602824339864 21.438518415416354 28.77250696015147 
v 17.947719695587086 21.504144335821056 27.78169686636605 
v 17.81085640323406 21.533311082722093 26.79153123771176 
v 17.656207696499738 21.52688148874666 25.80357652450041 
v 17.484546932626138 21.485764618588465 24.819271776786017 
v 17.29664703241772 21.410906025068094 23.839932524402023 
v 17.093276550668804 21.303278814494426 22.8667552471846 
v 16.875196255352733 21.163875515685085 21.90082230696835 
v 16.64315618662255 20.993700735893416 20.943107225339986 
v 16.397893164083037 20.79376457795757 19.99448020362787 
v 16.140128709222026 20.565076786035377 19.055713793888117 
v 15.87056734918082 20.30864158210506 18.127488641484344 
v 15.589895268053072 20.025453151779253 17.21039923107175 
v 15.298779272494219 19.71649173568541 16.304959578263162 
v 14.997866039476571 19.382720281505488 15.411608818895257 
v 14.68778161542994 19.025081611550874 14.530716656585417 
v 14.369131137669212 18.644496061300732 13.662588637161104 
v 14.042498750846853 18.241859545496087 12.807471225566312 
v 13.708447693111161 17.818042010019035 11.96555666703307 
v 13.367520528643292 17.37388622977548 11.136987619693313 
v 13.020239505241147 16.910206915037108 10.321861550449725 
v 12.667107017579655 16.427790091095584 9.520234889881463 
v 12.308606158676222 15.92739271856686 8.732126945292421 
v 11.945201343906163 15.409742524195861 7.957523573777593 
v 11.577338993630573 14.875538014504006 7.196380619447218 
v 11.20544826210864 14.32544864705665 6.448627120767467 
v 10.829941801861901 13.76011513647578 5.714168295404723 
v 10.451216554037343 13.180149874564641 4.992888311050124 
v 10.069654556579716 12.586137446030484 4.284652851498521 
v 9.685623763173721 11.97863522328043 3.589311487804717 
v 9.299478866957534 11.358174025618517 2.9066998646784166 
v 8.911562123946059 10.725258829887922 2.2366417124422466 
v 8.522204171940894 10.080369521182613 1.5789506948952345 
v 8.131724841451025 9.423961673700688 0.9334321033240617 
v 7.738798332731376 8.757420864292715 0.2998924107639962 
v 7.33711786769408 8.085006827804 -0.3218399551872143 
v 6.920404422932369 7.4110311317181266 -0.9318761491028686 
v 6.482478875268681 6.739978656084954 -1.5301615153820411 
v 6.024583160877174 6.072800889558568 -2.1177343497015984 
v 5.548110227016764 5.410277922718552 -2.695725814030762 
v 5.054399559211618 4.7531258403586785 -3.2653211473034847 
v 4.544739985942123 4.102005713963643 -3.82775173125128 
v 4.020373272013061 3.4575323843159955 -4.384287942231844 
v 3.482498391990335 2.8202829976067894 -4.936232693731987 
v 2.9322763895986292 2.1908052705162 -5.484915569064776 
v 2.3708357422218684 1.5696254691490497 -6.031687440182579 
v 1.7992781614248377 0.9572560936573514 -6.57791546605024 
v 1.2186847705562238 0.35420326505321864 -7.124978362306382 
v 0.630122608881922 -0.23902618670921655 -7.674261832704224 
v 0.0346514182412893 -0.821917933666221 -8.227154051860891 
v -0.5666693271572604 -1.3939436612387262 -8.78504108802423 
v -1.1727731845506117 -1.9545548843912866 -9.349302153829505 
v -1.7825793362185065 -2.503177077315447 -9.921304572378094 
v -2.3949850505926884 -3.0392041313840195 -10.502398345512347 
v -3.0088580523694666 -3.561993163579205 -11.093910211046763 
v -3.6230288491692795 -4.070859706467487 -11.697137076184767 
v -4.236283070704028 -4.565073321015475 -12.31333871572463 
v -4.8473538872616375 -5.043853685033547 -12.943729626345242 
v -5.454914587639891 -5.506367222686398 -13.589469932759602 
v -6.057571412460281 -5.951724354161731 -14.251655248419572 
v -6.6538567570086045 -6.378977459013984 -14.93130540342726 
v -7.2422228782363876 -6.78711966158608 -15.629351966118183 
v -7.821036263053048 -7.175084561836746 -16.3466245032606 
v -8.388572839127901 -7.54174704931122 -17.08383554784493 
v -8.94301423449878 -7.885925351183369 -17.841564273911764 
v -9.48244531751535 -8.206384476390676 -18.620238915647956 
v -10.004853272926692 -8.50184122581882 -19.420118013829764 
v -10.508128491847959 -8.77097094201991 -20.24127062718806 
v -10.990067571175919 -9.012416169639039 -21.08355570970286 
v -11.448378729698605 -9.224797387997418 -21.946600927078574 
v -11.880689951270721 -9.406725958456912 -22.829781266028586 
v -12.284560157344673 -9.556819399571221 -23.73219787712183 
v -12.657493689019198 -9.673719061008773 -24.652657683570084 
v -12.996958339720143 -9.756110211453352 -25.589654381220992 
v -13.300407120955185 -9.80274448522421 -26.54135154483084 
v -13.56549732914137 -9.8123116113892 -27.505517066858577 
v -13.790275047827908 -9.783345570999158 -28.47948395945511 
v -13.972860870214138 -9.714527290636642 -29.460247971929835 
v -14.111482006849913 -9.604714364397518 -30.44446994811233 
v -14.204506473503137 -9.452971521209744 -31.428484265937758 
v -14.250478787007587 -9.258601151877814 -32.40831404180572 
v -14.24815644862232 -9.021173096042094 -33.3796936510363 
v -14.19654635473201 -8.740552791331075 -34.33809894323526 
v -14.094940150626607 -8.416926813254271 -35.2787853131592 
v -13.94294744434586 -8.050824793591715 -36.19683352652546 
v -13.740525734418547 -7.643136705381068 -37.087202903874825 
v -13.488005887385022 -7.195124550855093 -37.94479114580183 
v -13.1861120362724 -6.708427589303805 -38.76449975512613 
v -12.835974865086822 -6.185060396163505 -39.54130369449622 
v -12.439137398751658 -5.627403250228731 -40.27032363208294 
v -11.997552630357317 -5.038184596157237 -40.94689889446792 
v -11.513572581072546 -4.420455613675974 -41.56665908422033 
v -10.989928691004348 -3.777557228701857 -42.1255922463317 
v -10.429703766075507 -3.1130802077920285 -42.62010749385139 
v -9.836296038029952 -2.4308192672758016 -43.04709013333201 
v -9.213376211864214 -1.734722383516837 -43.40394756212871 
v -8.564838657391418 -1.0288366941817486 -43.68864453158233 
v -7.894748131318024 -0.31725251864813164 -43.89972676496508 
v -7.20728357881567 0.3959529101220514 -44.03633236341416 
v -6.506680649678772 1.106770423245314 -44.09819089988906 
v -5.797174570058832 1.8113111127185677 -44.08561056214679 
v -5.082944938647559 2.5058544132091227 -43.99945413372651 
v -4.368063873725634 3.18689094641927 -43.841104973347555 
v -3.656448736938512 3.8511592574307407 -43.61242444963828 
v -2.9518204164645465 4.49567584717776 -43.31570249790075 
v -2.2576678835470663 5.117758185522233 -42.95360308379299 
v -1.5772194594419564 5.715040659211224 -42.52910638717158 
v -0.9134209606854418 6.285483654587487 -42.04544946549712 
v -0.26892064283238226 6.827376185793315 -41.50606703229775 
v 0.3539393530495115 7.339332648437504 -40.91453380732431 
v 0.9531255237952112 7.820284402963243 -40.27450967773335 
v 1.5269101046075577 8.269466971230171 -39.58968867036986 
v 2.07386344529928 8.686403666826617 -38.86375248921737 
v 2.5928424119615867 9.070886479154748 -38.10032913244231 
v 3.082975578183831 9.422954999537657 -37.30295688063821 
v 3.5436459535138476 9.74287412131408 -36.47505374946542 
v 3.9744719557287165 10.031111172025902 -35.61989233067745 
v 4.375287274039689 10.288313050888325 -34.74057980778568 
v 4.7461201986403685 10.515283854560268 -33.840042826461556 
v 5.087172913465879 10.712963383672303 -32.92101682366075 
v 5.398801168296188 10.882406835473315 -31.986039370624535 
v 5.681494667144128 11.024765907166206 -31.03744705986427 
v 5.9358584350500205 11.141271461919938 -30.077375461081242 
v 6.162595356945418 11.233217846252675 -29.10776168177316 
v 6.362490021384585 11.301948893880997 -28.13034909125459 
v 6.536393949280274 11.348845607093052 -27.146693798531135 
v 6.685212243423325 11.37531547170599 -26.158172511903008 
v 6.809891658236381 11.382783334921188 -25.165991448796767 
v 6.91141006036426 11.372683755946461 -24.17119600607594 
v 6.9907672286183535 11.346454726092327 -23.174680942359974 
v 7.048976925656984 11.305532647143124 -22.177200863495326 
v 7.087060162752985 11.25134845316907 -21.179380839440718 
v 7.106039572243236 11.185324760672296 -20.181727014918433 
v 7.106934798987675 11.108873934231454 -19.184637106956963 
v 7.090758821669528 11.023396958910931 -18.18841070980958 
v 7.058515116404206 10.930283016020027 -17.193259351722265 
v 7.0111955783336475 10.830909664831774 -16.199316268789378 
v 6.94977912118933 10.726643539178367 -15.206645878888594 
v 6.876362269968839 10.616784552513302 -14.215394293822364 
v 6.79326611957202 10.500177871769498 -13.225678531509544 
v 6.702800114829419 10.375657915406952 -12.237574022131774 
v 6.6072651661551145 10.242049251623857 -11.251135013350082 
v 6.508957360341662 10.09816788145939 -10.266414775118568 
v 6.410172003311838 9.942823075647627 -9.283485790669927 
v 6.313207680238149 9.774819854967784 -8.302459582108284 
v 6.220370148876017 9.59296240888122 -7.323507097978448 
v 6.133975700650962 9.396058490302751 -6.346878843257327 
v 6.0563537551810365 9.182925035869328 -5.3729252830124405 
v 5.989848379332729 8.95239517654414 -4.402117406427661 
v 5.936818418417726 8.703326821003758 -3.435067409346516 
v 5.899635910970595 8.434612991298058 -2.472549398357584 
v 5.8806824430257985 8.145194081261824 -1.5155199533713155 
v 5.882343085198924 7.834072191050302 -0.5651383083514051 
v 5.905300231887583 7.501153343184731 0.3775524885020058 
v 5.9443834547176735 7.149163389821515 1.3127576333775268 
v 5.994434906155373 6.780687140830817 2.2410662182943186 
v 6.050314272080924 6.3981910831007465 3.163353106357881 
v 6.106895666534634 6.0040536382186405 4.080682748909006 
v 6.15905958782192 5.600600845257751 4.99421617897931 
v 6.201683002991595 5.190146103704936 5.905120293766658 
v 6.229630591538374 4.775032739671483 6.814478345879538 
v 6.2377501886670235 4.357678195051572 7.7232005551763265 
v 6.220875463140788 3.940617763816049 8.631935692259448 
v 6.173839000058967 3.5265494869998006 9.540976495036409 
v 6.091499246825091 3.1183744500012054 10.450167634520566 
v 5.969319836494415 2.7184989332517713 11.358563935534693 
v 5.807170271501107 2.324072912214899 12.263078266995944 
v 5.605841415741672 1.9313289939360592 13.16042255439241 
v 5.366164828290563 1.536480173297167 14.047357492600673 
v 5.08902490868621 1.135752139635346 14.920634046610997 
v 4.775379516504268 0.7254171316023037 15.776935471068718 
v 4.426288458294955 0.3018301558978387 16.612823248796538 
v 4.042948382325345 -0.13853193462157165 17.42469055124667 
v 3.6267342565394216 -0.5990259254467133 18.20872216004625 
v 3.179246306043189 -1.082791572254846 18.960863727134953 
v 2.702361211207291 -1.5926939744999786 19.67680257564772 
v 2.198282532312929 -2.13122421732018 20.35198746128062 
v 1.668825077201889 -2.6971979218933315 20.983916046130112 
v 1.1157514534940027 -3.288611884141114 21.57070791916167 
v 0.5408902038194578 -3.9033916873071854 22.110676835427345 
v -0.05387550418421747 -4.5394042497478715 22.60233564741554 
v -0.6666192912222622 -5.194470468662515 23.044399524682085 
v -1.2953829524965184 -5.866377815451067 23.435787487164614 
v -1.938187691952737 -6.5528927451153125 23.77562230151554 
v -2.593045087815197 -7.251772791120491 24.06322881162789 
v -3.25796768227622 -7.9607782280676895 24.298130793879523 
v -3.9309790993195657 -8.677683197023255 24.48004644418843 
v -4.610123606856208 -9.400286202020041 24.608882617556343 
v -5.293475052284943 -10.126419900693636 24.684727951279164 
v -5.979145113912748 -10.853960126861432 24.70784501041376 
v -6.665290824052927 -11.580834097731232 24.67866159848788 
v -7.350121332762797 -12.305027773007986 24.597761377976195 
v -8.031903893820544 -13.0245923471599 24.465873943953948 
v -8.7089690664462 -13.737649869259636 24.283864490844742 
v -9.379715137259314 -14.442397996931593 24.05272320659862 
v -10.042611776894116 -15.137113901858026 23.773554521293086 
v -10.696202954462336 -15.820157353919544 23.44756632837337 
v -11.339109140605208 -16.489973019306447 23.07605928687047 
v -11.970028836187936 -17.14509201481675 22.66041630227398 
v -12.587739468772638 -17.784132766069575 22.20209227259307 
v -13.191097702899635 -18.40580122155599 21.70260417478745 
v -13.779039212974258 -19.008890477395834 21.163521555436258 
v -14.350577969279051 -19.59227986946107 20.586457478449944 
v -14.904805088403814 -20.15493359027119 19.97305997199657 
v -15.440887299312795 -20.695898887880574 19.325004006755467 
v -15.958065075458027 -21.21430390298411 18.643984028239213 
v -16.455650481910567 -21.709355198787897 17.931707057321383 
v -16.933024784525568 -22.180335035947717 17.18988636532465 
v -17.389635865786527 -22.62659844218458 16.420235723089416 
v -17.824995489286316 -23.047570123151708 15.624464217361961 
v -18.23867645188766 -23.442741257851253 14.80427162260021 
v -18.630309659544533 -23.811666218470318 13.961344311864854 
v -18.999581159630484 -24.15395925100458 13.097351686803274 
v -19.346229159472212 -24.469291149531628 12.213943103792387 
v -19.67004105768004 -24.757385953544045 11.312745271027543 
v -19.9708505118449 -25.018017694401088 10.395360089666557 
v -20.248534563269576 -25.251007213747275 9.463362910997684 
v -20.503010836647498 -25.45621907370492 8.518301180934259 
v -20.734234830015993 -25.633558575798443 7.561693442884374 
v -20.942197307906323 -25.782968902925163 6.595028670141108 
v -21.126921808398386 -25.9044283962596 5.619765899330443 
v -21.28846227276769 -25.997947976768952 4.637334137086782 
v -21.426900804585024 -26.063568719025618 3.649132512950667 
v -21.542345563492216 -26.101359583223747 2.6565306524553582 
v -21.634928797422965 -26.111415309732706 1.6608692454478853 
v -21.704805015758616 -26.093854479141733 0.6634607858405084 
v -21.752149304793452 -26.048817739554533 -0.3344095398214047 
v -21.777155785922357 -25.976466201867474 -1.3314828363863622 
v -21.780036216142516 -25.876980002896474 -2.3265253769380276 
v -21.76101872976821 -25.750557035491134 -3.3183273915088773 
v -21.720346719680556 -25.59741184417554 -4.305701785610055 
v -21.658277855959682 -25.417774684369146 -5.287482805467273 
v -21.57508323936245 -25.211890742853406 -6.2625246658699005 
v -21.47104668680248 -24.980019516846536 -7.229700155636928 
v -21.346464145748705 -24.722434348816197 -8.187899234885677 
v -21.201643234272627 -24.439422113984676 -9.136027637560927 
v -21.03690290333207 -24.131283057350604 -10.073005492046255 
v -20.85257321776972 -23.798330776952998 -10.997765972136712 
v -20.648995252418516 -23.44089235002596 -11.909253990202156 
v -20.42652109963323 -23.05930859862381 -12.806424944012345 
v -20.185513984499746 -22.653934491226565 -13.688243528425232 
v -19.926348483901442 -22.225139676753294 -14.553682622955588 
v -19.649410845538316 -21.773309147306446 -15.401722266137115 
v -19.355099402890705 -21.298844025833304 -16.23134872756239 
v -19.043825081988548 -20.802162474712315 -17.041553688524356 
v -18.716011995682088 -20.283700721042397 -17.831333542283538 
v -18.372098120904045 -19.743914194123885 -18.59968882513792 
v -18.012536054160144 -19.183278770261403 -19.345623789667776 
v -17.637793840178787 -18.602292119583602 -20.068146131755093 
v -17.24835586828597 -18.001475149054265 -20.766266883224255 
v -16.844723830643094 -17.381373535235852 -21.439000482203813 
v -16.427417735988993 -16.742559339653766 -22.08536503355371 
v -15.996976971958935 -16.08563269879029 -22.70438277192139 
v -15.553961408410043 -15.411223579806517 -23.29508074016554 
v -15.098952533461704 -14.719993592043743 -23.85649169599796 
v -14.632554613160718 -14.012637843189784 -24.387655259719782 
v -14.15539586480356 -13.289886827708859 -24.887619315844834 
v -13.668129632994658 -12.552508333726607 -25.355441681183702 
v -13.171435556492712 -11.80130935303674 -25.790192051580714 
v -12.66602071280284 -11.037137977258505 -26.190954238922178 
v -12.152620726317936 -10.260885261432517 -26.556828709237994 
v -11.631840835407727 -9.47361169187922 -26.886980573195903 
v -11.103930233543748 -8.676714119102021 -27.180708200934735 
v -10.569160890145096 -7.871622533152302 -27.437340563749938 
v -10.027829158739443 -7.059801267442466 -27.656239357471655 
v -9.480257404061112 -6.24275011932419 -27.836801458895206 
v -8.926795606765452 -5.422005309826682 -27.978461733545178 
v -8.367822952919672 -4.599140278664479 -28.080696185811984 
v -7.803749388993748 -3.775766271412184 -28.143025453644366 
v -7.235017126527175 -2.953532681881583 -28.165018644083055 
v -6.6621020790523655 -2.134127111461751 -28.14629750258872 
v -6.085515212230035 -1.3192751061040549 -28.086540905353083 
v -5.5058037865221605 -0.5107395308178382 -27.985489659567612 
v -4.92355247012536 0.28968045893823974 -27.842951591948957 
v -4.339384298348648 1.0801508896507288 -27.658806900684233 
v -3.7539614541866593 1.8588049261809834 -27.433013740373614 
v -3.167985843560361 2.623745351459924 -27.165614003537826 
v -2.582199437625123 3.3730476069814053 -26.856739255865357 
v -1.997384353738628 4.1047634291629675 -26.506616775657434 
v -1.4143626462008452 4.816925113321826 -26.11557564096722 
v -0.8339957777903971 5.507550432754508 -25.68405280082347 
v -0.2571837434935876 6.174648235137222 -25.21259905980058 
v 0.3151361812783632 6.816224732121245 -24.701884898193164 
v 0.8819910941959915 7.430290490541264 -24.15270604334223 
v 1.4423745453073313 8.014868125065414 -23.565988701433707 
v 1.995249063331887 8.568000682401735 -22.942794353559222 
v 2.539549146552501 9.087760696377357 -22.284324015222257 
v 3.074184731510747 9.57225988140106 -21.59192185503112 
v 3.5980451475187163 10.019659419125063 -20.86707806629104 
v 4.1100035590145065 10.42818077969997 -20.11143088483852 
v 4.608921891039734 10.796117005075747 -19.326767647990323 
v 5.093656225660962 11.121844367595925 -18.515024793126646 
v 5.563062649077237 11.403834302961553 -17.678286700383683 
v 6.016003520567966 11.640665502846801 -16.818783292344634 
v 6.451354125484352 11.831036039406895 -15.938886314587876 
v 6.867956107985377 11.973871547252514 -15.04109407178078 
v 7.263453277693291 12.07059750779752 -14.127739185020676 
v 7.635595151790888 12.12286317804326 -13.201040376264647 
v 7.9822622338012765 12.132460416545275 -12.263105098947575 
v 8.301459299491743 12.101304199451008 -11.315932467679708 
v 8.591308308479151 12.031415405470915 -10.361418349486778 
v 8.850041278453064 11.924905895188177 -9.401362309448036 
v 9.075993430822864 11.783965853232868 -8.437476115551842 
v 9.267597036415973 11.610853153300601 -7.471392701386309 
v 9.423375525329828 11.407885201232672 -6.504678630268634 
v 9.541939251924198 11.177432381148234 -5.538844913730476 
v 9.621982282403058 10.921913281055888 -4.575359041488589 
v 9.662280571196012 10.643791463336182 -3.6156574162768944 
v 9.661691700691655 10.345573552045266 -2.6611579098570712 
v 9.619156316538906 10.029808404256631 -1.7132723443884936 
v 9.533701368319305 9.699087119722016 -0.7734187084146307 
v 9.404445242034988 9.35604363170635 0.15696708155541417 
v 9.230604845656996 9.003355611551191 1.0764200643647055 
v 9.011549494285802 8.643718608052403 1.9834372828115279 
v 8.753112494197701 8.275967452038545 2.876735686624763 
v 8.461155091898384 7.8986609811654445 3.755610035971319 
v 8.1414337737963 7.510173715781588 4.619832540510694 
v 7.79959646900911 7.108727030188086 5.469547809413729 
v 7.441194563743147 6.692421711183846 6.305172250931633 
v 7.071706963563926 6.259272711000159 7.127298495821832 
v 6.6965726347841406 5.807247144430711 7.936604808816002 
v 6.32122822827388 5.334306758978907 8.733769069220822 
v 5.951146510311623 4.838454859762902 9.519388810102127 
v 5.591876152778041 4.317793966377778 10.293898746149639 
v 5.249074227095036 3.7705891246276355 11.057496375491656 
v 4.926382382273044 3.1980039043085497 11.8111853308928 
v 4.623898134779934 2.6051257991905823 12.557531297024186 
v 4.341402780462909 1.9970078250004415 13.299436525411672 
v 4.07859619763412 1.3785328354120854 14.04001418941814 
v 3.835134600598807 0.7544694522235439 14.782512369767037 
v 3.6106619154810202 0.12953310997545603 15.53024099126057 
v 3.404835789025292 -0.49154847683121144 16.28649715177142 
v 3.2173471987438624 -1.1039715436388964 17.054490656302118 
v 3.047934847332265 -1.702794655370845 17.837264906079355 
v 2.8963942810171273 -2.282882629427254 18.63761173976978 
v 2.762581805350927 -2.838859188166836 19.457978538859514 
v 2.6466877141570855 -3.3665631194461754 20.299472988834207 
v 2.5494499103895447 -3.8644148922198482 21.16127489797246 
v 2.4715948530782272 -4.33080890188004 22.042426176163897 
v 2.4138319711848806 -4.764121434355936 22.94182277021623 
v 2.376847525206342 -5.162719809302824 23.858207039073847 
v 2.3612979231055564 -5.524972745705108 24.79016073981865 
v 2.3678025086789347 -5.849261977051892 25.736098812210802 
v 2.3969358537166676 -6.133995123353276 26.69426416489401 
v 2.449219600218305 -6.377619803503402 27.66272367942838 
v 2.5251139153472058 -6.578638943836835 28.63936565812354 
v 2.6250086395090895 -6.735627207292208 29.621898947249324 
v 2.7492142265822097 -6.847248432698222 30.6078539675827 
v 2.8979525944571343 -6.912273935848955 31.594585878384326 
v 3.071348023093938 -6.929601483989331 32.57928008781085 
v 3.269418255591163 -6.898274714087418 33.55896030159174 
v 3.4920659744978133 -6.81750272408077 34.53049927184262 
v 3.739070839915984 -6.686679526642883 35.4906323687123 
v 4.010082286910729 -6.505403018628382 36.43597404905939 
v 4.304613286421762 -6.273493088089633 37.363037238818755 
v 4.622035275346558 -5.9910084565722626 38.26825557990376 
v 4.961574456911935 -5.658261839252162 39.14800841966143 
v 5.322309661197119 -5.275833001222015 39.9986483428474 
v 5.703171937254157 -4.8445792964891 40.81653096512444 
v 6.102946022504499 -4.365643298263428 41.59804662599354 
v 6.520273802112925 -3.840457165662676 42.33965354099826 
v 6.953659831356071 -3.270743443200568 43.037911901415455 
v 7.401478948501506 -2.658512054827929 43.68951834795914 
v 7.861985955662936 -2.006053332582334 44.29134019667492 
v 8.333327292114307 -1.3159270090379027 44.8404487632668 
v 8.813554570535649 -0.5909471999804771 45.3341511191244 
v 9.300639793734602 0.16583649430374695 45.77001962012198 
v 9.792492019742129 0.9511615378853739 46.14591857875788 
v 10.286975198992625 1.7615783273261838 46.46002750129694 
v 10.781926870580776 2.5934789559826052 46.71086038309656 
v 11.275177377066866 3.443128370486764 46.89728064501307 
v 11.764569240304867 4.306697349416085 47.018511398506774 
v 12.247976335130529 5.180296685923044 47.07414084279408 
v 12.72332250375879 6.060011927648491 47.06412271955452 
v 13.188599271123026 6.94193801965588 46.988771874389805 
v 13.641882349314573 7.822213209448783 46.84875509451881 
v 14.0813466564284 8.697051606409994 46.64507750439871 
v 14.505279619762618 9.562773839337675 46.37906490092428 
v 14.912092583435626 10.415835322473178 46.05234249414645 
v 15.300330193890318 11.25285171923571 45.666810585535394 
v 15.668677691229675 12.070621280132984 45.224617762148895 
l 1 2
l 2 3
l 3 4
l 4 5
l 5 6
l 6 7
l 7 8
l 8 9
l 9 10
l 10 11
l 11 12
l 12 13
l 13 14
l 14 15
l 15 16
l 16 17
l 17 18
l 18 19
l 19 20
l 20 21
l 21 22
l 22 23
l 23 24
l 24 25
l 25 26
l 26 27
l 27 28
l 28 29
l 29 30
l 30 31
l 31 32
l 32 33
l 33 34
l 34 35
l 35 36
l 36 37
l 37 38
l 38 39
l 39 40
l 40 41
l 41 42
l 42 43
l 43 44
l 44 45
l 45 46
l 46 47
l 47 48
l 48 49
l 49 50
l 50 51
l 51 52
l 52 53
l 53 54
l 54 55
l 55 56
l 56 57
l 57 58
l 58 59
l 59 60
l 60 61
l 61 62
l 62 63
l 63 64
l 64 65
l 65 66
l 66 67
l 67 68
l 68 69
l 69 70
l 70 71
l 71 72
l 72 73
l 73 74
l 74 75
l 75 76
l 76 77
l 77 78
l 78 79
l 79 80
l 80 81
l 81 82
l 82 83
l 83 84
l 84 85
l 85 86
l 86 87
l 87 88
l 88 89
l 89 90
l 90 91
l 91 92
l 92 93
l 93 94
l 94 95
l 95 96
l 96 97
l 97 98
l 98 99
l 99 100
l 100 101
l 101 102
l 102 103
l 103 104
l 104 105
l 105 106
l 106 107
l 107 108
l 108 109
l 109 110
l 110 111
l 111 112
l 112 113
l 113 114
l 114 115
l 115 116
l 116 117
l 117 118
l 118 119
l 119 120
l 120 121
l 121 122
l 122 123
l 123 124
l 124 125
l 125 126
l 126 127
l 127 128
l 128 129
l 129 130
l 130 131
l 131 132
l 132 133
l 133 134
l 134 135
l 135 136
l 136 137
l 137 138
l 138 139
l 139 140
l 140 141
l 141 142
l 142 143
l 143 144
l 144 145
l 145 146
l 146 147
l 147 148
l 148 149
l 149 150
l 150 151
l 151 152
l 152 153
l 153 154
l 154 155
l 155 156
l 156 157
l 157 158
l 158 159
l 159 160
l 160 161
l 161 162
l 162 163
l 163 164
l 164 165
l 165 166
l 166 167
l 167 168
l 168 169
l 169 170
l 170 171
l 171 172
l 172 173
l 173 174
l 174 175
l 175 176
l 176 177
l 177 178
l 178 179
l 179 180
l 180 181
l 181 182
l 182 183
l 183 184
l 184 185
l 185 186
l 186 187
l 187 188
l 188 189
l 189 190
l 190 191
l 191 192
l 192 193
l 193 194
l 194 195
l 195 196
l 196 197
l 197 198
l 198 199
l 199 200
l 200 201
l 201 202
l 202 203
l 203 204
l 204 205
l 205 206
l 206 207
l 207 208
l 208 209
l 209 210
l 210 211
l 211 212
l 212 213
l 213 214
l 214 215
l 215 216
l 216 217
l 217 218
l 218 219
l 219 220
l 220 221
l 221 222
l 222 223
l 223 224
l 224 225
l 225 226
l 226 227
l 227 228
l 228 229
l 229 230
l 230 231
l 231 232
l 232 233
l 233 234
l 234 235
l 235 236
l 236 237
l 237 238
l 238 239
l 239 240
l 240 241
l 241 242
l 242 243
l 243 244
l 244 245
l 245 246
l 246 247
l 247 248
l 248 249
l 249 250
l 250 251
l 251 252
l 252 253
l 253 254
l 254 255
l 255 256
l 256 257
l 257 258
l 258 259
l 259 260
l 260 261
l 261 262
l 262 263
l 263 264
l 264 265
l 265 266
l 266 267
l 267 268
l 268 269
l 269 270
l 270 271
l 271 272
l 272 273
l 273 274
l 274 275
l 275 276
l 276 277
l 277 278
l 278 279
l 279 280
l 280 281
l 281 282
l 282 283
l 283 284
l 284 285
l 285 286
l 286 287
l 287 288
l 288 289
l 289 290
l 290 291
l 291 292
l 292 293
l 293 294
l 294 295
l 295 296
l 296 297
l 297 298
l 298 299
l 299 300
l 300 301
l 301 302
l 302 303
l 303 304
l 304 305
l 305 306
l 306 307
l 307 308
l 308 309
l 309 310
l 310 311
l 311 312
l 312 313
l 313 314
l 314 315
l 315 316
l 316 317
l 317 318
l 318 319
l 319 320
l 320 321
l 321 322
l 322 323
l 323 324
l 324 325
l 325 326
l 326 327
l 327 328
l 328 329
l 329 330
l 330 331
l 331 332
l 332 333
l 333 334
l 334 335
l 335 336
l 336 337
l 337 338
l 338 339
l 339 340
l 340 341
l 341 342
l 342 343
l 343 344
l 344 345
l 345 346
l 346 347
l 347 348
l 348 349
l 349 350
l 350 351
l 351 352
l 352 353
l 353 354
l 354 355
l 355 356
l 356 357
l 357 358
l 358 359
l 359 360
l 360 361
l 361 362
l 362 363
l 363 364
l 364 365
l 365 366
l 366 367
l 367 368
l 368 369
l 369 370
l 370 371
l 371 372
l 372 373
l 373 374
l 374 375
l 375 376
l 376 377
l 377 378
l 378 379
l 379 380
l 380 381
l 381 382
l 382 383
l 383 384
l 384 385
l 385 386
l 386 387
l 387 388
l 388 389
l 389 390
l 390 391
l 391 392
l 392 393
l 393 394
l 394 395
l 395 396
l 396 397
l 397 398
l 398 399
l 399 400
l 400 1
