v -24.92483338264525 -10.418416500960388 -13.648322993892812 
v -25.730787657593076 -10.686180911269371 -14.176274009950166 
v -26.530112574471815 -10.9113505141979 -14.733381287886447 
v -27.320478116097885 -11.092410447545952 -15.318639884946737 
v -28.099450692003217 -11.227949778988602 -15.930862588475994 
v -28.864503999963492 -11.316680792294406 -16.56867437138571 
v -29.613031987523733 -11.357458653530966 -17.230508530267233 
v -30.342363924642257 -11.349301169820299 -17.914604752114 
v -31.049781552501013 -11.291408316073273 -18.619009342295403 
v -31.73253822225825 -11.18318117247053 -19.34157782450809 
v -32.38787988217491 -11.024239889132225 -20.079980092456324 
v -33.0130677136199 -10.814440276305415 -20.83170825286259 
v -33.605402157787395 -10.553888610276246 -21.594087250366023 
v -34.16224801767606 -10.242954248657423 -22.364288307668776 
v -34.68106026634413 -9.88227966495456 -23.139345150157197 
v -35.15941014514786 -9.472787542177501 -23.916172914857867 
v -35.59501109707391 -9.015684608983392 -24.691589571138383 
v -35.98574405272654 -8.512461959032466 -25.462339607563365 
v -36.32968157207 -7.96489166383607 -26.225119668582145 
v -36.6251103452554 -7.37501956961612 -26.976605759218856 
v -36.870551571801776 -6.7451542571547245 -27.713481578612043 
v -37.06477876938971 -6.0778522372977 -28.4324674968816 
v -37.206832611143774 -5.375899550250282 -29.130349656802565 
v -37.29603245232931 -4.642290030361915 -29.804008664035933 
v -37.331984281920185 -3.8802005859644066 -30.450447328448014 
v -37.314584918888855 -3.092963922376477 -31.066816934827386 
v -37.244022364170256 -2.2840392021511224 -31.650441553760086 
v -37.12077231353001 -1.4569811873116767 -32.198839951420204 
v -36.9455909303294 -0.6154084417080032 -32.709744718695376 
v -36.719504066768934 0.2370288134304585 -33.18111831287275 
v -36.44379320420382 1.0966806014295023 -33.61116578604536 
v -36.11997845458867 1.959928282124503 -33.99834406013426 
v -35.74979902364442 2.8232143048513545 -34.34136769551281 
v -35.33519158026819 3.6830701464564157 -34.63921118530284 
v -34.87826700509929 4.536142023036309 -34.89110788738414 
v -34.38128600385133 5.379214037518145 -35.09654577833142 
v -33.84663406857567 6.209228503985899 -35.255260275712466 
v -33.27679625362564 7.023303270580835 -35.36722442589783 
v -32.67433220444964 7.818745942762289 -35.43263679283529 
v -32.04185183853728 8.593064984943615 -35.45190740884251 
v -31.381992031192347 9.343977748681882 -35.42564216165508 
v -30.697394606713196 10.069415537869455 -35.35462599351717 
v -29.990685880385932 10.767525874456103 -35.23980527920053 
v -29.264457940645947 11.436672171360842 -35.082269731954895 
v -28.52125180580486 12.07543105215172 -34.883234161181754 
v -27.763542537536022 12.682587579959586 -34.64402037481166 
v -26.993726345190403 13.257128671499855 -34.366039484662714 
v -26.2141096719552 13.798234976842778 -34.05077483608355 
v -25.426900216512898 14.305271502741856 -33.69976574540155 
v -24.634199812539457 14.777777248069633 -33.31459219137817 
v -23.837999063154236 15.215454105441141 -32.89686057107157 
v -23.040173608129365 15.618155264638087 -32.44819059705198 
v -22.242481887929483 15.985873332133806 -31.970203382414 
v -21.446564259997597 16.31872835791411 -31.46451073288633 
v -20.653943318553424 16.616955936826365 -30.9327056417699 
v -19.866025268903158 16.880895527664865 -30.376353963500147 
v -19.08410221023362 17.11097910977026 -29.79698722525874 
v -18.309355186453367 17.30772027460115 -29.196096523081305 
v -17.542857872254825 17.47170382891232 -28.5751274390746 
v -16.785580770661213 17.60357596711353 -27.935475909370222 
v -16.038395808404815 17.70403505324766 -27.27848496797616 
v -15.302081226137297 17.773823037891724 -26.60544228940161 
v -14.577326671342808 17.813717522150117 -25.917578452489455 
v -13.864738412617816 17.82452446972096 -25.216065848969816 
v -13.164844604465463 17.80707155867431 -24.502018162546683 
v -12.478100541749683 17.762202156955652 -23.77649034757221 
v -11.804893852335326 17.6907698995696 -23.040479040304437 
v -11.145549585119184 17.59363384074653 -22.294923340170797 
v -10.500335158580983 17.47165415098477 -21.540705903187195 
v -9.869465142131897 17.325688326530525 -20.778654294558763 
v -9.25310584891201 17.156587877451926 -20.009542552386087 
v -8.651379724307896 16.965195459835495 -19.234092919220615 
v -8.064369519360536 16.752342417649523 -18.45297770287581 
v -7.492122242455622 16.51884670035639 -17.666821232348557 
v -6.93465288628275 16.265511123307363 -16.876201878896644 
v -6.391947930070731 15.993121939222592 -16.08165411622544 
v -5.863968619607698 15.702447690563886 -15.28367059734479 
v -5.3506540295921905 15.3942383142776 -14.482704228959642 
v -4.851923914487249 15.069224472159894 -13.679170227256764 
v -4.367681355314922 14.728117081927902 -12.873448141652519 
v -3.897815210780309 14.371607025926874 -12.06588383548515 
v -3.442202381796436 14.000365016233523 -11.256791414784239 
v -3.000709898933546 13.615041596703604 -10.446455098147224 
v -2.5731968425750464 13.216267264238201 -9.635131022416697 
v -2.1595161056595624 12.804652693193718 -8.823048980300989 
v -1.7595160088527642 12.380789048425298 -8.010414087334231 
v -1.3730417778492956 11.945248373925933 -7.197408376648445 
v -0.9999368922756767 11.49858404540006 -6.384192320947686 
v -0.6400443153687563 11.041331276390173 -5.570906281849893 
v -0.291746516175055 10.573111756657072 -4.758812208557451 
v 0.050509062178341474 10.091114716551628 -3.952228558299989 
v 0.39224062690817607 9.592562149580543 -3.1555477136763437 
v 0.7388705235437466 9.074801589192912 -2.3733680649035516 
v 1.090827859750672 8.539671299832518 -1.6053863633327043 
v 1.4484857114877434 7.989032289130032 -0.8511233405453982 
v 1.8122547743771042 7.424685557108169 -0.1100290400336846 
v 2.182580460424908 6.848376553707705 0.6185060590424029 
v 2.5599400099502607 6.261800404852686 1.3351407595390459 
v 2.9448395960662284 5.666607771612854 2.040573646371583 
v 3.3378113930346593 5.064411223443533 2.735534300711436 
v 3.739410574340173 4.456792021010364 3.4207751537172895 
v 4.150212201306808 3.8453072165275475 4.09706390098666 
v 4.570807958442959 3.2314969897147723 4.7651763965248115 
v 5.001802687396817 2.6168921453194023 5.425889944099303 
v 5.4438106674156606 2.003021703602661 6.079976904107369 
v 5.897451586537184 1.391420518219491 6.728198535325442 
v 6.3633461444459165 0.7836368565147437 7.37129899299762 
v 6.842111225087274 0.1812398754071964 8.009999407577897 
v 7.334354574875497 -0.414173078259204 8.644991972054568 
v 7.84066892083733 -1.0009694207344957 9.276933970196602 
v 8.361625462532515 -1.5774746246977576 9.9064416833665 
v 8.897766672374038 -2.1419659512886784 10.53408411988848 
v 9.44959834138596 -2.692666732873338 11.16037651853735 
v 10.017580811898645 -3.2277413342942545 11.785773586755678 
v 10.602119345666773 -3.7452909378743824 12.410662444983407 
v 11.203553585941057 -4.243350316415144 13.035355261287762 
v 11.822146085716701 -4.719885778356319 13.66008157561783 
v 12.458069892342875 -5.172794489489699 14.284980330777802 
v 13.111395201541947 -5.599905395275459 14.910091647888146 
v 13.782075122268715 -5.998981985804841 15.535348407901477 
v 14.469930628283704 -6.367727160429206 16.160567727782627 
v 15.174634813240523 -6.70379045939812 16.785442450238783 
v 15.895696613713422 -7.004777933597075 17.40953279919657 
v 16.632444218845578 -7.268264918457787 18.032258389127545 
v 17.384008445716884 -7.491811961911143 18.652890814078336 
v 18.149306425142367 -7.672984126295975 19.27054708076017 
v 18.927026011830087 -7.809373837829058 19.884184187775542 
v 19.71561140333289 -7.898627392134131 20.492595188031 
v 20.513250520890068 -7.9384751383439776 21.09440710116286 
v 21.31786476807698 -7.926765256014379 21.68808106449495 
v 22.12737468810724 -7.861680063453184 22.271556874041725 
v 22.939560892387046 -7.74167664799023 22.842464521619927 
v 23.75194354551393 -7.565443946416299 23.398302236888302 
v 24.561787486001485 -7.331942880866779 23.93645223205151 
v 25.366112292872348 -7.040446810963002 24.454200491416348 
v 26.16170778418821 -6.690581304785917 24.948760693591694 
v 26.945155311723454 -6.2823620921994765 25.417302215864773 
v 27.712855069816413 -5.8162299510109134 25.856982019769386 
v 28.46105945508436 -5.293081200788787 26.264980049501563 
v 29.185912301038325 -4.714292452248081 26.63853759713724 
v 29.883493574567403 -4.081738292161644 26.974997909118642 
v 30.549868869728275 -3.397800682657887 27.271848137498868 
v 31.181142781030466 -2.6653690239301766 27.526761588466954 
v 31.77351499841737 -1.887830070723576 27.737639101626183 
v 32.32333775563356 -1.0690472001177556 27.902648317700308 
v 32.82717309888106 -0.21332889011357153 28.020259569457362 
v 33.281848338404195 0.6746133310435058 28.08927716755718 
v 33.6845080137657 1.5897167870350368 28.1088649529011 
v 34.03266075161782 2.526628318393131 28.078565148620708 
v 34.32421952486234 3.4797722429483504 27.99830976209917 
v 34.55753403035593 4.443423823377424 27.86842404984694 
v 34.73141417886238 5.411786211210919 27.689621851258497 
v 34.845144020495326 6.379068689951229 27.462992904112106 
v 34.89848579196577 7.339563998496415 27.18998255668878 
v 34.891674146565 8.287722581908115 26.87236457043341 
v 34.825400991414284 9.218221783898269 26.512207946906646 
v 34.700791687923356 10.126028251255903 26.111838900385106 
v 34.519373652601175 11.006452145999353 25.673799224123545 
v 34.28303861285508 11.855192133611112 25.200802360039205 
v 33.993999918056 12.668370510822541 24.69568847925884 
v 33.65474637739685 13.442558229997402 24.16137981977427 
v 33.26799409567517 14.174789947476176 23.600837416092403 
v 32.83663771334026 14.862569552366924 23.01702020539862 
v 32.3637023386087 15.50386690706572 22.412847317812126 
v 31.852297299946596 16.097106743294336 21.791164167377318 
v 31.30557266037088 16.64115080473536 21.154712767254185 
v 30.726679234168383 17.135274410993098 20.50610650730714 
v 30.118732643880215 17.579138642824397 19.84780946304274 
v 29.484781760977352 17.97275932321322 19.182120157418023 
v 28.827781695534355 18.31647390236067 18.511159574957937 
v 28.150571343989096 18.61090725713058 17.836863132319017 
v 27.455855373076982 18.85693729687292 17.16097624058465 
v 26.746190413541115 19.05566113700851 16.485053050459744 
v 26.02397515885966 19.208362467259498 15.810457949456454 
v 25.29144401032847 19.31648060947716 15.13836937684109 
v 24.55066387782623 19.38158163566177 14.469785534000824 
v 23.803533732373612 19.405331803538438 13.805531591454312 
v 23.0517865088516 19.389473467169758 13.146268025658356 
v 22.296992971658213 19.335803534640746 12.4924997560901 
v 21.540567179543768 19.24615447401566 11.844585793280254 
v 20.78377321557441 19.12237781201339 11.202749149468717 
v 20.027732881717494 18.966330026153802 10.56708680373499 
v 19.27343409291539 18.7798606991517 9.937579551631197 
v 18.521739741116345 18.564802782565888 9.314101604697852 
v 17.77339683433974 18.322964803585354 8.696429837272259 
v 17.029045748582377 18.056124842823348 8.084252606465874 
v 16.28922946062571 17.766026110659922 7.477178096051679 
v 15.554402657223141 17.454373953723696 6.874742156378448 
v 14.824940640564598 17.12283413038945 6.2764156305348635 
v 14.101147971311772 16.773032203704073 5.681611172111165 
v 13.383266808958307 16.40655391111186 5.089689572376208 
v 12.671484924955536 16.02494638205094 4.499965624846121 
v 11.965943377163468 15.629720086387461 3.911713563406741 
v 11.265705164041636 15.222271976384455 3.3254655363635064 
v 10.569047348595953 14.803901167975319 2.7426543191965527 
v 9.874217765653073 14.37587843234098 2.1646886979731703 
v 9.179447907688568 13.939455059177627 1.5929668379906845 
v 8.48296547900413 13.495872347514014 1.02888939875297 
v 7.783006898607685 13.046371610034415 0.4738722823662543 
v 7.077830033239416 12.592204583412775 -0.07064109982736262 
v 6.365727440038735 12.134644138133805 -0.6031681666684566 
v 5.645040393070049 11.67499517639947 -1.1221762526009826 
v 4.914173958649538 11.214605595777716 -1.6260726008951818 
v 4.171613370094709 10.754877179093663 -2.1131954540335642 
v 3.415941931739642 10.297276247638264 -2.5818064632363735 
v 2.6458606530593385 9.843343885169444 -3.030084675862998 
v 1.8602097842473235 9.39470551022151 -3.4561223939523726 
v 1.0579923995297051 8.95307954634703 -3.857923228392166 
v 0.23856939165706714 8.520120642450879 -4.233590026060539 
v -0.5940413954770601 8.09303247233253 -4.58628004999718 
v -1.436171724266102 7.668832711377319 -4.919308153402848 
v -2.284429630801608 7.244400696014334 -5.236093739730494 
v -3.1356184438381436 6.8165189398713615 -5.540119252445479 
v -3.986652493542127 6.381912176907201 -5.834896135271911 
v -4.83447123419532 5.937285926550008 -6.123936081896455 
v -5.6759553838027905 5.479365502291609 -6.410726085681796 
v -6.507837784456295 5.004942255070935 -6.698702168369575 
v -7.326623732523413 4.510922355361639 -6.991224037712549 
v -8.128514103075869 3.9943844429028843 -7.291545704023244 
v -8.909335439071803 3.4526470471357626 -7.602780748488591 
v -9.664537534347492 2.8833626953201623 -7.9277554364475105 
v -10.393039114784639 2.2858780552063465 -8.262896457736915 
v -11.094640179285483 1.6598622732071746 -8.603306907340203 
v -11.76920066250145 1.0049984330568185 -8.944095371782046 
v -12.416595021328224 0.32102406524175353 -9.28036044961699 
v -13.036668273829354 -0.39221862249674216 -9.607173585772479 
v -13.629201893428652 -1.1347308891206653 -9.919566482090213 
v -14.193883889295563 -1.9062987991162057 -10.212522188573635 
v -14.730284861452235 -2.706429436188929 -10.48097265543967 
v -15.23784040505928 -3.534282685553717 -10.719804825979317 
v -15.71584035442658 -4.388599695236546 -10.923877338322008 
v -16.16342631669461 -5.267631404723954 -11.088050108848178 
v -16.579470005483024 -6.168870489721616 -11.209123451415625 
v -16.962654162502307 -7.08925153554477 -11.2869182638304 
v -17.311804409603713 -8.025674091456631 -11.321425640406623 
v -17.62589260160059 -8.97502051229292 -11.312803427832979 
v -17.904038898294676 -9.934173424538361 -11.261371533895048 
v -18.145512577456383 -10.900032630872271 -11.16760608717986 
v -18.349731628749534 -11.869531283453572 -11.03213255927953 
v -18.51626118517355 -12.839651174967297 -10.85571797159125 
v -18.644810863215138 -13.807437017115216 -10.639262316485388 
v -18.735231095329038 -14.770009598194617 -10.383789327376663 
v -18.787508548455413 -15.724577734068804 -10.0904367341648 
v -18.80176072995826 -16.6684489496125 -9.760446139764374 
v -18.778229887638407 -17.59903885007997 -9.395152650236419 
v -18.717276313405435 -18.513879163314567 -8.995974385634259 
v -18.619371160914607 -19.410624453884292 -8.564401991388301 
v -18.485088886163517 -20.28705752875206 -8.101988261206325 
v -18.31509941691422 -21.14109357071135 -7.610337972395963 
v -18.11016015210084 -21.97078305035624 -7.091098023560236 
v -17.87110788635759 -22.77431347970073 -6.545947953099364 
v -17.598850747721755 -23.55001008067792 -5.97659090517573 
v -17.2943602286908 -24.296335449657224 -5.384745098038898 
v -16.95866338239267 -25.011888304894548 -4.772135838106079 
v -16.592835246898133 -25.695401407597195 -4.140488112157754 
v -16.197991551875038 -26.345738749197338 -3.4915197796066937 
v -15.775281753045252 -26.961892097667025 -2.8269353771645975 
v -15.325882431416465 -27.542976994471395 -2.1484205394595124 
v -14.850991086156922 -28.088228291251994 -1.4576370313130524 
v -14.35182034236763 -28.596995311766705 -0.7562183805011121 
v -13.829592587964244 -29.068736720191 -0.045766093901779714 
v -13.285535047465492 -29.503015171801433 0.6721535650377841 
v -12.720875294730469 -29.899491816497985 1.3960122636431245 
v -12.136837201607715 -30.257920719743005 2.1243217814885873 
v -11.534637315051977 -30.578143259448357 2.855635717731827 
v -10.915481651513433 -30.860082551259605 3.588550757700049 
v -10.280562894280612 -31.103737948676013 4.321707533136059 
v -9.631057976925623 -31.309179658600332 5.053791110949611 
v -8.968126034015071 -31.476543507307774 5.78353114525693 
v -8.292906698764671 -31.60602588651583 6.50970172700352 
v -7.606518726279683 -31.697878904269803 7.231120964624788 
v -6.910058920385974 -31.752405760761597 7.946650328072743 
v -6.204601341766845 -31.769956364988712 8.6551937871877 
v -5.491196775129661 -31.750923204344563 9.35569677387784 
v -4.770872433386699 -31.69573747580778 10.047144995937668 
v -4.044631877302348 -31.604865484358978 10.728563128633333 
v -3.3134551296930503 -31.478805311584317 11.399013408447315 
v -2.5782989640298615 -31.318083755107253 12.057594151640465 
v -1.8400973481526077 -31.12325353750126 12.703438218583393 
v -1.0997620247292808 -30.89489078165253 13.33571144315487 
v -0.3581832110583211 -30.63359274813743 13.953611044920487 
v 0.38376959820834733 -30.339975829027633 14.556364040304683 
v 1.1252467408668099 -30.01467379161039 15.143225667563947 
v 1.865417423975618 -29.65833626478558 15.713477839066215 
v 2.6034687012489273 -29.27162746034911 16.266427633185643 
v 3.3386044037166163 -28.855225120969955 16.801405837035386 
v 4.070044035516878 -28.409819686390712 17.317765550284097 
v 4.797021645925693 -27.936113669207913 17.814880859432826 
v 5.518784688033644 -27.434821231496397 18.292145591164847 
v 6.234592873857446 -26.906667953512464 18.748972152717712 
v 6.94371703512407 -26.35239078572485 19.184790466658814 
v 7.645437998490401 -25.772738175463445 19.5990470069671 
v 8.339045483561508 -25.16847035952724 19.991203942927356 
v 9.023837031745149 -24.540359814140544 20.36073839702217 
v 9.699116973727442 -23.889191853676046 20.70714182275209 
v 10.364195443172806 -23.215765369562387 21.029919508118176 
v 11.018387444137224 -22.520893700750396 21.328590210354047 
v 11.661011979634273 -21.80540562701544 21.6026859273867 
v 12.291391248803976 -21.07014647621296 21.851751811427327 
v 12.9088499202006 -20.315979336371072 22.075346230033798 
v 13.512714488831692 -19.543786363189387 22.273040979934752 
v 14.102312724740598 -18.754470173109347 22.44442165884919 
v 14.676973221121676 -17.94895531162112 22.589088200462722 
v 15.236025050183429 -17.128189785869576 22.70665557761895 
v 15.778797535221363 -16.293146649912206 22.796754678638145 
v 16.304620147619413 -15.444825630160466 22.859033361470264 
v 16.812822537755743 -14.584254777601306 22.89315769011032 
v 17.3027347090333 -13.712492132345474 22.898813357334888 
v 17.773687344474297 -12.83062738488517 22.87570729734178 
v 18.225012295496004 -11.939783517167923 22.82356949127339 
v 18.656043242606415 -11.041118405211703 22.742154967859435 
v 19.066116537805136 -10.135826363506133 22.631246000508494 
v 19.454572238426895 -9.225139609877333 22.490654501090916 
v 19.820755342002773 -8.310329627854102 22.320224609370158 
v 20.164017231414174 -7.392708401879756 22.119835475537368 
v 20.48366945572441 -6.473596612542859 21.88946866301274 
v 20.778693505532544 -5.554116110199741 21.6296053713887 
v 21.0480883538931 -4.6354158941231045 21.340765564698245 
v 21.290872219677322 -3.7186735427869686 21.023509954190438 
v 21.506084629693273 -2.8050964959197566 20.678442139519337 
v 21.692788792492966 -1.8959231602812565 20.30621088998446 
v 21.85007429525533 -0.9924238096976645 19.90751254512273 
v 21.9770601332771 -0.09590124850929055 19.483093511412136 
v 22.072898079387173 0.7923087937069241 19.033752829110732 
v 22.136776397985496 1.6708375694314634 18.560344780335807 
v 22.167923905355917 2.5382835567604536 18.063781506406354 
v 22.16561437438073 3.3932130741701085 17.54503559925841 
v 22.12917127776277 4.2341613017910795 17.00514262843555 
v 22.05797285931785 5.059633744449138 16.445203561806668 
v 21.951457517822313 5.868108171191369 15.866387034830815 
v 21.80912948228636 6.658037064905586 15.269931419947932 
v 21.630564751385638 7.4278506138693405 14.657146644610007 
v 21.415417263148843 8.175960274547784 14.029415703677175 
v 21.16342525391553 8.90076293161517 13.38819580949709 
v 20.874417758112703 9.600645676926208 12.735019121083756 
v 20.548321192642465 10.27399122394514 12.071492992543302 
v 20.185165961741614 10.919183967899738 11.399299680395696 
v 19.785093010209234 11.534616694630115 10.72019544985359 
v 19.34836024506811 12.118697932737236 10.036009021583153 
v 18.875348738225473 12.66985993421965 9.348639303123958 
v 18.36656861574677 13.186567258367972 8.660052353112091 
v 17.822664533193265 13.667325922349809 7.972277531844524 
v 17.244420631360377 14.11069306978987 7.287402798631789 
v 16.632764862957263 14.515287095898906 6.607569124869939 
v 15.988772578565197 14.87979815454523 5.934964001844325 
v 15.313669259872043 15.202998959352698 5.271814033935977 
v 14.608832289958178 15.483755777750895 4.62037662106546 
v 13.875791654533225 15.721039504237934 3.9829307487525174 
v 13.116229474683529 15.913936687318175 3.3617669199060334 
v 12.332013759283766 16.06166157109935 2.759129874923818 
v 11.526731167060992 16.163710254046755 2.1750962362981494 
v 10.703972533567331 16.21975432946691 1.609483792315675 
v 9.867246508082149 16.229617307901695 1.0619591695947361 
v 9.019975328868592 16.193259710960024 0.5320522771905267 
v 8.165492897126146 16.11076554386073 0.01917018704020762 
v 7.3070466810386066 15.982330487753114 -0.4773885434476001 
v 6.447801025521726 15.808252009254266 -0.9584205415480836 
v 5.590841618002238 15.588921289333975 -1.4248051654411713 
v 4.739181643225833 15.324817157232129 -1.8774924396977568 
v 3.8957688743766203 15.01650206215105 -2.3174916357596493 
v 3.0634933424135213 14.66462009068226 -2.7458604835910365 
v 2.2451952384115836 14.269897010341158 -3.163694979638116 
v 1.443672716296687 13.833142294272841 -3.5721197394797937 
v 0.6616892751269366 13.355253058158944 -3.972278830830834 
v -0.09801965377769374 12.837219770201472 -4.365327047196011 
v -0.8327426643163098 12.280132424270562 -4.752422319339875 
v -1.5397842551371501 11.68519222189142 -5.134715572416336 
v -2.216472821966557 11.053725472930523 -5.513337646497235 
v -2.865555742439444 10.390192096828432 -5.885402994025389 
v -3.4903962364198446 9.698805966105514 -6.24814416705039 
v -4.094720758108546 8.98346092450041 -6.5989960371561445 
v -4.682529495583823 8.247773664290243 -6.93555103739617 
v -5.258018215978086 7.495138504959689 -7.255515020043378 
v -5.825509977832638 6.728790533219897 -7.556665699674692 
v -6.389389518430808 5.951881412380294 -7.836812640281685 
v -6.954046340797185 5.167554190705494 -8.093765032276542 
v -7.523817335612845 4.379023509098646 -8.325304864342415 
v -8.102927845932387 3.5896573366509097 -8.529167780671315 
v -8.695428484730249 2.803058294109779 -8.703032999488297 
v -9.3032711459173 2.02229409449902 -8.847807957572273 
v -9.925887558657863 1.2491731491339908 -8.968885233690152 
v -10.562931992762275 0.485216963467348 -9.071713129419296 
v -11.214230915976701 -0.26826059276979436 -9.161769787379573 
v -11.879728543591817 -1.0100757770633408 -9.244547022884662 
v -12.559428439828848 -1.739100024438855 -9.325540733961345 
v -13.253331219305732 -2.4541882268771484 -9.410244743441382 
v -13.961368169066432 -3.1541106766860074 -9.50414490926229 
v -14.683330606262675 -3.837489152329993 -9.612710342513102 
v -15.418794917578271 -4.502737805387957 -9.741378571185708 
v -16.167043509414114 -5.14800980998388 -9.895531498080764 
v -16.9270429579575 -5.771246334089016 -10.079895743820114 
v -17.69792057498983 -6.370822582460543 -10.294994611369427 
v -18.478702158576386 -6.945074475253058 -10.54121548705301 
v -19.268298140387596 -7.492298368639548 -10.818870502902744 
v -20.065499187412733 -8.010757951804415 -11.12818664698078 
v -20.868972440725027 -8.498692329066806 -11.469295508624558 
v -21.67725853468055 -8.954325341879652 -11.842222749822785 
v -22.48876954845103 -9.375876170768628 -12.246877414045326 
v -23.30178804809062 -9.761571238899437 -12.683041204884221 
v -24.11446738076502 -10.109657416720118 -13.150357888338956 
l 1 2
l 2 3
l 3 4
l 4 5
l 5 6
l 6 7
l 7 8
l 8 9
l 9 10
l 10 11
l 11 12
l 12 13
l 13 14
l 14 15
l 15 16
l 16 17
l 17 18
l 18 19
l 19 20
l 20 21
l 21 22
l 22 23
l 23 24
l 24 25
l 25 26
l 26 27
l 27 28
l 28 29
l 29 30
l 30 31
l 31 32
l 32 33
l 33 34
l 34 35
l 35 36
l 36 37
l 37 38
l 38 39
l 39 40
l 40 41
l 41 42
l 42 43
l 43 44
l 44 45
l 45 46
l 46 47
l 47 48
l 48 49
l 49 50
l 50 51
l 51 52
l 52 53
l 53 54
l 54 55
l 55 56
l 56 57
l 57 58
l 58 59
l 59 60
l 60 61
l 61 62
l 62 63
l 63 64
l 64 65
l 65 66
l 66 67
l 67 68
l 68 69
l 69 70
l 70 71
l 71 72
l 72 73
l 73 74
l 74 75
l 75 76
l 76 77
l 77 78
l 78 79
l 79 80
l 80 81
l 81 82
l 82 83
l 83 84
l 84 85
l 85 86
l 86 87
l 87 88
l 88 89
l 89 90
l 90 91
l 91 92
l 92 93
l 93 94
l 94 95
l 95 96
l 96 97
l 97 98
l 98 99
l 99 100
l 100 101
l 101 102
l 102 103
l 103 104
l 104 105
l 105 106
l 106 107
l 107 108
l 108 109
l 109 110
l 110 111
l 111 112
l 112 113
l 113 114
l 114 115
l 115 116
l 116 117
l 117 118
l 118 119
l 119 120
l 120 121
l 121 122
l 122 123
l 123 124
l 124 125
l 125 126
l 126 127
l 127 128
l 128 129
l 129 130
l 130 131
l 131 132
l 132 133
l 133 134
l 134 135
l 135 136
l 136 137
l 137 138
l 138 139
l 139 140
l 140 141
l 141 142
l 142 143
l 143 144
l 144 145
l 145 146
l 146 147
l 147 148
l 148 149
l 149 150
l 150 151
l 151 152
l 152 153
l 153 154
l 154 155
l 155 156
l 156 157
l 157 158
l 158 159
l 159 160
l 160 161
l 161 162
l 162 163
l 163 164
l 164 165
l 165 166
l 166 167
l 167 168
l 168 169
l 169 170
l 170 171
l 171 172
l 172 173
l 173 174
l 174 175
l 175 176
l 176 177
l 177 178
l 178 179
l 179 180
l 180 181
l 181 182
l 182 183
l 183 184
l 184 185
l 185 186
l 186 187
l 187 188
l 188 189
l 189 190
l 190 191
l 191 192
l 192 193
l 193 194
l 194 195
l 195 196
l 196 197
l 197 198
l 198 199
l 199 200
l 200 201
l 201 202
l 202 203
l 203 204
l 204 205
l 205 206
l 206 207
l 207 208
l 208 209
l 209 210
l 210 211
l 211 212
l 212 213
l 213 214
l 214 215
l 215 216
l 216 217
l 217 218
l 218 219
l 219 220
l 220 221
l 221 222
l 222 223
l 223 224
l 224 225
l 225 226
l 226 227
l 227 228
l 228 229
l 229 230
l 230 231
l 231 232
l 232 233
l 233 234
l 234 235
l 235 236
l 236 237
l 237 238
l 238 239
l 239 240
l 240 241
l 241 242
l 242 243
l 243 244
l 244 245
l 245 246
l 246 247
l 247 248
l 248 249
l 249 250
l 250 251
l 251 252
l 252 253
l 253 254
l 254 255
l 255 256
l 256 257
l 257 258
l 258 259
l 259 260
l 260 261
l 261 262
l 262 263
l 263 264
l 264 265
l 265 266
l 266 267
l 267 268
l 268 269
l 269 270
l 270 271
l 271 272
l 272 273
l 273 274
l 274 275
l 275 276
l 276 277
l 277 278
l 278 279
l 279 280
l 280 281
l 281 282
l 282 283
l 283 284
l 284 285
l 285 286
l 286 287
l 287 288
l 288 289
l 289 290
l 290 291
l 291 292
l 292 293
l 293 294
l 294 295
l 295 296
l 296 297
l 297 298
l 298 299
l 299 300
l 300 301
l 301 302
l 302 303
l 303 304
l 304 305
l 305 306
l 306 307
l 307 308
l 308 309
l 309 310
l 310 311
l 311 312
l 312 313
l 313 314
l 314 315
l 315 316
l 316 317
l 317 318
l 318 319
l 319 320
l 320 321
l 321 322
l 322 323
l 323 324
l 324 325
l 325 326
l 326 327
l 327 328
l 328 329
l 329 330
l 330 331
l 331 332
l 332 333
l 333 334
l 334 335
l 335 336
l 336 337
l 337 338
l 338 339
l 339 340
l 340 341
l 341 342
l 342 343
l 343 344
l 344 345
l 345 346
l 346 347
l 347 348
l 348 349
l 349 350
l 350 351
l 351 352
l 352 353
l 353 354
l 354 355
l 355 356
l 356 357
l 357 358
l 358 359
l 359 360
l 360 361
l 361 362
l 362 363
l 363 364
l 364 365
l 365 366
l 366 367
l 367 368
l 368 369
l 369 370
l 370 371
l 371 372
l 372 373
l 373 374
l 374 375
l 375 376
l 376 377
l 377 378
l 378 379
l 379 380
l 380 381
l 381 382
l 382 383
l 383 384
l 384 385
l 385 386
l 386 387
l 387 388
l 388 389
l 389 390
l 390 391
l 391 392
l 392 393
l 393 394
l 394 395
l 395 396
l 396 397
l 397 398
l 398 399
l 399 400
l 400 1
