v 7.4894479349710865 -2.2541276776956574 -19.60599284972071 
v 8.215614534689898 -1.6195273526057683 -19.341480050684595 
v 8.923291523765794 -0.9825092507467139 -19.035859167467578 
v 9.61126508023423 -0.3444902924214791 -18.6899871157294 
v 10.278387769660132 0.2931373274421133 -18.304783296138257 
v 10.923578256914203 0.929008060647412 -17.881224978846298 
v 11.545820786658696 1.5617846690048192 -17.420342855496372 
v 12.144115699725397 2.1901561959996196 -16.923153750948075 
v 12.717503676599728 2.812836388299882 -16.390706191479318 
v 13.26508121455356 3.4285626624579604 -15.824097868406062 
v 13.78600039614164 4.036097252114018 -15.224472891014168 
v 14.279468590088305 4.634228247285667 -14.593019164779113 
v 14.744748060395619 5.221770488430826 -13.930965950468474 
v 15.180832289615804 5.797668205396754 -13.239462140446971 
v 15.586754670353615 6.360873955798123 -12.519718246420329 
v 15.961590730968222 6.910350129638353 -11.773006363586882 
v 16.30446049678865 7.445070598927602 -11.00065999587754 
v 16.614530949265582 7.964022474288445 -10.204073767993089 
v 16.891018578414425 8.466207971176443 -9.384703005981656 
v 17.133192022396617 8.95064638744304 -8.544063167638104 
v 17.34037478649112 9.41637619295833 -7.683729103695851 
v 17.511948032050032 9.86245723091228 -6.805334130612718 
v 17.647353424320077 10.287973029224975 -5.910568895743687 
v 17.746096026256414 10.692033219221731 -5.001180015861946 
v 17.8077472236695 11.073776057370395 -4.078968470353364 
v 17.83194766524572 11.432371044441341 -3.145787730985696 
v 17.818410199185784 11.767021634942289 -2.203541610959197 
v 17.76692278643199 12.076968028109494 -1.254181816995629 
v 17.67735136872933 12.361490030115078 -0.29970518953177677 
v 17.54964266811097 12.619909975491119 0.6578493823362516 
v 17.383826892843693 12.851595694090362 1.616404382651297 
v 17.180020323442093 13.055963508219353 2.5738474364824557 
v 16.938427751093062 13.232481242913153 3.5280354308120816 
v 16.659344739756133 13.380671230694299 4.476798992610396 
v 16.34315968235351 13.50011329059735 5.4179473252824675 
v 15.990355620868947 13.590447659770865 6.349273401401089 
v 15.601511799869398 13.651377854619312 7.268559506117404 
v 15.17730492297903 13.682673437247649 8.173583121893168 
v 14.718510082200272 13.684172661950923 9.062123141254544 
v 14.226001330718129 13.65578497568079 9.931966390164147 
v 13.70075187096374 13.597493345849406 10.780914440389127 
v 13.14383383126946 13.509356388527605 11.606790684957863 
v 12.556417606432673 13.391510270084813 12.40744764650179 
v 11.93977073992512 13.244170355626649 13.180774484033014 
v 11.295256328337386 13.067632578232887 13.924704659577895 
v 10.624330931925646 12.86227450399954 14.637223722140694 
v 9.928541978811982 12.628556069255106 15.31637716278132 
v 9.20952465445489 12.36701996805804 15.960278291229473 
v 8.468998272417652 12.078291670189126 16.567116081496625 
v 7.708762127175225 11.763079052320942 17.135162931457092 
v 6.930690834662687 11.422171627861847 17.662782279416852 
v 6.136729171419295 11.056439364111801 18.148436019334515 
v 5.328886428453817 10.666831078801533 18.590691655657007 
v 4.509249647124969 10.25440886459811 18.98830707998361 
v 3.6799958317658734 9.820374501218899 19.34036840578781 
v 2.84331946883667 9.365999073966046 19.646163887640622 
v 2.0014035720685435 8.892593322417964 19.90512375998076 
v 1.156412137326975 8.401501920134313 20.116818526018996 
v 0.3104830009545141 7.894097815788256 20.280956606421388 
v -0.5342788665120198 7.371776674365586 20.397381398356472 
v -1.3758076055602435 6.835951453837778 20.466067798503854 
v -2.21208223230683 6.288047149237914 20.48711824576407 
v -3.0411319089213333 5.729495732416221 20.4607583407108 
v -3.8610407120490176 5.161731311994696 20.387332099328887 
v -4.669951896852846 4.586185534243287 20.26729689833837 
v -5.466071659655354 4.004283241613127 20.10121816841107 
v -6.247672406510991 3.417438402156224 19.889763890000236 
v -7.013127584159178 2.827109011822891 19.633659555103513 
v -7.760901698340678 2.2347847420167355 19.33368283210104 
v -8.489509706953015 1.641904814099544 18.990718816904117 
v -9.197532234087609 1.0498777260592984 18.605739682762866 
v -9.883622107241901 0.46008734179807886 18.179794567802766 
v -10.546505284907298 -0.12610967800654915 17.71400433484289 
v -11.184981459839053 -0.7073861893215555 17.209556396579146 
v -11.7979243614476 -1.2824466295302448 16.667699634141623 
v -12.384281781489326 -1.8500288422987892 16.08973943386076 
v -12.943075347654371 -2.4089056727170473 15.477032863918199 
v -13.473400069585766 -2.957886343896784 14.830984009703819 
v -13.974423668423013 -3.4958176128032754 14.153039502060738 
v -14.445171229991088 -4.0217077018564735 13.44463292677308 
v -14.884630477382679 -4.534639348522046 12.70721836710915 
v -15.291848041189864 -5.033720167199581 11.94230286183826 
v -15.665930789875112 -5.518083840743993 11.151444176477847 
v -16.006047141633967 -5.98689131221018 10.336248531940141 
v -16.31142834517027 -6.439331963393464 9.498368306302014 
v -16.581369731313 -6.874624782621445 8.639499704766749 
v -16.81523193670806 -7.292019523922672 7.761380392448116 
v -17.01244210009352 -7.690797859335745 6.86578708423851 
v -17.172495030916874 -8.070274525731051 5.954533085726585 
v -17.29495434928214 -8.429798467098163 5.029465778909132 
v -17.379453595427446 -8.768753972806916 4.092464046299457 
v -17.425697306134868 -9.086561811881666 3.1454356269732378 
v -17.433462054668365 -9.3826803628383 2.190314398115354 
v -17.402597450028292 -9.656606738124829 1.2290575757402669 
v -17.333027090507123 -9.907877901681534 0.2636428284564422 
v -17.224749465737027 -10.136071777598477 -0.7039347015654664 
v -17.077838800641807 -10.340808347300113 -1.6716654758786238 
v -16.892445833949875 -10.521750732131986 -2.637528740280936 
v -16.668798523198838 -10.678606257667093 -3.5994958129782884 
v -16.407202667472678 -10.811127495493398 -4.555533484127301 
v -16.10804243846772 -10.919113277693649 -5.503607529727553 
v -15.771780809891247 -11.00240967868895 -6.441686341969396 
v -15.398959874665332 -11.060910958593508 -7.367744677184339 
v -14.990201038946651 -11.094560461725028 -8.279767521492737 
v -14.546205081589797 -11.103351463439303 -9.17575407310106 
v -14.067752067385305 -11.087327958014416 -10.053721838972896 
v -13.555701102203665 -11.04658537990614 -10.911710842288986 
v -13.010989918081314 -10.98127125033793 -11.747787935728844 
v -12.434634276302656 -10.891585740883025 -12.560051214157774 
v -11.827727176247135 -10.777782145369683 -13.346634519347708 
v -11.191496252502855 -10.639965463526812 -14.105724310194788 
v -10.52725359576802 -10.47828212215615 -14.835546534354473 
v -9.836390829806998 -10.292935074530687 -15.534370653715976 
v -9.12037770455921 -10.08418471310949 -16.200514992240233 
v -8.380760368240454 -9.852349637345199 -16.832352179372773 
v -7.619159304512527 -9.597807261900808 -17.42831466594691 
v -6.8372669225390705 -9.320994250778366 -17.986900287059854 
v -6.036844789746304 -9.022406763214923 -18.50667784405631 
v -5.21972049936258 -8.70260049772867 -18.986292675527398 
v -4.3877841673119775 -8.362190521408557 -19.424472185163893 
v -3.5429845557719277 -8.001850872438068 -19.820031292430482 
v -2.687324823655353 -7.622313924931261 -20.17187777039033 
v -1.8228579074217421 -7.224369506435965 -20.47901743364468 
v -0.9516815389320353 -6.808863759922399 -20.740559138297392 
v -0.07593291050694781 -6.376697743718541 -20.955719555144196 
v 0.8022169991086832 -5.928825764667087 -21.12382767695288 
v 1.6805694205726078 -5.466253441749187 -21.244329020772025 
v 2.5569040906466145 -4.990035499531026 -21.316789486706174 
v 3.4289858252774668 -4.501273293020611 -21.340898835542845 
v 4.294571341067744 -4.001112067850567 -21.3164737490239 
v 5.151416293788939 -3.4907379621022265 -21.243460438426297 
v 5.997282499419874 -2.9713747585277055 -21.12193676945341 
v 6.829945300265299 -2.4442803983789645 -20.95211387422833 
v 7.647201036073394 -1.910743270482876 -20.73433722440779 
v 8.44687457777543 -1.3720782915748955 -20.469087143073608 
v 9.226826879561361 -0.8296227961861192 -20.15697873707481 
v 9.984962503522025 -0.28473225653447365 -19.798761235845706 
v 10.719237070067397 0.26122414513359504 -19.395316727365735 
v 11.42766458679913 0.8068680675019068 -18.947658286799356 
v 12.10832460849608 1.3508166586155705 -18.456927498398972 
v 12.759406044671604 1.8916895863708652 -17.924438717533558 
v 13.37920781182966 2.4281174700103505 -17.35165094323054 
v 13.966128371825295 2.958748670850587 -16.740136575915788 
v 14.518665616221465 3.482254290852845 -16.091569227487202 
v 15.035421023462684 3.997332467566323 -15.40771720499373 
v 15.515103300679577 4.5027124885137235 -14.69043667129157 
v 15.95667838033678 4.997110935725402 -13.941719376042641 
v 16.35941144211109 5.4792400050516 -13.163674288557203 
v 16.722697363611545 5.947875111917272 -12.35844044083649 
v 17.046057531447328 6.401856660243155 -11.528177477225473 
v 17.329136118831315 6.84009131835226 -10.675056681967746 
v 17.57169590179903 7.261552827663566 -9.801252526998708 
v 17.77361368551523 7.665282373203563 -8.90893477304595 
v 17.934875410610072 8.050388547527286 -8.000261148169049 
v 18.05557100712671 8.416046941529473 -7.077370619424295 
v 18.135889060600288 8.76149939688217 -6.142377265476346 
v 18.17611135115151 9.086052955504595 -5.197364750767981 
v 18.176607322390172 9.38907854160809 -4.2443813953491105 
v 18.13782853250305 9.670009411521402 -3.285435828684893 
v 18.06030313525606 9.928339405749552 -2.322493210719778 
v 17.944630433872796 10.163621036613996 -1.357471999163493 
v 17.791475545950085 10.375463443422404 -0.392241238366559 
v 17.601564212814164 10.563530245480889 0.5713816577641031 
v 17.37562446836754 10.727542969987597 1.5316190992937624 
v 17.11423943417494 10.867283617447216 2.4866874270415558 
v 16.817983724520438 10.982579613584754 3.4348143130632134 
v 16.487425999681733 11.07329106642222 4.374233422829732 
v 16.12311712542482 11.139298686180576 5.303172197598922 
v 15.725665590736336 11.180523985724653 6.219871668062267 
v 15.295737220397735 11.196929568236056 7.122588438653908 
v 14.834054880630072 11.188519432907876 8.009596747039229 
v 14.341398179877634 11.155339293488067 8.87919057961195 
v 13.818603157364212 11.097476907218406 9.729685850978905 
v 13.26656195130346 11.01506241106902 10.559422654795648 
v 12.686222437928054 10.908268661523062 11.36676759261822 
v 12.078587831825727 10.777311573525127 12.150116186655364 
v 11.44471623743917 10.622450453572952 12.90789538143958 
v 10.785720141006879 10.443988321308597 13.638566138483807 
v 10.102765831700063 10.242272213356049 14.340626126952044 
v 9.397072740253499 10.017693462561711 15.012612512246934 
v 8.669912683003533 9.770687945227092 15.65310484320513 
v 7.922608998942389 9.501736288384869 16.26072803729377 
v 7.1565355671832025 9.211364028665939 16.834155461820156 
v 6.373115692113697 8.900141713842922 17.372112107705366 
v 5.573820843507602 8.568684937721523 17.873377850835205 
v 4.7601692389709775 8.217654298692787 18.336790794394553 
v 3.9337242563352746 7.847755271964345 18.76125068392131 
v 3.096092663979223 7.459737985265525 19.145722385092593 
v 2.2489226575765766 7.054396887677999 19.489239412489948 
v 1.3939016924345393 6.632570301189074 19.790907495794453 
v 0.5327541014158584 6.195139844607414 20.049908168051843 
v -0.33276151056752373 5.743029719629108 20.26550235883883 
v -1.2008551033347517 5.277205849103866 20.43703397337337 
v -2.0697082759940293 4.798674857934102 20.56393343686458 
v -2.937477584263756 4.308482887550652 20.645721181714798 
v -3.802298103848243 3.807714235553747 20.68201105359142 
v -4.662287241292921 3.2974898128912775 20.672513610905128 
v -5.515548791710914 2.778965411871731 20.61703929089116 
v -6.360157868113227 2.253293844178619 20.515526095766138 
v -7.194127674386811 1.7215415824691132 20.36810240225196 
v -8.015468269608801 1.1847738577416513 20.17502280710151 
v -8.822204611971712 0.6440762967774546 19.936648819834943 
v -9.612381521922918 0.10055259676602346 19.653449565468396 
v -10.384068726392316 -0.44467791524848094 19.32600221115049 
v -11.135365972935727 -0.990482836893459 18.954992100899226 
v -11.864408196915218 -1.5357193541853198 18.541212583848246 
v -12.569370723423205 -2.0792370086673446 18.085564522419304 
v -13.248474484314746 -2.619880561196032 17.58905546802893 
v -13.899991229459925 -3.1564929446007257 17.052798493310785 
v -14.52224871018479 -3.6879182964468087 16.47801067138622 
v -15.113635811852863 -4.213005062157791 15.866011194438368 
v -15.672607611668058 -4.730609157807925 15.218219125730105 
v -16.19769033707085 -5.239597180996236 14.536150781242101 
v -16.687486199568742 -5.738849657366994 13.821416739279842 
v -17.140678078504145 -6.227264309562484 13.075718478690895 
v -17.556034029130302 -6.703759334693075 12.30084464872713 
v -17.932411589450105 -7.167276675798155 11.498666976059539 
v -18.26876186058151 -7.616785272260054 10.67113581698233 
v -18.56413333595335 -8.051284273731268 9.820275365403068 
v -18.8176754554092 -8.469806201851819 8.94817852978002 
v -19.02864186130549 -8.871420043875933 8.057001494708729 
v -19.196393334929883 -9.255234262301407 7.148957985348851 
v -19.320400393031438 -9.620399704705783 6.226313255290235 
v -19.40024552593585 -9.966112398243492 5.291377820755657 
v -19.435625060605 -10.291616213648844 4.34650096619806 
v -19.426350634074367 -10.59620538412028 3.3940640483456734 
v -19.372350264946977 -10.879226865129224 2.436473627552998 
v -19.27366901301637 -11.140082521997673 1.4761544569059313 
v -19.130469219611406 -11.378231133016163 0.5155423608835463 
v -18.943030323876044 -11.593190196919622 -0.44292296352112265 
v -18.71179793471968 -11.784530894250112 -1.3968186571732202 
v -18.437501064521307 -11.951862569795544 -2.343791914360669 
v -18.121076840610776 -12.094838378170657 -3.281571739580637 
v -17.763558052714714 -12.213179789919549 -4.207948208576512 
v -17.366067059940555 -12.306675393440349 -5.120777648266294 
v -16.929809595865812 -12.375179454627753 -6.017987262478225 
v -16.456068518687694 -12.41861026098513 -6.897579214294738 
v -15.946197551996462 -12.436948275641948 -7.757634173417574 
v -15.401615059680202 -12.430234126650719 -8.59631433950758 
v -14.823797893326404 -12.398566456814468 -9.41186595968233 
v -14.214277306591793 -12.342096433913749 -10.202622639182936 
v -13.574638381764705 -12.261014864731232 -10.967010321139954 
v -12.906519715205285 -12.155535683452248 -11.703551327464108 
v -12.211612988688707 -12.025875709715287 -12.410866208257586 
v -11.491656629213047 -11.872250775058784 -13.0876704362617 
v -10.748368066442117 -11.695086596177605 -13.732757330218885 
v -9.983469727719347 -11.494888175014225 -14.345010254060025 
v -9.19869467140396 -11.272198195036369 -14.923404738926651 
v -8.395782100125452 -11.027594201859149 -15.467007125590236 
v -7.57647318864677 -10.761685863229765 -15.974972959827888 
v -6.742507226265119 -10.475112320681397 -16.446545176037333 
v -5.8956180707603805 -10.168539643231762 -16.881052103222952 
v -5.037530908318682 -9.84265839165357 -17.277905326063774 
v -4.169959311572372 -9.498181300085253 -17.636597432164795 
v -3.294602594294005 -9.135841083635516 -17.9566996719639 
v -2.4131434366163784 -8.756388370032786 -18.237859565549325 
v -1.5272470340288824 -8.360560620964682 -18.47975512577632 
v -0.638568743881247 -7.948955345127109 -18.681837675736574 
v 0.25121476103530077 -7.522203519983303 -18.843619555395975 
v 1.140407068848854 -7.080969669009592 -18.96467623319574 
v 2.02729377915938 -6.625951880107913 -19.04464849993333 
v 2.910144428682 -6.157881759296581 -19.08324472864938 
v 3.7872145914821385 -5.677524315054444 -19.080243185870895 
v 4.656748165170877 -5.185677762891127 -19.03549438160825 
v 5.516979853572478 -4.683173239491736 -18.94892344380218 
v 6.366137855357043 -4.170874415634214 -18.820532501199995 
v 7.202446766941084 -3.649676997011356 -18.650403056921505 
v 8.024130706589812 -3.120508102117357 -18.438698333271965 
v 8.82941666510129 -2.584325506491229 -18.1856655666899 
v 9.616538086710108 -2.042116742856496 -17.891638230103993 
v 10.38373868191482 -1.4948980470685649 -17.557038158438615 
v 11.129276471809982 -0.9437131402875932 -17.182377551577964 
v 11.851428061193763 -0.3896318384443314 -16.76826082780198 
v 12.548493135232983 0.16625151913270406 -16.31538629957289 
v 13.218799171809746 0.7228198291018622 -15.82454764261004 
v 13.860706358862751 1.2789351775569036 -15.296635128475126 
v 14.472612703090856 1.8334409923051027 -14.732636590431504 
v 15.05295931333052 2.3851643972881553 -14.13363809217327 
v 15.600235838780812 2.93291877084283 -13.500824269172593 
v 16.11298603906289 3.475506507723189 -12.835478312898108 
v 16.589813459903226 4.011721982880432 -12.138981569039752 
v 17.029387185063403 4.540354712931859 -11.412812722160988 
v 17.430447632050853 5.060192709062337 -10.65854654090755 
v 17.791812356183982 5.5700260128091585 -9.877852160047722 
v 18.112381824805244 6.068650403807301 -9.072490878211614 
v 18.391145120891665 6.5548712661432695 -8.244313453237924 
v 18.62718553306097 7.027507597512423 -7.395256880520619 
v 18.81968598706921 7.485396142930284 -6.527340643660778 
v 18.96793427239841 7.927395632349328 -5.6426624310475635 
v 19.071328016493634 8.352391099218028 -4.743393316684571 
v 19.129379358677426 8.759298254829229 -3.831772408601753 
v 19.141719275790336 9.14706789128181 -2.910100973497512 
v 19.108101512217054 9.514690284065363 -1.9807360517796277 
v 19.02840606818814 9.861199563713232 -1.0460835828484245 
v 18.902642202118095 10.185678024694804 -0.1085910662138391 
v 18.730950905261178 10.487260338770074 0.8292602102238352 
v 18.51366323721946 10.765132029074909 1.7649781766904387 
v 18.251432589607266 11.018531904845155 2.696116408683644 
v 17.945103423887325 11.24677058951778 3.6202725487127325 
v 17.5956910162423 11.449243668231352 4.535100914091739 
v 17.204388037389908 11.62544401149378 5.438334611932578 
v 16.77249883990122 11.774948305370337 6.327781782687332 
v 16.301419054454566 11.897412650286663 7.201327887239262 
v 15.792627922677623 11.992571175319974 8.056940718298302 
v 15.247680584406227 12.060234327996742 8.892674754379673 
v 14.668200380039606 12.100286872505503 9.706674863996327 
v 14.055871224455817 12.112685630023023 10.497179373787022 
v 13.41243010432505 12.097456995158007 11.2625225197758 
v 12.739659745726755 12.054694262374358 12.001136305781706 
v 12.039381493840969 11.984554795705579 12.711551797151552 
v 11.313448441239858 11.887257074157567 13.392399881468398 
v 10.563738836040047 11.763077643964772 14.042411530703694 
v 9.792149795969465 11.612348007362236 14.660417601450435 
v 9.000591349323805 11.435451475810277 15.24534821142836 
v 8.19098081889792 11.232820013706252 15.796231731426593 
v 7.365237560326419 11.00493109658265 16.312193432287874 
v 6.525278061896524 10.752304605664865 16.792453826489087 
v 5.673011408835384 10.475499778483364 17.23632674338584 
v 4.810335117131255 10.175112235053042 17.643217173587878 
v 3.939107381740907 9.851725074268684 18.01252194930299 
v 3.061120715551652 9.50587228399216 18.34347242095716 
v 2.1781894599202616 9.138134072233417 18.635369413692406 
v 1.2921471953637456 8.749136525510965 18.887585099999278 
v 0.4048439624587301 8.33955117183429 19.099564893011305 
v -0.48185662915035365 7.910094470281762 19.270829312960633 
v -1.3660804033416813 7.461527222604421 19.400975817015127 
v -2.2459457355547543 6.994653900413148 19.489680583899617 
v -3.119566789374032 6.510321881418699 19.536700243755288 
v -3.9850568739061267 6.009420588168413 19.541873542768965 
v -4.840531923257382 5.492880522764847 19.505122931218185 
v -5.684114098384742 4.961672191164274 19.426456062738374 
v -6.513935510236447 4.416804910997349 19.305967191876096 
v -7.328142188557173 3.859325745072549 19.143838274742087 
v -8.124929667489406 3.290377981036961 18.94029640681572 
v -8.902534581454207 2.711177881088978 18.695635845132113 
v -9.659225268216705 2.122988555403057 18.410235636062236 
v -10.393298464822418 1.5271047872347252 18.084567643322714 
v -11.103083674099484 0.9248507860213113 17.719197359175617 
v -11.786947622184831 0.3175777720389415 17.31478450008511 
v -12.443298793721247 -0.29333860877030615 16.872083368763775 
v -13.070592029721634 -0.9065010400621845 16.391942964761686 
v -13.667333171346804 -1.5204934594005746 15.875306826205968 
v -14.232083731157015 -2.133884149199558 15.323212585948118 
v -14.76346557176692 -2.7452289904348723 14.736791226237347 
v -15.260296670619653 -3.353000231029244 14.117297763454319 
v -15.721614310737074 -3.9556028604764526 13.466102401664049 
v -16.146586347686444 -4.551442158499178 12.784652667423229 
v -16.534471295532743 -5.138948630090265 12.074454806312827 
v -16.88461876052797 -5.716581238045224 11.337069521771074 
v -17.196469637114387 -6.282830471572178 10.57410771696896 
v -17.469556085501484 -6.836221258571949 9.787226245380523 
v -17.70350130326323 -7.375315721786471 8.978123682787274 
v -17.898019103555857 -7.898715779961053 8.148536132191012 
v -18.052913312581357 -8.405065596025874 7.300233071838057 
v -18.168076998826326 -8.89305387507199 6.435013255293306 
v -18.243491546398268 -9.361416015574864 5.554700671256434 
v -18.279225584471753 -9.808936117903457 4.661140569595693 
v -18.27543378445383 -10.23444885464535 3.7561955588969487 
v -18.23235553599224 -10.636841207678982 2.8417417796955093 
v -18.15031351239063 -11.015054077234948 1.9196651564837217 
v -18.029712135372257 -11.368083768411438 0.9918577305747942 
v -17.87103594845724 -11.694983360747505 0.06021407495872032 
v -17.674847917564662 -11.994863951138711 -0.8733721607038857 
v -17.44159665655843 -12.266919758701919 -1.8069570442705978 
v -17.171677337389912 -12.51042976554909 -2.738540368630263 
v -16.865568857356717 -12.724727511313928 -3.666104336825282 
v -16.523834629452203 -12.909203791158529 -4.587617682123699 
v -16.147123172476487 -13.06330931991502 -5.501040023347466 
v -15.736168482543118 -13.186557343065505 -6.404326444478362 
v -15.291790169695386 -13.278526175904059 -7.295432285761235 
v -14.814893342410748 -13.338861653353845 -8.17231813746701 
v -14.306468222730668 -13.367279472291195 -9.032955026371402 
v -13.767587644298253 -13.36357039320446 -9.875328621661769 
v -13.199400752338779 -13.327612481129922 -10.697441617843467 
v -12.603125961608455 -13.259386841292542 -11.497316937021187 
v -11.980043861006695 -13.158996229641518 -12.273003167356192 
v -11.33149493882278 -13.026669245855322 -13.022584659074473 
v -10.658886877468838 -12.862728261726602 -13.744194076338927 
v -9.963696113399063 -12.66757447487993 -14.436019965459012 
v -9.24746475041667 -12.441687870208513 -15.096312323555322 
v -8.511797190553056 -12.185626926353564 -15.72338809392646 
v -7.758356486028321 -11.900028059260965 -16.31563656313133 
v -6.988860418687894 -11.585604796161608 -16.87152463277731 
v -6.205077315786126 -11.24314667486319 -17.38960193812422 
v -5.408821613051554 -10.873517864814591 -17.868505785472337 
v -4.601949178023574 -10.477655508074108 -18.30696588040011 
v -3.7863524086737845 -10.056567780066025 -18.70380881926343 
v -2.9639551158244797 -9.611331667139966 -19.057962320382238 
v -2.1367070624639144 -9.143103645550772 -19.368478638935287 
v -1.3065750077940654 -8.653180380918162 -19.634661898211274 
v -0.4755108596475339 -8.142995063176922 -19.856114551771906 
v 0.35457131673129083 -7.614007241940849 -20.03256240778079 
v 1.1818001363984256 -7.0676972615711 -20.16385099253045 
v 2.0043512693330263 -6.505560906219925 -20.249941558262602 
v 2.820451318900525 -5.929104300108552 -20.290906781702546 
v 3.6283812240284643 -5.3398390747878395 -20.28692621243179 
v 4.42647919652475 -4.739277818244802 -20.238281524054795 
v 5.2131432086136185 -4.128929816731498 -20.145351618836614 
v 5.986833048917264 -3.5102970964185802 -20.008607633805216 
v 6.746071967774236 -2.8848707684472656 -19.828607893303897 
l 1 2
l 2 3
l 3 4
l 4 5
l 5 6
l 6 7
l 7 8
l 8 9
l 9 10
l 10 11
l 11 12
l 12 13
l 13 14
l 14 15
l 15 16
l 16 17
l 17 18
l 18 19
l 19 20
l 20 21
l 21 22
l 22 23
l 23 24
l 24 25
l 25 26
l 26 27
l 27 28
l 28 29
l 29 30
l 30 31
l 31 32
l 32 33
l 33 34
l 34 35
l 35 36
l 36 37
l 37 38
l 38 39
l 39 40
l 40 41
l 41 42
l 42 43
l 43 44
l 44 45
l 45 46
l 46 47
l 47 48
l 48 49
l 49 50
l 50 51
l 51 52
l 52 53
l 53 54
l 54 55
l 55 56
l 56 57
l 57 58
l 58 59
l 59 60
l 60 61
l 61 62
l 62 63
l 63 64
l 64 65
l 65 66
l 66 67
l 67 68
l 68 69
l 69 70
l 70 71
l 71 72
l 72 73
l 73 74
l 74 75
l 75 76
l 76 77
l 77 78
l 78 79
l 79 80
l 80 81
l 81 82
l 82 83
l 83 84
l 84 85
l 85 86
l 86 87
l 87 88
l 88 89
l 89 90
l 90 91
l 91 92
l 92 93
l 93 94
l 94 95
l 95 96
l 96 97
l 97 98
l 98 99
l 99 100
l 100 101
l 101 102
l 102 103
l 103 104
l 104 105
l 105 106
l 106 107
l 107 108
l 108 109
l 109 110
l 110 111
l 111 112
l 112 113
l 113 114
l 114 115
l 115 116
l 116 117
l 117 118
l 118 119
l 119 120
l 120 121
l 121 122
l 122 123
l 123 124
l 124 125
l 125 126
l 126 127
l 127 128
l 128 129
l 129 130
l 130 131
l 131 132
l 132 133
l 133 134
l 134 135
l 135 136
l 136 137
l 137 138
l 138 139
l 139 140
l 140 141
l 141 142
l 142 143
l 143 144
l 144 145
l 145 146
l 146 147
l 147 148
l 148 149
l 149 150
l 150 151
l 151 152
l 152 153
l 153 154
l 154 155
l 155 156
l 156 157
l 157 158
l 158 159
l 159 160
l 160 161
l 161 162
l 162 163
l 163 164
l 164 165
l 165 166
l 166 167
l 167 168
l 168 169
l 169 170
l 170 171
l 171 172
l 172 173
l 173 174
l 174 175
l 175 176
l 176 177
l 177 178
l 178 179
l 179 180
l 180 181
l 181 182
l 182 183
l 183 184
l 184 185
l 185 186
l 186 187
l 187 188
l 188 189
l 189 190
l 190 191
l 191 192
l 192 193
l 193 194
l 194 195
l 195 196
l 196 197
l 197 198
l 198 199
l 199 200
l 200 201
l 201 202
l 202 203
l 203 204
l 204 205
l 205 206
l 206 207
l 207 208
l 208 209
l 209 210
l 210 211
l 211 212
l 212 213
l 213 214
l 214 215
l 215 216
l 216 217
l 217 218
l 218 219
l 219 220
l 220 221
l 221 222
l 222 223
l 223 224
l 224 225
l 225 226
l 226 227
l 227 228
l 228 229
l 229 230
l 230 231
l 231 232
l 232 233
l 233 234
l 234 235
l 235 236
l 236 237
l 237 238
l 238 239
l 239 240
l 240 241
l 241 242
l 242 243
l 243 244
l 244 245
l 245 246
l 246 247
l 247 248
l 248 249
l 249 250
l 250 251
l 251 252
l 252 253
l 253 254
l 254 255
l 255 256
l 256 257
l 257 258
l 258 259
l 259 260
l 260 261
l 261 262
l 262 263
l 263 264
l 264 265
l 265 266
l 266 267
l 267 268
l 268 269
l 269 270
l 270 271
l 271 272
l 272 273
l 273 274
l 274 275
l 275 276
l 276 277
l 277 278
l 278 279
l 279 280
l 280 281
l 281 282
l 282 283
l 283 284
l 284 285
l 285 286
l 286 287
l 287 288
l 288 289
l 289 290
l 290 291
l 291 292
l 292 293
l 293 294
l 294 295
l 295 296
l 296 297
l 297 298
l 298 299
l 299 300
l 300 301
l 301 302
l 302 303
l 303 304
l 304 305
l 305 306
l 306 307
l 307 308
l 308 309
l 309 310
l 310 311
l 311 312
l 312 313
l 313 314
l 314 315
l 315 316
l 316 317
l 317 318
l 318 319
l 319 320
l 320 321
l 321 322
l 322 323
l 323 324
l 324 325
l 325 326
l 326 327
l 327 328
l 328 329
l 329 330
l 330 331
l 331 332
l 332 333
l 333 334
l 334 335
l 335 336
l 336 337
l 337 338
l 338 339
l 339 340
l 340 341
l 341 342
l 342 343
l 343 344
l 344 345
l 345 346
l 346 347
l 347 348
l 348 349
l 349 350
l 350 351
l 351 352
l 352 353
l 353 354
l 354 355
l 355 356
l 356 357
l 357 358
l 358 359
l 359 360
l 360 361
l 361 362
l 362 363
l 363 364
l 364 365
l 365 366
l 366 367
l 367 368
l 368 369
l 369 370
l 370 371
l 371 372
l 372 373
l 373 374
l 374 375
l 375 376
l 376 377
l 377 378
l 378 379
l 379 380
l 380 381
l 381 382
l 382 383
l 383 384
l 384 385
l 385 386
l 386 387
l 387 388
l 388 389
l 389 390
l 390 391
l 391 392
l 392 393
l 393 394
l 394 395
l 395 396
l 396 397
l 397 398
l 398 399
l 399 400
l 400 1
