v 20.07889078731516 -13.810920208267257 15.718212603706712 
v 20.236791901996245 -13.157967274860876 16.458974931559123 
v 20.36764665745908 -12.47954182394499 17.181903449013035 
v 20.47189924174051 -11.776818524388935 17.885694337565642 
v 20.550035386069585 -11.050970352354991 18.56910486465088 
v 20.60257887450008 -10.303166838326707 19.23095103590626 
v 20.630088306035777 -9.534572697924887 19.870105173338146 
v 20.63315411214477 -8.746346824170214 20.485493458180237 
v 20.61239582985845 -7.939641618266634 21.076093474178236 
v 20.568459627629295 -7.115602625704623 21.64093179070734 
v 20.50201608158109 -6.275368493425284 22.17908158849278 
v 20.41375819387806 -5.42007115972412 22.689660401999102 
v 20.303935044706616 -4.5511318075900435 23.17225487921354 
v 20.17280423567608 -3.669954802487113 23.6265085150734 
v 20.020638967394554 -2.777921405474922 24.052110573299547 
v 19.847726450276355 -1.8763896267960394 24.448793121593077 
v 19.654366477288374 -0.966694314793662 24.81632820108222 
v 19.440870156153487 -0.05014745588557346 25.154525140847625 
v 19.207558797863094 0.8719613376847466 25.463228026400145 
v 18.95476295782252 1.7983641745508563 25.742313329251306 
v 18.682821625546147 2.7278140865380838 25.991687703192124 
v 18.39208155851767 3.6590841066760795 26.211285951568666 
v 18.082896755620293 4.590966241944469 26.401069168698555 
v 17.7556280654064 5.522270358776086 26.56102305759711 
v 17.41064292440354 6.451822998386156 26.691156425359324 
v 17.048315220629544 7.37846613810634 26.791499856859115 
v 16.669025277502215 8.301055914089664 26.86210456686414 
v 16.273159953367426 9.218461320022971 26.90304143020765 
v 15.861112851921572 10.129562895843613 26.914400189292593 
v 15.433284638861643 11.033251419909748 26.89628883791252 
v 14.990083460147925 11.928426617621284 26.848833180143696 
v 14.531925457302762 12.813995899131669 26.772176562878872 
v 14.059235375184889 13.688873138528669 26.66647978042088 
v 13.572447257665244 14.551977506693284 26.531921149419958 
v 13.07200522657936 15.402232369966764 26.36869675230861 
v 12.55836433923656 16.23856426676237 26.17702084724854 
v 12.03199151962057 17.05990197434559 25.95712644244239 
v 11.493366558213841 17.865175678167706 25.709266032465802 
v 10.942983175112827 18.653316256364988 25.433712494029365 
v 10.381350140768422 19.42325469232076 25.13076013827289 
v 9.808992448279698 20.1739216285194 24.800725916312963 
v 9.226452530685641 20.90424707528831 24.443950774296667 
v 8.6342915161347 21.613160288412576 24.06080115364685 
v 8.033090513162772 22.29958983000167 23.65167063150571 
v 7.4234519175742735 22.962463827371266 23.21698169558146 
v 6.806000731596953 23.600710445056446 22.757187646666548 
v 6.1813858850692665 24.213258585373154 22.272774621014808 
v 5.550281547420671 24.79903883316965 21.764263723529385 
v 4.91338841812349 25.35698466053127 21.232213261315515 
v 4.271434982135299 25.886033907191834 20.67722106558543 
v 3.62517871562049 26.385130552231693 20.099926888163058 
v 2.9754072259494064 26.853226792271823 19.501014856921646 
v 2.322939308636101 27.289285440769383 18.881215972400096 
v 1.6686259025085948 27.69228266214476 18.24131062558874 
v 1.0133509230284667 28.061211053283532 17.58213111446254 
v 0.35803195231478085 28.395083083418587 16.90456413428473 
v -0.2963792368907284 28.69293490146677 16.209553214027313 
v -0.9488963473206817 28.953830517530974 15.498101068485111 
v -1.5984984384692889 29.176866362444027 14.771271832831992 
v -2.244130049163275 29.36117622588992 14.03019314352507 
v -2.8847015882683427 29.505936569760543 13.276058026657347 
v -3.5190900208820657 29.610372208967906 12.510126552152467 
v -4.146139877547435 29.67376234691789 11.733727209657724 
v -4.764664613829267 29.695446947256602 10.948257959703351 
v -5.373448346966508 29.67483341733337 10.155186911746583 
v -5.97124799518431 29.611403572108607 9.356052579205654 
v -6.556795843558401 29.504720840012318 8.552463660616866 
v -7.128802558011234 29.354437664591753 7.746098295727758 
v -7.68596066602996 29.160303047759246 6.938702745785586 
v -8.226948518983328 28.922170172172226 6.132089448607869 
v -8.750434746441499 28.64000403188147 5.328134401343053 
v -9.255083207646253 28.31388899203114 4.528773827250417 
v -9.73955843923282 27.944036190272413 3.7360000874437875 
v -10.202531591482508 27.530790684873033 2.951856804432021 
v -10.642686837824158 27.07463824750228 2.1784331715071823 
v -11.058728234065693 26.576211692598665 1.4178574306084206 
v -11.449386995016495 26.036296630352208 0.672289511221681 
v -11.813429146878748 25.45583652692951 -0.056087165879461554 
v -12.149663504195143 24.835936953910963 -0.7650747037743719 
v -12.456949910425019 24.177868909257477 -1.452470533573915 
v -12.734207671594982 23.483071094721296 -2.1160779633170628 
v -12.980424103172863 22.753151039669337 -2.753717412113724 
v -13.194663101606716 21.989884968962027 -3.36323825451949 
v -13.376073644130287 21.195216322931728 -3.9425311845279936 
v -13.523898113746851 20.37125285066997 -4.489540993283481 
v -13.63748034104681 19.520262213720873 -5.002279640058145 
v -13.716273250960926 18.644666055760254 -5.478839482637492 
v -13.75984600094665 17.747032514695093 -5.917406521453345 
v -13.767890497660584 16.83006717653013 -6.3162735020346 
v -13.740227182049507 15.896602494908032 -6.673852713024301 
v -13.676809978101705 14.94958572594004 -6.988688312513055 
v -13.577730308278776 13.992065454232673 -7.259468014080341 
v -13.443220088860167 13.027176812246962 -7.48503396596046 
v -13.273653630964342 12.058125520622761 -7.6643926623126255 
v -13.069309707697784 11.0885193248677 -7.798909109570592 
v -12.830279719458698 10.122059872433772 -7.8927997961216665 
v -12.556653457557102 9.161953671033038 -7.950468650690492 
v -12.248501545558407 8.210968198351411 -7.9764519442495985 
v -11.905865549361234 7.271495185028697 -7.975375345464754 
v -11.528755441975424 6.345616717415649 -7.951922201691636 
v -11.117154359657338 5.435172193592127 -7.910811444006851 
v -10.671030578593156 4.541824594558633 -7.8567833411951415 
v -10.190355613087101 3.6671230639947208 -7.794591089982201 
v -9.675132264214955 2.812568093295864 -7.728996853929363 
v -9.125427365493548 1.979667912947199 -7.664769598846 
v -8.54267325372077 1.1691919404627198 -7.605152541833356 
v -7.931924280970783 0.3793988974880301 -7.548191507565462 
v -7.29807453526746 -0.3920099527496404 -7.491647255059197 
v -6.645731308427698 -1.147704095498052 -7.433253092351947 
v -5.9792610787544795 -1.8906317374225845 -7.370720100098449 
v -5.302845310985595 -2.6239364528040547 -7.301740317286389 
v -4.620541528184549 -3.350882669297882 -7.223989017621485 
v -3.9363545305784555 -4.074780281993229 -7.135128214271283 
v -3.254304549839583 -4.798918004462855 -7.032811704469211 
v -2.578497458094515 -5.526495325634153 -6.914693713439369 
v -1.9131932182605889 -6.260552794494853 -6.778442418186413 
v -1.2628702902258486 -7.003898570991978 -6.621759806680674 
v -0.6322802299530966 -7.759027429635368 -6.442410917001308 
v -0.020293204055413305 -8.524007082705424 -6.241639634436801 
v 0.5745831046952948 -9.296908754395561 -6.020783198085194 
v 1.1539652332702408 -10.07595932058354 -5.781137556357326 
v 1.7195743250515005 -10.859526667204193 -5.523954848359525 
v 2.273218755904933 -11.646104104338525 -5.25044271563885 
v 2.816778772862287 -12.434294105686284 -4.961765226869835 
v 3.3521929186264114 -13.222791619941189 -4.659045211223224 
v 3.8814459950547042 -14.010367152774013 -4.343367816669751 
v 4.4065583014437975 -14.795849772864432 -4.015785131448037 
v 4.929575871825317 -15.578110158969315 -3.677321727682681 
v 5.452561427923875 -16.356043777280092 -3.3289810047896236 
v 5.97758575962157 -17.128554259096166 -2.971752226162845 
v 6.506719241779644 -17.89453703787254 -2.606618155159261 
v 7.04202319450889 -18.652863301739785 -2.2345632051511712 
v 7.585540793234212 -19.40236432242626 -1.8565820230319774 
v 8.138761308363332 -20.14185598437899 -1.4730053687839384 
v 8.70194092307761 -20.870188497007934 -1.0826321570843416 
v 9.27530288828777 -21.58615255712222 -0.684284256775976 
v 9.859030921131108 -22.288473626250973 -0.2768104884212327 
v 10.453262092677853 -22.97580662617533 0.14090875128734395 
v 11.05807918462133 -23.646731148600285 0.5699561639859357 
v 11.673502503660533 -24.29974729197647 1.0113714515878043 
v 12.299481153653684 -24.933272256769815 1.4661443789993716 
v 12.935883779765478 -25.54563784965266 1.9352069377967853 
v 13.582488816078616 -26.135089066702918 2.419424560768307 
v 14.238974288793067 -26.69978394514076 2.919586350320607 
v 14.904907251437335 -27.237794891613152 3.4363943008249462 
v 15.579732956615317 -27.747111711555473 3.9704515166455794 
v 16.262763900725645 -28.2256465774887 4.522249454414693 
v 16.95316891364646 -28.67124118278605 5.092154250580171 
v 17.649962504165345 -29.08167632976427 5.680392233698772 
v 18.351994713235243 -29.454684195011296 6.287034765510644 
v 19.05794176987404 -29.78796349857636 6.911982605350927 
v 19.76629788719723 -30.079197774857192 7.554950048385363 
v 20.475368576716278 -30.326076899585914 8.215449148474002 
v 21.183265895196854 -30.52632196728915 8.892774399572732 
v 21.887906067119854 -30.677713535410494 9.585988313227274 
v 22.58700994376601 -30.778123153988574 10.293908390945493 
v 23.278106763476217 -30.82554798332873 11.015096045383784 
v 23.95854166290455 -30.8181481676157 11.747848069018595 
v 24.625487352364214 -30.754286482471837 12.490191278422273 
v 25.275960306375694 -30.632569613346075 13.239880971227153 
v 25.90684173077596 -30.451890255447783 13.994403816141316 
v 26.5149034489864 -30.211469062717853 14.750985749183004 
v 27.096838702683407 -29.91089532279022 15.506605367749874 
v 27.649297688658102 -29.550165108149635 16.25801319582872 
v 28.168927458952147 -29.12971556263139 17.00175703821366 
v 28.652415602799916 -28.650453938891363 17.73421345122146 
v 29.096536916325256 -28.11378001728964 18.45162513718847 
v 29.498202061276263 -27.52160061834099 19.150143828225712 
v 29.85450703075027 -26.87633507464353 19.825877972506973 
v 30.162782091840725 -26.180910754673242 20.474944287522398 
v 30.420638775815164 -25.438748025412632 21.093522014742973 
v 30.626013447325903 -24.653734393181868 21.6779085151305 
v 30.777206013624525 -23.830187956461852 22.22457470027831 
v 30.87291243687829 -22.972810720389628 22.730218712863714 
v 30.91224988646534 -22.086632736019336 23.191816262103153 
v 30.894773607111283 -21.17694841289023 23.60666608980939 
v 30.82048487123587 -20.249246686076884 23.97242918968961 
v 30.689829713739197 -19.309136976758637 24.287160620147105 
v 30.503688495296732 -18.362273051433405 24.54933302709405 
v 30.263356685114115 -17.41427694877803 24.757851311715477 
v 29.97051757534777 -16.470665101903386 24.912058219260352 
v 29.62720791842628 -15.5367786421381 25.011730967971392 
v 29.235777700331212 -14.617719640350218 25.05706936190878 
v 28.798845417286735 -13.718294740803627 25.04867611960732 
v 28.3192503053856 -12.842967292229666 24.98753038779044 
v 27.800002982943152 -11.995818704638848 24.874955585880507 
v 27.244235909202974 -11.180519381661279 24.71258283792612 
v 26.655154949768058 -10.40030921807419 24.50231129385001 
v 26.035993180935094 -9.657987328306858 24.246266626001923 
v 25.389967875590813 -8.955910397281412 23.946758917752156 
v 24.720241406352343 -8.295998828236291 23.606241048557212 
v 24.029886590217135 -7.679749706667018 23.227268536117695 
v 23.32185679447449 -7.108255504379141 22.812461632694514 
v 22.598960935138948 -6.582227408522961 22.36447030044326 
v 21.863843333336074 -6.102022170416468 21.885942519512625 
v 21.118968256059183 -5.6676714193780064 21.37949622060023 
v 20.36670509961899 -5.278848617042728 20.84760540368296 
v 19.609589399781 -4.934715377667131 20.292319470603697 
v 18.849940410722397 -4.634197230182979 19.71558733807378 
v 18.089861497772063 -4.376016795073824 19.119245293776704 
v 17.331243721756092 -4.158725143414024 18.505008023910722 
v 16.575772076706873 -3.9807309642868276 17.874462522332554 
v 15.824933852731014 -3.8403272801155546 17.22906455769672 
v 15.080028641710179 -3.735715558854578 16.57013737349123 
v 14.34217955162568 -3.665027162037845 15.898872302619187 
v 13.612345247334902 -3.626342141380098 15.216330993942886 
v 12.891332488748912 -3.617705454862645 14.523448970442296 
v 12.179808889372124 -3.63714071739263 13.8210402651281 
v 11.478315667458556 -3.6826616328718162 13.1098029097398 
v 10.787280207520354 -3.752281275645797 12.390325081060665 
v 10.10702829092775 -3.844019401631286 11.663091739243132 
v 9.437795890544978 -3.9559079746609727 10.928491621011009 
v 8.779740455699615 -4.0859950933277185 10.186824477400394 
v 8.132951640423599 -4.232347499267389 9.43830847044546 
v 7.497461450106563 -4.39305184062263 8.683087665705207 
v 6.8732537998238685 -4.566214855424005 7.921239577691067 
v 6.260273492043539 -4.749962629680685 7.152782743115132 
v 5.658434632592071 -4.942439074800764 6.377684312521027 
v 5.067628512072598 -5.141803759130356 5.595867664407973 
v 4.487730985757984 -5.3462292193579675 4.8072200575535495 
v 3.918609388668083 -5.553897869619683 4.011600347021372 
v 3.3601290243838777 -5.762998619619419 3.208846797430835 
v 2.812159266405984 -5.971723308133084 2.3987850335659027 
v 2.274579309739766 -6.178263055023605 1.5812361733730966 
v 1.7472836080491245 -6.380804633432795 0.7560251918683497 
v 1.230187028289448 -6.577526964169402 -0.07701043358516818 
v 0.7232297502940523 -6.766597836472338 -0.9180117458249255 
v 0.22638193340139626 -6.946170963243912 -1.7670889488471422 
v -0.260351834100401 -7.114383484423887 -2.6243116210596056 
v -0.7369282941636175 -7.269354039262011 -3.4896984601641927 
v -1.2032614864107192 -7.409181536632001 -4.363206526897192 
v -1.65921893249965 -7.531944761924415 -5.244719965532313 
v -2.1046180561561063 -7.63570296907811 -6.134038192893889 
v -2.539305839656802 -7.718554657691129 -7.030819320362401 
v -2.969349803786448 -7.7829311160618175 -7.931348972492962 
v -3.400953252596267 -7.831292225825542 -8.83213519263908 
v -3.8403607332397574 -7.866093224301631 -9.72976933098422 
v -4.289484317835579 -7.887762132802826 -10.622997576120527 
v -4.748329514510929 -7.895830968824912 -11.51149850575136 
v -5.216897456851766 -7.889822663420065 -12.39492681073528 
v -5.695183360790547 -7.869251408509843 -13.272911230574218 
v -6.183175199095523 -7.83362313633363 -14.145053091692935 
v -6.680852276911586 -7.782436112862792 -15.01092480849808 
v -7.188183702758172 -7.7151816575239245 -15.870068352149469 
v -7.705126749514235 -7.631345002508886 -16.721993693256934 
v -8.23162510014225 -7.530406305890394 -17.5661772261635 
v -8.767606973240703 -7.411841833695388 -18.40206018410349 
v -9.312983123987596 -7.275125326996142 -19.22904705634445 
v -9.86764471666866 -7.119729570939324 -20.046504020447635 
v -10.431461065797517 -6.945128183419471 -20.85375740502185 
v -11.004277243857688 -6.750797641784112 -21.65009220080926 
v -11.585911554956464 -6.536219566496034 -22.434750640632785 
v -12.176152875208498 -6.30088328103088 -23.206930871653984 
v -12.774757862493928 -6.044288667405438 -23.96578574653326 
v -13.381448040393824 -5.765949336557436 -24.71042176343798 
v -13.995906763627017 -5.465396132267111 -25.439898188389996 
v -14.617776075227347 -5.142180986353694 -26.153226397150593 
v -15.246653469037742 -4.795881141417924 -26.849369477666585 
v -15.882088574881427 -4.426103755350352 -27.527242137989386 
v -16.523579788019397 -4.032490899094387 -28.185710968456917 
v -17.170570869226943 -3.614724955648629 -28.823595110705376 
v -17.822447547019717 -3.1725344239186786 -29.439667389642562 
v -18.478534159216306 -2.705700125688964 -30.032655967733238 
v -19.138090377106984 -2.214061807589083 -30.60124658366238 
v -19.80030806195381 -1.6975251223945673 -31.14408543947186 
v -20.464308310295998 -1.1560689652612173 -31.6597828014034 
v -21.129138751469288 -0.5897531304987098 -32.1469173796946 
v -21.79377116772706 0.0012737567747362756 -32.60404155121255 
v -22.45709951419727 0.6167660922699406 -33.02968748580208 
v -23.117938422405583 1.256372999329627 -33.422374232290096 
v -23.77502227698383 1.9196299775316494 -33.780615812941036 
v -24.427004960164375 2.6059505953620494 -34.10293036552252 
v -25.07246036239665 3.3146183454688667 -34.387850359762396 
v -25.709883759537703 4.044778797505377 -34.63393389964067 
v -26.337694157161966 4.79543219988367 -34.83977710450534 
v -26.954237700187562 5.565426697349856 -35.00402754035179 
v -27.557792240805703 6.353452345529694 -35.12539864778643 
v -28.146573149221744 7.158036115759488 -35.202685085361324 
v -28.718740439605767 7.977538092816773 -35.2347788764223 
v -29.272407267609715 8.810149073748565 -35.22068621483841 
v -29.805649835634785 9.653889776983947 -35.159544750644 
v -30.31651871765455 10.506611866444366 -35.050641141597154 
v -30.80305158690352 11.366000984616411 -34.89342862200996 
v -31.263287297405583 12.229581970822961 -34.68754430719992 
v -31.69528123463637 13.094726415681544 -34.43282592197415 
v -32.09712181231635 13.958662669663491 -34.1293276162413 
v -32.46694795238602 14.818488382743151 -33.777334511769624 
v -32.80296734482552 15.671185603676147 -33.377375612885565 
v -33.10347524456353 16.513638412180413 -32.93023471205623 
v -33.366873525862495 17.34265299634089 -32.43695893014781 
v -33.59168968196809 18.154980022466976 -31.89886455173175 
v -33.77659543120866 18.94733907735213 -31.31753984875563 
v -33.920424571803885 19.716444895718627 -30.694844631347838 
v -34.02218971791977 20.459035021149933 -30.032906322062026 
v -34.081097550250156 21.171898489750454 -29.33411241845278 
v -34.09656222651527 21.85190507488418 -28.601099286845884 
v -34.06821662119198 22.496034591256826 -27.836737315264173 
v -33.995921099451905 23.101405729656697 -27.04411254290469 
v -33.87976957704377 23.6653038817435 -26.22650497413057 
v -33.72009267450518 24.185207418665723 -25.387363873174795 
v -33.517457838877526 24.658811908585403 -24.53028041810209 
v -33.27266637680777 25.084051796204644 -23.65895816560514 
v -32.986747416972186 25.459119121129422 -22.77718183880353 
v -32.660948894336435 25.7824789196073 -21.888784995755675 
v -32.29672572098919 26.052881033376913 -20.99761716493922 
v -31.895725375352384 26.269368137046428 -20.10751104434367 
v -31.459771200926653 26.43127988815695 -19.22225035274515 
v -30.990843755207624 26.538253198266045 -18.345538895758022 
v -30.491060587343593 26.59021871539012 -17.480971366764347 
v -29.962654848410985 26.587393694561207 -16.63200634591495 
v -29.40795315039683 26.530271511055933 -15.80194189176226 
v -28.829353089248315 26.419608137546486 -14.99389404282084 
v -28.2293008344031 26.256405960146896 -14.210778463769588 
v -27.610269163276467 26.041895347920065 -13.455295386453491 
v -26.974736285873657 25.777514415415965 -12.72991791250116 
v -26.325165763921387 25.46488742844611 -12.03688366513258 
v -25.663987782729823 25.10580230038113 -11.378189705046019 
v -24.993581984501205 24.702187611105213 -10.755590561088992 
v -24.316262021014573 24.256089555071537 -10.170599172126886 
v -23.634261933394573 23.769649190627252 -9.624490492953182 
v -22.94972441863428 23.245080321993672 -9.118307484533231 
v -22.26469099802314 22.684648300083346 -8.652869187155025 
v -21.581094062655342 22.090649980708584 -8.228780563584959 
v -20.90075073647264 21.465395030509814 -7.846443797182183 
v -20.2253584682386 20.811188723702593 -7.506070735968332 
v -19.556492240585246 20.13031632783561 -7.207696186591149 
v -18.89560326671951 19.42502913521213 -6.95119178060872 
v -18.24401903323289 18.697532159213335 -6.736280158207938 
v -17.60294454028394 17.949973481965227 -6.562549240072223 
v -16.97346458767573 17.184435211860237 -6.4294663854507474 
v -16.35654695642298 16.402925986418825 -6.336392262512094 
v -15.753046339663276 15.607374937721533 -6.2825942849008145 
v -15.163708883584816 14.799627023888029 -6.267259495328079 
v -14.589177207817743 13.981439620457417 -6.2895068024484795 
v -14.029995784911117 13.154480259598047 -6.348398500785555 
v -13.486616569595087 12.320325402373612 -6.442951024786349 
v -12.95942487152158 11.48042385056148 -6.571994256937318 
v -12.44902843627057 10.635140382984538 -6.730149668597109 
v -11.955811704967097 9.784362797298725 -6.911642895812241 
v -11.479961812113489 8.927655032862239 -7.110756605811892 
v -11.021528687445201 8.064337251753342 -7.3218275027296045 
v -10.580479889054175 7.193566747355399 -7.539233364547111 
v -10.156750112517932 6.314419956492799 -7.757373497291059 
v -9.750285451029756 5.425976098274985 -7.970645903852787 
v -9.361082431840103 4.527402840995746 -8.173424455139823 
v -8.989223113982838 3.6180474853454565 -8.360038668046606 
v -8.634904011025617 2.6975292425331805 -8.524760606344994 
v -8.298172727327565 1.765984826219012 -8.662106893511702 
v -7.975301716370993 0.8258726271375317 -8.771521454142974 
v -7.661295117030782 -0.11995593764370588 -8.854201604120858 
v -7.3510652719768625 -1.0689101853943686 -8.91137821468743 
v -7.039467987082079 -2.018568782824422 -8.944295158793725 
v -6.721336144957136 -2.9665790542260697 -8.954196879443302 
v -6.3915105864001625 -3.91056178710818 -8.942324176645597 
v -6.0448737337492044 -4.848015845507364 -8.9099167315071 
v -5.676389045754816 -5.776224148613648 -8.858221761745634 
v -5.281149238659265 -6.692163196401744 -8.78850811369926 
v -4.854436233466154 -7.59241819466982 -8.702085025323615 
v -4.391795479073115 -8.473106477880457 -8.600324716469276 
v -3.890407040699125 -9.33047701087499 -8.484015207948772 
v -3.3524929184340366 -10.162997861671696 -8.351499030583525 
v -2.7803269503251116 -10.969238450219475 -8.201147480821243 
v -2.1762341814572075 -11.747858348705957 -8.031364479710446 
v -1.542592452430937 -12.49759598927928 -7.840591086030856 
v -0.8818355579243065 -13.21725833588321 -7.627310713934023 
v -0.19645773803465247 -13.905711693132085 -7.390055188139088 
v 0.5109807508152405 -14.561873806660866 -7.12741175884395 
v 1.2378472546763042 -15.184707393179663 -6.838031185019829 
v 1.981429816503234 -15.773215223917429 -6.520636978203577 
v 2.7389302354714715 -16.32643700171911 -6.174035790953171 
v 3.507457392126846 -16.843448042031643 -5.7971289639170935 
v 4.284019511542909 -17.323358801975594 -5.388926104223938 
v 5.065518967588238 -17.765317626574813 -4.948559181448496 
v 5.848747667279113 -18.16851495999736 -4.475298097615063 
v 6.630384001286858 -18.532189535630103 -3.9685673858617183 
v 7.406991761905259 -18.855636541442088 -3.427963885635495 
v 8.1750214342235 -19.138217724184553 -2.85327518529331 
v 8.93093085598571 -19.379367412307076 -2.24463962456345 
v 9.672819252606564 -19.578532290751106 -1.6043855351641723 
v 10.398906218248586 -19.735314763588082 -0.9349020032326515 
v 11.107526924436607 -19.849468399399175 -0.23861344013120278 
v 11.797135125131394 -19.92089128672672 0.4820337176879989 
v 12.466305068545447 -19.949618740936337 1.2245835513360661 
v 13.113732381289049 -19.93581549498542 1.9865823654030659 
v 13.738233999429848 -19.8797675026195 2.7655894968394765 
v 14.338747227818233 -19.78187347664205 3.5591871846873313 
v 14.914328013672053 -19.642636277469663 4.364989475633598 
v 15.464148523071609 -19.4626542585343 5.180650156109178 
v 15.987494109866457 -19.242612665559154 6.003869715891095 
v 16.48375976574088 -18.98327517662387 6.832401360767251 
v 16.952446138040084 -18.685475659532408 7.664056102734573 
v 17.3931551986451 -18.35011021255401 8.496706965415274 
v 17.80558564292011 -17.978129544341577 9.328292349929011 
v 18.18952809275176 -17.570531738924196 10.156818612423114 
v 18.544860172154422 -17.12835544226741 10.9803619089394 
v 18.87154151800887 -16.652673498108495 11.797069366405633 
v 19.169608782397173 -16.14458705268515 12.60515964041805 
v 19.439170676835104 -15.605220140635973 13.402922921271742 
v 19.680403102606135 -15.035714757786938 14.18872044954457 
v 19.893544405468077 -14.43722642075325 14.960983601592234 
l 1 2
l 2 3
l 3 4
l 4 5
l 5 6
l 6 7
l 7 8
l 8 9
l 9 10
l 10 11
l 11 12
l 12 13
l 13 14
l 14 15
l 15 16
l 16 17
l 17 18
l 18 19
l 19 20
l 20 21
l 21 22
l 22 23
l 23 24
l 24 25
l 25 26
l 26 27
l 27 28
l 28 29
l 29 30
l 30 31
l 31 32
l 32 33
l 33 34
l 34 35
l 35 36
l 36 37
l 37 38
l 38 39
l 39 40
l 40 41
l 41 42
l 42 43
l 43 44
l 44 45
l 45 46
l 46 47
l 47 48
l 48 49
l 49 50
l 50 51
l 51 52
l 52 53
l 53 54
l 54 55
l 55 56
l 56 57
l 57 58
l 58 59
l 59 60
l 60 61
l 61 62
l 62 63
l 63 64
l 64 65
l 65 66
l 66 67
l 67 68
l 68 69
l 69 70
l 70 71
l 71 72
l 72 73
l 73 74
l 74 75
l 75 76
l 76 77
l 77 78
l 78 79
l 79 80
l 80 81
l 81 82
l 82 83
l 83 84
l 84 85
l 85 86
l 86 87
l 87 88
l 88 89
l 89 90
l 90 91
l 91 92
l 92 93
l 93 94
l 94 95
l 95 96
l 96 97
l 97 98
l 98 99
l 99 100
l 100 101
l 101 102
l 102 103
l 103 104
l 104 105
l 105 106
l 106 107
l 107 108
l 108 109
l 109 110
l 110 111
l 111 112
l 112 113
l 113 114
l 114 115
l 115 116
l 116 117
l 117 118
l 118 119
l 119 120
l 120 121
l 121 122
l 122 123
l 123 124
l 124 125
l 125 126
l 126 127
l 127 128
l 128 129
l 129 130
l 130 131
l 131 132
l 132 133
l 133 134
l 134 135
l 135 136
l 136 137
l 137 138
l 138 139
l 139 140
l 140 141
l 141 142
l 142 143
l 143 144
l 144 145
l 145 146
l 146 147
l 147 148
l 148 149
l 149 150
l 150 151
l 151 152
l 152 153
l 153 154
l 154 155
l 155 156
l 156 157
l 157 158
l 158 159
l 159 160
l 160 161
l 161 162
l 162 163
l 163 164
l 164 165
l 165 166
l 166 167
l 167 168
l 168 169
l 169 170
l 170 171
l 171 172
l 172 173
l 173 174
l 174 175
l 175 176
l 176 177
l 177 178
l 178 179
l 179 180
l 180 181
l 181 182
l 182 183
l 183 184
l 184 185
l 185 186
l 186 187
l 187 188
l 188 189
l 189 190
l 190 191
l 191 192
l 192 193
l 193 194
l 194 195
l 195 196
l 196 197
l 197 198
l 198 199
l 199 200
l 200 201
l 201 202
l 202 203
l 203 204
l 204 205
l 205 206
l 206 207
l 207 208
l 208 209
l 209 210
l 210 211
l 211 212
l 212 213
l 213 214
l 214 215
l 215 216
l 216 217
l 217 218
l 218 219
l 219 220
l 220 221
l 221 222
l 222 223
l 223 224
l 224 225
l 225 226
l 226 227
l 227 228
l 228 229
l 229 230
l 230 231
l 231 232
l 232 233
l 233 234
l 234 235
l 235 236
l 236 237
l 237 238
l 238 239
l 239 240
l 240 241
l 241 242
l 242 243
l 243 244
l 244 245
l 245 246
l 246 247
l 247 248
l 248 249
l 249 250
l 250 251
l 251 252
l 252 253
l 253 254
l 254 255
l 255 256
l 256 257
l 257 258
l 258 259
l 259 260
l 260 261
l 261 262
l 262 263
l 263 264
l 264 265
l 265 266
l 266 267
l 267 268
l 268 269
l 269 270
l 270 271
l 271 272
l 272 273
l 273 274
l 274 275
l 275 276
l 276 277
l 277 278
l 278 279
l 279 280
l 280 281
l 281 282
l 282 283
l 283 284
l 284 285
l 285 286
l 286 287
l 287 288
l 288 289
l 289 290
l 290 291
l 291 292
l 292 293
l 293 294
l 294 295
l 295 296
l 296 297
l 297 298
l 298 299
l 299 300
l 300 301
l 301 302
l 302 303
l 303 304
l 304 305
l 305 306
l 306 307
l 307 308
l 308 309
l 309 310
l 310 311
l 311 312
l 312 313
l 313 314
l 314 315
l 315 316
l 316 317
l 317 318
l 318 319
l 319 320
l 320 321
l 321 322
l 322 323
l 323 324
l 324 325
l 325 326
l 326 327
l 327 328
l 328 329
l 329 330
l 330 331
l 331 332
l 332 333
l 333 334
l 334 335
l 335 336
l 336 337
l 337 338
l 338 339
l 339 340
l 340 341
l 341 342
l 342 343
l 343 344
l 344 345
l 345 346
l 346 347
l 347 348
l 348 349
l 349 350
l 350 351
l 351 352
l 352 353
l 353 354
l 354 355
l 355 356
l 356 357
l 357 358
l 358 359
l 359 360
l 360 361
l 361 362
l 362 363
l 363 364
l 364 365
l 365 366
l 366 367
l 367 368
l 368 369
l 369 370
l 370 371
l 371 372
l 372 373
l 373 374
l 374 375
l 375 376
l 376 377
l 377 378
l 378 379
l 379 380
l 380 381
l 381 382
l 382 383
l 383 384
l 384 385
l 385 386
l 386 387
l 387 388
l 388 389
l 389 390
l 390 391
l 391 392
l 392 393
l 393 394
l 394 395
l 395 396
l 396 397
l 397 398
l 398 399
l 399 400
l 400 1
