v -5.3836466397848985 -8.143780440624438 10.018268552843711 
v -5.397757827711953 -9.036487616258533 10.46873216653121 
v -5.4364092010737854 -9.92636946007241 10.92332685179838 
v -5.501878410071874 -10.812224630898926 11.382686522355487 
v -5.596439019206113 -11.692666752713004 11.84735146956115 
v -5.722347097156107 -12.56610634408168 12.317755882952902 
v -5.881824193786643 -13.43073357065022 12.794214368267811 
v -6.077036348824019 -14.284502314737708 13.2769075266995 
v -6.310068866823138 -15.125116344868655 13.76586682687626 
v -6.582896415908162 -15.950017591896042 14.260958559928774 
v -6.897209922689727 -16.756399148737778 14.761921637318071 
v -7.254353032996009 -17.541227966768833 15.268376243811149 
v -7.655459770506732 -18.301233242358297 15.779751614817977 
v -8.101412891018775 -19.032914965636028 16.295273245179533 
v -8.592799553140367 -19.73255919876677 16.813951647536374 
v -9.12967174948785 -20.39665772388632 17.334266442169884 
v -9.711640919873851 -21.02181229223672 17.854339099924974 
v -10.337958909856647 -21.60456763177444 18.3721225319459 
v -11.007488691788028 -22.141449096739503 18.885407639427303 
v -11.718678267290732 -22.629005498521433 19.391833669866873 
v -12.469538921442583 -23.063856774345943 19.888902678969387 
v -13.25762904244717 -23.442745920236483 20.37399830222474 
v -14.080044716034129 -23.762594367991902 20.844408917735596 
v -14.933418241667106 -24.02055973365309 21.29735513369628 
v -15.813925590328186 -24.214094621049306 21.730021363839352 
v -16.71730362690084 -24.34100494475947 22.1395910683968 
v -17.638877654020945 -24.399506059793964 22.523285045287707 
v -18.57359950396024 -24.388274868154042 22.87840196707402 
v -19.516096021656235 -24.306496031276588 23.202360185997495 
v -20.46072736218751 -24.153900465052406 23.49273968509849 
v -21.40165409176021 -23.93079443844468 23.747322950612578 
v -22.332911658463082 -23.63807783909943 23.964133490531538 
v -23.248490415511654 -23.2772505036728 24.141470734558503 
v -24.142419062932568 -22.850405923132385 24.27794012592884 
v -25.008849148189256 -22.360212103078247 24.37247735527128 
v -25.84213815121765 -21.809879859422935 24.42436588539322 
v -26.636928686256354 -21.20311933012376 24.43324716330632 
v -27.388221484271153 -20.54408595257166 24.399123197577836 
v -28.0914400687669 -19.837317564006426 24.32235147791131 
v -28.74248538846476 -19.087664603776965 24.20363251107487 
v -29.337779099324223 -18.300215613013528 24.043990524584032 
v -29.874294667085305 -17.48022032924333 23.844748130548147 
v -30.349575958756493 -16.63301265947129 23.607495933789416 
v -30.761743476477776 -15.763935692617167 23.33405820203796 
v -31.109488832127855 -14.878270695638511 23.02645578777048 
v -31.392058443218755 -13.981171747356962 22.686867501898128 
v -31.60922773386647 -13.077607323394922 22.317591094034224 
v -31.761267339947818 -12.17230977914877 21.921004900838664 
v -31.84890294298449 -11.269733308671121 21.49953109354979 
v -31.87327039711617 -10.374020606163418 21.05560129998833 
v -31.835867777017647 -9.488978139914757 20.591625206789043 
v -31.738505874566982 -8.618059677719364 20.10996257523896 
v -31.583258523224718 -7.7643574850493104 19.61289893817839 
v -31.37241394669972 -6.930600455091873 19.102625093290058 
v -31.108428127137234 -6.119158321925508 18.58122037497002 
v -30.793880980774226 -5.332051050378213 18.050639575968482 
v -30.431435926614018 -4.5709624821872055 17.51270330236053 
v -30.023803244593168 -3.8372573404477945 16.96909148084369 
v -29.573707449904738 -3.132000745038093 16.421339694346095 
v -29.08385876327133 -2.455979462932103 15.87083799811483 
v -28.55692863470189 -1.8097242018782003 15.318831860992542 
v -27.99552918066622 -1.193532347543941 14.766424882430586 
v -27.402196320490695 -0.6074906376982121 14.214582951905227 
v -26.77937634506263 -0.05149735821254432 13.664139540972046 
v -26.12941561704215 0.4747162684257144 13.115801846693547 
v -25.454553083875975 0.9715657528616031 12.570157536455948 
v -24.756915280108867 1.439594247746343 12.02768187649433 
v -24.038513501039894 1.879454815885596 11.488745058393295 
v -23.30124284314998 2.29189412632691 10.953619568398624 
v -22.546882825707897 2.677737604443113 10.422487472850092 
v -21.777099330644152 3.037876027710043 9.895447518975391 
v -20.993447622593436 3.3732535319725203 9.37252197343323 
v -20.19737623668764 3.6848569726586886 8.853663141290616 
v -19.390231547256576 3.9737065707323223 8.33875952562128 
v -18.573262855337994 4.240847763279424 7.827641602765136 
v -17.74762785629865 4.4873441726765835 7.3200872006973485 
v -16.914398370587968 4.714271605524349 6.815826478159975 
v -16.07456624048942 4.922712992272597 6.314546510465155 
v -15.22904931361746 5.113754180127112 5.81589549444416 
v -14.378697449827932 5.288480494903101 5.31948659014106 
v -13.524298502226308 5.447973991558689 4.824901420767918 
v -12.66658423517054 5.593311317849713 4.331693255366028 
v -11.806236152700556 5.725562120612101 3.8393899007490955 
v -10.943891219824422 5.845787929372696 3.3474963308120484 
v -10.080147466697095 5.955041457135151 2.855497082324377 
v -9.215569472084578 6.0543662631472115 2.3628584470200145 
v -8.350693727749798 6.144796727125412 1.8690304902587318 
v -7.48603388965168 6.227358288716491 1.3734489268608387 
v -6.622085925227592 6.303067909856848 0.875536884986892 
v -5.759475108966161 6.372753382372819 0.3744369740630909 
v -4.898888883159966 6.437154093591894 -0.1308338538177922 
v -4.041021565831948 6.497002067971797 -0.6412617535868018 
v -3.186580550403295 6.553022614595345 -1.1578340926683162 
v -2.336292500132772 6.60593502280993 -1.6815373984840054 
v -1.490909545659006 6.656453279294266 -2.2133550893551477 
v -0.6512154908478766 6.705286780154278 -2.754264928258908 
v 0.18196797204867027 6.7531410115196575 -3.305236136719077 
v 1.0077750422574938 6.800718171543584 -3.867226103752556 
v 1.8252895962915026 6.848717705716222 -4.441176622361168 
v 2.6335389985541977 6.8978367260098485 -5.028009583699049 
v 3.431487965006275 6.948770282610054 -5.628622056942978 
v 4.21803279070671 7.002211606550257 -6.243880480148029 
v 4.993275928071063 7.059803218536673 -6.872953558849564 
v 5.757340509492484 7.123205249276097 -7.515010442005464 
v 6.51034504761324 7.194083515725248 -8.169236526009016 
v 7.252394909198181 7.27411031574102 -8.834825538545381 
v 7.983574135660123 7.364964953549506 -9.51097121612329 
v 8.703937597219474 7.468333883351035 -10.196858622904848 
v 9.41350331082275 7.585910331916796 -10.891655002656051 
v 10.112245005331541 7.719393281368058 -11.594500279591912 
v 10.800084936980507 7.870485686117856 -12.304497259111727 
v 11.4768868451758 8.040891767280323 -13.020701458603881 
v 12.142449085028518 8.232313237752054 -13.742110634510162 
v 12.79649795117338 8.446444299309645 -14.467654051829316 
v 13.438681277254709 8.684965267073904 -15.196181620176025 
v 14.068562110076408 8.949534557500629 -15.926452695429205 
v 14.685613022958144 9.241779040935606 -16.65712521252241 
v 15.288585062507877 9.562869507094256 -17.38744361299806 
v 15.875968231154669 9.913813133329686 -18.116728971796107 
v 16.44616069412642 10.295553044274055 -18.844184010579337 
v 16.997468561163444 10.70895391780088 -19.568885980977335 
v 17.528106960158727 11.15478602629648 -20.289779891129736 
v 18.036202628330468 11.63370770856064 -21.005672270126254 
v 18.51979826041937 12.146246305909981 -21.715225696171025 
v 18.97685886275823 12.692777643155155 -22.41695434597044 
v 19.405280365172597 13.273504191611371 -23.109220853734367 
v 19.802900737609757 13.888432117397201 -23.790234796716344 
v 20.167513843065528 14.537347493734197 -24.458053148449725 
v 20.496886230610492 15.219792039929771 -25.110583058444295 
v 20.78877702997776 15.935038840601846 -25.7455873254305 
v 21.040961050338282 16.68206859398187 -26.360692927349884 
v 21.251255109048657 17.459547034290463 -26.95340295211912 
v 21.417547520465188 18.2658042656039 -27.52111223570604 
v 21.537830560471054 19.098816827612538 -28.061126955488636 
v 21.610235590482453 19.956193380509102 -28.57068834503709 
v 21.633070378203733 20.835164939453882 -29.047000590097195 
v 21.604857995824418 21.732580600751362 -29.487262834688725 
v 21.524376516067097 22.644909674256716 -29.88870507255065 
v 21.39069857069834 23.568251062609132 -30.248627526332882 
v 21.203229694619957 24.498350602233113 -30.564442930814952 
v 20.961744262476675 25.430626900660172 -30.833720945144066 
v 20.666417745402946 26.360205969873213 -31.054233732850772 
v 20.317853984303504 27.281964670330108 -31.224001579136758 
v 19.917106202745614 28.190582653819014 -31.341337275566787 
v 19.465690574422958 29.080602138670347 -31.404887905839285 
v 18.96559132086015 29.946494485692906 -31.41367262468984 
v 18.419256543583682 30.782732188515084 -31.36711504480518 
v 17.829584285175784 31.583864570840454 -31.26506893994748 
v 17.199898653839742 32.34459521875158 -31.10783613777068 
v 16.53391621971428 33.059858990056874 -30.896175709220017 
v 15.835703277522509 33.72489635222102 -30.63130385360198 
v 15.109624946046466 34.335322817164375 -30.314884214894473 
v 14.360287416595536 34.887191369256904 -29.949008726912695 
v 13.592474947812779 35.37704601805089 -29.53616945106119 
v 12.81108341414474 35.801964937400584 -29.07922221814539 
v 12.021052336737977 36.15959205804271 -28.581343193687264 
v 11.227297351642989 36.4481564363052 -28.045979735944023 
v 10.434645001345169 36.66647919889829 -27.476797093479703 
v 9.647771579063129 36.813968333496085 -26.877622586465456 
v 8.871147524235635 36.8906020296178 -26.252388930818217 
v 8.10898857999241 36.896901650805034 -25.605078300757746 
v 7.365214599738988 36.833895719650016 -24.939668592549697 
v 6.643416551642528 36.70307651098747 -24.26008316333726 
v 5.946831937109184 36.506350971625615 -23.5701450898495 
v 5.278328530053596 36.24598771999633 -22.873536739226324 
v 4.640396071976404 35.92456183420493 -22.17376518458825 
v 4.035145333413919 35.54489902445477 -21.4741337460088 
v 3.464313780633421 35.11002062060414 -20.777719705375564 
v 2.9292769688260223 34.623090603646936 -20.087358040347628 
v 2.4310647172764694 34.087365686874726 -19.40563085410439 
v 1.9703811030999012 33.50614922269123 -18.734862046630496 
v 1.5476273312775324 32.88274948670463 -18.077116679985988 
v 1.1629265919986043 32.220442681458124 -17.434204432277507 
v 0.8161500935242096 31.522440814927478 -16.807686509179877 
v 0.5069435520323864 30.791864448083253 -16.198885383139082 
v 0.23475352203137362 30.031720173445144 -15.608896753600519 
v -0.001146944181925784 29.244882582783298 -15.038603161474606 
v -0.2016337168387165 28.43408040558931 -14.488688742577905 
v -0.3677084008513744 27.6018864482292 -13.959654663487992 
v -0.5004767636744297 26.750710933713354 -13.451834845292364 
v -0.6011289247473269 25.882797830357575 -12.965411642977456 
v -0.670921385361753 25.000223760789023 -12.50043120828451 
v -0.7111609218301059 24.104899097439528 -12.056818320009043 
v -0.7231903195180874 23.19857087381981 -11.634390516780774 
v -0.7083758898729196 22.28282716980169 -11.232871412668532 
v -0.6680966860318523 21.35910266157942 -10.851903115247243 
v -0.6037353138169673 20.428685061075146 -10.49105769908865 
v -0.5162645291239325 19.49295230700977 -10.149320667865341 
v -0.40631468825592776 18.553331588925726 -9.82519522584516 
v -0.2744993019538926 17.611119991518695 -9.517140936565534 
v -0.12141084346692559 16.667496864267395 -9.22358231940137 
v 0.05238238358259675 15.723536328727402 -8.942916063925596 
v 0.24633839761174653 14.780219856718961 -8.673517024963568 
v 0.4599428124847505 13.838448720481082 -8.413743112804525 
v 0.6927092962707044 12.899056316560351 -8.16193924598268 
v 0.9441792831201408 11.962820297736084 -7.9164405023995394 
v 1.2139209936037971 11.030474485050355 -7.6755746076124405 
v 1.5015278088586137 10.102720546869488 -7.437663895576423 
v 1.8066160341398618 9.180239443070512 -7.201026873783706 
v 2.128822078095744 8.263702640193204 -6.9639795219422895 
v 2.4677990654391406 7.353783107958572 -6.72483645132392 
v 2.823212892848417 6.451166109112406 -6.481912050859696 
v 3.1947093289950863 5.556536822926118 -6.233560637126915 
v 3.5807314777792993 4.669609443859166 -5.979794681733447 
v 3.979764420062601 3.7900393952777542 -5.720602821274214 
v 4.390332554118218 2.9174311728920723 -5.455951122390877 
v 4.810996482726282 2.0513456352323467 -5.185784374143792 
v 5.240349537319472 1.1913067591988282 -4.910027397806703 
v 5.677014006510509 0.3368079139125894 -4.628586375753666 
v 6.11963719455459 -0.5126824199476384 -4.341350159891785 
v 6.566887089543694 -1.3577149094963425 -4.048191740979442 
v 7.017448088177534 -2.1988543359225967 -3.7489696290975543 
v 7.470016546976297 -3.036674678859007 -3.443529328280814 
v 7.923296259462288 -3.8717543949981934 -3.1317048765301596 
v 8.375993889408278 -4.704671832989461 -2.813320466958334 
v 8.826940391159768 -5.535834577700596 -2.487942297382068 
v 9.275035453717857 -6.365533793559237 -2.1549781957528777 
v 9.719165280748882 -7.194040677789913 -1.8138332226918565 
v 10.158198932476672 -8.02160245784409 -1.4639110608503973 
v 10.590984746520041 -8.84843825442139 -1.1046156251305173 
v 11.016346853081401 -9.674734759150002 -0.7353529372395992 
v 11.433081814693114 -10.500641696656356 -0.3555333031628898 
v 11.839955426220076 -11.326267043131828 0.03542616565075938 
v 12.23569971723963 -12.151671976490212 0.43809864445024843 
v 12.619010206298858 -12.976865536952484 0.8530442557825352 
v 12.98854346489747 -13.801798981564405 1.2808062519655086 
v 13.34291505835588 -14.626359821937985 1.7219066716846188 
v 13.680697940968365 -15.45036554161919 2.1768414224583137 
v 14.000421393938511 -16.27355699814805 2.6460747411274643 
v 14.300570606425895 -17.09559152533213 3.1300329861327794 
v 14.579587012412563 -17.916035763744745 3.629097718479771 
v 14.835869508758579 -18.73435826222491 4.143598033327345 
v 15.067776692392906 -19.549921910419727 4.673802111493016 
v 15.273630266598815 -20.361976282357055 5.21990797030473 
v 15.4517197771858 -21.169649993794593 5.782033406637453 
v 15.600308848224529 -21.97194320169969 6.360205142159358 
v 15.717643093021959 -22.76772040258833 6.95434720227925 
v 15.801959878018392 -23.555703717343945 7.564268586498819 
v 15.851500114007363 -24.334466883088457 8.18965031921742 
v 15.864522239058497 -25.102430206970734 8.830032006771004 
v 15.839318539171378 -25.857856771339964 9.484798068673653 
v 15.774233924328504 -26.598850213290962 10.153163858464222 
v 15.667687237563012 -27.32335443221097 10.834161941681886 
v 15.518195121330056 -28.029155604500517 11.526628854298151 
v 15.32439839753403 -28.713886902433988 12.229192722878798 
v 15.08509083411022 -29.375036321124167 12.940262185680378 
v 14.799250071824236 -30.009958010400403 13.658017108966849 
v 14.466070370553664 -30.61588748357004 14.380401641525303 
v 14.08499670650651 -31.18996102900472 15.1051201884523 
v 13.655759613738375 -31.729239580085448 15.829636907984966 
v 13.178410019660191 -32.23073720171877 16.551179337285895 
v 12.653353181384839 -32.69145422593584 17.266746729380934 
v 12.081380695849882 -33.108414915055825 17.973123628915012 
v 11.463699441317674 -33.47870935054373 18.66689912485157 
v 10.80195622190611 -33.79953904338462 19.34449209089106 
v 10.09825684162685 -34.06826554452373 20.002182558413043 
v 9.355178341124663 -34.28246111140299 20.636149163937336 
v 8.575773198741045 -34.439960271128804 21.242512378322782 
v 7.763564435003126 -34.53891092668455 21.817382966442757 
v 6.922530769799758 -34.577823495461544 22.356914855576953 
v 6.057081263174141 -34.55561646494677 22.85736132300268 
v 5.172019217012569 -34.4716567130917 23.315133165356666 
v 4.272495513074877 -34.3257929822504 23.726857302558745 
v 3.363951994076692 -34.11838102276579 24.089434115421454 
v 2.452055935193999 -33.85029913671932 24.400091734469335 
v 1.5426270762783039 -33.522953148841935 24.65643550013056 
v 0.6415590618060172 -33.13827019800396 24.856490908154633 
v -0.24526256107318828 -32.698681160493294 24.998738539139396 
v -1.1120434294198394 -32.20709196162963 25.082139740612348 
v -1.9531620865299586 -31.666844477941435 25.106152170479852 
v -2.7632479191410786 -31.08166814992439 25.0707347021261 
v -3.5372530419471055 -30.45562378863143 24.976341609958393 
v -4.270516126157927 -29.793041345362937 24.823906373496033 
v -4.958816527776815 -29.09845360595455 24.614815832118772 
v -5.59841749969599 -28.376527860480802 24.35087576779448 
v -6.1860977405841595 -27.631997584502006 24.0342692705139 
v -6.7191710123837805 -26.86959605588911 23.66750943778976 
v -7.195494017891508 -26.09399363501088 23.25338806918432 
v -7.613463144921813 -25.309740173869844 22.79492203990756 
v -7.972001034032563 -24.521213712799085 22.29529898063536 
v -8.270534199392584 -23.732576293626167 21.757823765255235 
v -8.50896312065143 -22.947737386785374 21.185867129022252 
v -8.68762632767692 -22.170325115135796 20.58281752307356 
v -8.807260025347789 -21.403665173973913 19.952037074042856 
v -8.868954762065675 -20.650767105427626 19.296822275116696 
v -8.874110545912918 -19.914317392265996 18.620369800628964 
v -8.824391670420187 -19.196678693312336 17.92574762079169 
v -8.721682341798896 -18.499894448830556 17.215871403993724 
v -8.568056123554085 -17.825669900381392 16.493509567777274 
v -8.365980666077034 -17.17488452708258 15.761638485781184 
v -8.11803670245542 -16.548015484341327 15.023021063245558 
v -7.826841221742217 -15.945227065089096 14.280152760807997 
v -7.495012053242312 -15.36640084705918 13.535265757260225 
v -7.125188902468668 -14.811158114557267 12.79031718093543 
v -6.720208509861044 -14.278851786758402 12.046907422543173 
v -6.282822940939089 -13.768620580116197 11.30638057425503 
v -5.8156816061699725 -13.27941796804822 10.56984390047474 
v -5.321321083213587 -12.810038681260066 9.838187315433467 
v -4.802159263883046 -12.359142566639688 9.112103260076706 
v -4.260493222860646 -11.925275787401334 8.392106532073363 
v -3.6985002448625157 -11.506889431166792 7.678553730460837 
v -3.1182414974312573 -11.102355655926381 6.971662071040988 
v -2.5216678927953766 -10.709981549555463 6.271527409763723 
v -1.910627740329055 -10.328020910009803 5.578141379362062 
v -1.286875848125868 -9.954684173539585 4.891407600330033 
v -0.652083785947399 -9.588146730011124 4.211156972152716 
v -0.007851070873642264 -9.226555870121656 3.5371620858237356 
v 0.6442829195657588 -8.868036610983422 2.8691508254436755 
v 1.302826464715685 -8.510696645924 2.206819246327807 
v 1.9663225756866487 -8.152630662746219 1.5498438306724265 
v 2.633335730688307 -7.791924273144047 0.8978932303751116 
v 3.302438356074719 -7.426657795226244 0.2506396108265044 
v 3.972197127407088 -7.054910131637918 -0.39223029005517235 
v 4.641159160542909 -6.674762987825099 -1.0310042762313538 
v 5.307838165191757 -6.284305678550618 -1.6659338762733906 
v 5.970700642645443 -5.8816407755886875 -2.2972234987497937 
v 6.628152225643586 -5.464890855090963 -2.9250194774995215 
v 7.278524281745302 -5.032206608639167 -3.5493989407012676 
v 7.920060932297137 -4.581776586379759 -4.170358458595831 
v 8.550819713313436 -4.111952432395609 -4.787977784620912 
v 9.168636974087134 -3.621295487930112 -5.402469523999624 
v 9.771235325434759 -3.1084400628735884 -6.013938426028745 
v 10.35621438937443 -2.572111619702954 -6.622369046961776 
v 10.921043521522625 -2.0111475517324404 -7.227613174138557 
v 11.46305692411902 -1.4245207595062968 -7.829377066609963 
v 11.979451791019997 -0.8113660225513815 -8.427208793130722 
v 12.467290032515411 -0.17100922033145766 -9.020485857776665 
v 12.923504257215479 0.4970007118359727 -9.60840345564746 
v 13.344908717379855 1.192857330577324 -10.1899637733294 
v 13.728215941089452 1.9164601356766213 -10.763966834456784 
v 14.070059761821161 2.6673765160115956 -11.329003477567932 
v 14.367025401868666 3.4448030006496344 -11.883451134819696 
v 14.615687160080716 4.24752686735541 -12.425473149057765 
v 14.812654115592153 5.073889560148316 -12.953022503720238 
v 14.954623845990362 5.921752927397682 -13.463850408135437 
v 15.038444240797867 6.78847088288629 -13.95552105604153 
v 15.061182656555477 7.670867988360584 -14.425432897452907 
v 15.020201433514602 8.565227220699125 -14.870847070336064 
v 14.913238219885233 9.46728910463073 -15.288923336968061 
v 14.738490501318973 10.372265362134863 -15.676761953360376 
v 14.495471026655368 11.275409950870099 -16.030601723992454 
v 14.18429927366094 12.171594721354486 -16.346750512077897 
v 13.805743382517877 13.055357628789395 -16.62166470808742 
v 13.361264428440672 13.920973061312127 -16.852017153499162 
v 12.853047004612007 14.76253518749354 -17.03476620490363 
v 12.284013539773483 15.574052686015465 -17.16722348675317 
v 11.65782028074713 16.34955247660674 -17.24711766722258 
v 10.978833567867248 17.083189387987257 -17.272651520448775 
v 10.25208588968137 17.769358137687117 -17.242549633526814 
v 9.483212171585635 18.402803618212893 -17.156094388643492 
v 8.678367764236464 18.978725331003954 -17.01314829417069 
v 7.844130574291698 19.492871912986637 -16.81416133078972 
v 6.987390642756081 19.941622066516672 -16.56016268109415 
v 6.115231152291245 20.322048813270012 -16.252736972289302 
v 5.234805231788762 20.631964817442228 -15.893985903184616 
v 4.3532133076326724 20.86994739101897 -15.486476919896903 
v 3.4773851673704135 21.035342990972673 -15.033181027771223 
v 2.613970946671968 21.128251808024068 -14.537402410596613 
v 1.7692444075825582 21.14949406374257 -14.002702717268837 
v 0.9490211294979521 21.1005603606835 -13.432822954251163 
v 0.15859335187300727 20.983548986281125 -12.831605810961223 
v -0.5973176957256271 20.801093409187267 -12.202920980498737 
v -1.3145919986266534 20.55628332595776 -11.550595655140388 
v -1.9897339914863623 20.25257694342406 -10.87836394183579 
v -2.6206113409255654 19.893296319008556 -10.190709843381924 
v -3.2057309961612828 19.481948745735888 -9.491859164543483 
v -3.7441978094648243 19.022149266417888 -8.785736599068283 
v -4.235667412303577 18.517549340019666 -8.075937638526474 
v -4.680293819059945 17.971774038292097 -7.36571136462868 
v -5.078674211931149 17.388368353784703 -6.657952957079931 
v -5.43179303568154 16.770752744731066 -5.955204579341369 
v -5.7409671678603 16.122187673145692 -5.259663234694983 
v -6.00779355895081 15.445746612405475 -4.573194196582058 
v -6.234100380881752 14.744296805331722 -3.8973486908982586 
v -6.421902397692441 14.02048693436555 -3.2333846250292178 
v -6.573360988882124 13.276740810173038 -2.5822893021291957 
v -6.690749018745736 12.515256181224736 -1.9448032154271178 
v -6.776420554316483 11.738007802075487 -1.3214441751275416 
v -6.832785287919528 10.946753960791353 -0.712531171624908 
v -6.862287413370496 10.143045746347465 -0.11820751777278914 
v -6.8673886320380015 9.328238426732359 0.46153706342134265 
v -6.850554920448499 8.503504401586932 1.0268456325642041 
v -6.814246669056592 7.66984728476029 1.577974646305016 
v -6.760911796861375 6.82811675888522 2.1152760522097265 
v -6.6929777942562385 5.979028560476613 2.639187988799202 
v -6.612653994033891 5.123425700420143 3.150600659890226 
v -6.522129352152685 4.2620333694028965 3.650461583001777 
v -6.42357326336027 3.395474799689263 4.139763540690989 
v -6.319137638602069 2.524287138398755 4.619533837503801 
v -6.210959978771133 1.6489372836557936 5.090824700403549 
v -6.101167198871946 0.769837675114948 5.554704651885545 
v -5.991879972662837 -0.11263794147232369 6.012250682845288 
v -5.885217379952362 -0.9981387345236248 6.464541052580134 
v -5.783301646519373 -1.8863209354023418 6.912648545273217 
v -5.688262769851155 -2.776831850145308 7.357634015366854 
v -5.602242822449397 -3.669293665157103 7.800540058026246 
v -5.527399718382695 -4.563286980308244 8.242384645269023 
v -5.465910218253815 -5.458334011358813 8.684154573328073 
v -5.419971933149094 -6.353881418575119 9.126798572644688 
v -5.391804069988931 -7.249282740383301 9.571219938957762 
l 1 2
l 2 3
l 3 4
l 4 5
l 5 6
l 6 7
l 7 8
l 8 9
l 9 10
l 10 11
l 11 12
l 12 13
l 13 14
l 14 15
l 15 16
l 16 17
l 17 18
l 18 19
l 19 20
l 20 21
l 21 22
l 22 23
l 23 24
l 24 25
l 25 26
l 26 27
l 27 28
l 28 29
l 29 30
l 30 31
l 31 32
l 32 33
l 33 34
l 34 35
l 35 36
l 36 37
l 37 38
l 38 39
l 39 40
l 40 41
l 41 42
l 42 43
l 43 44
l 44 45
l 45 46
l 46 47
l 47 48
l 48 49
l 49 50
l 50 51
l 51 52
l 52 53
l 53 54
l 54 55
l 55 56
l 56 57
l 57 58
l 58 59
l 59 60
l 60 61
l 61 62
l 62 63
l 63 64
l 64 65
l 65 66
l 66 67
l 67 68
l 68 69
l 69 70
l 70 71
l 71 72
l 72 73
l 73 74
l 74 75
l 75 76
l 76 77
l 77 78
l 78 79
l 79 80
l 80 81
l 81 82
l 82 83
l 83 84
l 84 85
l 85 86
l 86 87
l 87 88
l 88 89
l 89 90
l 90 91
l 91 92
l 92 93
l 93 94
l 94 95
l 95 96
l 96 97
l 97 98
l 98 99
l 99 100
l 100 101
l 101 102
l 102 103
l 103 104
l 104 105
l 105 106
l 106 107
l 107 108
l 108 109
l 109 110
l 110 111
l 111 112
l 112 113
l 113 114
l 114 115
l 115 116
l 116 117
l 117 118
l 118 119
l 119 120
l 120 121
l 121 122
l 122 123
l 123 124
l 124 125
l 125 126
l 126 127
l 127 128
l 128 129
l 129 130
l 130 131
l 131 132
l 132 133
l 133 134
l 134 135
l 135 136
l 136 137
l 137 138
l 138 139
l 139 140
l 140 141
l 141 142
l 142 143
l 143 144
l 144 145
l 145 146
l 146 147
l 147 148
l 148 149
l 149 150
l 150 151
l 151 152
l 152 153
l 153 154
l 154 155
l 155 156
l 156 157
l 157 158
l 158 159
l 159 160
l 160 161
l 161 162
l 162 163
l 163 164
l 164 165
l 165 166
l 166 167
l 167 168
l 168 169
l 169 170
l 170 171
l 171 172
l 172 173
l 173 174
l 174 175
l 175 176
l 176 177
l 177 178
l 178 179
l 179 180
l 180 181
l 181 182
l 182 183
l 183 184
l 184 185
l 185 186
l 186 187
l 187 188
l 188 189
l 189 190
l 190 191
l 191 192
l 192 193
l 193 194
l 194 195
l 195 196
l 196 197
l 197 198
l 198 199
l 199 200
l 200 201
l 201 202
l 202 203
l 203 204
l 204 205
l 205 206
l 206 207
l 207 208
l 208 209
l 209 210
l 210 211
l 211 212
l 212 213
l 213 214
l 214 215
l 215 216
l 216 217
l 217 218
l 218 219
l 219 220
l 220 221
l 221 222
l 222 223
l 223 224
l 224 225
l 225 226
l 226 227
l 227 228
l 228 229
l 229 230
l 230 231
l 231 232
l 232 233
l 233 234
l 234 235
l 235 236
l 236 237
l 237 238
l 238 239
l 239 240
l 240 241
l 241 242
l 242 243
l 243 244
l 244 245
l 245 246
l 246 247
l 247 248
l 248 249
l 249 250
l 250 251
l 251 252
l 252 253
l 253 254
l 254 255
l 255 256
l 256 257
l 257 258
l 258 259
l 259 260
l 260 261
l 261 262
l 262 263
l 263 264
l 264 265
l 265 266
l 266 267
l 267 268
l 268 269
l 269 270
l 270 271
l 271 272
l 272 273
l 273 274
l 274 275
l 275 276
l 276 277
l 277 278
l 278 279
l 279 280
l 280 281
l 281 282
l 282 283
l 283 284
l 284 285
l 285 286
l 286 287
l 287 288
l 288 289
l 289 290
l 290 291
l 291 292
l 292 293
l 293 294
l 294 295
l 295 296
l 296 297
l 297 298
l 298 299
l 299 300
l 300 301
l 301 302
l 302 303
l 303 304
l 304 305
l 305 306
l 306 307
l 307 308
l 308 309
l 309 310
l 310 311
l 311 312
l 312 313
l 313 314
l 314 315
l 315 316
l 316 317
l 317 318
l 318 319
l 319 320
l 320 321
l 321 322
l 322 323
l 323 324
l 324 325
l 325 326
l 326 327
l 327 328
l 328 329
l 329 330
l 330 331
l 331 332
l 332 333
l 333 334
l 334 335
l 335 336
l 336 337
l 337 338
l 338 339
l 339 340
l 340 341
l 341 342
l 342 343
l 343 344
l 344 345
l 345 346
l 346 347
l 347 348
l 348 349
l 349 350
l 350 351
l 351 352
l 352 353
l 353 354
l 354 355
l 355 356
l 356 357
l 357 358
l 358 359
l 359 360
l 360 361
l 361 362
l 362 363
l 363 364
l 364 365
l 365 366
l 366 367
l 367 368
l 368 369
l 369 370
l 370 371
l 371 372
l 372 373
l 373 374
l 374 375
l 375 376
l 376 377
l 377 378
l 378 379
l 379 380
l 380 381
l 381 382
l 382 383
l 383 384
l 384 385
l 385 386
l 386 387
l 387 388
l 388 389
l 389 390
l 390 391
l 391 392
l 392 393
l 393 394
l 394 395
l 395 396
l 396 397
l 397 398
l 398 399
l 399 400
l 400 1
