v 7.243933028063295 -2.443202190858628 -30.960174750579732 
v 4.7724061472157775 -0.377558847068086 -28.615211397884597 
v 2.723720912963041 0.9059383195043961 -25.44539559196775 
v 1.2305228953046152 1.365602953738243 -21.77515288849392 
v 0.3256145474965489 1.0563340037890174 -17.89937600417733 
v -0.12599941470668075 0.12138034045655623 -14.040692253294552 
v -0.34441262578532844 -1.277618697023701 -10.301532399470359 
v -0.5559088559190041 -3.0010371965637987 -6.698922651024504 
v -0.8112405435289887 -4.890967071351538 -3.1827698303662557 
v -0.9325128005092127 -6.754081098732263 0.35406597981667975 
v -0.7481182473013785 -8.402811365917044 3.991855238931315 
v -0.3222002043885154 -9.83689984303212 7.701155108142039 
v 0.2153635574586355 -11.183843560394493 11.42907685352176 
v 0.7770349864776808 -12.587432207227456 15.132309909955682 
v 1.275938913080789 -14.191184608396215 18.76169597481279 
v 1.6202399569357613 -16.13152658823468 22.23995001043137 
v 1.711121624952119 -18.523072224517453 25.43930446595355 
v 1.4478061634746004 -21.429602902948066 28.163466549079466 
v 0.7449732592018377 -24.818138554294165 30.14587098028649 
v -0.43416791702231544 -28.505725372227833 31.08433499853144 
v -2.0360167520095334 -32.13085658278319 30.728832752564635 
v -3.890426468657389 -35.19760064893259 29.007214241966178 
v -5.7330877908315045 -37.214144317844145 26.119873526235075 
v -7.283792970481202 -37.868900917590175 22.517643587819745 
v -8.33912252008582 -37.130894648848894 18.752220841202657 
v -8.82149935465421 -35.21225681610322 15.294065879229965 
v -8.765946709424643 -32.44098114295676 12.425947255935622 
v -8.272437017409242 -29.13731734170434 10.238919786856608 
v -7.460021477437601 -25.546082332384557 8.68698629052679 
v -6.439741216721411 -21.822512687520874 7.649183355114058 
v -5.3055363843920675 -18.047418692912064 6.973649901762212 
v -4.136153818679854 -14.251561329090105 6.5006200433206685 
v -3.0020098133090434 -10.439842715448178 6.0705021237796535 
v -1.9747873744438855 -6.613202762731566 5.524678954585064 
v -1.1781023319316957 -2.7799714265036095 4.714804818477082 
v -0.7641088958986668 1.0244353487975453 3.5590588344442797 
v -0.7387139538027813 4.784514543354722 2.1986682285077848 
v -1.043783250789159 8.524208564188443 0.8147651698086156 
v -1.6200190540498276 12.284521499220757 -0.41798257324227633 
v -2.411455905952528 16.098208716216185 -1.319680110024135 
v -3.3578700646383925 19.9621891150616 -1.697615686472439 
v -4.383571329330179 23.805970750208736 -1.3512031423290527 
v -5.401314701251235 27.459639283952924 -0.11126591498651815 
v -6.350666115271701 30.652465972536458 2.0805156385124364 
v -7.161300991947848 33.057191404685135 5.152310702530386 
v -7.754042152872101 34.35552890341606 8.869622756551427 
v -8.06187278809132 34.330247304211866 12.837867935412104 
v -8.05301926007659 32.94910943235365 16.570426962266 
v -7.744275335930665 30.391869875865744 19.605730071402554 
v -7.196588703980038 26.998970636942943 21.619027131048767 
v -6.495927230505169 23.169731237135444 22.475505552185275 
v -5.730650785850957 19.263785327434213 22.2123462487987 
v -4.975501974308701 15.543649771310061 20.977951610509454 
v -4.285480191038139 12.162922237989038 18.96631154991931 
v -3.6972570206961426 9.183410628512364 16.369471285768775 
v -3.2341707521417193 6.602127559344507 13.35270160991786 
v -2.911821255321153 4.376197552862719 10.046970791532926 
v -2.742815535489387 2.4411675422336176 6.551372917591229 
v -2.740278631243256 0.7226127606599047 2.93998205215162 
v -2.8424230858286235 -0.7987630511293156 -0.7573471509694221 
v -2.802208414250817 -1.9943134218080638 -4.571743577793639 
v -2.3468367072100116 -2.6906353647855696 -8.477744660382628 
v -1.292641952113339 -2.707254497720094 -12.32720426037327 
v 0.21888072214758614 -1.9427874519119288 -15.941417203906598 
v 1.954349164374685 -0.35251730117467694 -19.164350658367734 
v 3.6652460625702643 2.054233508124787 -21.847789793397105 
v 5.171356644787218 5.1699003852761 -23.83309171664232 
v 6.367913973875945 8.798960582609654 -24.979002533633228 
v 7.170659809701986 12.700310735737657 -25.199436959632013 
v 7.522551539501859 16.60724507950877 -24.47480436787271 
v 7.3996297049300805 20.250917507991367 -22.855509044650947 
v 6.813067327721622 23.384472710585474 -20.4572143776679 
v 5.807097684142347 25.803989732364318 -17.448678419807543 
v 4.4533991997670395 27.36320702307056 -14.034504336250073 
v 2.843178146061097 27.98056862008877 -10.435946658709085 
v 1.0784449292368488 27.638861561907717 -6.872800865648436 
v -0.7361797089785023 26.37905071678743 -3.5485707357362757 
v -2.5002272861462917 24.290561633297095 -0.6399571113680904 
v -4.115340342143011 21.500883873419745 1.7152657388900112 
v -5.447027828440043 18.16511521538596 3.4596549241804984 
v -6.359976566485369 14.44591634801566 4.5913812837300245 
v -6.738657349319526 10.508155425199952 5.13708502608648 
v -6.487073697175364 6.522989911615265 5.144911611097984 
v -5.5325984303926745 2.67397805337235 4.682218265271338 
v -3.835582785069328 -0.8386668202750027 3.8370933345297256 
v -1.4948625064081316 -3.887290886778078 2.7458872332575446 
v 1.1502673523104074 -6.603967811830483 1.475083024908765 
v 3.7981152229863677 -9.160115075120059 -0.08877440622014304 
v 6.391762894981133 -11.530916688399667 -1.9963423531801667 
v 8.888808296240246 -13.654235487447085 -4.284838752535955 
v 11.229250638533724 -15.451132059206303 -6.980565168765753 
v 13.331760176903375 -16.82542596001621 -10.087717528871647 
v 15.091930867282093 -17.66718020848291 -13.572591019754933 
v 16.385361205898047 -17.863106533975 -17.344111500992934 
v 17.07939808737535 -17.31691941714648 -21.234846702082 
v 17.056880922168634 -15.980422721115369 -24.991411715537485 
v 16.251348472898794 -13.89020419610469 -28.28714360508179 
v 14.68513695262259 -11.196183867767797 -30.767763701586894 
v 12.493094133536932 -8.162796571712432 -32.127293345345265 
v 9.91381902488817 -5.1301681242924895 -32.18992749257298 
l 1 2
l 2 3
l 3 4
l 4 5
l 5 6
l 6 7
l 7 8
l 8 9
l 9 10
l 10 11
l 11 12
l 12 13
l 13 14
l 14 15
l 15 16
l 16 17
l 17 18
l 18 19
l 19 20
l 20 21
l 21 22
l 22 23
l 23 24
l 24 25
l 25 26
l 26 27
l 27 28
l 28 29
l 29 30
l 30 31
l 31 32
l 32 33
l 33 34
l 34 35
l 35 36
l 36 37
l 37 38
l 38 39
l 39 40
l 40 41
l 41 42
l 42 43
l 43 44
l 44 45
l 45 46
l 46 47
l 47 48
l 48 49
l 49 50
l 50 51
l 51 52
l 52 53
l 53 54
l 54 55
l 55 56
l 56 57
l 57 58
l 58 59
l 59 60
l 60 61
l 61 62
l 62 63
l 63 64
l 64 65
l 65 66
l 66 67
l 67 68
l 68 69
l 69 70
l 70 71
l 71 72
l 72 73
l 73 74
l 74 75
l 75 76
l 76 77
l 77 78
l 78 79
l 79 80
l 80 81
l 81 82
l 82 83
l 83 84
l 84 85
l 85 86
l 86 87
l 87 88
l 88 89
l 89 90
l 90 91
l 91 92
l 92 93
l 93 94
l 94 95
l 95 96
l 96 97
l 97 98
l 98 99
l 99 100
l 100 1
