v -14.78504751300877 0.6866443118520337 -16.985639352909303 
v -17.118103838491358 1.041934195876989 -20.212396904311372 
v -19.12172133662315 1.8125754469243363 -23.583584988327463 
v -20.70472105223315 3.074096970598777 -27.028280035862565 
v -21.76208576230313 4.878284282151517 -30.43095829991004 
v -22.187054992890943 7.234012267997306 -33.62592781557277 
v -21.892154196165166 10.085477137183862 -36.40187554516147 
v -20.837524549163223 13.294900804178567 -38.52259194871006 
v -19.05948766480915 16.640218539498285 -39.76601706390716 
v -16.687214310829358 19.837072362789108 -39.97483851068299 
v -13.935572276237949 22.585691931609666 -39.101703006394345 
v -11.070938563796663 24.629718384972804 -37.22877511787605 
v -8.36040131201991 25.804993724383003 -34.55072279539347 
v -6.023689736618446 26.060072792028084 -31.327863626398734 
v -4.204433635050267 25.44479483830682 -27.829629522736234 
v -2.9658480469975093 24.077739495869018 -24.28885280740497 
v -2.304800060251829 22.108677712952172 -20.877237186280787 
v -2.1737395149661047 19.68812242726777 -17.70095771152897 
v -2.501232681105387 16.94833496882359 -14.809379341808295 
v -3.1838353887375987 13.981276066061556 -12.218212145916361 
v -4.089162213461944 10.833025501055621 -9.925091106605256 
v -5.089087914903166 7.526205770705674 -7.9106716373513475 
v -6.06026245686716 4.069932690650087 -6.148707594777506 
v -6.883377099760408 0.4712646004434092 -4.610952215925625 
v -7.491543600700117 -3.231295615814528 -3.2266073202967176 
v -7.862369145039933 -6.980971483383846 -1.885690604988956 
v -7.972915484528328 -10.722154998724344 -0.47686841234849037 
v -7.797807872938216 -14.388952288745775 1.1082308100355374 
v -7.311161443210443 -17.89305822237357 2.969787914252424 
v -6.491899856087085 -21.113014372983507 5.190416905608041 
v -5.333126007906685 -23.88793454745649 7.819929115656254 
v -3.8551484445634787 -26.021158080544733 10.854196260488816 
v -2.0903377030780788 -27.330404625776524 14.186724774163281 
v -0.04463649215702473 -27.72981599039655 17.59063298535514 
v 2.2557722578082466 -27.202339346622907 20.808969840071214 
v 4.754591899672215 -25.807337584271252 23.590691340059408 
v 7.367690090982481 -23.688894747031554 25.739784916060785 
v 9.994331499651029 -21.040286991836407 27.165262322348358 
v 12.529931285880522 -18.037981085996293 27.88338367198042 
v 14.86521908464393 -14.796832837991387 27.987280846716565 
v 16.92198453506414 -11.391447801838835 27.59907491526157 
v 18.650497505456315 -7.865530176137614 26.84846955795662 
v 20.024481798700247 -4.254764353196119 25.819425338405207 
v 21.034874616880174 -0.6099619160926649 24.523641370141558 
v 21.6760450599929 3.016590648085907 22.96754640823138 
v 21.9444818405783 6.572032057326941 21.15900533248521 
v 21.83896406785221 10.002177339955999 19.10805556980882 
v 21.36108495324511 13.250988273036542 16.827829997854582 
v 20.51610097848621 16.260369596102343 14.335620332368537 
v 19.314061566943547 18.970401973325423 11.654015778944318 
v 17.771147793935775 21.320120773249883 8.812025536476122 
v 15.911112951404968 23.248934185457138 5.846062815501746 
v 13.76667536534981 24.698737429052596 2.8006373553944575 
v 11.38067098718578 25.616715789229822 -0.27141896633967677 
v 8.80674031644808 25.958736279960593 -3.3093723587016637 
v 6.109314817045439 25.693111876268194 -6.245805509612621 
v 3.3626963493008097 24.80439969958837 -9.00872131728967 
v 0.6490992565423391 23.296791692756052 -11.524514225118395 
v -1.9443512730569221 21.196605565196975 -13.721656986339944 
v -4.3295131459961445 18.553414938388773 -15.534809633682407 
v -6.437376065326166 15.447148955153601 -16.903057666375354 
v -8.248793526466955 11.991828921468821 -17.76654076679205 
v -9.764937535174601 8.308162332092248 -18.08222720777673 
v -10.999727383768802 4.516324618887739 -17.82478697513556 
v -11.977512352941451 0.7336956529410648 -16.984878431466413 
v -12.725155155726434 -2.9293198258125077 -15.572623155343788 
v -13.228612385643121 -6.396999774051768 -13.650016900810776 
v -13.459480629754982 -9.623253746471502 -11.301466302734488 
v -13.395636219166898 -12.578574431862378 -8.610344501431804 
v -13.019378466420534 -15.246255657041687 -5.656724638787297 
v -12.315976451915098 -17.618800976134406 -2.5167474812643134 
v -11.272756800536166 -19.694823490392643 0.7368138630750634 
v -9.878807356095901 -21.476570143443684 4.033199311168736 
v -8.125336958008123 -22.96809419384627 7.301862911344735 
v -6.006779708581271 -24.174028282687 10.47044804837179 
v -3.5277919703112826 -25.093765635445266 13.468850558170303 
v -0.7536859956763724 -25.66765193049841 16.28965728324953 
v 2.212261735203219 -25.800010378409745 18.966413591799608 
v 5.256723284482111 -25.394509075314428 21.523699388813434 
v 8.252595170995757 -24.344836007902497 23.949340779125503 
v 11.058709800642731 -22.556454281163475 26.156657319129575 
v 13.525594409698433 -20.00415335247695 27.981756232678045 
v 15.529427827918832 -16.78269074994776 29.217477929384966 
v 16.96483778654156 -13.089275015336371 29.674345698855568 
v 17.756523594825886 -9.206963794833301 29.222955908451155 
v 17.88172979345207 -5.470219838185029 27.83572640979204 
v 17.37322134915533 -2.1686906378431208 25.654247227636574 
v 16.314306455461786 0.5178174321709184 22.89843041219572 
v 14.81514522668558 2.517156116438269 19.783377289175 
v 12.986295378293894 3.842746389595263 16.487896549007438 
v 10.922043552429157 4.563624820790263 13.14233289330586 
v 8.693403208983952 4.777837985930693 9.830221291724392 
v 6.347811933239643 4.5938672405250776 6.59693180824259 
v 3.912356558500301 4.120162936585464 3.4602221958945436 
v 1.3983154704027956 3.460883258628363 0.42000811895195633 
v -1.1941033166618726 2.7156532084910068 -2.533540762887845 
v -3.8711398539940154 1.9815687149381493 -5.413464980149087 
v -6.637876265362817 1.3543493742983077 -8.23302297816402 
v -9.445041770359103 0.9001519934167707 -11.045695945442365 
v -12.1966606615174 0.661902992801551 -13.938104720137163 
l 1 2
l 2 3
l 3 4
l 4 5
l 5 6
l 6 7
l 7 8
l 8 9
l 9 10
l 10 11
l 11 12
l 12 13
l 13 14
l 14 15
l 15 16
l 16 17
l 17 18
l 18 19
l 19 20
l 20 21
l 21 22
l 22 23
l 23 24
l 24 25
l 25 26
l 26 27
l 27 28
l 28 29
l 29 30
l 30 31
l 31 32
l 32 33
l 33 34
l 34 35
l 35 36
l 36 37
l 37 38
l 38 39
l 39 40
l 40 41
l 41 42
l 42 43
l 43 44
l 44 45
l 45 46
l 46 47
l 47 48
l 48 49
l 49 50
l 50 51
l 51 52
l 52 53
l 53 54
l 54 55
l 55 56
l 56 57
l 57 58
l 58 59
l 59 60
l 60 61
l 61 62
l 62 63
l 63 64
l 64 65
l 65 66
l 66 67
l 67 68
l 68 69
l 69 70
l 70 71
l 71 72
l 72 73
l 73 74
l 74 75
l 75 76
l 76 77
l 77 78
l 78 79
l 79 80
l 80 81
l 81 82
l 82 83
l 83 84
l 84 85
l 85 86
l 86 87
l 87 88
l 88 89
l 89 90
l 90 91
l 91 92
l 92 93
l 93 94
l 94 95
l 95 96
l 96 97
l 97 98
l 98 99
l 99 100
l 100 1
