v -33.28773613052219 -9.912801786125444 -9.150822305317163 
v -31.220756826243242 -13.243732312845088 -9.944839608761114 
v -29.138118324539224 -16.56660408552736 -10.730944207269506 
v -26.384392183190958 -20.706399497562153 -11.668841428803036 
v -22.541364872112542 -24.553548035844322 -12.222457958113887 
v -18.007370812291143 -27.5956956685634 -12.337950773204666 
v -12.974606883055682 -29.68949732710268 -12.051047382229923 
v -7.653989365123631 -30.69844087846838 -11.402006698863072 
v -2.3111581122692435 -30.407292498779587 -10.42415912536369 
v 1.5692280970584558 -29.845600128296898 -9.635955954782473 
v 5.457156620513548 -29.32809885454077 -8.854672559435297 
v 9.653294648218116 -28.745759907896204 -8.006447043248063 
v 14.758722809192376 -27.177157049268583 -6.849187114576332 
v 19.225203791745617 -24.276105273684127 -5.645083076812608 
v 22.79095668961126 -20.311294103120755 -4.46807076241998 
v 25.157510490806935 -15.537268009257334 -3.2510038945946795 
v 26.39835135807453 -11.524069194732679 -2.2403612030279785 
v 27.523547313504096 -7.80393588422583 -1.298125793433471 
v 28.788571336680874 -3.069076591254056 -0.0502431744987153 
v 28.87761520302309 2.1102012981419938 1.6883468874949104 
v 27.778399090961837 7.086004134202544 3.653401712734689 
v 25.622963538560725 11.67985545728935 5.673145174005591 
v 22.54133513776484 15.76096035017194 7.595346098409149 
v 18.65697713882918 19.22321107077167 9.274917179917027 
v 14.445649778629898 21.763555875100153 10.469144293965929 
v 11.060469319046781 23.694938044910323 11.368541031377418 
v 7.380380024953152 25.773690813126645 12.333712754880487 
v 2.344781938823557 27.813619109304554 13.000346199025463 
v -1.8338047750276083 28.966287467794178 13.090522914714212 
v -6.757897183575706 30.200268958168593 13.05080956621184 
v -11.71244207886775 30.650528013663305 12.041817985467198 
v -15.598226358087764 30.909794686638133 11.128542135253713 
v -19.48307476635677 31.15756852166093 10.208201269709237 
v -23.365788278246896 31.421168109835605 9.283268201766885 
v -28.634333073766648 31.3550366637323 7.937879267646209 
v -33.61242380682352 29.775346949852903 6.384603107026835 
v -37.88588169662546 26.73656819239126 4.903309444406253 
v -40.95750544433495 22.445475910173993 3.5488436511669126 
v -42.41493283442238 17.349082870827058 2.2936413662428072 
v -42.034121071963774 12.047107751046024 1.106245753235462 
v -39.84450699170384 7.193496452544962 -0.04133371998076652 
v -36.18597003950579 3.286387103735373 -1.0717345398769393 
v -31.547744834342502 0.5240969177347793 -1.8481054078936106 
v -26.360158511422508 -1.1030820902851979 -2.279971305452606 
v -20.94270336865571 -1.6479190352724806 -2.271782105215981 
v -16.947162530911413 -1.8208471961586798 -2.173373960254099 
v -12.952254019959952 -2.008352549912998 -2.075589321577539 
v -8.957268801376667 -2.1915927205154375 -1.972452874808133 
v -4.961721951028546 -2.3645210574366784 -1.8740444924393154 
v -0.6208772404571522 -2.569897949374672 -1.7683081264683105 
v 4.428941793595898 -2.886338199067604 -1.18421797409684 
v 8.377383741170402 -3.1546079425777322 -0.5998203952417522 
v 12.325422908054732 -3.427301687684601 -0.014785814669768924 
v 16.27215062678941 -3.691863893549591 0.5825721842696852 
v 20.22058423756683 -3.9601331572343628 1.1669687384955443 
v 24.168610383284438 -4.232826178597022 1.7520013981239209 
v 28.115321510687913 -4.497387383523322 2.3493568957267765 
v 33.48998416862283 -5.108562513628313 2.9831937727067848 
v 38.73418095708432 -6.611593023123652 3.043223557296913 
v 43.6047193644301 -9.011944972012941 2.501276795018813 
v 47.77969947028639 -12.316974092297398 1.3156408640217767 
v 50.87172358819941 -16.423198016335263 -0.503087588727092 
v 52.489126471246465 -21.06593997916057 -2.8537792647659477 
v 52.338960573936504 -25.810612323471116 -5.524701341867915 
v 50.343081523495606 -30.107784714169064 -8.208148269752323 
v 46.70951595561073 -33.4124271890574 -10.558274477412327 
v 41.90709285395924 -35.32309683942759 -12.27423061250133 
v 36.54439792725987 -35.67317558503659 -13.169531654527221 
v 31.213955069435514 -34.53360490582218 -13.195677788386357 
v 26.37486937928356 -32.14208820135414 -12.418110467639734 
v 22.310414505882218 -28.806659602554728 -10.966694060165981 
v 19.171997197003517 -24.818637952973972 -8.97843351790942 
v 17.17340370640027 -21.044367834049552 -6.956935586764177 
v 15.493056180281034 -17.843405787299684 -5.244388029506932 
v 13.817628220758055 -14.637185416308943 -3.5369145973241802 
v 12.126704316242504 -11.44085274010719 -1.8261926902934047 
v 10.446351362321185 -8.239879961786935 -0.11363947654016739 
v 8.469920580388504 -4.452900387424436 1.9028722895740893 
v 6.576344470532297 0.005305138756706142 3.40141213459257 
v 4.653759740090109 4.6037057745775245 4.449573343066847 
v 3.144896243184551 8.242462832013633 5.1462282082053035 
v 1.6306298802111003 11.879675578018885 5.8391253258994835 
v 0.1316264605217287 15.5239730544646 6.5278876559871355 
v -1.377235092934066 19.162725206925874 7.2245414647699056 
v -3.167847368327842 23.457817544986447 8.044244685451313 
v -6.120014976226968 27.958293481137552 8.896683011944887 
v -10.115594849078088 31.584301692141548 9.67983259200389 
v -14.988769188808192 33.914143659492574 10.409084106105706 
v -20.361827519428864 34.68885045277841 10.900982951982984 
v -25.75231302741001 33.87959950885971 10.89534885112624 
v -30.667342210398008 31.632017920148623 10.185574859748753 
v -34.659833669678996 28.252863748115512 8.648473913524022 
v -37.420583073096246 24.13441357242614 6.370047666802221 
v -38.75440675571304 19.57269784212337 3.6734102074894537 
v -39.193276978087056 15.87360049419469 1.4850851573543336 
v -39.59838009270949 12.45659068823672 -0.5543116391758884 
v -39.67552589265369 7.6677872776263305 -3.089825065014505 
v -39.0380147170753 3.061670939758945 -5.147197623444701 
v -37.759238045406306 -1.1362259385448599 -6.68130054132224 
v -35.70707306997276 -5.96658102536984 -8.200114230174439 
l 1 2
l 2 3
l 3 4
l 4 5
l 5 6
l 6 7
l 7 8
l 8 9
l 9 10
l 10 11
l 11 12
l 12 13
l 13 14
l 14 15
l 15 16
l 16 17
l 17 18
l 18 19
l 19 20
l 20 21
l 21 22
l 22 23
l 23 24
l 24 25
l 25 26
l 26 27
l 27 28
l 28 29
l 29 30
l 30 31
l 31 32
l 32 33
l 33 34
l 34 35
l 35 36
l 36 37
l 37 38
l 38 39
l 39 40
l 40 41
l 41 42
l 42 43
l 43 44
l 44 45
l 45 46
l 46 47
l 47 48
l 48 49
l 49 50
l 50 51
l 51 52
l 52 53
l 53 54
l 54 55
l 55 56
l 56 57
l 57 58
l 58 59
l 59 60
l 60 61
l 61 62
l 62 63
l 63 64
l 64 65
l 65 66
l 66 67
l 67 68
l 68 69
l 69 70
l 70 71
l 71 72
l 72 73
l 73 74
l 74 75
l 75 76
l 76 77
l 77 78
l 78 79
l 79 80
l 80 81
l 81 82
l 82 83
l 83 84
l 84 85
l 85 86
l 86 87
l 87 88
l 88 89
l 89 90
l 90 91
l 91 92
l 92 93
l 93 94
l 94 95
l 95 96
l 96 97
l 97 98
l 98 99
l 99 100
l 100 1
