v 24.855904958717957 2.3657253538039344 -5.076903959008618 
v 23.000041204342025 4.742538885179548 -7.697888194932846 
v 20.556807573570207 6.828518906724223 -10.073454584356638 
v 17.611701936286074 8.604071651071216 -12.108130114831368 
v 14.262317083188938 10.072017186332479 -13.718932384797 
v 10.611325642084887 11.24835262221134 -14.839546870923698 
v 6.763810745554276 12.159714363216693 -15.419347670233556 
v 2.8252038902861676 12.836881420750775 -15.426429954370057 
v -1.1112430237140534 13.271406556742157 -14.887573478529756 
v -4.972090817032196 13.435559215579156 -13.86544829874629 
v -8.700003262662756 13.307369066693791 -12.42791332345144 
v -12.250912082501793 12.869071677444062 -10.644365486867896 
v -15.590828800191943 12.105716485370378 -8.583892625459844 
v -18.69264652607475 11.00426469908389 -6.31466037053369 
v -21.53312147557995 9.553229560665791 -3.9042168256280196 
v -24.09011747287868 7.743028713504659 -1.4205823805319358 
v -26.340498551966043 5.567205314498268 1.0661480576677822 
v -28.255569398755856 3.0317448238979727 3.4921217920099283 
v -29.775986345457373 0.2092168912223128 5.880326899802556 
v -30.828955528621567 -2.79466519200939 8.298456290545346 
v -31.338551825117044 -5.865356125154823 10.805277798193943 
v -31.19893062152079 -8.87718726183734 13.426286520677843 
v -30.29159651958062 -11.68530000235714 16.116187713712467 
v -28.53774003592844 -14.139263062845261 18.730134463761807 
v -25.952785453459 -16.115060049896975 21.03969440576244 
v -22.653114731590822 -17.505281692623598 22.79735204820069 
v -18.85776184952177 -18.23445384195823 23.780108643653815 
v -14.870657438884491 -18.28218446410641 23.842759841658907 
v -11.013437330309268 -17.687174941689555 23.014951283451598 
v -7.532023885056113 -16.539925855978193 21.434871184830833 
v -4.569766711438062 -14.956252063448511 19.2749337847599 
v -2.1770571947661645 -13.05046384456774 16.70492897883002 
v -0.3350942869701532 -10.918846613579092 13.86998002636622 
v 1.0185816051495384 -8.63303819785593 10.882434474860618 
v 1.9695848762062649 -6.2401495182984705 7.823107908684043 
v 2.613104004357577 -3.766352475877318 4.747231978755031 
v 3.0464273636765893 -1.2216829630390378 1.6919289525751915 
v 3.365849055915618 1.3950665284264017 -1.3164105046437966 
v 3.66625157993726 4.0916639420915555 -4.255387774282315 
v 4.04130893610446 6.875062058852277 -7.103242748626569 
v 4.572795241561683 9.698274673795298 -9.886162639198586 
v 5.333366695282323 12.46628831014641 -12.670726733930636 
v 6.395556855284211 15.07212565697526 -15.511339467694777 
v 7.833131832019424 17.425767382052495 -18.405297379208562 
v 9.71503292940854 19.454567526235863 -21.28896726005434 
v 12.088723931959924 21.0681770225095 -24.068337941364355 
v 14.963562901286585 22.161908795531257 -26.61591076502408 
v 18.290652655135784 22.62865754183888 -28.772343877265893 
v 21.943766260339334 22.379776279302703 -30.358596859069184 
v 25.710193663211513 21.37333598342729 -31.201720728249132 
v 29.302225378622225 19.64278064901128 -31.172488015575603 
v 32.39571525598881 17.313905089011197 -30.225091890199266 
v 34.69030453961128 14.598209136445929 -28.4227440964372 
v 35.97192631585406 11.759291951533601 -25.934798259403014 
v 36.15297815499596 9.062521137730743 -23.00310929777979 
v 35.27530592266863 6.7271516200557055 -19.890586317700023 
v 33.47963052886182 4.897451081304707 -16.832214683470248 
v 30.95883212991459 3.638016534343927 -14.00388406507721 
v 27.91392166298409 2.9473976824231256 -11.512916972924748 
v 24.523747123313097 2.779654860430738 -9.404920434360898 
v 20.93003879171223 3.064485664646488 -7.6789081965379955 
v 17.224429534932046 3.6970558318056383 -6.318076210469683 
v 13.450444969759179 4.544771620427282 -5.304264463614615 
v 9.62436801117388 5.479534640446368 -4.611503584069926 
v 5.7479310587160715 6.377810351450591 -4.212112496386834 
v 1.8207969225750165 7.12049239402115 -4.076656453677626 
v -2.144084477865074 7.642588922858737 -4.1227562944759475 
v -6.132391611301014 7.922135776574927 -4.225969454341662 
v -10.131355420756147 7.936352133272111 -4.26102770166406 
v -14.117146315362337 7.660231417703694 -4.101662060797038 
v -18.041450487399242 7.06907160183342 -3.621300649735999 
v -21.81812281958548 6.144633123379762 -2.6983137967319637 
v -25.312401931091955 4.885324991490919 -1.2284236997852158 
v -28.338001446465718 3.319041698573895 0.8533366368239046 
v -30.691838505798547 1.4766150374014257 3.4990791071313674 
v -32.21526770457096 -0.63632127904747 6.5232912081875645 
v -32.800577429461285 -2.9901707631985848 9.692555600670309 
v -32.41581458650373 -5.523142181337837 12.752747151103474 
v -31.135613342919733 -8.146472578846053 15.475785333996885 
v -29.11024252866436 -10.761602717664063 17.71326795469445 
v -26.507978656926877 -13.262540036112608 19.42591789404771 
v -23.469432953368422 -15.543985649734196 20.663793508280857 
v -20.108926249184698 -17.534241194413358 21.51471640149932 
v -16.514290827194657 -19.18932437871679 22.08298257853498 
v -12.748426374262822 -20.487712324319084 22.42499592423619 
v -8.86241053475219 -21.42164088635743 22.53133927492562 
v -4.906931990861031 -21.98610308992543 22.389593206017246 
v -0.9337431689562546 -22.17813856597171 21.988312530059762 
v 3.0033402017565356 -21.99702681709162 21.317440858794242 
v 6.847585366834602 -21.444841563651217 20.369028645472095 
v 10.538764322912867 -20.527346791462485 19.138214624673992 
v 14.012983478040603 -19.255182209561216 17.624421861255993 
v 17.203052766003186 -17.645252207817915 15.832712603050236 
v 20.039518357048355 -15.722197943157719 13.775223912761586 
v 22.452459181877227 -13.519794264262426 11.472567430548413 
v 24.374095486411942 -11.08207456522342 8.955030213243736 
v 25.74217021243602 -8.463957320557608 6.2633732573940435 
v 26.503943101995183 -5.731142774503969 3.4490063065925933 
v 26.62049771938023 -2.95908164092462 0.5733375902032437 
v 26.070930615585393 -0.23089813237334098 -2.2938343659293334 
l 1 2
l 2 3
l 3 4
l 4 5
l 5 6
l 6 7
l 7 8
l 8 9
l 9 10
l 10 11
l 11 12
l 12 13
l 13 14
l 14 15
l 15 16
l 16 17
l 17 18
l 18 19
l 19 20
l 20 21
l 21 22
l 22 23
l 23 24
l 24 25
l 25 26
l 26 27
l 27 28
l 28 29
l 29 30
l 30 31
l 31 32
l 32 33
l 33 34
l 34 35
l 35 36
l 36 37
l 37 38
l 38 39
l 39 40
l 40 41
l 41 42
l 42 43
l 43 44
l 44 45
l 45 46
l 46 47
l 47 48
l 48 49
l 49 50
l 50 51
l 51 52
l 52 53
l 53 54
l 54 55
l 55 56
l 56 57
l 57 58
l 58 59
l 59 60
l 60 61
l 61 62
l 62 63
l 63 64
l 64 65
l 65 66
l 66 67
l 67 68
l 68 69
l 69 70
l 70 71
l 71 72
l 72 73
l 73 74
l 74 75
l 75 76
l 76 77
l 77 78
l 78 79
l 79 80
l 80 81
l 81 82
l 82 83
l 83 84
l 84 85
l 85 86
l 86 87
l 87 88
l 88 89
l 89 90
l 90 91
l 91 92
l 92 93
l 93 94
l 94 95
l 95 96
l 96 97
l 97 98
l 98 99
l 99 100
l 100 1
