v 9.93698848303545 -0.12999316117950288 -0.03357644826527362 
v 9.822489340700368 1.5415676390910653 -0.16454099283563178 
v 9.443936422771124 3.1580120795781808 -0.28838467016346286 
v 8.824996815686353 4.666020871148678 -0.39958433790634623 
v 8.002169554019675 6.022301412667803 -0.49380307969680853 
v 7.019740440104055 7.196169450490252 -0.5688215562338957 
v 5.925484342467836 8.17103426222133 -0.6238271683073505 
v 4.765712843079077 8.943612486308618 -0.6595382111033103 
v 3.5813689397393884 9.521766085515404 -0.677557652229016 
v 2.4053784909723217 9.921284642974136 -0.680187478165544 
v 1.2614867815662616 10.162341806119317 -0.6701641223373607 
v 0.164477623831024 10.266169786931414 -0.6499600062673 
v -0.8785102081191514 10.252558217657903 -0.6217396307275049 
v -1.8660490599195994 10.138113390829004 -0.5871871840483577 
v -2.800275674212424 9.935480915067648 -0.5474982522902215 
v -3.6849746136076287 9.653357414161489 -0.5034832144162843 
v -4.524146333500688 9.296881142400663 -0.45566286228236147 
v -5.321103456613918 8.868102690619478 -0.4043374985402105 
v -6.077978936184239 8.366381055695754 -0.34965440633747713 
v -6.7953671185350535 7.788607904495621 -0.2916584118415907 
v -7.471820014538052 7.12938229169111 -0.23034466485712277 
v -8.10304172494482 6.381378507376013 -0.16573620818928053 
v -8.680823947490975 5.5361662593113845 -0.09800176567700601 
v -9.191969252353882 4.585648758606782 -0.02761399929239724 
v -9.617674003369418 3.52416373365649 0.04458332831545446 
v -9.933694113527446 2.3509629551502034 0.11732366625410548 
v -10.111378178170044 1.072673563152949 0.1886885049777923 
v -10.120030963160564 -0.29452133667079206 0.25633645860056686 
v -9.930259171988013 -1.7236225909031186 0.3175269880257552 
v -9.5179990643685 -3.176868928564053 0.36924340148786805 
v -8.868531561510762 -4.607333670117723 0.408988909741882 
v -7.980104058946647 -5.962246624265768 0.4346953531147578 
v -6.865504004797381 -7.1870954374930145 0.44585365230699914 
v -5.5531240572000025 -8.231210267717296 0.44292573935156054 
v -4.0852626562488155 -9.053078332770031 0.4273391104581273 
v -2.5144459254947553 -9.62467563315921 0.40134416956568153 
v -0.8983438854852108 -9.93405293453414 0.3677588458926683 
v 0.70586632559226 -9.98538056736246 0.32945660155672923 
v 2.246560706567884 -9.797665641675696 0.28927258629521585 
v 3.6816686108056476 -9.401071611007445 0.2493065366011103 
v 4.981070965524213 -8.832855345187273 0.21128802636891084 
v 6.127150105346921 -8.132611623508451 0.1758105539469231 
v 7.113797572991203 -7.338151787704582 0.1432273234235961 
v 7.944185359509902 -6.482317278195651 0.1136354532669254 
v 8.627910088151026 -5.591100576342938 0.08684757249564275 
v 9.177988650876708 -4.683029486087099 0.06259593458421014 
v 9.608322483815932 -3.769764644012956 0.04049582642532238 
v 9.931742925890976 -2.857387076566555 0.020080341494842287 
v 10.158678406877408 -1.9479770409604078 0.0009341768846985688 
v 10.296605170051123 -1.0411801371881335 -0.01730828768011179 
v 10.349953517093093 -0.13539546586359955 -0.03497182915536519 
v 10.320199462696996 0.7714763299824816 -0.05235457295306762 
v 10.205920433122223 1.6815725259177137 -0.06974485034105858 
v 10.002727426964324 2.59660939321303 -0.0874376384163805 
v 9.703153730301839 3.5171368118487623 -0.105748066161333 
v 9.296717497159193 4.4413480675334975 -0.12502078200512817 
v 8.770429845895311 5.363499907394771 -0.14563544760486136 
v 8.110086788192122 6.272299362881108 -0.16788180963938096 
v 7.302189711026023 7.149565499166916 -0.19193802043590782 
v 6.336464298262502 7.9695657814899015 -0.21792430833450527 
v 5.208881282968814 8.699552974471407 -0.245719222277116 
v 3.924560182917552 9.301568854868753 -0.2750074967858567 
v 2.5000804938849437 9.7355712848145 -0.30531118353106057 
v 0.9645873883962655 9.963528114656809 -0.33510095867326795 
v -0.640638694146703 9.954185513093494 -0.3625587236584978 
v -2.26447064252718 9.687192206109447 -0.38519651815901285 
v -3.8498418655962983 9.15688335575145 -0.4005269022856262 
v -5.338771777835606 8.37369528447615 -0.40612272280162726 
v -6.6780051523581685 7.364268186979965 -0.40009100417248833 
v -7.824163423136046 6.168994040569892 -0.38129374730698873 
v -8.747535717068715 4.83778259167273 -0.34946534829050796 
v -9.433916720273949 3.4247930813419143 -0.30520609324866393 
v -9.883691970738779 1.9828236715140748 -0.2505769172463797 
v -10.110364502468535 0.5591702362514329 -0.1879792488504834 
v -10.137021868002083 -0.8077891322051017 -0.12027045863024621 
v -9.992358887977352 -2.0902953864192306 -0.04999480965715282 
v -9.706652082413411 -3.2713678037047837 0.020712331828943747 
v -9.308382002496312 -4.343631858247953 0.09012550148750635 
v -8.821812015725476 -5.307201217151119 0.15714205199934483 
v -8.265892713102945 -6.167244260803066 0.22104578983076717 
v -7.654031702187211 -6.931509737748251 0.28145394973032745 
v -6.994655954588251 -7.608210321795675 0.33825401738702127 
v -6.292251588280689 -8.20455683873197 0.39145262387167745 
v -5.548407312861656 -8.725910508564034 0.44106488019175727 
v -4.762610611845334 -9.175394144125066 0.48704222016202015 
v -3.932747073549725 -9.55370431148827 0.5292230090607244 
v -3.0554536726768533 -9.858877748953796 0.5672843876481152 
v -2.1266005227871276 -10.085882561301611 0.6006780921622722 
v -1.1421824256725401 -10.226124028419822 0.6285674225346334 
v -0.09974070391354202 -10.267016657806659 0.6497412650718768 
v 0.9997205291231949 -10.191922345166455 0.6625236482276836 
v 2.1495681518493495 -9.980871297811852 0.6647966055824411 
v 3.3355624506935144 -9.612251625371911 0.6541857842580849 
v 4.5344760363109815 -9.065275195820057 0.6281134685030948 
v 5.7137925507303375 -8.323296327559873 0.584498796899881 
v 6.832778769853794 -7.377384590218933 0.5220147805623221 
v 7.845049275146419 -6.229610706706292 0.44025634152954746 
v 8.702418135855993 -4.895310064570434 0.340360324435324 
v 9.359828049930432 -3.4039981536154214 0.22484795324194654 
v 9.77969013016915 -1.7979983755733295 0.09830648266852651 
l 1 2
l 2 3
l 3 4
l 4 5
l 5 6
l 6 7
l 7 8
l 8 9
l 9 10
l 10 11
l 11 12
l 12 13
l 13 14
l 14 15
l 15 16
l 16 17
l 17 18
l 18 19
l 19 20
l 20 21
l 21 22
l 22 23
l 23 24
l 24 25
l 25 26
l 26 27
l 27 28
l 28 29
l 29 30
l 30 31
l 31 32
l 32 33
l 33 34
l 34 35
l 35 36
l 36 37
l 37 38
l 38 39
l 39 40
l 40 41
l 41 42
l 42 43
l 43 44
l 44 45
l 45 46
l 46 47
l 47 48
l 48 49
l 49 50
l 50 51
l 51 52
l 52 53
l 53 54
l 54 55
l 55 56
l 56 57
l 57 58
l 58 59
l 59 60
l 60 61
l 61 62
l 62 63
l 63 64
l 64 65
l 65 66
l 66 67
l 67 68
l 68 69
l 69 70
l 70 71
l 71 72
l 72 73
l 73 74
l 74 75
l 75 76
l 76 77
l 77 78
l 78 79
l 79 80
l 80 81
l 81 82
l 82 83
l 83 84
l 84 85
l 85 86
l 86 87
l 87 88
l 88 89
l 89 90
l 90 91
l 91 92
l 92 93
l 93 94
l 94 95
l 95 96
l 96 97
l 97 98
l 98 99
l 99 100
l 100 1
