v 19.803657981204765 -9.153863113718822 29.92961970320847 
v 19.165606541579795 -9.59845149869977 29.300968134555905 
v 18.55709247361562 -10.013473178069763 28.62462319201027 
v 17.97986464529011 -10.398269120873946 27.904402018359285 
v 17.43534950764035 -10.752439061139311 27.1441067525053 
v 16.92466509246507 -11.075824225591024 26.347483288640067 
v 16.448638278195453 -11.368488313432941 25.51818531474828 
v 16.007824534508014 -11.630697370273685 24.65974373230744 
v 15.60252940203334 -11.862899135735947 23.775541393772986 
v 15.232831027842916 -12.065702371734462 22.868792958778037 
v 14.898603154086613 -12.239856600810729 21.942529564318736 
v 14.599538040639578 -12.386232605484032 20.999587927305274 
v 14.335168888152074 -12.505803963696152 20.04260344731864 
v 14.104891411642734 -12.599629824624184 19.074006850033786 
v 13.907984293817982 -12.668839065150097 18.096023903951085 
v 13.743339324291567 -12.71476598353172 17.110732612983778 
v 13.608067438325982 -12.739438342923995 16.120220885208045 
v 13.498229617294243 -12.745227467556616 15.12627580590061 
v 13.409821095464276 -12.734518867142338 14.13023493746573 
v 13.338799537505267 -12.70969650273602 13.133053459586902 
v 13.281103997250204 -12.673133256062675 12.135372188053939 
v 13.232666365468765 -12.627186545306854 11.137585527791963 
v 13.18941702356441 -12.574198051672004 10.139908874184554 
v 13.147286397229179 -12.516496560290694 9.14244533046539 
v 13.102204027588892 -12.456402903044198 8.145250911848018 
v 13.050051867275693 -12.396117166978014 7.148411997364432 
v 12.986478077684804 -12.336756198412353 6.152180702052753 
v 12.907064347888607 -12.278748582883475 5.157007689288518 
v 12.807445909824255 -12.222016529164124 4.163581533522799 
v 12.683421137341641 -12.1659478837938 3.172870738976027 
v 12.531006376768778 -12.10954296135272 2.186150255162891 
v 12.34664429181105 -12.051292923045002 1.205006957764015 
v 12.1276501677154 -11.988815574917199 0.2312726352465716 
v 11.87178420230089 -11.919445787595992 -0.732955135947894 
v 11.576931555737268 -11.840550143959856 -1.68523930714469 
v 11.241145966745487 -11.749539820486582 -2.6227703856554228 
v 10.86270088760699 -11.64388788036786 -3.5423390928615066 
v 10.440147098463422 -11.521151229503184 -4.440318401824578 
v 9.97237883855831 -11.378998309441538 -5.312651060319261 
v 9.458706126361943 -11.21524242174592 -6.1548499838570905 
v 8.898930213513177 -11.027880137104924 -6.9620157530366695 
v 8.293421826994246 -10.815134893966734 -7.728869561566061 
v 7.643925125585966 -10.576742709756125 -8.450873562278776 
v 6.953935950392346 -10.315367033030434 -9.125830907488037 
v 6.227102147956564 -10.034226635822272 -9.752445252047403 
v 5.466942389446423 -9.736519116241219 -10.329942666230748 
v 4.676809673779265 -9.425394191811767 -10.858024512485214 
v 3.8598635279463283 -9.103932792683336 -11.336818106534352 
v 3.019050378353975 -8.775131655276851 -11.766826909335867 
v 2.1570914021504843 -8.441892977100567 -12.148881702577036 
v 1.2764770685784685 -8.107018598917586 -12.484093905101632 
v 0.37946706509260836 -7.7732079512551016 -12.773812045996731 
v -0.531905631474632 -7.4430590425193275 -13.019581944922564 
v -1.4558205752383637 -7.1190743035888175 -13.223109414339943 
v -2.3906593257737034 -6.803665854921859 -13.386229576452982 
v -3.334989451313704 -6.499163352916556 -13.510879392573981 
v -4.287353990499653 -6.207353651218811 -13.599603633343758 
v -5.246017232603905 -5.9284685404171915 -13.656316556041794 
v -6.209387882565327 -5.661835007309226 -13.68559414332441 
v -7.17628117183363 -5.406661620079438 -13.69203744057007 
v -8.145855429751068 -5.1620662827405095 -13.680250628437477 
v -9.117547656028156 -4.927100521986152 -13.654828711409849 
v -10.09074772386467 -4.699684886398079 -13.620125702599353 
v -11.064886308732914 -4.477173416759486 -13.580361395065205 
v -12.039494742909564 -4.256886305373179 -13.539740367945587 
v -13.01413248287827 -4.036140053345887 -13.50246512301846 
v -13.988314322007042 -3.812260831707765 -13.472743713974305 
v -14.961436393409025 -3.582598613088938 -13.45479608521658 
v -15.93270184554775 -3.3445431287229077 -13.452857183082118 
v -16.90104624578224 -3.095542926399329 -13.471174887501284 
v -17.86506308080959 -2.833128765406796 -13.514000749772952 
v -18.82293016354837 -2.554942510804612 -13.58557146773853 
v -19.772407108104105 -2.2588986484379903 -13.689816225693011 
v -20.71145395873912 -1.944262165672711 -13.828408729518035 
v -21.637990715779424 -1.610715775737714 -14.002440022178755 
v -22.549760892123572 -1.2580371263838794 -14.212917352584297 
v -23.44433166026215 -0.8861105801766012 -14.460745527232682 
v -24.319096444852534 -0.4949394231298022 -14.746706771593914 
v -25.17128033825468 -0.08465832739328405 -15.071439245841423 
v -25.99794871636921 0.34445414809005026 -15.435414424796706 
v -26.79601941852998 0.7919632786685041 -15.838913624636424 
v -27.562278825291646 1.257266420459672 -16.28200403759688 
v -28.29340211906569 1.73958212816751 -16.764514718431183 
v -28.98597794241834 2.2379405284295735 -17.28601304975236 
v -29.636537575818256 2.751175364286494 -17.845782293813397 
v -30.24158864002841 3.2779181478113286 -18.44280091110677 
v -30.797653188757014 3.8165948661438174 -19.07572438608974 
v -31.30130989676274 4.365425677886029 -19.742870341546702 
v -31.74923987130659 4.922428009050633 -20.442207739596864 
v -32.13827542657621 5.48542340810576 -21.171350953391272 
v -32.46545096937179 6.052048446624309 -21.927559444100673 
v -32.72805495963988 6.619769855339556 -22.707743689160836 
v -32.923681742504236 7.185903966262604 -23.508477878077027 
v -33.05028191123648 7.74764039288536 -24.3260197219691 
v -33.10620976511898 8.302069727145321 -25.156337515864372 
v -33.090266383413066 8.846214870287556 -25.995144354975405 
v -33.001736855675915 9.377065453052301 -26.837939147322142 
v -32.840420295422305 9.891614647840948 -27.68005379726666 
v -32.60665142057813 10.38689754122844 -28.516705672081358 
v -32.30131270766607 10.860030128677497 -29.343054221954315 
v -31.925836409640528 11.308247922770619 -30.154260418203602 
v -31.48219605746277 11.728943138044317 -30.945547518961753 
v -30.972887426525347 12.119699433384582 -31.712261577652054 
v -30.40089932158687 12.478323257709722 -32.44993008495444 
v -29.76967489716117 12.802870953897257 -33.15431718287985 
v -29.083064563695846 13.091670924057688 -33.821474008336764 
v -28.345271814626102 13.343340338060598 -34.447782906615714 
v -27.560793530166656 13.556796066373796 -35.02999449162635 
v -26.734356459777104 13.73125972630067 -35.56525680518903 
v -25.870851651221457 13.866256935881681 -36.051136125741806 
v -24.975268580202183 13.961611061065161 -36.485629280246926 
v -24.05263064607494 14.017431909788783 -36.86716760527965 
v -23.1079335459839 14.034099964052192 -37.19461296954545 
v -22.146087835072755 14.012246843157499 -37.46724649854507 
v -21.17186673942031 13.952732755968455 -37.68475082441467 
v -20.18986002689581 13.856621727749902 -37.847186815469456 
v -19.204434474536498 13.725155380560153 -37.954965819665546 
v -18.21970121303142 13.559726009672657 -38.008818486294956 
v -17.239489990822886 13.361849637668364 -38.009761215599575 
v -16.267330190797455 13.133139648849015 -37.95906123338478 
v -15.306438257196442 12.875281515750501 -37.85820120501943 
v -14.359711052083341 12.590009032720099 -37.70884419873092 
v -13.429724559812929 12.279082374027206 -37.512799689944025 
v -12.518737292743214 11.94426820018613 -37.27199117398879 
v -11.628697718647489 11.587321949473969 -36.988425830216826 
v -10.761255025603717 11.209972374418664 -36.66416656160742 
v -9.917772558674695 10.813908316765287 -36.301306624233824 
v -9.099343299393354 10.400767659730814 -35.9019469631833 
v -8.30680680904405 9.972128353175435 -35.468176287247175 
v -7.540767115493735 9.529501375071229 -35.00205384452956 
v -6.801611086942751 9.074325470380487 -34.505594804899964 
v -6.089526901137197 8.60796349497288 -33.98075811218665 
v -5.404522282675768 8.131700186199952 -33.42943663801433 
v -4.7464422420528045 7.646741181871175 -32.85344944882258 
v -4.114986106585334 7.154213114349708 -32.25453598632877 
v -3.509723684463959 6.655164615119447 -31.634351957974374 
v -2.930110448357547 6.150568076409571 -30.994466736228933 
v -2.3755016641452658 5.641322029387688 -30.336362072650036 
v -1.8451654235619361 5.128254012286929 -29.661431943084423 
v -1.3382945671318114 4.612123816002029 -28.970983353283685 
v -0.8540175061667542 4.093627008694634 -28.26623794860328 
v -0.39140797033120384 3.5733986544296807 -27.548334286623533 
v 0.05050627912126384 3.052017153567351 -26.81833064689298 
v 0.47273572030026806 2.530008144390752 -26.0772082671 
v 0.8763222686741794 2.007848416160594 -25.325874909495855 
v 1.2623333404789532 1.4859697934140783 -24.565168675089293 
v 1.6318567174840002 0.9647629598677304 -23.795861995858598 
v 1.9859961482745603 0.4445811977766705 -23.018665746896122 
v 2.3258676217011742 -0.07425597489829248 -22.234233430980513 
v 2.652596249596232 -0.5914592815895412 -21.443165397567704 
v 2.9673136979939736 -1.1067662858321574 -20.64601306663861 
v 3.2711561086857017 -1.6199381149639802 -19.843283135293106 
v 3.565262455806747 -2.1307563089150046 -19.03544175150327 
v 3.850773285130222 -2.6390197915092606 -18.222918645107995 
v 4.128829786708933 -3.1445419595596578 -17.406111211021976 
v 4.400573154360037 -3.6471478833597835 -16.585388543820287 
v 4.667144188147702 -4.14667161090701 -15.761095426416588 
v 4.929683098424963 -4.64295356727608 -14.933556278545142 
v 5.189329472099904 -5.135838039957343 -14.103079073242865 
v 5.447222363557241 -5.625170740641539 -13.269959231559797 
v 5.7045004740681975 -6.110796433843959 -12.434483507346828 
v 5.96230238454048 -6.592556622891884 -11.596933875212844 
v 6.22176680708399 -7.070287284134626 -10.757591435633703 
v 6.484032821089215 -7.543816640765322 -9.916740351748246 
v 6.7502400593319365 -8.012962968364754 -9.074671832596675 
v 7.021866320667755 -8.478093550987595 -8.23210637536454 
v 7.300951988749269 -8.94049567751224 -7.390477605291829 
v 7.589534887713097 -9.401435347734928 -6.551253226799688 
v 7.889374678670941 -9.861460928862847 -5.715481054725566 
v 8.200448888562143 -10.317970872313616 -4.881890094179486 
v 8.522241604484982 -10.767564240241189 -4.048609159660739 
v 8.85423047138566 -11.206809881696573 -3.213811182528666 
v 9.195869627684246 -11.632223782654956 -2.3757506256543666 
v 9.546571216039723 -12.040248686031402 -1.5328020425348987 
v 9.905685557508898 -12.427236940828518 -0.6835003847495409 
v 10.27248018097307 -12.789437692011445 0.1734165856276058 
v 10.646117826535244 -13.122989469084706 1.0389632391718937 
v 11.025633298694613 -13.423919156572337 1.9138572804530554 
v 11.409779295345215 -13.688266214454899 2.7984924045879476 
v 11.796524213049485 -13.91262351974543 3.6929840281354056 
v 12.183051219862593 -14.094344948910441 4.597192401431444 
v 12.566199934065176 -14.231199761896816 5.510692292103294 
v 12.942551861818393 -14.321443260427694 6.432769304185031 
v 13.308505605522244 -14.363910696339156 7.3624373739653795 
v 13.660389832150514 -14.358056738645951 8.298465804856185 
v 13.994658501312047 -14.304354005638285 9.239414545142694 
v 14.307968885915496 -14.204125949355612 10.183762103247327 
v 14.597067392900831 -14.058899055913523 11.129980351232582 
v 14.858762955806673 -13.870323067691922 12.076526174401838 
v 15.08992998661255 -13.640171754814672 13.021823168797434 
v 15.287512649730468 -13.370347250220128 13.964240097977854 
v 15.448533046519774 -13.062885883550136 14.902074431497736 
v 15.570101932266308 -12.719966123549833 15.833535459833278 
v 15.649432789364687 -12.343917983188748 16.756728923711204 
v 15.683859526362202 -11.937233381877526 17.669643600969586 
v 15.671672748611197 -11.502299508823622 18.570018631367855 
v 15.61309458730178 -11.04093024489185 19.455286435331587 
v 15.508830538481122 -10.554814829235735 20.32293486898199 
v 15.359727644026469 -10.045674306544086 21.170601176602293 
v 15.16676214677053 -9.515250437852528 21.996076601905873 
v 14.931026959351728 -8.965295237378287 22.797309384154715 
v 14.653719109847005 -8.397561206962614 23.572406237192613 
v 14.33612731238463 -7.813792322354764 24.319632423516705 
v 13.979619794793951 -7.21571580901702 25.037410545915886 
v 13.585632498465703 -6.605034729671155 25.724318186144004 
v 13.15565774845789 -5.983421391670701 26.379084523833452 
v 12.691233474917244 -5.352511569630571 27.000586069708824 
v 12.193933050458522 -4.713899527671614 27.58784164548498 
v 11.665355792551008 -4.06913381618183 28.140006739002587 
v 11.107118165434702 -3.419713810147559 28.65636735754371 
v 10.52084570279629 -2.7670869498155515 29.13633349524874 
v 9.908165660487882 -2.1126466396255337 29.579432322473014 
v 9.270700398028309 -1.4577307578936083 29.9853011961 
v 8.610061478501734 -0.8036207275023376 30.353680580558148 
v 7.927844468737646 -0.1515410967265599 30.68440695982724 
v 7.225624415266215 0.4973404208475982 30.977405811285383 
v 6.504951966415712 1.1419124977113866 31.232684703023587 
v 5.7673501069597215 1.781119384213663 31.450326567388174 
v 5.014311468824896 2.4139597879549894 31.63048319511695 
v 4.247296179422372 3.0394854857329396 31.7733689865981 
v 3.467730208052765 3.6567997103777343 31.87925498955832 
v 2.6770041704418746 4.265055352004421 31.94846324591356 
v 1.8764725516819676 4.863453010266171 31.98136146460612 
v 1.0674533085776416 5.451238931197139 31.97835803200311 
v 0.25122781352897655 6.027702859245156 31.93989736682823 
v -0.5709588964604596 6.592175832165672 31.8664556226147 
v -1.3978976003667432 7.144027943620446 31.758536737268138 
v -2.2284141361685648 7.682666095629511 31.61666882647399 
v -3.0613684371823897 8.207531760487303 31.441400915331922 
v -3.895653390549892 8.718098769390405 31.23330000070321 
v -4.730193544675037 9.213871142846209 30.992948435271 
v -5.5639436903926365 9.694380975944622 30.720941623191443 
v -6.395887338693007 10.159186389780393 30.417886016411703 
v -7.225035115953631 10.60786955870968 30.08439740020621 
v -8.050423095857864 11.04003482170635 29.721099456195123 
v -8.871111085527993 11.455306884844395 29.328622591020945 
v -9.686180881876362 11.853329120864394 28.907603018935795 
v -10.494734512790913 12.233761970874014 28.458682086761122 
v -11.295892476525756 12.596281452475399 27.982505829993595 
v -12.08879199156496 12.940577777994315 27.479724749219375 
v -12.872585268269255 13.266354085996378 26.95099379643919 
v -13.64643781279962 13.573325288903048 26.396972561376558 
v -14.409526773135989 13.861217039253352 25.81832564832107 
v -15.1610393364704 14.12976481698509 25.215723234529424 
v -15.900171186847254 14.37871314002097 24.58984180165235 
v -16.62612503164402 14.607814900429807 23.941365032060002 
v -17.338109205328376 14.81683082847985 23.270984862287662 
v -18.035336358886212 15.005529087000323 22.57940268610431 
v -18.71702224338252 15.173684998607415 21.86733069990618 
v -19.382384596287626 15.321080908522044 21.135493383243364 
v -20.030642139465833 15.447506185897744 20.384629107288944 
v -20.66101369807546 15.552757366777138 19.615491863944943 
v -21.272717450058142 15.636638441993014 18.828853108037112 
v -21.864970316392434 15.698961293513289 18.02550370467038 
v -22.436987502840193 15.739546282885291 17.206255973287885 
v -22.98798220451213 15.758222995550515 16.371945819289397 
v -23.51716548520702 15.754831144862063 15.523434943209304 
v -24.023746344121818 15.729221639627982 14.661613116421737 
v -24.50693198316924 15.681257818908449 13.787400511122415 
v -24.9659282887551 15.610816857595822 12.901750070926825 
v -25.39994054243719 15.517791345985259 12.00564990681686 
v -25.808174375384496 15.402091046080573 11.100125701360293 
v -26.18983698195211 15.263644826754406 10.186243102118471 
v -26.544138607950003 15.102402779072312 9.26511008295063 
v -26.870294329278614 14.918338512074948 8.337879249524951 
v -27.16752613649068 14.711451628068962 7.405750062768399 
v -27.435065340475454 14.481770374983173 6.469970951247307 
v -27.672155313801845 14.229354471580972 5.531841280592712 
v -27.87805458125268 13.954298099262582 4.592713145100228 
v -28.052040271682383 13.656733051824059 3.6539929435850915 
v -28.19341194148144 13.336832031849728 2.717142698508903 
v -28.30149577758031 12.994812079390561 1.7836810743772036 
v -28.375649185019785 12.630938115219292 0.8551840485093837 
v -28.415265760603823 12.245526577256275 -0.06671481541028836 
v -28.41978064998864 11.83894912474052 -0.9803245429810229 
v -28.388676280708317 11.411636380400164 -1.8838974278886573 
v -28.321488458062852 10.964081676290604 -2.7756302692556587 
v -28.21781280448099 10.496844764165626 -3.6536662236930866 
v -28.0773115159163 10.010555446291498 -4.5160973281532195 
v -27.89972040105751 9.505917077588299 -5.360967748652395 
v -27.684856160674688 8.98370988498716 -6.186277807773256 
v -27.432623855349224 8.444794045046493 -6.989988840405674 
v -27.143024500246604 7.890112456314443 -7.770028922291629 
v -26.816162715619697 7.320693138817177 -8.524299509458642 
v -26.45225435154686 6.737651189570097 -9.250683018433817 
v -26.051633995222 6.142190220343474 -9.947051367127695 
v -25.61476225917109 5.535603202268957 -10.611275484401173 
v -25.14223273935785 4.919272641459737 -11.241235782561352 
v -24.634778523582813 4.294670010845515 -11.8348335714103 
v -24.093278123227325 3.663354366097782 -12.390003375094484 
v -23.518760695623904 3.0269700780285564 -12.904726094045733 
v -22.912410420536325 2.3872436203475216 -13.37704293401934 
v -22.27556989279742 1.7459793602817726 -13.805070002958615 
v -21.609742394456603 1.1050543103732289 -14.187013454571458 
v -20.916592914177382 0.4664118127849945 -14.521185035601176 
v -20.197947789392224 -0.1679458573880959 -14.80601787239754 
v -19.455792858092284 -0.795965966135664 -15.040082312199223 
v -18.692270022235846 -1.4155548492473264 -15.222101616231118 
v -17.909647674931236 -2.0245428215047965 -15.351035636637826 
v -17.109709141865917 -2.619662811693939 -15.427991808311493 
v -16.29390122436664 -3.1973416230366034 -15.455226945300732 
v -15.463535205467286 -3.7542005351319863 -15.435176150273147 
v -14.61979826468121 -4.287042132493666 -15.37042297906697 
v -13.763769015873297 -4.792835072101252 -15.263674589556075 
v -12.89643567784293 -5.268698520040816 -15.117741934804533 
v -12.018716048172863 -5.711887288782325 -14.93552463436774 
v -11.131479716800403 -6.119777942106401 -14.720000266240444 
v -10.235572773254074 -6.489856437660904 -14.474217916464834 
v -9.331842608897716 -6.819708971540182 -14.20129499503344 
v -8.421169919120386 -7.107048987545761 -13.904428965160815 
v -7.504656110358674 -7.350560687157737 -13.587058124494687 
v -6.5834707669391594 -7.549797012071902 -13.252778922759084 
v -5.6586575915692485 -7.704440900885867 -12.905176976859789 
v -4.73115807237757 -7.814288247228072 -12.547825112455909 
v -3.8018345753920433 -7.879234677117089 -12.184283328794082 
v -2.871821416824141 -7.900227097410903 -11.817323323252161 
v -1.9425875258511847 -7.879647694881081 -11.448367788011975 
v -1.0154594328924476 -7.820292072593644 -11.078313663974818 
v -0.09146184493697357 -7.724984745885009 -10.707939877080111 
v 0.8286584578237752 -7.596554806779815 -10.337915443231847 
v 1.7444081780236191 -7.437816779766176 -9.968808239154834 
v 2.6555230682926214 -7.2515561987243125 -9.601094160520123 
v 3.5619439123177266 -7.040519411453657 -9.235166450358625 
v 4.463793222239912 -6.807407111859344 -8.871345021756936 
v 5.361352838122617 -6.554871114480546 -8.509885647449774 
v 6.255042528606425 -6.285513910376902 -8.150988926014735 
v 7.144931408712289 -6.001132651749441 -7.794244251143483 
v 8.030699949133334 -5.702762106412791 -7.43867290823398 
v 8.912062819253638 -5.391412171507526 -7.083282004438016 
v 9.7887622584698 -5.0680697600435565 -6.727066046580528 
v 10.66056166800624 -4.733700989943594 -6.369008341523788 
v 11.527239404845762 -4.389253636486053 -6.008082268276242 
v 12.38858275702774 -4.035659814052363 -5.643252471016801 
v 13.244382078116011 -3.673838857401185 -5.273476022316214 
v 14.094425058020626 -3.304700376301136 -4.8977036062358374 
v 14.938491107506866 -2.929147460238904 -4.514880771701901 
v 15.776345834598171 -2.548080012067766 -4.123949307604985 
v 16.607735592654425 -2.1623981908582257 -3.723848792458267 
v 17.432382082180645 -1.7730059448415285 -3.3135183731458207 
v 18.249976991410012 -1.3808146151782874 -2.891898829267036 
v 19.060176664443063 -0.9867465903146474 -2.4579349817783425 
v 19.86259679026131 -0.5917389888798918 -2.010578506969 
v 20.656807111331954 -0.19674734640194674 -1.5487912191780027 
v 21.442326156854577 0.19725072246041414 -1.0715488879283028 
v 22.218616013053055 0.5892519189775525 -0.5778456571523397 
v 22.985077151370813 0.9782237509725265 -0.06669913569996173 
v 23.74104334506757 1.363101163711812 0.4628437708968465 
v 24.485776715613486 1.7427833631679865 1.0117002176803367 
v 25.21846296248601 2.116130892105283 1.5807438984643827 
v 25.93820684352053 2.4819630286741208 2.1707965803343856 
v 26.644027987828824 2.839055587226028 2.78261863551762 
v 27.334857139403162 3.1861392117228338 3.4168985201834094 
v 28.009532946713442 3.5218982631921607 4.074241161576565 
v 28.66679943162963 3.844970413871373 4.75515523068872 
v 29.305304289489218 4.153947071583127 5.460039298053118 
v 29.92359819056633 4.447374767984943 6.189166895824122 
v 30.52013527090275 4.723757652995675 6.942670540642432 
v 31.093275016564554 4.981561244153467 7.720524809368188 
v 31.64128575881779 5.2192175829960625 8.522528603909645 
v 32.16235000719085 5.435131949737768 9.348286792183165 
v 32.654571851417316 5.627691281395593 10.197191469494406 
v 33.11598666015663 5.795274425856305 11.068403147712047 
v 33.54457329234979 5.9362643439093 11.960832247384309 
v 33.938269014194844 6.049062341771006 12.873121338694732 
v 34.294987279161376 6.132104377002678 13.803628648442327 
v 34.61263847851518 6.183879430137135 14.750413418885236 
v 34.88915370414567 6.202949872338094 15.711223766351642 
v 35.1225114832792 6.187973686127508 16.68348773830044 
v 35.31076734589854 6.137728312457419 17.664308301678496 
v 35.45208597136534 6.05113580487193 18.650463007214466 
v 35.54477553309147 5.927288872904497 19.63840905783287 
v 35.58732372278999 5.765477295971964 20.62429445908493 
v 35.578434794054125 5.5652140907362835 21.60397584060726 
v 35.51706682550216 5.326260725078943 22.57304340677907 
v 35.40246827461521 5.048650597122169 23.526853300641637 
v 35.23421278388427 4.732709945213023 24.460567449111554 
v 35.0122311207348 4.379075331483113 25.36920070406918 
v 34.7368390915455 3.9887068538741834 26.24767481103155 
v 34.40876027658983 3.5628962944149323 27.090878436365404 
v 34.02914249367638 3.1032695080670374 27.89373218015206 
v 33.599567017601515 2.611782497006352 28.651257212245866 
v 33.1220497605823 2.090710797032496 29.35864591263632 
v 32.59903385172562 1.542632019821388 30.0113326928865 
v 32.033373332988525 0.9704016375892993 30.605063040584014 
v 31.428308002413292 0.37712235320723836 31.13595877755617 
v 30.787429766500072 -0.23389234541110918 31.60057756437848 
v 30.114641193720967 -0.8591596080507403 31.995964821669954 
v 29.41410727063424 -1.495072574786804 32.319696469226656 
v 28.690201631682296 -2.137948447066006 32.569911196706386 
v 27.94744874669592 -2.7840779571368515 32.74533135757999 
v 27.190463693332998 -3.429774869096286 32.84527199965794 
v 26.42389120706846 -4.071424162870764 32.86963798576711 
v 25.652345686470817 -4.7055276329681135 32.818909591144376 
v 24.88035373961177 -5.328745770306813 32.69411736507044 
v 24.112300697069518 -5.937934977686845 32.49680739164361 
v 23.352382300884543 -6.530179384728094 32.22899836167925 
v 22.604562522751287 -7.102816762174857 31.89313206369981 
v 21.872538185873093 -7.6534582740039365 31.492019012338123 
v 21.15971078042266 -8.180002035434867 31.028780958787387 
v 20.469165588201182 -8.680640654323534 30.50679197709643 
l 1 2
l 2 3
l 3 4
l 4 5
l 5 6
l 6 7
l 7 8
l 8 9
l 9 10
l 10 11
l 11 12
l 12 13
l 13 14
l 14 15
l 15 16
l 16 17
l 17 18
l 18 19
l 19 20
l 20 21
l 21 22
l 22 23
l 23 24
l 24 25
l 25 26
l 26 27
l 27 28
l 28 29
l 29 30
l 30 31
l 31 32
l 32 33
l 33 34
l 34 35
l 35 36
l 36 37
l 37 38
l 38 39
l 39 40
l 40 41
l 41 42
l 42 43
l 43 44
l 44 45
l 45 46
l 46 47
l 47 48
l 48 49
l 49 50
l 50 51
l 51 52
l 52 53
l 53 54
l 54 55
l 55 56
l 56 57
l 57 58
l 58 59
l 59 60
l 60 61
l 61 62
l 62 63
l 63 64
l 64 65
l 65 66
l 66 67
l 67 68
l 68 69
l 69 70
l 70 71
l 71 72
l 72 73
l 73 74
l 74 75
l 75 76
l 76 77
l 77 78
l 78 79
l 79 80
l 80 81
l 81 82
l 82 83
l 83 84
l 84 85
l 85 86
l 86 87
l 87 88
l 88 89
l 89 90
l 90 91
l 91 92
l 92 93
l 93 94
l 94 95
l 95 96
l 96 97
l 97 98
l 98 99
l 99 100
l 100 101
l 101 102
l 102 103
l 103 104
l 104 105
l 105 106
l 106 107
l 107 108
l 108 109
l 109 110
l 110 111
l 111 112
l 112 113
l 113 114
l 114 115
l 115 116
l 116 117
l 117 118
l 118 119
l 119 120
l 120 121
l 121 122
l 122 123
l 123 124
l 124 125
l 125 126
l 126 127
l 127 128
l 128 129
l 129 130
l 130 131
l 131 132
l 132 133
l 133 134
l 134 135
l 135 136
l 136 137
l 137 138
l 138 139
l 139 140
l 140 141
l 141 142
l 142 143
l 143 144
l 144 145
l 145 146
l 146 147
l 147 148
l 148 149
l 149 150
l 150 151
l 151 152
l 152 153
l 153 154
l 154 155
l 155 156
l 156 157
l 157 158
l 158 159
l 159 160
l 160 161
l 161 162
l 162 163
l 163 164
l 164 165
l 165 166
l 166 167
l 167 168
l 168 169
l 169 170
l 170 171
l 171 172
l 172 173
l 173 174
l 174 175
l 175 176
l 176 177
l 177 178
l 178 179
l 179 180
l 180 181
l 181 182
l 182 183
l 183 184
l 184 185
l 185 186
l 186 187
l 187 188
l 188 189
l 189 190
l 190 191
l 191 192
l 192 193
l 193 194
l 194 195
l 195 196
l 196 197
l 197 198
l 198 199
l 199 200
l 200 201
l 201 202
l 202 203
l 203 204
l 204 205
l 205 206
l 206 207
l 207 208
l 208 209
l 209 210
l 210 211
l 211 212
l 212 213
l 213 214
l 214 215
l 215 216
l 216 217
l 217 218
l 218 219
l 219 220
l 220 221
l 221 222
l 222 223
l 223 224
l 224 225
l 225 226
l 226 227
l 227 228
l 228 229
l 229 230
l 230 231
l 231 232
l 232 233
l 233 234
l 234 235
l 235 236
l 236 237
l 237 238
l 238 239
l 239 240
l 240 241
l 241 242
l 242 243
l 243 244
l 244 245
l 245 246
l 246 247
l 247 248
l 248 249
l 249 250
l 250 251
l 251 252
l 252 253
l 253 254
l 254 255
l 255 256
l 256 257
l 257 258
l 258 259
l 259 260
l 260 261
l 261 262
l 262 263
l 263 264
l 264 265
l 265 266
l 266 267
l 267 268
l 268 269
l 269 270
l 270 271
l 271 272
l 272 273
l 273 274
l 274 275
l 275 276
l 276 277
l 277 278
l 278 279
l 279 280
l 280 281
l 281 282
l 282 283
l 283 284
l 284 285
l 285 286
l 286 287
l 287 288
l 288 289
l 289 290
l 290 291
l 291 292
l 292 293
l 293 294
l 294 295
l 295 296
l 296 297
l 297 298
l 298 299
l 299 300
l 300 301
l 301 302
l 302 303
l 303 304
l 304 305
l 305 306
l 306 307
l 307 308
l 308 309
l 309 310
l 310 311
l 311 312
l 312 313
l 313 314
l 314 315
l 315 316
l 316 317
l 317 318
l 318 319
l 319 320
l 320 321
l 321 322
l 322 323
l 323 324
l 324 325
l 325 326
l 326 327
l 327 328
l 328 329
l 329 330
l 330 331
l 331 332
l 332 333
l 333 334
l 334 335
l 335 336
l 336 337
l 337 338
l 338 339
l 339 340
l 340 341
l 341 342
l 342 343
l 343 344
l 344 345
l 345 346
l 346 347
l 347 348
l 348 349
l 349 350
l 350 351
l 351 352
l 352 353
l 353 354
l 354 355
l 355 356
l 356 357
l 357 358
l 358 359
l 359 360
l 360 361
l 361 362
l 362 363
l 363 364
l 364 365
l 365 366
l 366 367
l 367 368
l 368 369
l 369 370
l 370 371
l 371 372
l 372 373
l 373 374
l 374 375
l 375 376
l 376 377
l 377 378
l 378 379
l 379 380
l 380 381
l 381 382
l 382 383
l 383 384
l 384 385
l 385 386
l 386 387
l 387 388
l 388 389
l 389 390
l 390 391
l 391 392
l 392 393
l 393 394
l 394 395
l 395 396
l 396 397
l 397 398
l 398 399
l 399 400
l 400 1
