v -11.404175492833925 5.106612400616067 6.371009364826223 
v -12.398269424700894 5.196233127050094 6.4324956521121885 
v -13.395777167161016 5.261621687460113 6.459626999231323 
v -14.394951974705256 5.301807502817481 6.451474412168599 
v -15.393885528379965 5.3158433383153625 6.407151681052833 
v -16.390502065507775 5.302814675998951 6.325828363440169 
v -17.382553715246782 5.26185015400601 6.206744014438945 
v -18.367617325224224 5.192133077789977 6.049223639125956 
v -19.34309308715333 5.092913985045224 5.852694309530777 
v -20.306205287746312 4.9635242175862295 5.6167028495210305 
v -21.254005523579796 4.803390420043695 5.340934446269273 
v -22.18337872285443 4.612049847034517 5.025231996977407 
v -23.091052311071152 4.389166317809664 4.66961594489605 
v -23.973608839314362 4.134546610979728 4.274304300550317 
v -24.8275023609336 3.848157042834152 3.8397324840990126 
v -25.649078793002918 3.5301399224973844 3.366572565059056 
v -26.43460043145414 3.1808295276338163 2.855751418896622 
v -27.18027470226717 2.8007671979892055 2.308467269394356 
v -27.882287125419566 2.390715103500169 1.7262040448442744 
v -28.536838344354134 1.9516682120871653 1.1107429488707148 
v -29.140184933666408 1.4848639628216118 0.46417063703354505 
v -29.688683545085752 0.9917891461734069 -0.21111659788226683 
v -30.178837791637708 0.474183507518602 -0.9124131924628336 
v -30.607347108581717 -0.06596037446115814 -1.6367097278797111 
v -30.971156675049098 -0.6264013246889115 -2.3807037979034362 
v -31.267507340966368 -1.204658232562078 -3.1408166127310593 
v -31.493984389064504 -1.7980233411429984 -3.913215473725391 
v -31.6485638807013 -2.4035802441591385 -4.6938420833009395 
v -31.729655295253046 -3.0182265285887886 -5.478446466167321 
v -31.736139182844756 -3.6387008473529368 -6.262626080586918 
v -31.667398613827206 -4.261614048506084 -7.041869500380441 
v -31.523343327439964 -4.883483832028646 -7.811603860313636 
v -31.304425654955036 -5.5007722611537355 -8.567245089783805 
v -31.011647514159602 -6.109925330394597 -9.304249822566884 
v -30.64655803373014 -6.707413694727157 -10.01816777275195 
v -30.211241656235046 -7.289773600118478 -10.704693315877886 
v -29.70829687318671 -7.853647029351447 -11.359715014075153 
v -29.14080604935626 -8.395820091209567 -11.979361876018569 
v -28.512297080796557 -8.913258735393548 -12.560045244769581 
v -27.826697886916715 -9.403140967365884 -13.098495354017189 
v -27.088284948740156 -9.86288486165465 -13.591791777908883 
v -26.30162726331019 -10.290171822056365 -14.037387211509808 
v -25.47152718181787 -10.682964704346276 -14.433124246466754 
v -24.602959634058895 -11.039520592499306 -14.777245037710543 
v -23.7010112158089 -11.358398193980081 -15.068393980422478 
v -22.77082053370582 -11.63845998492623 -15.30561372162553 
v -21.81752107222934 -11.87886938474238 -15.488335009084281 
v -20.846187679471242 -12.079083366034356 -15.616361025429846 
v -19.861787573912405 -12.238841006049247 -15.689846963775171 
v -18.869136564999213 -12.358148557835301 -15.709275671236194 
v -17.87286096708698 -12.437261662978862 -15.675430219681594 
v -16.87736547927271 -12.476665344375975 -15.589364261572696 
v -15.886807111111862 -12.477052409690527 -15.452370997269343 
v -14.905075062608445 -12.439300867496076 -15.265951523989472 
v -13.935776320560683 -12.364450912708206 -15.0317832615374 
v -12.982226615071962 -12.253681980153674 -14.751689061932224 
v -12.047450286641949 -12.108318339256165 -14.427583418655141 
v -11.134177750180244 -11.929784482992204 -14.061464432273452 
v -10.244848935604615 -11.719579633869698 -13.655392108668138 
v -9.381620675568692 -11.47925866142354 -13.211464463308022 
v -8.546376828037411 -11.210414555198032 -12.731795898771832 
v -7.740740598253336 -10.914662551239463 -12.218497926012455 
v -6.966088556872658 -10.593625958396622 -11.67366223679874 
v -6.223565891868093 -10.248923686538319 -11.099346082257405 
v -5.5141024782402015 -9.882159442249113 -10.497559870307427 
v -4.838429399002459 -9.494912528417501 -9.870256862455115 
v -4.197095601099167 -9.088730161897592 -9.219324827050555 
v -3.5904844191110237 -8.665121207450495 -8.546579490676924 
v -3.018829746453521 -8.225551215701621 -7.853759620750519 
v -2.4822316773254336 -7.7714386470996155 -7.14252356955212 
v -1.9806684893111757 -7.3041509108930835 -6.414449893027492 
v -1.511759511929604 -6.824031848073855 -5.673080389837141 
v -1.0728232734436691 -6.331207678006901 -4.921760496496314 
v -0.6610135435503616 -5.825637943123265 -4.16357911612972 
v -0.27336186301711773 -5.307134270043889 -3.4014039247132906 
v 0.09318839239810313 -4.77537920429094 -2.637917582753537 
v 0.44175376619337287 -4.22994684108985 -1.875656595090074 
v 0.7754877835151445 -3.6703247856473724 -1.1170511949215909 
v 1.097562287239848 -3.0959375649140215 -0.36446554605265336 
v 1.4111526356226312 -2.506170482667693 0.37976382903784 
v 1.7194232131028362 -1.9003989002142372 1.1132858767944889 
v 2.0255159716125126 -1.2780165483544432 1.8336984546958106 
v 2.3325385383098824 -0.6384674089444456 2.5385122055912697 
v 2.643551452294822 0.018719362005881954 3.225116655241644 
v 2.961570359996164 0.6937497813822892 3.8908866569415355 
v 3.2900341402870854 1.3828888791567677 4.536837677681051 
v 3.6324240976683306 2.082475180775629 5.16405625078983 
v 3.9922396347611313 2.7888739498882362 5.773637069552757 
v 4.372971852622906 3.49841837747448 6.366632987707739 
v 4.778072281078535 4.207349514148025 6.944009012746797 
v 5.210914922147848 4.911756570981482 7.506599662494999 
v 5.674749675553437 5.607519143267791 8.055069018625971 
v 6.1724262558157 6.290250980148768 8.590081714783922 
v 6.705024766385377 6.955429623541487 9.113451975688218 
v 7.273014622766345 7.598437005725835 9.62722752138666 
v 7.876660248828505 8.21448907647861 10.13331375433419 
v 8.515956278208971 8.798612627546166 10.633439797274697 
v 9.190555383291365 9.34563363798546 11.129124491949787 
v 9.899689614073798 9.850179811276355 11.62164216736107 
v 10.642088083140916 10.306700872213066 12.111989159782436 
v 11.415887958859072 10.709506041078715 12.600848046491926 
v 12.218524999623241 11.053405826542686 13.08819155468395 
v 13.04688212501905 11.335840337852952 13.57197726058388 
v 13.89758263833519 11.554816764273749 14.049834050364094 
v 14.76699921770406 11.708633840423511 14.519345135733477 
v 15.651273196295278 11.795912395534728 14.978066675533183 
v 16.546337295234306 11.815623542948774 15.423547541030674 
v 17.44794426508642 11.767114030684724 15.853351290672794 
v 18.351698882276967 11.650127545780926 16.26507875272723 
v 19.253093518994977 11.464821510809912 16.65639117819401 
v 20.14754677190311 11.211778805680948 17.02503353498433 
v 21.030444525846846 10.892013950666854 17.368857486993196 
v 21.8971827344993 10.506973411143074 17.685843588256795 
v 22.743211125393326 10.058529826814576 17.974122224291673 
v 23.56407698624958 9.5489701230729 18.231992850651928 
v 24.355468166043767 8.980977623498621 18.457941112608953 
v 25.11325442972423 8.357608443750687 18.650653478716812 
v 25.83352634030513 7.682262601318522 18.809029083134106 
v 26.51263090512183 6.958650416241567 18.932188544468765 
v 27.147203311784125 6.190754898949879 19.019479609558132 
v 27.734194189923638 5.382790917886625 19.07047955556171 
v 28.270891962263203 4.539162007884267 19.08499436941716 
v 28.754939987148095 3.664415718232511 19.06305480652286 
v 29.184348338399207 2.7631984064418846 19.00490950715009 
v 29.557500211098013 1.8402103608792812 18.911015416687146 
v 29.87315307797034 0.9001620851633954 18.782025812100684 
v 30.130434845347757 -0.05226749691134197 18.618776280380917 
v 30.328835366115282 -1.0124702505713339 18.422269024365633 
v 30.468193756547812 -1.9759448956419328 18.19365588708593 
v 30.548682032597778 -2.9383294872401686 17.9342204881843 
v 30.570785628278344 -3.895429990402661 17.645359856134256 
v 30.535281384613768 -4.8432447462984785 17.328565919500846 
v 30.44321360345528 -5.777984740966617 16.985407191195865 
v 30.295868748288207 -6.696089691737403 16.617510943646636 
v 30.094749346528744 -7.594240058953916 16.22654613210216 
v 29.84154760760963 -8.469365169473479 15.814207279962169 
v 29.538119221404223 -9.31864770270148 15.382199495885864 
v 29.18645774522803 -10.139524839346516 14.93222474913779 
v 28.788669927598974 -10.929686408091106 14.465969488502168 
v 28.346952255662636 -11.687070386871875 13.985093652192312 
v 27.863568952871073 -12.409856124771903 13.491221082250917 
v 27.340831595922385 -13.096455649220292 12.985931327453706 
v 26.78108046649628 -13.745503412984414 12.470752793916349 
v 26.186667704939268 -14.355844818080646 11.947157182471985 
v 25.559942290380867 -14.926523830924229 11.416555136269176 
v 24.90323683510007 -15.456769976381356 10.8802930106399 
v 24.218856150341914 -15.945984969311933 10.339650669712123 
v 23.509067516023432 -16.393729211950312 9.795840210040321 
v 22.776092567519356 -16.79970835511563 9.250005510220557 
v 22.022100698515665 -17.163760091625896 8.703222506560856 
v 21.249203869225997 -17.48584132207339 8.156500097925564 
v 20.459452703505185 -17.766015806789785 7.610781587427336 
v 19.65483375598236 -18.00444239371932 7.066946574305726 
v 18.83726783070317 -18.201363890224112 6.52581321575653 
v 18.008609235379613 -18.357096627652226 5.9881407853589765 
v 17.170645859702788 -18.472020750802148 5.454632461834413 
v 16.32509997183527 -18.546571250141163 4.925938288952997 
v 15.47362963377704 -18.581229742653296 4.40265825431889 
v 14.617830643456772 -18.576516997342175 3.8853454413832647 
v 13.759238918857891 -18.53298619350938 3.374509215265584 
v 12.89933324701332 -18.451216893771992 2.8706184087434337 
v 12.039538328107394 -18.331809709173523 2.3741044800602364 
v 11.181228052061579 -18.17538163048213 1.8853646189791522 
v 10.325728951740512 -17.982561997670405 1.4047647817765447 
v 9.474323783215276 -17.75398907845357 0.9326426396279442 
v 8.628255189305612 -17.490307226464154 0.46931042811142887 
v 7.7887294078563345 -17.192164590011437 0.015057688361357319 
v 6.95691999086695 -16.86021134327885 -0.42984610722177463 
v 6.133971504681731 -16.4950984131323 -0.86514904983145 
v 5.321003184964134 -16.097476676341472 -1.2906144132157753 
v 4.51911252313643 -15.667996603860821 -1.7060183990146003 
v 3.7293787633789646 -15.207308330796408 -2.1111480098041224 
v 2.952866291173635 -14.71606213272626 -2.5057990505154812 
v 2.1906278957647816 -14.194909291083055 -2.889774258481707 
v 1.443707889820545 -13.644503332291752 -3.262881562182146 
v 0.713145070031855 -13.0655016272305 -3.6249324687714117 
v -2.449759241611774e-05 -12.458567339303912 -3.9757405806795862 
v -0.6947648843643374 -11.824371710938445 -4.315120241932235 
v -1.3700379148961657 -11.16359667958777 -4.642885315344994 
v -2.0248010109668684 -10.476937815327698 -4.958848092381719 
v -2.658005283303948 -9.765107572782036 -5.26281833821205 
v -3.268593893104551 -9.028838850406329 -5.554602475349222 
v -3.8555007069196625 -8.268888850384895 -5.834002910041538 
v -4.417816117961911 -7.486108848224345 -6.100660350938686 
v -4.95680913015125 -6.682198108425038 -6.352184357605799 
v -5.473802082485953 -5.858790246788494 -6.586210288122482 
v -5.970151577057013 -5.0174729577368 -6.800390108546608 
v -6.447230857122574 -4.159810860063857 -6.9923839866375 
v -6.9064146773074935 -3.2873692198443423 -7.15985367924602 
v -7.349065726442469 -2.4017393197777968 -7.300457796483779 
v -7.77652247735344 -1.5045650458332336 -7.41184941218017 
v -8.190083938655098 -0.5975689305261987 -7.491682073561134 
v -8.589122584228802 0.3181073802633195 -7.540192371663739 
v -8.972994923793232 1.2413541692785577 -7.5576690523670615 
v -9.341070264976716 2.1710813018272437 -7.5444091670542335 
v -9.692728602947996 3.1062149347732517 -7.500716600776985 
v -10.027358687846306 4.045694126017004 -7.426900997998822 
v -10.344356279409658 4.988467363793677 -7.323277073686482 
v -10.643122598189672 5.93348903330719 -7.19016429894455 
v -10.923062983041415 6.879715836933492 -7.027886951880835 
v -11.183585765123693 7.826103183392202 -6.836774525892475 
v -11.424101369412199 8.771601560902695 -6.617162489026872 
v -11.644021655686057 9.715152909411842 -6.3693933894518855 
v -11.842759512069515 10.655687007508543 -6.093818303321269 
v -12.019728715463751 11.592117890629272 -5.790798622399286 
v -12.174344074556045 12.523340318613126 -5.460708179666283 
v -12.30602187250855 13.448226312589256 -5.103935711716486 
v -12.414180627865152 14.365621783577238 -4.7208876570288805 
v -12.498242193626094 15.274343278054133 -4.311991289086657 
v -12.557633215772588 16.173174869088893 -3.8776981827812387 
v -12.591786973716193 17.06086522545902 -3.4184880114997847 
v -12.60014562612985 17.93612489543212 -2.934872670692349 
v -12.582162886308556 18.797623846593517 -2.427400721475057 
v -12.53730715151587 19.643989308194104 -1.896662144873693 
v -12.46506511059382 20.47380396792994 -1.343293393571551 
v -12.36494585333262 21.285604580775594 -0.7679827234201214 
v -12.2364855035838 22.0778810533847 -0.1714757814273928 
v -12.079252395715734 22.849076073522358 0.44541857961049763 
v -11.892852810603111 23.597585359854477 1.081822297279328 
v -11.676937282752213 24.321758613001016 1.7367819526766615 
v -11.43120748422783 25.019901253837833 2.409262536492199 
v -11.15542368360108 25.690277039336436 3.098141194969662 
v -10.849412769022711 26.331111649448772 3.802201034678052 
v -10.513076813600295 26.940597340316526 4.520125077974767 
v -10.146402148402425 27.5168987590072 5.250490474797742 
v -9.749468893547728 28.05816001260944 5.991763090752616 
v -9.322460880932413 28.56251307938003 6.742292606058021 
v -8.865675883246455 29.028087641226918 7.500308274382658 
v -8.379536043150907 29.4530224046326 8.263915504460892 
v -7.864598374067105 29.835477960682642 9.031093440015109 
v -7.321565180316869 30.17365121372285 9.799693724247783 
v -6.751294219845851 30.4657913819591 10.567440643199523 
v -6.1548084081110845 30.71021754178903 11.331932846721646 
v -5.5333048377345895 30.90533765072709 12.090646845737455 
v -4.888162866202771 31.049668941577004 12.840942478884973 
v -4.220951004372337 31.141859533398268 13.580070529571882 
v -3.533432323116771 31.180711053490395 14.305182655016974 
v -2.827568085511497 31.165202010109645 15.013343761212107 
v -2.1055193089694195 31.094511599339484 15.701546921322276 
v -1.369645967154376 30.968043573245836 16.36673088953494 
v -0.6225035566812422 30.78544974232405 17.005800207820062 
v 0.13316322026572316 30.54665263578523 17.615647839955678 
v 0.8944298683206484 30.251866801201064 18.193180196504667 
v 1.658204767019927 29.9016181933544 18.73534433774951 
v 2.421245192800226 29.49676108377368 19.239157061032678 
v 3.180176719092464 29.038491920156645 19.70173549720748 
v 3.9315159344612516 28.528359581155424 20.120328761176562 
v 4.671696326413124 27.968271508684406 20.492350127383492 
v 5.397097080906299 27.360495258134815 20.81540913647052 
v 6.104074448234307 26.70765508678755 21.087342988009777 
v 6.78899522886483 26.012723301347783 21.30624653995038 
v 7.44827184239696 25.279006204719213 21.470500221441913 
v 8.078398363589645 24.510124616515274 21.578795174524462 
v 8.675986845804983 23.709989086850122 21.630154973389036 
v 9.237803208159216 22.882770073176527 21.62395332792866 
v 9.760801941410467 22.032863499142838 21.559927260250134 
v 10.242158891369597 21.164852256061423 21.438185346496216 
v 10.679301408428175 20.283464335074033 21.259210738248388 
v 11.06993520734491 19.39352838536911 21.02385881331626 
v 11.412067361026791 18.49992757560831 20.7333494493541 
v 11.70402495267242 17.607552688028132 20.389254059389607 
v 11.944469028142684 16.721255394968594 19.99347766971868 
v 12.132403619711749 15.845802654990793 19.548236451624774 
v 12.267179747765812 14.985833121150412 19.056031233512318 
v 12.348494442668557 14.145816379918095 18.519617614708142 
v 12.376384959155137 13.330015739658636 17.941973372968462 
v 12.351218474997946 12.54245516763917 17.326263902565586 
v 12.273677669844494 11.786890840168276 16.67580643806556 
v 12.144742665613524 11.066787628002592 15.994033811266402 
v 11.96566972582124 10.385300213017318 15.284457930730312 
v 11.737967725310783 9.745260731140792 14.550635506903427 
v 11.463372764672336 9.149170581164705 13.796134664828672 
v 11.143798479629584 8.598919091356613 13.024709379184403 
v 10.781330157386863 8.093464256041996 12.241677328708477 
v 10.378064309980706 7.630554034762042 11.452308983794254 
v 9.93599178469478 7.207455020964333 10.661374144890631 
v 9.456970139751917 6.82104756067177 9.873178273208682 
v 8.942706737900956 6.467906684399727 9.091605876224472 
v 8.394754031848688 6.144372133948857 8.320173010752287 
v 7.814515250042515 5.84660701315184 7.562084498049414 
v 7.2032593799386815 5.570646023495043 6.820293334964702 
v 6.562523687733842 5.312383791820885 6.097241306369169 
v 5.895266167269228 5.067522286008618 5.393778802653241 
v 5.20446682089988 4.831674267588639 4.71024115152147 
v 4.492894764356419 4.6003776146299815 4.046749994179275 
v 3.7631543443786772 4.369118187261114 3.4032811018487847 
v 3.01773750656016 4.133348254412384 2.77972650694507 
v 2.259081339423974 3.8885028238112915 2.1759513028272144 
v 1.4896297068312625 3.630016164554803 1.5918453481566577 
v 0.7118980479632334 3.353340852413692 1.0273701876489385 
v -0.07122936497133857 3.0583614226144173 0.4798797086143369 
v -0.8569939183863898 2.7452686781771005 -0.05359265648008043 
v -1.6427615367091788 2.4141921679234333 -0.5760877703050115 
v -2.4259818159658635 2.065211133492175 -1.0906932616363358 
v -3.204146991960474 1.6983678643099478 -1.6005190525021853 
v -3.974751904691983 1.3136831337652448 -2.1086752881422224 
v -4.735250987004909 0.9111760463593233 -2.6182486779626406 
v -5.483020649449953 0.49088467562329763 -3.132281267855964 
v -6.215321995612204 0.05289016306103243 -3.6537469453190417 
v -6.929266004454944 -0.4026562432268014 -4.185525631759264 
v -7.621782045602571 -0.8755031727120319 -4.7303742418937365 
v -8.289591093247195 -1.36526644031132 -5.2908938635749205 
v -8.929182853901592 -1.8713923476080299 -5.869490734828061 
v -9.536839436328442 -2.3931327720802567 -6.468283517404079 
v -10.110571106090243 -2.9302030695977503 -7.086666668673729 
v -10.64836331177803 -3.482232235732353 -7.7238883094175055 
v -11.148159412262721 -4.048746599195689 -8.379076211871677 
v -11.607870744237305 -4.629161263837312 -9.05122790472905 
v -12.025388645646728 -5.222771571751687 -9.739200937086066 
v -12.398598570114112 -5.82874473467226 -10.441703487863231 
v -12.725396407169589 -6.446111806572472 -11.157285536943967 
v -13.003707094656376 -7.0737601967927715 -11.884330844265397 
v -13.231505572155404 -7.710426949215723 -12.62105001225773 
v -13.40684007683291 -8.354693037939093 -13.365474934008846 
v -13.52785772523653 -9.004978952235058 -14.115454952703592 
v -13.592832256081596 -9.659541861790284 -14.868655075377303 
v -13.600193730314647 -10.316474665552763 -15.622556593744475 
v -13.548559896664287 -10.973707232151495 -16.37446046467786 
v -13.436768254141185 -11.629005806549431 -17.121497497273662 
v -13.263906216685431 -12.279954931065154 -17.860659009886536 
v -13.029348738826261 -12.923995714784189 -18.58878537420527 
v -12.732791544397909 -13.558438819215885 -19.30258336720967 
v -12.3742830787439 -14.180480870704605 -19.998647533331663 
v -11.954254320814107 -14.787224369995583 -20.673485588625343 
v -11.473545532796539 -15.375701076161105 -21.323547784007403 
v -10.93342899259363 -15.942898734807269 -21.945260014695645 
v -10.335626754602208 -16.485790902344476 -22.535060322062705 
v -9.682322522122012 -17.00136949319668 -23.089438287418453 
v -8.976166794142179 -17.486679550344533 -23.604976671171666 
v -8.220274572150378 -17.93885561768679 -24.078394512838308 
v -7.418215078481816 -18.355158982149472 -24.506590785524864 
v -6.573993143331286 -18.73301496130132 -24.886687601004827 
v -5.692022156736258 -19.07004934522097 -25.216071896032748 
v -4.77708874561541 -19.364123065482257 -25.492434503685043 
v -3.8343096128362846 -19.613364164003855 -25.71380553010425 
v -2.869081251925303 -19.81619617292946 -25.87858501956174 
v -1.887023513020192 -19.971362094215596 -25.985567999031357 
v -0.893918228569981 -20.077943282310198 -26.03396314435017 
v 0.10435570224527717 -20.13537268084596 -26.02340449752707 
v 1.1018892345900597 -20.143442038030727 -25.953955880274403 
v 2.092810493743382 -20.10230291693031 -25.826107881800056 
v 3.0713508659285376 -20.01246151639955 -25.640767537462573 
v 4.031908302174608 -19.87476751578241 -25.399241046829083 
v 4.969106393357105 -19.690397341662646 -25.10321009328067 
v 5.87784794966251 -19.46083241886355 -24.754702512261193 
v 6.753362036993031 -19.187833103129943 -24.356058203340424 
v 7.59124367333875 -18.873409094116408 -23.90989128684429 
v 8.38748565582186 -18.51978719143261 -23.419049566142046 
v 9.138502259830325 -18.129377282942936 -22.88657237188747 
v 9.841144812208555 -17.704737444917395 -22.315647837334687 
v 10.492709379429463 -17.248538991554557 -21.70957058923645 
v 11.090937019967056 -16.76353224190772 -21.07170074336978 
v 11.634007221362154 -16.252513681391136 -20.405424975018825 
v 12.120525273161093 -15.71829508933562 -19.714120300759365 
v 12.549504416100739 -15.163675089990663 -19.00112106642926 
v 12.920343657041963 -14.591413467989685 -18.2696894943706 
v 13.232802151541529 -14.004208475910861 -17.522990007021146 
v 13.486971036310138 -13.404677255527163 -16.764067418617664 
v 13.683243547712948 -12.795339398933736 -15.995828975737822 
v 13.822284195895234 -12.178603593186162 -15.221030132935992 
v 13.904997682995711 -11.556757223593358 -14.442263872911722 
v 13.932498163815627 -10.931958756712666 -13.661953321544102 
v 13.906079353210698 -10.30623268399139 -12.882347365953379 
v 13.827185890579313 -9.681466779925717 -12.10551895711032 
v 13.697386281523384 -9.059411413207126 -11.33336576558039 
v 13.518347652619907 -8.441680644000462 -10.567612857703908 
v 13.2918124790434 -7.829754843542247 -9.809817067733823 
v 13.019577377606181 -7.224984581960058 -9.061372757084209 
v 12.7034740001244 -6.628595544975812 -8.323518672924925 
v 12.345352013880207 -6.041694258492865 -7.59734564313193 
v 11.947064116969248 -5.4652744206818555 -6.883804871543392 
v 11.510453005865369 -4.900223662973026 -6.183716625305127 
v 11.037340189790909 -4.347330583431114 -5.497779133787642 
v 10.529516530542685 -3.807291917621589 -4.8265775453280835 
v 9.98873437634462 -3.280719732737026 -4.170592813310483 
v 9.416701153143697 -2.7681485500579877 -3.5302104064480795 
v 8.81507427564836 -2.270042318524014 -2.9057287593281638 
v 8.18545724250969 -1.786801178147129 -2.2973673982055294 
v 7.5293967846320085 -1.3187679661606477 -1.705274693667902 
v 6.848380942028749 -0.8662344311759406 -1.1295352062039854 
v 6.143837952360793 -0.42944713128579287 -0.5701766029952502 
v 5.4171358428468475 -0.008613001107224039 -0.027176134576616915 
v 4.6695826262400555 0.3960954196758344 0.4995333314585263 
v 3.9024270107187773 0.7845350974905279 1.0100577156130681 
v 3.1168595426050634 1.1565879519806281 1.5045365609083818 
v 2.314014109865217 1.5121566311883974 1.983138282583585 
v 1.4948793694563052 1.8520327002797015 2.445256433295868 
v 0.660073546610787 2.180262376338697 2.8873140463877345 
v -0.19004644272957935 2.4972019675529173 3.307903011721205 
v -1.0551646328247866 2.802053785679331 3.706255831355654 
v -1.9349123185322852 3.09399621685153 4.081571637161156 
v -2.8288615841019866 3.3721837237403784 4.433017126256607 
v -3.7365184596338024 3.6357471467217977 4.75972792398699 
v -4.657315714138116 3.883794349097124 5.060810431345893 
v -5.590605303693208 4.115411256106836 5.335344218997487 
v -6.535650503261831 4.329663341638638 5.582385034398334 
v -7.491617762576382 4.525597620451199 5.8009684923479155 
v -8.457568340266988 4.702245207237029 5.99011452236203 
v -9.43244978620035 4.858624506715214 6.148832648272837 
v -10.41508735988923 4.993745100918415 6.276128176070963 
l 1 2
l 2 3
l 3 4
l 4 5
l 5 6
l 6 7
l 7 8
l 8 9
l 9 10
l 10 11
l 11 12
l 12 13
l 13 14
l 14 15
l 15 16
l 16 17
l 17 18
l 18 19
l 19 20
l 20 21
l 21 22
l 22 23
l 23 24
l 24 25
l 25 26
l 26 27
l 27 28
l 28 29
l 29 30
l 30 31
l 31 32
l 32 33
l 33 34
l 34 35
l 35 36
l 36 37
l 37 38
l 38 39
l 39 40
l 40 41
l 41 42
l 42 43
l 43 44
l 44 45
l 45 46
l 46 47
l 47 48
l 48 49
l 49 50
l 50 51
l 51 52
l 52 53
l 53 54
l 54 55
l 55 56
l 56 57
l 57 58
l 58 59
l 59 60
l 60 61
l 61 62
l 62 63
l 63 64
l 64 65
l 65 66
l 66 67
l 67 68
l 68 69
l 69 70
l 70 71
l 71 72
l 72 73
l 73 74
l 74 75
l 75 76
l 76 77
l 77 78
l 78 79
l 79 80
l 80 81
l 81 82
l 82 83
l 83 84
l 84 85
l 85 86
l 86 87
l 87 88
l 88 89
l 89 90
l 90 91
l 91 92
l 92 93
l 93 94
l 94 95
l 95 96
l 96 97
l 97 98
l 98 99
l 99 100
l 100 101
l 101 102
l 102 103
l 103 104
l 104 105
l 105 106
l 106 107
l 107 108
l 108 109
l 109 110
l 110 111
l 111 112
l 112 113
l 113 114
l 114 115
l 115 116
l 116 117
l 117 118
l 118 119
l 119 120
l 120 121
l 121 122
l 122 123
l 123 124
l 124 125
l 125 126
l 126 127
l 127 128
l 128 129
l 129 130
l 130 131
l 131 132
l 132 133
l 133 134
l 134 135
l 135 136
l 136 137
l 137 138
l 138 139
l 139 140
l 140 141
l 141 142
l 142 143
l 143 144
l 144 145
l 145 146
l 146 147
l 147 148
l 148 149
l 149 150
l 150 151
l 151 152
l 152 153
l 153 154
l 154 155
l 155 156
l 156 157
l 157 158
l 158 159
l 159 160
l 160 161
l 161 162
l 162 163
l 163 164
l 164 165
l 165 166
l 166 167
l 167 168
l 168 169
l 169 170
l 170 171
l 171 172
l 172 173
l 173 174
l 174 175
l 175 176
l 176 177
l 177 178
l 178 179
l 179 180
l 180 181
l 181 182
l 182 183
l 183 184
l 184 185
l 185 186
l 186 187
l 187 188
l 188 189
l 189 190
l 190 191
l 191 192
l 192 193
l 193 194
l 194 195
l 195 196
l 196 197
l 197 198
l 198 199
l 199 200
l 200 201
l 201 202
l 202 203
l 203 204
l 204 205
l 205 206
l 206 207
l 207 208
l 208 209
l 209 210
l 210 211
l 211 212
l 212 213
l 213 214
l 214 215
l 215 216
l 216 217
l 217 218
l 218 219
l 219 220
l 220 221
l 221 222
l 222 223
l 223 224
l 224 225
l 225 226
l 226 227
l 227 228
l 228 229
l 229 230
l 230 231
l 231 232
l 232 233
l 233 234
l 234 235
l 235 236
l 236 237
l 237 238
l 238 239
l 239 240
l 240 241
l 241 242
l 242 243
l 243 244
l 244 245
l 245 246
l 246 247
l 247 248
l 248 249
l 249 250
l 250 251
l 251 252
l 252 253
l 253 254
l 254 255
l 255 256
l 256 257
l 257 258
l 258 259
l 259 260
l 260 261
l 261 262
l 262 263
l 263 264
l 264 265
l 265 266
l 266 267
l 267 268
l 268 269
l 269 270
l 270 271
l 271 272
l 272 273
l 273 274
l 274 275
l 275 276
l 276 277
l 277 278
l 278 279
l 279 280
l 280 281
l 281 282
l 282 283
l 283 284
l 284 285
l 285 286
l 286 287
l 287 288
l 288 289
l 289 290
l 290 291
l 291 292
l 292 293
l 293 294
l 294 295
l 295 296
l 296 297
l 297 298
l 298 299
l 299 300
l 300 301
l 301 302
l 302 303
l 303 304
l 304 305
l 305 306
l 306 307
l 307 308
l 308 309
l 309 310
l 310 311
l 311 312
l 312 313
l 313 314
l 314 315
l 315 316
l 316 317
l 317 318
l 318 319
l 319 320
l 320 321
l 321 322
l 322 323
l 323 324
l 324 325
l 325 326
l 326 327
l 327 328
l 328 329
l 329 330
l 330 331
l 331 332
l 332 333
l 333 334
l 334 335
l 335 336
l 336 337
l 337 338
l 338 339
l 339 340
l 340 341
l 341 342
l 342 343
l 343 344
l 344 345
l 345 346
l 346 347
l 347 348
l 348 349
l 349 350
l 350 351
l 351 352
l 352 353
l 353 354
l 354 355
l 355 356
l 356 357
l 357 358
l 358 359
l 359 360
l 360 361
l 361 362
l 362 363
l 363 364
l 364 365
l 365 366
l 366 367
l 367 368
l 368 369
l 369 370
l 370 371
l 371 372
l 372 373
l 373 374
l 374 375
l 375 376
l 376 377
l 377 378
l 378 379
l 379 380
l 380 381
l 381 382
l 382 383
l 383 384
l 384 385
l 385 386
l 386 387
l 387 388
l 388 389
l 389 390
l 390 391
l 391 392
l 392 393
l 393 394
l 394 395
l 395 396
l 396 397
l 397 398
l 398 399
l 399 400
l 400 1
