v 4.544878171296295 -20.99542455948627 9.122107790830677 
v 5.35634030305719 -21.03542818548275 8.539047633007671 
v 6.167893681115851 -21.054301563201037 7.955048236975789 
v 6.978429935568426 -21.052357502591775 7.369336983908394 
v 7.786849793226228 -21.029898338204415 6.781133439911399 
v 8.592057305560818 -20.987215736353917 6.189652673387957 
v 9.392954115706079 -20.924590895150693 5.594108594340087 
v 10.188433786344637 -20.842295126063433 4.993717359873302 
v 10.977376210913599 -20.740590808691707 4.387700890620918 
v 11.758642132218467 -20.619732713254876 3.7752905430909633 
v 12.531067795237217 -20.479969687889756 3.1557309830274267 
v 13.293459764623824 -20.32154671012395 2.528284304714642 
v 14.044589942176085 -20.144707303782532 1.8922344406635387 
v 14.78319082530597 -19.949696324014727 1.2468919052035337 
v 15.50795105432447 -19.736763114008475 0.591598914042891 
v 16.217511304094575 -19.506165037198276 -0.07426508029104792 
v 16.910460584264854 -19.258171388260514 -0.7512774002310504 
v 17.585333021792817 -18.993067684813454 -1.4399656693301046 
v 18.24060520968749 -18.711160339371006 -2.140800825292264 
v 18.874694216683466 -18.412781707605216 -2.854189599192872 
v 19.485956363687478 -18.098295504212505 -3.580466448785795 
v 20.07268688402788 -17.768102571512056 -4.3198849443830145 
v 20.633120595422856 -17.42264697819573 -5.072608618646817 
v 21.165433721708954 -17.06242241627482 -5.838701307002007 
v 21.667747011180765 -16.687978853132336 -6.618117023471697 
v 22.13813030521946 -16.29992938262925 -7.410689437731887 
v 22.57460871495419 -15.89895720442284 -8.216121043159808 
v 22.97517056411636 -15.485822644099128 -9.033972132607408 
v 23.33777725202171 -15.061370108558403 -9.863649728415764 
v 23.660375180676382 -14.626534851594805 -10.70439664547538 
v 23.940909873227838 -14.182349404189715 -11.555280900395946 
v 24.177342386244387 -13.729949503264177 -12.415185715289986 
v 24.367668084543038 -13.270579332256338 -13.282800400226051 
v 24.509937803571866 -12.805595867843923 -14.156612432684964 
v 24.602281370008455 -12.336472110550492 -15.034901083647963 
v 24.642933385935855 -11.86479896417114 -15.915732966230703 
v 24.630261105861365 -11.392285521397955 -16.79695990173549 
v 24.562794149726606 -10.92075751229492 -17.67621950708546 
v 24.439255700438505 -10.452153679979709 -18.550938904163264 
v 24.258594733699464 -9.988519865570453 -19.418341932955997 
v 24.020018724325734 -9.532000613522628 -20.27546021415903 
v 23.723026171055327 -9.084828149967517 -21.11914835098827 
v 23.367438186194175 -8.649308641143525 -21.946103483035092 
v 22.95342831321976 -8.227805706424101 -22.752889306645653 
v 22.48154967105647 -7.822721239945996 -23.535964557275594 
v 21.952758484726953 -7.436473684682677 -24.29171581172109 
v 21.368433054763205 -7.071474000273751 -25.01649431576591 
v 20.730387247626087 -6.730099667325423 -25.706656380912413 
v 20.04087766056374 -6.4146671716692465 -26.3586067292943 
v 19.302603729041543 -6.12740350693417 -26.968844006685128 
v 18.51870020287826 -5.870417317056651 -27.534007538682477 
v 17.692721615511417 -5.645670366278843 -28.050924283957485 
v 16.828618603410167 -5.454950067400955 -28.516654849872598 
v 15.930706190678565 -5.29984381504246 -28.92853738767475 
v 15.00367799103423 -5.181672310953651 -29.28435455159201 
v 14.052785541262002 -5.101144386027187 -29.583137802157154 
v 13.0833069915808 -5.058629733007816 -29.824506378174288 
v 12.100413641860172 -5.054238013579387 -30.008514313138196 
v 11.109114452000124 -5.087836024819399 -30.135625916433774 
v 10.114207631302202 -5.159068058178614 -30.20668583706706 
v 9.1202396207505 -5.267378635537558 -30.22288505316277 
v 8.131471745726273 -5.412036851958392 -30.185724019510037 
v 7.151854337223857 -5.5921616324290735 -30.09697413134715 
v 6.185008447665543 -5.8067471967506075 -29.958638582409076 
v 5.23421451925987 -6.054688157134931 -29.77291359918564 
v 4.30239886066883 -6.334468175819778 -29.54177976489383 
v 3.392171197176038 -6.643983129067009 -29.26670020031641 
v 2.505847398077276 -6.981084832086273 -28.94924506328428 
v 1.6454534916529608 -7.343601347644857 -28.591066616667046 
v 0.8127329689311127 -7.729355322351886 -28.193875780134714 
v 0.009156846495285371 -8.13618024743895 -27.75942041115701 
v -0.7640640328013347 -8.56193460294002 -27.289465487729455 
v -1.5059649598671196 -9.004513897787152 -26.78577529877789 
v -2.2158120456472346 -9.461860663038049 -26.250097689376847 
v -2.893086058382158 -9.931972491258577 -25.684150357528548 
v -3.537465791003066 -10.41290824239042 -25.08960915750476 
v -4.1488112898305465 -10.90279255590613 -24.468098331472696 
v -4.727147227383864 -11.399818821538037 -23.82118256582527 
v -5.272646655001608 -11.90225076731279 -23.150360750620866 
v -5.785615326357971 -12.408422825015046 -22.45706130897826 
v -6.266476741712517 -12.916739430511074 -21.742638957275485 
v -6.715758025422885 -13.425673410500249 -21.00837275565966 
v -7.1340767161819025 -13.933763599063305 -20.255465310813662 
v -7.52212852070031 -14.439611817578516 -19.485042998327007 
v -7.880676057062098 -14.94187934081465 -18.698157079645302 
v -8.210538593525053 -15.439282960813637 -17.895785597775415 
v -8.51258277183029 -15.930590748978467 -17.078835946145233 
v -8.787714290772263 -16.41461760592379 -16.248148015791994 
v -9.036870515486125 -16.890220678388495 -15.404497837000399 
v -9.261013970245342 -17.35629471304099 -14.548601642328132 
v -9.461126667148207 -17.811767408459865 -13.68112028840705 
v -9.638205219544897 -18.2555948190269 -12.802663983816227 
v -9.793256687079053 -18.686756857968962 -11.913797279560248 
v -9.927295098481935 -19.10425294134202 -11.015044287163525 
v -10.041338598486524 -19.507097810352846 -10.106894097049864 
v -10.136407166179506 -19.894317566033372 -9.189806376679698 
v -10.213520853567594 -20.264945947877038 -8.264217133844125 
v -10.273698494917323 -20.61802088656566 -7.330544635553405 
v -10.317956839376977 -20.95258136030165 -6.389195477100096 
v -10.347310061373062 -21.267664584451644 -5.44057079911616 
v -10.362769605180258 -21.56230356513694 -4.485072652767591 
v -10.365344321800903 -21.835525049001355 -3.5231105146221853 
v -10.356040857782418 -22.0863479035714 -2.5551079531600522 
v -10.335864256787886 -22.31378196531101 -1.5815094483371348 
v -10.305818735569073 -22.516827395569287 -0.6027873640140092 
v -10.266908596437268 -22.694474588016462 0.38055092962981873 
v -10.220139238361947 -22.845704674737004 1.3679557904262478 
v -10.166518228438218 -22.96949068175599 2.358827907103571 
v -10.107056394651478 -23.064799388247607 3.3525107889209194 
v -10.042768899644104 -23.130593946818497 4.348283168011904 
v -9.974676253581825 -23.16583732484576 5.345351349611938 
v -9.903805222270199 -23.169496628618518 6.342841556065297 
v -9.831189584446626 -23.140548372681803 7.3397923227720945 
v -9.757870689754682 -23.077984755973354 8.335147018045618 
v -9.684897766403843 -22.980821003697635 9.327746574166378 
v -9.61332792506495 -22.848103828981753 10.316322533640959 
v -9.54422580331683 -22.678921060757858 11.299490532627184 
v -9.478662793141838 -22.47241247354768 12.275744362404994 
v -9.41771579280117 -22.22778184041269 13.243450769277688 
v -9.36246542417278 -21.944310211816124 14.200845172873976 
v -9.313993657605211 -21.62137040010031 15.14602850183637 
v -9.273380788857583 -21.25844262136676 16.076965363514525 
v -9.24170171710623 -20.855131213525446 16.991483779555757 
v -9.220021479657182 -20.41118231108381 17.887276731052843 
v -9.209390008257088 -19.926502314021583 18.761905763868768 
v -9.21083608405941 -19.401176940264452 19.612806905472816 
v -9.225360483637738 -18.835490599578527 20.437299137564725 
v -9.253928327115739 -18.22994577229565 21.232595652374094 
v -9.297460661552655 -17.585282020712445 21.995818093294826 
v -9.356825338073326 -16.90249420630959 22.724013941098487 
v -9.43282726955293 -16.18284943459851 23.41417715430001 
v -9.526198186417876 -15.427902204341068 24.063272105684074 
v -9.63740292605289 -14.63976240029631 24.668628146298573 
v -9.765533832926733 -13.822035743366445 25.229783274764255 
v -9.908978701054371 -12.97871308198045 25.74768524268993 
v -10.066149167391576 -12.113433011611157 26.223691656464077 
v -10.235495199732817 -11.229474320108999 26.65950727835858 
v -10.415515683533204 -10.329757650956875 27.057126007581186 
v -10.604765489357842 -9.416854713983918 27.418778370716876 
v -10.801859442186078 -8.493003491280959 27.74688496832105 
v -11.00547362469391 -7.5601280498204435 28.044016012738005 
v -11.214315017622717 -6.619852978521042 28.3128489286299 
v -11.426712065001078 -5.673404174202018 28.556006748595177 
v -11.640169715675098 -4.721484567735757 28.77575343024943 
v -11.851813416400363 -3.764468473193848 28.974081318368235 
v -12.05848812412917 -2.80248890464427 29.15267407246464 
v -12.256805172855456 -1.8355164119931526 29.31284662628583 
v -12.443194041830763 -0.8634385766355828 29.455497484479547 
v -12.613952057987257 0.11385767488402927 29.58104549169764 
v -12.765309028714835 1.0963960536606463 29.689394113022644 
v -12.893509829789801 2.0840234101759254 29.779868231093957 
v -12.994941485750005 3.076323838178005 29.851119321173673 
v -13.066264910106213 4.072531772721552 29.901141790052083 
v -13.10438605028615 5.071461375745606 29.92756973989499 
v -13.10656133629114 6.071460618523513 29.927724696284525 
v -13.070613107637088 7.070386669391818 29.89859740404289 
v -12.995024383128616 8.065611527114648 29.83696409088352 
v -12.87900937491543 9.054055677109439 29.73951974033317 
v -12.722572774323064 10.032249398139509 29.603010471125657 
v -12.52644580161072 10.996399052376281 29.424363116682127 
v -12.292001337882127 11.942452081868423 29.200796925232087 
v -12.021349107284735 12.866224709293 28.929955792938664 
v -11.717397031387186 13.763568602143486 28.610029906242353 
v -11.383730229425979 14.630498085989643 28.239804653785395 
v -11.024461576503878 15.46328824572957 27.81866993939048 
v -10.644110061520879 16.2585692432339 27.346622345828983 
v -10.247484696345706 17.013411971109427 26.824252622628464 
v -9.839563021233435 17.725384305524276 26.252705332742707 
v -9.42537692885239 18.392596744140434 25.63363311246685 
v -9.009891047502348 19.013781780772376 24.969196486798904 
v -8.597765301154418 19.588558413149364 24.262257220191604 
v -8.19328072618515 20.11735516556153 23.516101216795107 
v -7.8004715742652975 20.601086082564233 22.733994265993374 
v -7.423183538224023 21.041028051756804 21.9190747717521 
v -7.065083661459999 21.43876653376119 21.074349770859893 
v -6.729673201115779 21.796146096190267 20.20269968139212 
v -6.420302039407284 22.115226287398766 19.306890738433754 
v -6.140183330508143 22.39824307242984 18.389594074833806 
v -5.8924071702926355 22.647575796766866 17.45341043242116 
v -5.6799521751109845 22.86571943904231 16.500899527925 
v -5.502785545287204 23.053428517422095 15.53478337830493 
v -5.359721839555338 23.210814374107727 14.55766115780055 
v -5.249466122528859 23.338092358693178 13.571937312470135 
v -5.170632697859573 23.435566595105044 12.579821585583636 
v -5.1217622470525095 23.50361556587978 11.58333149005265 
v -5.101337306170761 23.54267863854044 10.584296839532225 
v -5.107796059180237 23.553243619103696 9.584365972376391 
v -5.139544465027043 23.53583538342007 8.585013331025252 
v -5.194966766158227 23.491005608166745 7.58754809150175 
v -5.2724344497461075 23.419323599689843 6.59312357169699 
v -5.3703137501403875 23.3213682001918 5.602747181560448 
v -5.486971792894837 23.19772073653338 4.617290712043523 
v -5.6207814879497695 23.04895896666664 3.6375007918204783 
v -5.770125283022478 22.875651971907967 2.6640093708326784 
v -5.9333978887347945 22.678355939379955 1.6973441171868529 
v -6.109008085188118 22.45761077750006 0.7379386386772783 
v -6.295379716199932 22.213937507916388 -0.21385753787607384 
v -6.490951972777914 21.947836379372035 -1.1577692771435373 
v -6.694179062083969 21.65978565225618 -2.09358646686492 
v -6.903529352511244 21.350241006755194 -3.021154987758755 
v -7.117484079874399 21.019635532280883 -3.9403680274177186 
v -7.334535694348356 20.668380260996415 -4.851157734365026 
v -7.5531859228820375 20.29686521359227 -5.753487200892189 
v -7.77194361751467 19.905460930823395 -6.647342757476184 
v -7.989322456448793 19.494520469569732 -7.532726557304289 
v -8.203838561969645 19.06438184720943 -8.409649426557747 
v -8.414008097402206 18.615370922795236 -9.278123954483991 
v -8.61834490429875 18.14780470780681 -10.13815779680875 
v -8.815358240965372 17.661995103025216 -10.989747166616292 
v -9.003550684260661 17.158253061250228 -11.832870488395207 
v -9.181416258310781 16.636893178061424 -12.667482193469358 
v -9.347438856340073 16.098238714506426 -13.493506638490867 
v -9.50009102515145 15.542627056369783 -14.310832133067226 
v -9.637833185817657 14.970415614405274 -15.119305067945824 
v -9.759113368745707 14.38198816846021 -15.918724141519213 
v -9.862367546299836 13.77776165562394 -16.708834689783075 
v -9.946020651420524 13.158193398222142 -17.48932313332035 
v -10.008488375916711 12.523788761468744 -18.25981156443893 
v -10.048179847038794 11.875109222686831 -19.01985250828542 
v -10.06350128520106 11.212780824026028 -19.76892390360032 
v -10.052860748883734 10.537502968352374 -20.506424361745502 
v -10.01467407430096 9.850057503305445 -21.23166877665142 
v -9.94737211678663 9.151318021281382 -21.94388437326718 
v -9.849409397361438 8.442259283242928 -22.642207297742996 
v -9.719274250864068 7.723966651794264 -23.325679868628235 
v -9.5555005605581 6.997645394016447 -23.99324862441436 
v -9.356681147423398 6.264629687408517 -24.64376331824588 
v -9.121482859555648 5.526391133368223 -25.27597702487671 
v -8.848663377412777 4.784546552636728 -25.888547537120882 
v -8.537089713334359 4.040864806933956 -26.480040238136763 
v -8.185758338255024 3.297272361813366 -27.048932640740723 
v -7.793816814518406 2.5558572790529746 -27.593620784287836 
v -7.360586751206939 1.8188713044633473 -28.1124276721054 
v -6.885587827924139 1.088729700912388 -28.60361391660254 
v -6.368562555559631 0.3680084689671815 -29.06539073362937 
v -5.809501359968919 -0.34056139866685003 -29.49593539118698 
v -5.208667489211336 -1.034102965214573 -29.893409169229066 
v -4.566621160334489 -1.7096060030076559 -30.25597782649634 
v -3.8842422818254363 -2.363943502316933 -30.58183449710723 
v -3.162751017692282 -2.993892214367041 -30.86922485474933 
v -2.403725404247492 -3.5961573142448744 -31.116474287411485 
v -1.6091151969783148 -4.167401156050106 -31.322016723299345 
v -0.7812511184023412 -4.704275960293994 -31.48442464257422 
v 0.07715129587913874 -5.203460125333574 -31.6024397045728 
v 0.9629939919028039 -5.6616976952900995 -31.675003321851786 
v 1.8728054672711072 -6.0758403528623415 -31.70128642710148 
v 2.8027571042550754 -6.442891144640994 -31.680717613379468 
v 3.7486870670003 -6.760048998087651 -31.61300878881739 
v 4.706131840392202 -7.024752963083446 -31.498177479889424 
v 5.670365235753327 -7.234725016731942 -31.33656494720335 
v 6.636458254430489 -7.388126333723074 -31.12899673030869 
v 7.5994867105842525 -7.484150001827236 -30.87738448098586 
v 8.55468682049511 -7.5224782613626 -30.58399275903809 
v 9.497506583272944 -7.503181226270694 -30.251313300817866 
v 10.423648562701834 -7.426696848805226 -29.88202951404223 
v 11.32910574064147 -7.293805755683534 -29.478979937902942 
v 12.210190395962378 -7.105601986918445 -29.045121574597502 
v 13.063556345874183 -6.863460513733315 -28.5834937260344 
v 13.886213893752265 -6.569002627107253 -28.097183434947965 
v 14.675538265536666 -6.224060100872794 -27.58929297673216 
v 15.429271847842726 -5.830639030515473 -27.062909978396192 
v 16.145305982361126 -5.391092549792664 -26.52062802427696 
v 16.821538691045493 -4.9081542294659135 -25.964338674053437 
v 17.456185760437844 -4.384649349616023 -25.395879415020293 
v 18.047772543819526 -3.823464420727104 -24.817019322598885 
v 18.595122477406886 -3.227518715345638 -24.229446790645234 
v 19.097342862448176 -2.599738121269118 -23.63475933254456 
v 19.5538084634639 -1.9430315358975776 -23.03445540568643 
v 19.96414345527544 -1.2602699360338416 -22.429928171548955 
v 20.32820222097145 -0.5542681802274174 -21.82246107152791 
v 20.646049462690957 0.17223046681823168 -21.213225074670312 
v 20.917940040054926 0.9165671554200335 -20.603277437137898 
v 21.144298899996762 1.6761777318534758 -19.99356180382558 
v 21.325701409034707 2.4486006294047233 -19.384909479233077 
v 21.462854346713883 3.2314825463119803 -18.77804169649236 
v 21.55657776864176 4.022582104942945 -18.173572719428538 
v 21.60778790047281 4.819771696330692 -17.57201362174375 
v 21.617481181226495 5.621037717310815 -16.97377659899534 
v 21.58671953598451 6.424479405126192 -16.379179682211465 
v 21.516616924568137 7.228306467612597 -15.788451736074363 
v 21.408327184279507 8.030835696993059 -15.201737639036898 
v 21.263033161058416 8.830486742834571 -14.619103557063507 
v 21.081937104185663 9.625777205683574 -14.040542236545525 
v 20.86625228458998 10.415317198001334 -13.465978255070054 
v 20.617195785468326 11.197803503850832 -12.895273180938538 
v 20.335982405860804 11.97201345381245 -12.328230603524169 
v 20.023819612578958 12.73679861719233 -11.76460100667079 
v 19.681903473029376 13.491078400007082 -11.204086466361272 
v 19.31141550058638 14.233833624674887 -10.646345161846243 
v 18.913520344864406 14.964100155941514 -10.090995696376607 
v 18.489364261173847 15.680962627391647 -9.53762122969511 
v 18.040074296305182 16.38354831396836 -8.985773429593758 
v 17.566758131303047 17.07102118824034 -8.43497625422091 
v 17.070504525830575 17.742576191686094 -7.884729580511188 
v 16.552384312882932 18.397433746957997 -7.334512697196288 
v 16.013451896817262 19.034834532885167 -6.783787683414472 
v 15.45474721177913 19.6540345408053 -6.232002696041186 
v 14.877298101501555 20.254300428609476 -5.6785951905755185 
v 14.282123085028326 20.83490518756829 -5.122995101788582 
v 13.670234476080894 21.39512413650998 -4.564628011412006 
v 13.04264182647145 21.93423125817096 -4.002918330947047 
v 12.400355666097251 22.451495893467122 -3.437292528225751 
v 11.744391513572324 22.946179810972314 -2.8671824266609485 
v 11.07577413240706 23.417534670970547 -2.2920286061753616 
v 10.395542007781524 23.864799906001156 -1.7112839345827566 
v 9.704752018324642 24.287201042768633 -1.1244172576741456 
v 9.004484275860989 24.683948493562486 -0.5309172753947089 
v 8.295847103774301 25.05423684884035 0.06970336977520342 
v 7.579982121420333 25.39724470627156 0.6779037678696154 
v 6.858069397864583 25.712135075205833 1.2941101578583116 
v 6.131332633094599 25.998056399092146 1.9187110663416374 
v 5.401044318745127 26.25414424167517 2.552052153139481 
v 4.668530823276865 26.479523685664883 3.194430752987545 
v 3.935177338487427 26.673312494806947 3.846090108139659 
v 3.2024326152561193 26.834625091644988 4.507213293376231 
v 2.47181340661821 26.96257740349903 5.177916842856176 
v 1.7449085257600883 27.056292627993578 5.858244097533794 
v 1.023382415508437 27.114907966532964 6.548158302587519 
v 0.3089781146019294 27.13758236909344 7.247535496542212 
v -0.3964805051963182 27.12350532621695 7.956157247540902 
v -1.0910873678610233 27.07190673377837 8.673703307514186 
v -1.7728538342835367 26.982067842590983 9.399744271719138 
v -2.439709510703231 26.853333287875017 10.133734349104612 
v -3.089504385311855 26.68512417275161 10.875004367938251 
v -3.7200124570577118 26.476952155029508 11.622755160717805 
v -4.3289370199602235 26.2284344575267 12.376051492071037 
v -4.9139177608038915 25.93930968906806 13.133816712467254 
v -5.472539816984354 25.609454326369743 13.89482833831235 
v -6.002344923613644 25.238899666741926 14.657714774422697 
v -6.500844753910862 24.827849018669518 15.420953406876585 
v -6.965536523696866 24.376694852929358 16.182870301614035 
v -7.393920888977385 23.886035592368764 16.941641745607193 
v -7.783806867461384 23.35690760632353 17.69530300800098 
v -8.13575399459854 22.79216835994184 18.441760193458517 
v -8.451638707371526 22.19517576784492 19.179198127637765 
v -8.733592168238841 21.5690851984853 19.90618719180885 
v -8.98395154127149 20.916833604194817 20.62165227704491 
v -9.205217134540398 20.241131802613904 21.324839734657623 
v -9.400015534784666 19.544463724909264 22.01528354496464 
v -9.571068612999593 18.829091495626415 22.69277166422999 
v -9.721168095092143 18.097065300226387 23.357313267442226 
v -9.853170443916218 17.35021851852152 24.009082967746117 
v -9.970141439692252 16.5899434691795 24.64807305674186 
v -10.075445755637942 15.816892525582155 25.273622217369784 
v -10.172505949326975 15.031319346594916 25.884737620874983 
v -10.264711549318701 14.233179183249453 26.480121096569157 
v -10.355338453514518 13.422179816253726 27.058121070372977 
v -10.447457850251602 12.597834497190666 27.616682236556763 
v -10.543850559630467 11.759535929289626 28.153328111197013 
v -10.646896817399147 10.906626892916055 28.665142560469256 
v -10.758401667241051 10.038458425979513 29.1487500710164 
v -10.879494337127866 9.154495023654752 29.600378610570946 
v -11.010819961307751 8.25448369125556 30.016012048091838 
v -11.152499012859737 7.3385327158098725 30.391474297881427 
v -11.303944220385654 6.407157793719035 30.72254500164245 
v -11.463862317714689 5.461334223215132 31.00510042525327 
v -11.630291419063584 4.502526544003528 31.235260460392162 
v -11.800649188634793 3.5326908388375275 31.40953891197387 
v -11.971870854831165 2.5542534014301963 31.524917418530574 
v -12.140557692499067 1.5700808860523623 31.578886176772613 
v -12.303009636033922 0.5834279452337736 31.56964017945538 
v -12.455278617371278 -0.4021631886837979 31.49626637679198 
v -12.593309453320005 -1.3829786061520037 31.358748203120154 
v -12.713072126052365 -2.35523873847085 31.157916530126194 
v -12.810669757161287 -3.315203161589733 30.895405279969882 
v -12.882431664786864 -4.259271709490447 30.573603853822714 
v -12.924992756769836 -5.184074440358549 30.1955810031389 
v -12.93536867492735 -6.086557499352845 29.76500962169032 
v -12.91102062210674 -6.964057731057689 29.286075503858438 
v -12.849945094698477 -7.814382211828602 28.76339185897225 
v -12.750985408229758 -8.635974548753543 28.201985692873436 
v -12.613712110081568 -9.427947060715468 27.60707115685226 
v -12.437956399876933 -10.18993179394425 26.98378913797395 
v -12.223625988029827 -10.921983871150898 26.337138728733244 
v -11.970683662335908 -11.624525287714128 25.671967189275264 
v -11.679131019845169 -12.298290550737667 24.992969802966293 
v -11.348997612029452 -12.944275137149518 24.304697970547227 
v -10.980335644330838 -13.563687394694899 23.611573900391548 
v -10.573220295539263 -14.157904213730266 22.917910304536473 
v -10.12780921709842 -14.728382300119943 22.22785887597445 
v -9.64597459274793 -15.275022787176514 21.54300212301617 
v -9.130011619642168 -15.797241357500052 20.863972643023526 
v -8.582175334098464 -16.29459031745168 20.19126747330647 
v -8.004670086244328 -16.766745567815736 19.525255749842717 
v -7.39964117444201 -17.213493846536814 18.866186644121413 
v -6.769168463130922 -17.634720392823645 18.214197420170947 
v -6.11526180101155 -18.03039714922566 17.569321479333645 
v -5.4398580556046605 -18.40057158907868 16.93149628441302 
v -4.7448195839652 -18.745356231140036 16.30057107705368 
v -4.031933966624717 -19.064918881283536 15.676314322387416 
v -3.3029148417161496 -19.35947362267261 15.058420832985764 
v -2.5594036878682656 -19.62927256066075 14.446518539994395 
v -1.8029724171427783 -19.874598316510195 13.840174893058547 
v -1.0351266524479295 -20.095757254569268 13.238902882405858 
v -0.257309577035192 -20.293073420490007 12.64216668639442 
v 0.5290937434914196 -20.466883163086827 12.049386956141248 
v 1.3227516540253415 -20.617530409232785 11.459945755710455 
v 2.122380893664943 -20.745362559481617 10.873191181952517 
v 2.9267413358678205 -20.850726971633975 10.288441692629775 
v 3.7346305412887655 -20.933968000004256 9.704990175111426 
l 1 2
l 2 3
l 3 4
l 4 5
l 5 6
l 6 7
l 7 8
l 8 9
l 9 10
l 10 11
l 11 12
l 12 13
l 13 14
l 14 15
l 15 16
l 16 17
l 17 18
l 18 19
l 19 20
l 20 21
l 21 22
l 22 23
l 23 24
l 24 25
l 25 26
l 26 27
l 27 28
l 28 29
l 29 30
l 30 31
l 31 32
l 32 33
l 33 34
l 34 35
l 35 36
l 36 37
l 37 38
l 38 39
l 39 40
l 40 41
l 41 42
l 42 43
l 43 44
l 44 45
l 45 46
l 46 47
l 47 48
l 48 49
l 49 50
l 50 51
l 51 52
l 52 53
l 53 54
l 54 55
l 55 56
l 56 57
l 57 58
l 58 59
l 59 60
l 60 61
l 61 62
l 62 63
l 63 64
l 64 65
l 65 66
l 66 67
l 67 68
l 68 69
l 69 70
l 70 71
l 71 72
l 72 73
l 73 74
l 74 75
l 75 76
l 76 77
l 77 78
l 78 79
l 79 80
l 80 81
l 81 82
l 82 83
l 83 84
l 84 85
l 85 86
l 86 87
l 87 88
l 88 89
l 89 90
l 90 91
l 91 92
l 92 93
l 93 94
l 94 95
l 95 96
l 96 97
l 97 98
l 98 99
l 99 100
l 100 101
l 101 102
l 102 103
l 103 104
l 104 105
l 105 106
l 106 107
l 107 108
l 108 109
l 109 110
l 110 111
l 111 112
l 112 113
l 113 114
l 114 115
l 115 116
l 116 117
l 117 118
l 118 119
l 119 120
l 120 121
l 121 122
l 122 123
l 123 124
l 124 125
l 125 126
l 126 127
l 127 128
l 128 129
l 129 130
l 130 131
l 131 132
l 132 133
l 133 134
l 134 135
l 135 136
l 136 137
l 137 138
l 138 139
l 139 140
l 140 141
l 141 142
l 142 143
l 143 144
l 144 145
l 145 146
l 146 147
l 147 148
l 148 149
l 149 150
l 150 151
l 151 152
l 152 153
l 153 154
l 154 155
l 155 156
l 156 157
l 157 158
l 158 159
l 159 160
l 160 161
l 161 162
l 162 163
l 163 164
l 164 165
l 165 166
l 166 167
l 167 168
l 168 169
l 169 170
l 170 171
l 171 172
l 172 173
l 173 174
l 174 175
l 175 176
l 176 177
l 177 178
l 178 179
l 179 180
l 180 181
l 181 182
l 182 183
l 183 184
l 184 185
l 185 186
l 186 187
l 187 188
l 188 189
l 189 190
l 190 191
l 191 192
l 192 193
l 193 194
l 194 195
l 195 196
l 196 197
l 197 198
l 198 199
l 199 200
l 200 201
l 201 202
l 202 203
l 203 204
l 204 205
l 205 206
l 206 207
l 207 208
l 208 209
l 209 210
l 210 211
l 211 212
l 212 213
l 213 214
l 214 215
l 215 216
l 216 217
l 217 218
l 218 219
l 219 220
l 220 221
l 221 222
l 222 223
l 223 224
l 224 225
l 225 226
l 226 227
l 227 228
l 228 229
l 229 230
l 230 231
l 231 232
l 232 233
l 233 234
l 234 235
l 235 236
l 236 237
l 237 238
l 238 239
l 239 240
l 240 241
l 241 242
l 242 243
l 243 244
l 244 245
l 245 246
l 246 247
l 247 248
l 248 249
l 249 250
l 250 251
l 251 252
l 252 253
l 253 254
l 254 255
l 255 256
l 256 257
l 257 258
l 258 259
l 259 260
l 260 261
l 261 262
l 262 263
l 263 264
l 264 265
l 265 266
l 266 267
l 267 268
l 268 269
l 269 270
l 270 271
l 271 272
l 272 273
l 273 274
l 274 275
l 275 276
l 276 277
l 277 278
l 278 279
l 279 280
l 280 281
l 281 282
l 282 283
l 283 284
l 284 285
l 285 286
l 286 287
l 287 288
l 288 289
l 289 290
l 290 291
l 291 292
l 292 293
l 293 294
l 294 295
l 295 296
l 296 297
l 297 298
l 298 299
l 299 300
l 300 301
l 301 302
l 302 303
l 303 304
l 304 305
l 305 306
l 306 307
l 307 308
l 308 309
l 309 310
l 310 311
l 311 312
l 312 313
l 313 314
l 314 315
l 315 316
l 316 317
l 317 318
l 318 319
l 319 320
l 320 321
l 321 322
l 322 323
l 323 324
l 324 325
l 325 326
l 326 327
l 327 328
l 328 329
l 329 330
l 330 331
l 331 332
l 332 333
l 333 334
l 334 335
l 335 336
l 336 337
l 337 338
l 338 339
l 339 340
l 340 341
l 341 342
l 342 343
l 343 344
l 344 345
l 345 346
l 346 347
l 347 348
l 348 349
l 349 350
l 350 351
l 351 352
l 352 353
l 353 354
l 354 355
l 355 356
l 356 357
l 357 358
l 358 359
l 359 360
l 360 361
l 361 362
l 362 363
l 363 364
l 364 365
l 365 366
l 366 367
l 367 368
l 368 369
l 369 370
l 370 371
l 371 372
l 372 373
l 373 374
l 374 375
l 375 376
l 376 377
l 377 378
l 378 379
l 379 380
l 380 381
l 381 382
l 382 383
l 383 384
l 384 385
l 385 386
l 386 387
l 387 388
l 388 389
l 389 390
l 390 391
l 391 392
l 392 393
l 393 394
l 394 395
l 395 396
l 396 397
l 397 398
l 398 399
l 399 400
l 400 1
