v -2.6689051693570818 2.1752332692709335 3.4668720055599374 
v -3.345743627046599 2.4895839646313958 4.132553457507441 
v -4.03132379920738 2.7877328111185493 4.7967405428442325 
v -4.725860387000241 3.06826068901129 5.459295659547742 
v -5.429519978333933 3.3297079135788854 6.120025208286629 
v -6.142414259438118 3.570573897613115 6.778674583243779 
v -6.864592620596895 3.7893175185233265 7.434922928202655 
v -7.59603413583498 3.9843583092241164 8.088377679940223 
v -8.336638905736871 4.154078605291983 8.738568932453992 
v -9.086218764709978 4.296826794032347 9.384943669059629 
v -9.844487369318141 4.410921823680222 10.026859925105462 
v -10.611049703264296 4.4946591423084525 10.6635809620982 
v -11.38539105763055 4.546318245321247 11.294269554494141 
v -12.166865572490504 4.564172016665591 11.917982513266121 
v -12.954684458311668 4.546498050897081 12.533665595467177 
v -13.747904052855963 4.491592139581905 13.140148976073274 
v -14.545413911562463 4.397784094597472 13.736143486886766 
v -15.345925176394305 4.2634560609316905 14.320237856452605 
v -16.147959519238942 4.087063440672789 14.89089721371138 
v -16.949839010117042 3.8671585060810316 15.446463145072144 
v -17.749677316098524 3.6024167210658753 15.98515561794018 
v -18.545372691742127 3.291665715411567 16.50507710129132 
v -19.33460327317545 2.933916763487883 17.004219223072937 
v -20.11482523199153 2.5283985084167724 17.48047230212402 
v -20.88327437761101 2.0745925441701405 17.931638075797483 
v -21.63697181265589 1.5722703235519055 18.355445910311715 
v -22.37273423973765 1.0215307027535871 18.749572725975757 
v -23.087189484212864 0.4228372683107525 19.111666791186323 
v -23.776797730437902 -0.22294557297262482 19.439375435655094 
v -24.437878864111447 -0.914518916900131 19.730376604082235 
v -25.06664616703237 -1.6501194094152383 19.98241401749708 
v -25.659246421680674 -2.42749443353517 20.193335533864573 
v -26.211806252892263 -3.2438839062031253 20.361134107842528 
v -26.720484267427754 -4.096010150316918 20.483990549904753 
v -27.18152825824428 -4.980077228261323 20.56031708811665 
v -27.591336431711703 -5.891780960791401 20.588800554598738 
v -27.94652130974924 -6.826330603568447 20.568443867656068 
v -28.24397467501872 -7.778482813405864 20.498604374774725 
v -28.48093168804734 -8.742588114818796 20.379027575538863 
v -28.65503213292018 -9.712649590080277 20.20987476908312 
v -28.764376663622084 -10.682392985722398 19.991743276197614 
v -28.807575942739774 -11.645346885154034 19.72567807458518 
v -28.783790698225914 -12.594931075582654 19.413173953602445 
v -28.692760974257013 -13.524550774674937 19.056167631790593 
v -28.53482321154581 -14.427694014101602 18.657019669655458 
v -28.310914243950137 -15.298029234184371 18.218486428891413 
v -28.022561816401225 -16.129500048953183 17.74368275108915 
v -27.671861781952153 -16.916414205729676 17.236036425930546 
v -27.26144268719869 -17.653523987011603 16.699235864088593 
v -26.7944189690795 -18.336095671269987 16.137172660403877 
v -26.27433442878287 -18.959966158017853 15.553880911284894 
v -25.70509799301053 -19.52158543680771 14.95347522713043 
v -25.09091400058032 -20.01804419968803 14.340089354619352 
v -24.43620935462542 -20.44708652045844 13.717817201712709 
v -23.745559858950518 -20.807108112434218 13.090657853863108 
v -23.023617922170054 -21.09714119564802 12.462465902109338 
v -22.275043583287623 -21.316827428931926 11.836908094367962 
v -21.504440510677497 -21.46638067614689 11.217426993030271 
v -20.71629827878068 -21.546541572787557 10.607211996383525 
v -19.91494185897825 -21.558525942168533 10.00917777693547 
v -19.104488896634358 -21.50396908978694 9.425949920926827 
v -18.28881500503327 -21.384867896144073 8.859857330069637 
v -17.471527003977783 -21.2035224514925 8.31293077413377 
v -16.655943776220255 -20.962478751068147 7.786906862490729 
v -15.845084213831088 -20.664473716211486 7.283236631680604 
v -15.041661579937436 -20.31238354327327 6.803097919430659 
v -14.24808351636728 -19.909176123382025 6.347410706537139 
v -13.466456879439686 -19.457868033747754 5.916854648972955 
v -12.69859657765275 -18.961486383514348 5.511888085705871 
v -11.946037608744101 -18.423035609387238 5.132767885628149 
v -11.210049541837979 -17.845469160704912 4.779569583141794 
v -10.491652755869321 -17.231665890379283 4.452207340786064 
v -9.791635821682716 -16.584410875572587 4.150453364440123 
v -9.110573496616277 -15.906380327292437 3.8739564788065097 
v -8.44884488252995 -15.200130207742372 3.622259645832307 
v -7.806651377703134 -14.468088154407413 3.3948162751005544 
v -7.184034127351403 -13.71254830660547 3.191005232406619 
v -6.5808907450857665 -12.935668639917013 3.0101445006805476 
v -5.996991137554219 -12.139470433179806 2.8515034865078137 
v -5.431992316421139 -11.325839518690032 2.714313996407695 
v -4.885452125838663 -10.496528996429515 2.597779930597636 
v -4.356841850062418 -9.653163125581752 2.501085759141474 
v -3.8443628368173006 -8.798006818527575 2.4228516426620743 
v -3.3458413405902108 -7.933269014859128 2.361567192676965 
v -2.858995782501277 -7.060954297626847 2.315716782712302 
v -2.3814581718247596 -6.182891284736967 2.2837875110417936 
v -1.9107925890431323 -5.30076230267078 2.264274628737542 
v -1.4445110878524514 -4.4161336484491045 2.255684776790298 
v -0.9800875847455266 -3.5304861556186613 2.2565373923765346 
v -0.5149703189291909 -2.6452458723297716 2.265364621589119 
v -0.04659347353229901 -1.7618147263296646 2.2807100538761476 
v 0.42761144551596153 -0.8816010937070716 2.3011265742068265 
v 0.9102038719768337 -0.006050206187712404 2.3251736141336927 
v 1.4037214777113047 0.8633256738731421 2.3514140734521964 
v 1.9118956824846598 1.7241403985995236 2.3800155918083843 
v 2.438620109772938 2.573628363868905 2.4114874664235986 
v 2.987638703811641 3.4087454828474035 2.4463316567814544 
v 3.5624956209564815 4.22611568407361 2.485038605212531 
v 4.166475184329251 5.021982956005354 2.5280816940559676 
v 4.802205161659989 5.792424338178881 2.576173274565379 
v 5.468317472770535 6.536153421537314 2.632774186060026 
v 6.162881638490408 7.252304814950373 2.701661100263607 
v 6.88390881244916 7.940010638884793 2.7865951432332388 
v 7.629314862680053 8.598368655359018 2.8913122966616247 
v 8.39687788172972 9.226413306504202 3.019509972701092 
v 9.184196204755281 9.823094766940912 3.1748292985177975 
v 9.988643446323248 10.387262089825509 3.3608315956373924 
v 10.807322809055647 10.917652206632761 3.5809681552530197 
v 11.637023651807748 11.412886312900365 3.8385429786727787 
v 12.474175842093915 11.871470535381466 4.1366660404833135 
v 13.314811751636118 12.291806836850673 4.478198603414744 
v 14.154533991719799 12.672211828808619 4.8656896315908345 
v 14.988577624728347 13.010931419178055 5.301151366201391 
v 15.813343447789066 13.305904992095035 5.783578565820896 
v 16.62525720871693 13.555181517094567 6.311441085844272 
v 17.420672143369007 13.756988946470315 6.882902412882181 
v 18.195896742885047 13.909759663375592 7.495817492200328 
v 18.947225068533896 14.012155015977001 8.147734527904886 
v 19.670969237516736 14.063088396339706 8.835901034126687 
v 20.363493615436727 14.06174631344011 9.557274330847411 
v 21.02125017065789 14.007606917708813 10.30853657915086 
v 21.64081437649096 13.900455461192527 11.086114340249395 
v 22.21892099295969 13.740396223371171 11.886202524176712 
v 22.752499024318716 13.527860497531137 12.7047924718482 
v 23.238705134358305 13.26361031503413 13.537703793120393 
v 23.674954810799452 12.948737682486698 14.380619468689577 
v 24.058950603637268 12.58465921642717 15.229123620326998 
v 24.38870681981201 12.173106177629467 16.078741266918243 
v 24.66257013651207 11.716110027816834 16.924979317299893 
v 24.87923569497459 11.215983750499614 17.763368008299537 
v 25.037758352010517 10.67529928978815 18.58950197987522 
v 25.137558892946764 10.096861561651497 19.399080189707156 
v 25.178425141975016 9.48367957703052 20.187943906540742 
v 25.16050803849113 8.838935282125902 20.95211208320485 
v 25.08431287544603 8.165950765734244 21.68781349351276 
v 24.950686012954616 7.46815450549258 22.39151511817553 
v 24.760797483058596 6.7490473242665345 23.059946378672652 
v 24.51611998616094 6.012168705744715 23.690118939570777 
v 24.218404843858544 5.261064076634631 24.27934192380407 
v 23.869655515444574 4.499253604552479 24.825232506892934 
v 23.472099306103217 3.7302029892030153 25.325721970432998 
v 23.02815789468269 2.9572966435389407 25.779057398589114 
v 22.540417289702535 2.1838135751527425 26.183799290788745 
v 22.01159778642227 1.4129061899433533 26.538815437264958 
v 21.44452444835388 0.6475821535558983 26.843271460432273 
v 20.842098576793177 -0.109310635806293 27.09661846405805 
v 20.207270565094024 -0.8550959844342857 27.298578254378135 
v 19.54301446371821 -1.5872783372342985 27.449126603912635 
v 18.852304510502574 -2.3035488520287357 27.548475021482595 
v 18.138093810663506 -3.0017888023979418 27.59705147286922 
v 17.403295284933634 -3.680070531935351 27.59548046793881 
v 16.650764943550108 -4.336656206934512 27.54456289417284 
v 15.88328748976731 -4.969994629030014 27.44525593561904 
v 15.103564209878831 -5.578716375159512 27.29865337237835 
v 14.314203067732324 -6.161627530553506 27.105966510702295 
v 13.517710890388516 -6.717702272532223 26.868505949160998 
v 12.71648750761526 -7.246074549949483 26.58766434343359 
v 11.912821690807895 -7.746029086384148 26.264900292059636 
v 11.108888726026196 -8.21699191576832 25.90172342868664 
v 10.306749450380861 -8.658520638069758 25.49968077341947 
v 9.508350580189303 -9.070294560792544 25.06034436706739 
v 8.715526162349567 -9.452104870162302 24.585300187454855 
v 7.929999986479236 -9.803844954516466 24.076138326425244 
v 7.1533888038124775 -10.125500982088491 23.53444438952205 
v 6.387206208990752 -10.41714281639664 22.961792067295388 
v 5.632867052146165 -10.678915335053034 22.359736817416 
v 4.891692260567908 -10.911030202133427 21.72981058991607 
v 4.164913961348908 -11.113758130350705 21.073517523537337 
v 3.45368080839674 -11.287421657150878 20.39233053897799 
v 2.7590634287957547 -11.432388448445618 19.687688754432564 
v 2.082059914526732 -11.549065134920554 18.960995649879315 
v 1.4236012958419808 -11.637891678598555 18.21361790878318 
v 0.7845569420619608 -11.699336261461045 17.446884868976667 
v 0.16573984414806398 -11.733890683298783 16.662088518217452 
v -0.4320882589082936 -11.74206625243476 15.860483974093324 
v -1.0082119410555148 -11.72439015039638 15.043290392377878 
v -1.5619573627801855 -11.6814022498785 14.211692252487344 
v -2.0926877775403834 -11.613652364307175 13.366840973230955 
v -2.5997992869731363 -11.521697906870155 12.509856816486886 
v -3.082716857290702 -11.406101936918565 11.641831040697259 
v -3.540890606441793 -11.267431572069215 10.763828270099246 
v -3.97379236940306 -11.106256745063954 9.876889049350606 
v -4.38091254732524 -10.923149285396146 8.982032556633714 
v -4.761757245131052 -10.718682306828871 8.080259451409184 
v -5.115845701494174 -10.493429883146947 7.172554835722102 
v -5.442708014869284 -10.247966995755107 6.259891310330377 
v -5.741883169343876 -9.98286973801342 5.343232108918967 
v -6.012917364497977 -9.698715762449691 4.423534295281871 
v -6.255362654145042 -9.396084958172718 3.501752009593287 
v -6.468775899762006 -9.07556034687436 2.5788397506774574 
v -6.653812752020064 -8.736980478288539 1.6562488161621192 
v -6.8114732523494546 -8.379943264020485 0.7355332056524546 
v -6.942768311279 -8.004030127049557 -0.18180050327640082 
v -7.048715545037581 -7.608807958257857 -1.0942835693224329 
v -7.1303360587591715 -7.193831563725389 -2.0004755087699735 
v -7.188652107788042 -6.75864660380381 -2.8989546513775357 
v -7.224685556869753 -6.302793074901001 -3.7883088414140347 
v -7.239457071270549 -5.825809364227063 -4.667126354424493 
v -7.233985975166772 -5.32723691724445 -5.533987084606614 
v -7.209290716356098 -4.806625561057186 -6.387454058950176 
v -7.166389879566403 -4.263539529723192 -7.226065337972132 
v -7.106303691940266 -3.6975642287519883 -8.04832638367393 
v -7.030055970601047 -3.1083138222423417 -8.852702915869433 
v -6.938656225193274 -2.4954596960877686 -9.63762797300059 
v -6.831952130813167 -1.8598523093099217 -10.402264544173807 
v -6.709790566080604 -1.2023488704781091 -11.145781503426653 
v -6.572021422720216 -0.5238123972793259 -11.867348978134665 
v -6.418498250192336 0.17488574497845194 -12.566135913941137 
v -6.249079082107932 0.8928630732793755 -13.241307891745048 
v -6.063627450402049 1.6292229968884497 -13.892025210861174 
v -5.862013593810378 2.383051619032678 -14.517441254181687 
v -5.64411586767949 3.1534143422450174 -15.116701153117019 
v -5.409822362514397 3.9393522901242 -15.688940772243534 
v -5.159032738895097 4.739878559509515 -16.23328603590068 
v -4.8916602864410645 5.553974318813993 -16.748852621419946 
v -4.6076342143292655 6.380584770537579 -17.234746046184377 
v -4.3069021804331 7.218614998828671 -17.6900621782549 
v -3.989433065398126 8.066925726411089 -18.113888202792516 
v -3.6552199968522574 8.924329009274269 -18.505304078875966 
v -3.304283627406104 9.789583902261716 -18.863384523472266 
v -2.936675668072142 10.661392134103789 -19.187201561156176 
v -2.552482676155484 11.538393836531371 -19.47582767957219 
v -2.1518300934785803 12.419163378868877 -19.728339631448215 
v -1.7348865269319087 13.302205366910535 -19.94382292404488 
v -1.301868258729505 14.185950872882799 -20.121377036080386 
v -0.853043968334917 15.068753971807611 -20.260121400211403 
v -0.3887396417614962 15.948888668492193 -20.35920218586317 
v 0.09065636319319177 16.82454630852531 -20.417799912359197 
v 0.5846881352606997 17.693833575855592 -20.435137915667763 
v 1.0928269599733034 18.554771188509438 -20.410491683419586 
v 1.6144660600770788 19.40529341246118 -20.343199061927027 
v 2.148915394803193 20.243248521221858 -20.232671325535307 
v 2.6953965978775205 21.066400334925902 -20.07840508257747 
v 3.2530381457542212 21.872430977065147 -19.879994973353387 
v 3.8208708593555816 22.65894498898482 -19.63714709384237 
v 4.397823854266285 23.423474941203676 -19.349693054313214 
v 4.9827210654684455 24.16348867590038 -19.01760455475309 
v 5.5742784828396434 24.87639830585326 -18.6410083293738 
v 6.171102242219677 25.55957108107362 -18.22020128081161 
v 6.771687723263094 26.2103422147205 -17.755665591639612 
v 7.374419808856969 26.826029734100455 -17.2480835672892 
v 7.977574460882509 27.403951390246366 -16.698351931471155 
v 8.579321762808721 27.941443620530446 -16.107595263956057 
v 9.177730570325187 28.435882513039516 -15.477178242578042 
v 9.770774896313032 28.88470666936879 -14.808716328202202 
v 10.356342135399101 29.2854418047735 -14.104084514909356 
v 10.932243205789575 29.635726862353824 -13.36542375963149 
v 11.496224651914638 29.933341352663952 -12.595144707723083 
v 12.045982710798567 30.17623356379227 -11.795928345155236 
v 12.57917929849595 30.362549221931154 -10.970723235599076 
v 13.093459821273111 30.490660121480893 -10.122739042669433 
v 13.586472660725853 30.559192189823342 -9.255436094562198 
v 14.05589012436337 30.56705240821779 -8.37251082013173 
v 14.49943059537009 30.51345397996234 -7.477876971267226 
v 14.914881559600984 30.397939122977423 -6.575642644569746 
v 15.30012313690264 30.220398868844644 -5.6700832232916305 
v 15.653151700202477 29.981089275994375 -4.765610474947944 
v 15.972103132036278 29.680643512280497 -3.8667381568907033 
v 16.255275246633882 29.32007933171965 -2.97804459682743 
v 16.501148898310415 28.900801560705748 -2.1041328227910228 
v 16.708407305122996 28.424599318372593 -1.2495889123700696 
v 16.875953141270628 27.89363782066383 -0.4189393092507286 
v 17.002922992471596 27.31044475374487 0.3833920879968403 
v 17.088698824641675 26.677891344486124 1.153126227891968 
v 17.132916185878766 25.999168398123572 1.8861697568935751 
v 17.13546894252907 25.277757709884565 2.5786536005828493 
v 17.09651043881903 24.517399382493423 3.226968507837194 
v 17.016451062574003 23.722055689664028 3.827796867925885 
v 16.895952293044488 22.895872212381004 4.378140210661557 
v 16.735917396943158 22.043137036500074 4.875341918583187 
v 16.537479021795924 21.168238834791833 5.317104812442318 
v 16.301984008397206 20.27562466324759 5.701503411269255 
v 16.03097580391574 19.369758280905902 6.026990810061068 
v 15.726174902149285 18.455079756607095 6.292400255865321 
v 15.389457766517955 17.53596705803975 6.496941631427613 
v 15.022834704390538 16.616700232196216 6.64019317008871 
v 14.62842715881479 15.7014286864919 6.722088822693957 
v 14.208444866922193 14.794141971204038 6.742901774449165 
v 13.765163305011914 13.898644351420929 6.7032246655999606 
v 13.30090180080381 13.01853334495352 6.60394710430594 
v 12.81797366926281 12.157189862359127 6.446276759836648 
v 12.317221315184936 11.31798933419344 6.234178518284276 
v 11.799067824632356 10.503815858318589 5.972189284173948 
v 11.263741341910064 9.717046085132118 5.664907337293324 
v 10.711282396484913 8.959605182489732 5.3169434085295615 
v 10.141555302715524 8.233024421548492 4.932885020846336 
v 9.554261960400158 7.5384970887347045 4.517272088159825 
v 8.948962305114565 6.876936754923862 4.074585709944844 
v 8.325093881982902 6.249027561832145 3.609243700666591 
v 7.68199535595132 5.655272357962175 3.1256046235443313 
v 7.018932651993453 5.096036310271301 2.6279780932649115 
v 6.335127331983566 4.571585289966603 2.1206395883270317 
v 5.629787800015061 4.082119332983817 1.6078487789208447 
v 4.902390511165168 3.627596926005403 1.093706386590079 
v 4.155935179817759 3.2050870283735846 0.5795708728414254 
v 3.3937888337427258 2.810890728490555 0.06596472860044245 
v 2.6189631181812634 2.4411127777652943 -0.44683288899032864 
v 1.834158658792418 2.091713525953891 -0.9587474717746693 
v 1.0418138685160334 1.7585498083694555 -1.4698716359199155 
v 0.24415609030335064 1.4374583971527206 -1.980458766668369 
v -0.5567815794084933 1.1264517669103362 -2.492152966512735 
v -1.3590298524865478 0.8235323521334692 -3.006637956165071 
v -2.1606548716091876 0.526701008104356 -3.5256229637540337 
v -2.959729651123258 0.23396437604386972 -4.050828684161974 
v -3.7543055764371354 -0.05665840884126963 -4.583972897561724 
v -4.542384147466017 -0.3471292157104946 -5.126755295441692 
v -5.321889170009525 -0.6393841795178634 -5.6808410579100626 
v -6.090639640937967 -0.935326288337139 -6.247842727133965 
v -6.846323638674947 -1.2368168652416127 -6.829299930543495 
v -7.586473619520674 -1.5456655207081686 -7.426656527106292 
v -8.308443632258085 -1.863618162954567 -8.041234784818718 
v -9.009420126965164 -2.1923133017744676 -8.674188272482137 
v -9.687590370352076 -2.5321806974240966 -9.325810641382168 
v -10.34104310157835 -2.883590476015723 -9.99629164471045 
v -10.96775984021457 -3.246854309194354 -10.685709589009392 
v -11.565616375939033 -3.622217174478704 -11.394016889623057 
v -12.132386079234191 -4.0098484000663985 -12.121024669369758 
v -12.665745336163411 -4.409832026058164 -12.866386503566886 
v -13.16328142799965 -4.822156539588157 -13.629581461816612 
v -13.622503187617962 -5.246704071824982 -14.409896651855806 
v -14.040854766659432 -5.68323918038136 -15.206409533156643 
v -14.41573283769272 -6.131397381254037 -16.017970337242087 
v -14.74450753083957 -6.590673639604722 -16.84318500665974 
v -15.024547361342815 -7.06041107767451 -17.68039914331013 
v -15.253248340123992 -7.539790209586994 -18.52768353655805 
v -15.428067370572666 -8.027819064847677 -19.38282191850795 
v -15.54655991931176 -8.523324612455053 -20.24330166320861 
v -15.606421805176689 -9.024945942498798 -21.10630820257229 
v -15.605534779268808 -9.531129698085998 -21.968723967754382 
v -15.542015371759861 -10.040128273014377 -22.827132673297193 
v -15.414266262585157 -10.550001295048542 -23.67782973489421 
v -15.221029200486578 -11.058620896124623 -24.516839542883343 
v -14.961438258267961 -11.563681224802298 -25.339940196258613 
v -14.635071984814244 -12.062712579102252 -26.142696131710142 
v -14.242002812287067 -12.553100427179634 -26.92049885737697 
v -13.782841917801205 -13.032109438712574 -27.668615723761487 
v -13.25877764152195 -13.496912473547098 -28.382246341232992 
v -12.671605545548047 -13.944624271073533 -29.05658589635759 
v -12.023748275688607 -14.372339362177907 -29.68689424461162 
v -11.318263572301623 -14.777173496616308 -30.26856928613826 
v -10.558839071226963 -15.156307656085062 -30.79722278885552 
v -9.749772937854928 -15.507033522631241 -31.268756535946448 
v -8.895939873666816 -15.826799109428377 -31.679436468583344 
v -8.002742602954834 -16.11325315144982 -32.025962392571316 
v -7.076049557193517 -16.36428680977874 -32.30553083658476 
v -6.122120088530687 -16.578071273692046 -32.51588879882295 
v -5.147519121420903 -16.75308995241469 -32.65537639739442 
v -4.159023652033636 -16.888164130651873 -32.72295683613789 
v -3.1635238923485027 -16.98247120956307 -32.718232590311125 
v -2.167922101264021 -17.035554953025137 -32.6414472754709 
v -1.1790322308954042 -17.047327488759308 -32.49347325184781 
v -0.20348343749367076 -17.018063153492772 -32.27578559696621 
v 0.7523697288495796 -16.948384598589243 -31.990423613683294 
v 1.682528013216677 -16.839241866890884 -31.639941496371772 
v 2.5814170593229364 -16.691885395675886 -31.227350129312548 
v 3.4439445116098963 -16.507834082290664 -30.756052222603607 
v 4.265543779850773 -16.288839661414602 -30.22977309635459 
v 5.042204203043364 -16.036848685049083 -29.65248940781093 
v 5.770487881707326 -15.753963372437083 -29.028357991034053 
v 6.447533912414292 -15.442402515754287 -28.361646763996188 
v 7.0710511365283715 -15.104463500124947 -27.656669376568917 
v 7.639300796373332 -14.742486336499086 -26.91772494954228 
v 8.151070674151184 -14.358820426678971 -26.149043913413216 
v 8.605642376671526 -13.955794593973682 -25.354740617603618 
v 9.002753432458517 -13.535690731583479 -24.538773063608105 
v 9.342555800843312 -13.100721252650311 -23.704909832503084 
v 9.62557227086679 -12.65301037729281 -22.856704036881755 
v 9.852652067203202 -12.19457916679573 -21.997473933958723 
v 10.024926795993121 -11.72733411518187 -21.130289690977452 
v 10.14376766882907 -11.25305903356679 -20.257965693898193 
v 10.210744749294765 -10.773409911480993 -19.383057731280466 
v 10.227588782068604 -10.289912409256061 -18.50786436161188 
v 10.196155995865773 -9.80396162353903 -17.634431777742282 
v 10.118396122369033 -9.316823770701467 -16.764561510142542 
v 9.996323745813852 -8.829639447042325 -15.899820355335569 
v 9.831992992513262 -8.343428147153467 -15.041551971572943 
v 9.627475485607238 -7.859093749868914 -14.190889645958732 
v 9.38484142613778 -7.377430712504609 -13.348769801897907 
v 9.106143615092142 -6.899130746696402 -12.515945879950573 
v 8.793404199953677 -6.424789781559541 -11.693002286656988 
v 8.448603911107016 -5.954915051008286 -10.880368163100126 
v 8.07367354578429 -5.489932171111432 -10.078330776907704 
v 7.670487457902868 -5.030192099825265 -9.287048387550417 
v 7.240858819152244 -4.575977895076128 -8.50656247501891 
v 6.786536428317502 -4.127511207876487 -7.7368092563833075 
v 6.309202860624301 -3.6849584650000087 -6.977630443671548 
v 5.810473765658295 -3.248436710856654 -6.2287832203865365 
v 5.2918981401908205 -2.818019090803305 -5.48994943332892 
v 4.754959420284971 -2.393739968440609 -4.760744011743245 
v 4.201077254798241 -1.9755996777399636 -4.040722637701626 
v 3.6316098394310004 -1.563568917374733 -3.329388700600172 
v 3.0478567065130107 -1.1575927996463988 -2.6261995751532 
v 2.45106188059472 -0.7575945701329208 -1.9305722667688032 
v 1.8424173235179107 -0.3634790168561807 -1.241888471069232 
v 1.2230666049447876 0.02486441044128741 -0.5594990959252599 
v 0.5941087453329428 0.40755874923610413 0.11727170499824016 
v -0.04332324543729797 0.7828404958730569 0.7902543240061015 
v -0.6880979925474462 1.1485759112896845 1.4614957558188817 
v -1.3403907394826216 1.5034061046736313 2.131324744241847 
v -2.0005518215865066 1.846060215501465 2.7997825537703434 
l 1 2
l 2 3
l 3 4
l 4 5
l 5 6
l 6 7
l 7 8
l 8 9
l 9 10
l 10 11
l 11 12
l 12 13
l 13 14
l 14 15
l 15 16
l 16 17
l 17 18
l 18 19
l 19 20
l 20 21
l 21 22
l 22 23
l 23 24
l 24 25
l 25 26
l 26 27
l 27 28
l 28 29
l 29 30
l 30 31
l 31 32
l 32 33
l 33 34
l 34 35
l 35 36
l 36 37
l 37 38
l 38 39
l 39 40
l 40 41
l 41 42
l 42 43
l 43 44
l 44 45
l 45 46
l 46 47
l 47 48
l 48 49
l 49 50
l 50 51
l 51 52
l 52 53
l 53 54
l 54 55
l 55 56
l 56 57
l 57 58
l 58 59
l 59 60
l 60 61
l 61 62
l 62 63
l 63 64
l 64 65
l 65 66
l 66 67
l 67 68
l 68 69
l 69 70
l 70 71
l 71 72
l 72 73
l 73 74
l 74 75
l 75 76
l 76 77
l 77 78
l 78 79
l 79 80
l 80 81
l 81 82
l 82 83
l 83 84
l 84 85
l 85 86
l 86 87
l 87 88
l 88 89
l 89 90
l 90 91
l 91 92
l 92 93
l 93 94
l 94 95
l 95 96
l 96 97
l 97 98
l 98 99
l 99 100
l 100 101
l 101 102
l 102 103
l 103 104
l 104 105
l 105 106
l 106 107
l 107 108
l 108 109
l 109 110
l 110 111
l 111 112
l 112 113
l 113 114
l 114 115
l 115 116
l 116 117
l 117 118
l 118 119
l 119 120
l 120 121
l 121 122
l 122 123
l 123 124
l 124 125
l 125 126
l 126 127
l 127 128
l 128 129
l 129 130
l 130 131
l 131 132
l 132 133
l 133 134
l 134 135
l 135 136
l 136 137
l 137 138
l 138 139
l 139 140
l 140 141
l 141 142
l 142 143
l 143 144
l 144 145
l 145 146
l 146 147
l 147 148
l 148 149
l 149 150
l 150 151
l 151 152
l 152 153
l 153 154
l 154 155
l 155 156
l 156 157
l 157 158
l 158 159
l 159 160
l 160 161
l 161 162
l 162 163
l 163 164
l 164 165
l 165 166
l 166 167
l 167 168
l 168 169
l 169 170
l 170 171
l 171 172
l 172 173
l 173 174
l 174 175
l 175 176
l 176 177
l 177 178
l 178 179
l 179 180
l 180 181
l 181 182
l 182 183
l 183 184
l 184 185
l 185 186
l 186 187
l 187 188
l 188 189
l 189 190
l 190 191
l 191 192
l 192 193
l 193 194
l 194 195
l 195 196
l 196 197
l 197 198
l 198 199
l 199 200
l 200 201
l 201 202
l 202 203
l 203 204
l 204 205
l 205 206
l 206 207
l 207 208
l 208 209
l 209 210
l 210 211
l 211 212
l 212 213
l 213 214
l 214 215
l 215 216
l 216 217
l 217 218
l 218 219
l 219 220
l 220 221
l 221 222
l 222 223
l 223 224
l 224 225
l 225 226
l 226 227
l 227 228
l 228 229
l 229 230
l 230 231
l 231 232
l 232 233
l 233 234
l 234 235
l 235 236
l 236 237
l 237 238
l 238 239
l 239 240
l 240 241
l 241 242
l 242 243
l 243 244
l 244 245
l 245 246
l 246 247
l 247 248
l 248 249
l 249 250
l 250 251
l 251 252
l 252 253
l 253 254
l 254 255
l 255 256
l 256 257
l 257 258
l 258 259
l 259 260
l 260 261
l 261 262
l 262 263
l 263 264
l 264 265
l 265 266
l 266 267
l 267 268
l 268 269
l 269 270
l 270 271
l 271 272
l 272 273
l 273 274
l 274 275
l 275 276
l 276 277
l 277 278
l 278 279
l 279 280
l 280 281
l 281 282
l 282 283
l 283 284
l 284 285
l 285 286
l 286 287
l 287 288
l 288 289
l 289 290
l 290 291
l 291 292
l 292 293
l 293 294
l 294 295
l 295 296
l 296 297
l 297 298
l 298 299
l 299 300
l 300 301
l 301 302
l 302 303
l 303 304
l 304 305
l 305 306
l 306 307
l 307 308
l 308 309
l 309 310
l 310 311
l 311 312
l 312 313
l 313 314
l 314 315
l 315 316
l 316 317
l 317 318
l 318 319
l 319 320
l 320 321
l 321 322
l 322 323
l 323 324
l 324 325
l 325 326
l 326 327
l 327 328
l 328 329
l 329 330
l 330 331
l 331 332
l 332 333
l 333 334
l 334 335
l 335 336
l 336 337
l 337 338
l 338 339
l 339 340
l 340 341
l 341 342
l 342 343
l 343 344
l 344 345
l 345 346
l 346 347
l 347 348
l 348 349
l 349 350
l 350 351
l 351 352
l 352 353
l 353 354
l 354 355
l 355 356
l 356 357
l 357 358
l 358 359
l 359 360
l 360 361
l 361 362
l 362 363
l 363 364
l 364 365
l 365 366
l 366 367
l 367 368
l 368 369
l 369 370
l 370 371
l 371 372
l 372 373
l 373 374
l 374 375
l 375 376
l 376 377
l 377 378
l 378 379
l 379 380
l 380 381
l 381 382
l 382 383
l 383 384
l 384 385
l 385 386
l 386 387
l 387 388
l 388 389
l 389 390
l 390 391
l 391 392
l 392 393
l 393 394
l 394 395
l 395 396
l 396 397
l 397 398
l 398 399
l 399 400
l 400 1
