v -29.87177696601508 1.4060711171575426 -16.916317749728265 
v -29.024157538457338 -0.21054506416899332 -20.468098386543968 
v -27.27456959217678 -1.6001537185404633 -23.777228113976566 
v -24.65412173280356 -2.6918909248488223 -26.584338684628253 
v -21.3133048265864 -3.4650744787007155 -28.62805130353534 
v -17.49632570656528 -3.928692855896691 -29.70031073029628 
v -13.50919905245454 -4.119123672018908 -29.68149419942877 
v -9.67790392425984 -4.099816029517924 -28.56086401772243 
v -6.3017418392057785 -3.955431765990889 -26.43525523914032 
v -3.5950133995940967 -3.7619845300490597 -23.506528665644673 
v -1.6213040445315818 -3.539352187112488 -20.042331667262985 
v -0.3358958197046165 -3.2942886252258425 -16.268953609342176 
v 0.36807686573749987 -3.0291998046923228 -12.345949190452673 
v 0.6257717173564936 -2.7423519420137112 -8.369503540287033 
v 0.5801743780012859 -2.4284990100955732 -4.386423278433603 
v 0.37311791864287147 -2.079616214780815 -0.4108471047321148 
v 0.14381671829849454 -1.685681748166968 3.5597742390301077 
v 0.030021076810589815 -1.2446023694180373 7.530842530717808 
v 0.1714211370288851 -0.7578798670776028 11.49603683222147 
v 0.7101603578228844 -0.22961716626054662 15.421930466576919 
v 1.7848813319721994 0.3306514788969941 19.23176505544161 
v 3.5146895961375817 0.9046549533944293 22.79033899457241 
v 5.970042767254688 1.462410433413933 25.896193026087452 
v 9.132325115472446 1.9612740339112338 28.291596454766538 
v 12.852617116116477 2.346242016197332 29.705272538969062 
v 16.8376721512464 2.5376893114930965 29.970207449599492 
v 20.731211295492677 2.4651675725121494 29.06321778865223 
v 24.19059496781715 2.088203367592061 27.093853049144627 
v 26.945326193880113 1.3980944612385364 24.279075146545395 
v 28.831962115519065 0.4114511184235023 20.894561887984178 
v 29.807680590019945 -0.8183177796807376 17.21713549564717 
v 29.934520452678438 -2.183280176869947 13.461024080266329 
v 29.331853826555832 -3.5769276972783546 9.762162655756983 
v 28.13984640880625 -4.9157147570477795 6.18823981726395 
v 26.496808930798576 -6.135735462263018 2.7535789665348136 
v 24.50217717094201 -7.197836064350838 -0.5443979069058571 
v 22.20362092652049 -8.094409418594973 -3.689869716116436 
v 19.64258526508854 -8.818675108020141 -6.672355067202048 
v 16.854867431945404 -9.363559079477692 -9.484368927808056 
v 13.871531244424162 -9.720871217111913 -12.119560919088102 
v 10.720029100979707 -9.880725317077953 -14.57123540184367 
v 7.42547503419633 -9.831166378603085 -16.83116035523303 
v 4.01206335477308 -9.557996208587742 -18.888591473265393 
v 0.5046609525792927 -9.044819166362332 -20.729465224371573 
v -3.0693803805170905 -8.273366093795946 -22.335749103511645 
v -6.678143682592646 -7.224196983319189 -23.684981192351422 
v -10.28277250780031 -5.877931019292147 -24.75008821913213 
v -13.862764007098463 -4.262023642166846 -25.463882598055868 
v -17.413625284696405 -2.454159578040901 -25.70453434237819 
v -20.902181673240186 -0.5466826155303975 -25.350088318892595 
v -24.25389959431851 1.3446561889226503 -24.29010715639031 
v -27.343381410227575 3.0762578456947747 -22.448010556939664 
v -29.97725224653912 4.512654022700547 -19.813766357697652 
v -31.918451544999932 5.571983592864721 -16.489109142383942 
v -32.955758839071294 6.229868097969708 -12.689161012603435 
v -32.95195771146885 6.500481480739286 -8.704154762915117 
v -31.868365135902724 6.433581216340566 -4.856416444748226 
v -29.77624390451167 6.1128229364823 -1.4643428445051612 
v -26.843258414225346 5.647162865865684 1.2127955365957783 
v -23.31655407556835 5.136653687934916 3.0260663613182053 
v -19.471049691584668 4.618562912118417 3.987186300375444 
v -15.5134202581288 4.107773412715421 4.201325460181102 
v -11.56589440241017 3.6070898218384824 3.8148734250984075 
v -7.685821862614132 3.1107186693894033 2.98362075611113 
v -3.8810820629192033 2.606436847234212 1.85779454384139 
v -0.12845559386664804 2.0777185040093067 0.5777360886588132 
v 3.6105677164680396 1.5054027539172308 -0.7233006135610207 
v 7.3772582601189844 0.8784171364338312 -1.913889733646589 
v 11.202100460890632 0.18959539555529048 -2.8574962196585276 
v 15.090010108407682 -0.5644002069723931 -3.4080587586046893 
v 19.003343806323034 -1.3790667295833556 -3.411465220810641 
v 22.843537632220475 -2.2370116049270585 -2.7170728532606434 
v 26.436593777669067 -3.1028131722704324 -1.2036921163662946 
v 29.532853437250992 -3.920122244609323 1.1790889290640323 
v 31.838078573867207 -4.611409490421482 4.360637721041895 
v 33.12266080819201 -5.071142311871528 8.107093835788206 
v 33.27786450772915 -5.2061474804896 12.087349949908136 
v 32.32248835828031 -4.960104961434178 15.948082869953094 
v 30.39324296268839 -4.317508926289379 19.375207523028834 
v 27.70827656921103 -3.297152344724227 22.139069989432997 
v 24.516235716847667 -1.961562996731296 24.121705768489175 
v 21.030991978281527 -0.431126628601049 25.318488042340544 
v 17.407520346016916 1.1743718949848283 25.800594679251798 
v 13.74293820192503 2.759421314419095 25.678957928052043 
v 10.084125977364554 4.2504808078962055 25.078605525767376 
v 6.452338950719344 5.601394718818301 24.095209998550548 
v 2.874983030013697 6.800093667081004 22.77006658412507 
v -0.6270643693792843 7.836369883837001 21.139747456725267 
v -4.037346006371807 8.7002707952866 19.236286100372165 
v -7.341846806045071 9.381122541460812 17.087483711383197 
v -10.5272995125695 9.866800188518644 14.717547867854138 
v -13.57970140572701 10.14321363330979 12.14798841190731 
v -16.482928950840137 10.19400748474233 9.3987998594351 
v -19.217627198748367 10.000514237690034 6.4897440380876885 
v -21.76029144520423 9.541932488901535 3.4417174325277364 
v -24.084502983869935 8.79489704559981 0.2752641127240386 
v -26.15321380685299 7.7361586919089875 -2.9784192680914545 
v -27.893952833919677 6.388752228317107 -6.3162728511971995 
v -29.18260515619638 4.824268666288015 -9.762815286907662 
v -29.886205489020227 3.1279472949559297 -13.312567836169556 
l 1 2
l 2 3
l 3 4
l 4 5
l 5 6
l 6 7
l 7 8
l 8 9
l 9 10
l 10 11
l 11 12
l 12 13
l 13 14
l 14 15
l 15 16
l 16 17
l 17 18
l 18 19
l 19 20
l 20 21
l 21 22
l 22 23
l 23 24
l 24 25
l 25 26
l 26 27
l 27 28
l 28 29
l 29 30
l 30 31
l 31 32
l 32 33
l 33 34
l 34 35
l 35 36
l 36 37
l 37 38
l 38 39
l 39 40
l 40 41
l 41 42
l 42 43
l 43 44
l 44 45
l 45 46
l 46 47
l 47 48
l 48 49
l 49 50
l 50 51
l 51 52
l 52 53
l 53 54
l 54 55
l 55 56
l 56 57
l 57 58
l 58 59
l 59 60
l 60 61
l 61 62
l 62 63
l 63 64
l 64 65
l 65 66
l 66 67
l 67 68
l 68 69
l 69 70
l 70 71
l 71 72
l 72 73
l 73 74
l 74 75
l 75 76
l 76 77
l 77 78
l 78 79
l 79 80
l 80 81
l 81 82
l 82 83
l 83 84
l 84 85
l 85 86
l 86 87
l 87 88
l 88 89
l 89 90
l 90 91
l 91 92
l 92 93
l 93 94
l 94 95
l 95 96
l 96 97
l 97 98
l 98 99
l 99 100
l 100 1
