v 19.015967437696407 32.41926627733216 -39.5631533185112 
v 17.343359757579428 32.6767806908039 -40.178125074479425 
v 15.572834616709377 32.676831993476995 -40.45110159001002 
v 13.784685780853298 32.50293953051269 -40.32707489523588 
v 12.083771943404784 32.272334693237894 -39.84261973870247 
v 10.5053144275929 32.084677752402655 -38.98808883275389 
v 9.101318387812539 32.019137701814984 -37.90813248662158 
v 7.86575753061404 32.18319367711029 -36.58903212812617 
v 6.796531771962859 32.52864468289158 -35.24020127721185 
v 5.858184137463466 33.216005992442824 -33.822124132730124 
v 5.027158830335947 33.998626043352566 -32.524092955981835 
v 4.192870942003944 35.15708969894047 -31.32121633179742 
v 3.4673683040354537 36.2451178774846 -30.253442005011795 
v 2.741526219829095 37.329827702580396 -29.199841628821723 
v 1.9021650883736405 38.495330398829275 -27.989657237401577 
v 0.868693687201984 39.189085996011386 -26.787191588360287 
v -0.30344081915603627 39.696888665007265 -25.46678456956148 
v -1.4546828780949914 39.710531957390394 -24.12754890827107 
v -2.5615511944818588 39.38378650863557 -22.72914282940255 
v -3.4371645619597837 38.65432675194704 -21.35589961779822 
v -4.078222844444764 37.66609515298494 -19.99982659120711 
v -4.394755634363047 36.49230424897739 -18.6850724560061 
v -4.4582564792920385 35.26736521170598 -17.39141150960545 
v -4.274305311658215 34.070297061509 -16.068345703035668 
v -3.9707399528027514 32.977817226331396 -14.704451231090534 
v -3.6159350237371966 32.05164202201241 -13.200206051745853 
v -3.326641960142323 31.298502096157517 -11.629319171849515 
v -3.2658690188448 30.793610027038234 -9.877370691383204 
v -3.4063410550048405 30.454859969969014 -8.171404595307555 
v -4.154022863700838 30.399615928365947 -6.437701216873062 
v -4.797937561229633 30.390714861566636 -4.900415613025898 
v -5.45224564835112 30.38245168909657 -3.340104005806016 
v -6.189632580112807 30.32797053925076 -1.6303090036710004 
v -7.693449611276867 30.024541706248513 -0.575044514703469 
v -9.075343464913487 29.78361572547881 0.3724044586479567 
v -10.424771736745093 29.550017047631 1.2964503282552455 
v -11.962540087840052 29.239731843560723 2.3755237703453744 
v -13.454845675210771 28.462895633885736 2.8457861191639933 
v -14.93319668126582 27.39735911716941 3.056693259786612 
v -16.09143175416065 26.05946469088684 2.9216066091929274 
v -16.969918888019755 24.513035772054966 2.574452938559687 
v -17.40953597188675 22.857814433588555 2.0647161455647827 
v -17.439194403093968 21.15263504856222 1.4812088422202911 
v -17.02936086260217 19.50264932869591 0.9175167537803244 
v -16.234323124153825 17.95967414198283 0.44939583421442186 
v -15.107393131228687 16.59644639243515 0.15856856319098867 
v -13.731260901101173 15.444615178427068 0.09966789580651308 
v -12.200811980565623 14.537242580232812 0.321878425569604 
v -10.6165808659215 13.879678618632715 0.8504888308923239 
v -9.088472398470115 13.468771814343873 1.6953309794544538 
v -7.721895705326781 13.282852048686749 2.845192787365337 
v -6.621790052841166 13.287485969589902 4.263708382293579 
v -5.879794415102381 13.435757077959622 5.894362822353305 
v -5.565663002646967 13.667948432015605 7.647893948251232 
v -5.724198402347441 13.919231342504116 9.423695400321247 
v -6.343325660867225 14.121318060294008 11.097684623363069 
v -7.393122770655642 14.21079088515328 12.56135065955057 
v -8.75603369754504 14.144894895939213 13.7220778733 
v -10.356996786787386 13.877624802030518 14.516711705019619 
v -12.02051732696351 13.425200980750178 14.959031772500957 
v -13.69772957855034 12.734601692114886 15.027660891886924 
v -15.238956769850946 11.89973778442014 14.859503167315472 
v -16.628056415298715 10.78814044453874 14.418387672990217 
v -17.80038521778932 9.611981700970373 13.920713732570636 
v -18.634469077181343 8.032909431484867 13.3376124337195 
v -19.37273997661027 6.634141844413766 12.780311953937712 
v -20.109647212942836 5.2436637326282325 12.228193799828086 
v -20.947942673337206 3.6566004212073024 11.64214770460006 
v -21.332165174161226 1.9527175330481719 11.556354929725842 
v -21.530983041339642 0.14505682793255842 11.713328419751887 
v -21.363192489032183 -1.5387267598285725 12.301994201533358 
v -20.980267238292143 -3.0781951031272277 13.1247211922164 
v -20.25603724677825 -4.307029550825442 14.266577479106788 
v -19.412029008051153 -5.272275000527207 15.448755127645109 
v -18.172775954498864 -5.775980330185167 16.773263380731226 
v -17.081780989000283 -6.182448341463882 17.975161048519915 
v -15.994013241840756 -6.586861603907968 19.177984722927516 
v -14.753405273144239 -7.091110520937666 20.503931918698335 
v -13.29223012990549 -7.552821950668543 21.31039530391851 
v -11.636643589632767 -8.087846179012113 21.90795660565791 
v -9.996028903291215 -8.742233055237849 21.988057324721797 
v -8.402787854878397 -9.563152843810569 21.657063291288935 
v -7.138697158026518 -10.552435557866739 20.857177331196976 
v -6.294592076844735 -11.678048007522774 19.710947883570732 
v -6.022468627624561 -12.859465973723164 18.3782754729362 
v -6.307360926649788 -14.036681416224845 17.03784165072343 
v -7.087549803361696 -15.155660889945356 15.867125073869866 
v -8.239437259807113 -16.213777909914242 14.97872445438673 
v -9.617841953166618 -17.229419452718528 14.449158145074689 
v -11.090848584296287 -18.24989998506928 14.316187656263708 
v -12.508974135522331 -19.31178951894333 14.58078655187281 
v -13.735177407083777 -20.45515088883661 15.24410922868234 
v -14.629253601030252 -21.66032084655435 16.222996921182574 
v -15.045566826756056 -22.917831615364285 17.466105795811206 
v -14.97344885402805 -24.122633865456372 18.77616475675849 
v -14.276969652411635 -25.236008685335655 20.06708646918096 
v -13.26273908522229 -26.156928886315168 21.14658582388128 
v -11.635416110047109 -26.822722377923515 21.875031414616593 
v -10.199728507108338 -27.36802006937858 22.486948057279236 
v -8.733117900720254 -27.92852015993174 23.113069223165393 
v -7.138621250955693 -28.580877345048492 23.826810545347335 
v -5.521167718309401 -29.148404215991647 24.109373658450075 
v -3.8156262296741152 -29.76344269059452 24.303470205619984 
v -2.2095635429720057 -30.467780419096087 24.342702375080233 
v -0.5971387399379465 -31.288855719794853 24.329766110952363 
v 0.8702748416976811 -32.270762306897375 24.267837190301698 
v 2.2606128129904635 -33.41234652449501 24.181474579427935 
v 3.4629763258669075 -34.71369429006252 24.067741484473146 
v 4.518063563309009 -36.158159742046934 23.91752735611697 
v 5.368832025979626 -37.70652630042418 23.70112399655034 
v 6.05218270499073 -39.332458665393425 23.388300966862342 
v 6.562609465795137 -40.97741871124175 22.9288689609743 
v 6.942040656650002 -42.60327266301168 22.28274944311717 
v 7.218957355777562 -44.13345957111914 21.40367304421861 
v 7.440783568978899 -45.503706673745945 20.26984276218764 
v 7.65400070861747 -46.61844425842471 18.883603852643766 
v 7.9090871835025 -47.40116734856872 17.287744379706254 
v 8.253864644228402 -47.78317256940725 15.567456382523655 
v 8.728520640111114 -47.7436562552663 13.834723110276926 
v 9.362948360193641 -47.307162589609945 12.212462829913598 
v 10.175373308020335 -46.548207287864855 10.80320878571217 
v 11.174069155980924 -45.574131755664915 9.676805339170073 
v 12.359942623669006 -44.50732849812558 8.860032494524676 
v 13.72502534638458 -43.4706644542568 8.341998468543245 
v 15.253019205148748 -42.57427647767909 8.080657561152846 
v 16.912572872184054 -41.90770707603532 8.00980020993642 
v 18.66283008488305 -41.53199603176336 8.048291918908683 
v 20.449885749433484 -41.47003101032412 8.105959016719927 
v 22.223812116638676 -41.71102655993904 8.093549585424112 
v 23.935183132162074 -42.202036458672744 7.93271042555339 
v 25.55194050846041 -42.87263149656602 7.555153454934458 
v 27.045996245845256 -43.623460542121045 6.9253538419709555 
v 28.40306891879219 -44.35797962056657 6.0119087259204305 
v 29.60712965111001 -44.975017161263224 4.845872056274324 
v 30.64933680722846 -45.382444680762895 3.4382746932197477 
v 31.52494233628483 -45.53490264930608 1.8937165328168426 
v 32.232347124190646 -45.364425304169224 0.2417585813284786 
v 32.79279137391949 -44.9353809884687 -1.3824694958830084 
v 33.212331974521035 -44.17624180886463 -2.977454493769532 
v 33.53843635154972 -43.26859475509073 -4.440918002562513 
v 33.777764496575195 -42.071193806665285 -5.807158864881105 
v 33.976117642470605 -40.86094719670027 -7.025344398108796 
v 34.134811032819385 -39.36940474943418 -8.125507078341522 
v 34.27937326746903 -38.010679966676356 -9.127703080623021 
v 34.364261911828905 -37.21282068609652 -9.71620445549658 
v 34.44914840539064 -36.41498107188747 -10.304691353937306 
v 34.534042767172416 -35.617068499155835 -10.893232039807891 
v 34.61892350427787 -34.81928268793022 -11.481679215226006 
v 34.70382660606111 -34.02128831437102 -12.070280274351335 
v 34.78867867704916 -33.22377086762939 -12.658529470277431 
v 34.87358166240691 -32.42578048657567 -13.247127667703895 
v 34.95841443157813 -31.62844284825595 -13.835244197332583 
v 35.043326852050626 -30.830363167476524 -14.423908231965727 
v 35.12816958147562 -30.03293141333146 -15.012094195225362 
v 35.21306762465073 -29.23498575210028 -15.600659337267018 
v 35.29791725741605 -28.43749266188474 -16.188890613103432 
v 35.449440527732875 -27.01334299503194 -17.239344183941185 
v 35.60095202627928 -25.58929958471341 -18.289719118300052 
v 35.88659285096863 -24.99082107218948 -19.03365264031569 
v 36.02947059915952 -23.647929294744557 -20.024170393385628 
v 36.189901159940845 -22.14005638442403 -21.13637793713721 
v 35.97265156693716 -20.59603912522932 -21.88584318163953 
v 35.576561826276944 -18.915920457995597 -22.516833576545697 
v 34.94736272277134 -17.300167822009012 -22.795690806266176 
v 34.140450613006394 -15.668644023290517 -22.819614299550732 
v 33.22755840295174 -14.186583618375098 -22.533661494638327 
v 32.21123589782744 -12.796028690898497 -21.95835561565409 
v 31.199368173627605 -11.580156599194812 -21.192619569633113 
v 30.149633267018928 -10.47692530582779 -20.195933154611243 
v 29.150100363927002 -9.495419832385226 -19.15732167248038 
v 28.10026747069488 -8.54274068512195 -18.000266302209354 
v 27.0928401704873 -7.642629074184464 -16.92119201912737 
v 25.895166607926065 -6.5834847348679615 -15.974592064553748 
v 24.770088771757386 -5.6001112625892 -15.16994803890192 
v 24.47394745926597 -5.159804514075965 -14.329411466801671 
v 23.376733377055693 -4.1894999649100155 -13.462211233455346 
v 22.14844960573853 -3.115919453357047 -12.583755572081111 
v 20.638751789146742 -2.0431168267469744 -12.62369797899059 
v 19.262924286986948 -1.0427518067924966 -12.674876325357753 
v 17.88376630004947 -0.03663803753500044 -12.730837316856599 
v 16.379257409419196 1.0324645829841292 -12.770668993047106 
v 14.740827619590236 1.5059645083888875 -13.476510007457163 
v 13.246527304090232 1.9467503935793924 -14.178467447243953 
v 11.83698919328519 2.3648164045490723 -14.850068666992849 
v 10.113627870745333 2.8628538809984123 -15.592499134416721 
v 8.523772440713286 2.968392583373656 -16.03183798403944 
v 6.595616483402201 2.7288360293539227 -16.174822857266175 
v 5.013548261080417 2.3917449781913467 -16.033851746039915 
v 4.089318977012986 2.129194673679264 -15.748747564542114 
v 3.0937758520319276 2.005507116234403 -15.82257334898037 
v 1.4622976183989578 1.6578882522969007 -15.677199463274343 
v -0.29036509576695063 1.160000836987013 -15.13654190578135 
v -1.2342522006477934 0.6108533701824508 -13.579181666024548 
v -1.7433675925050383 0.18958324562018836 -12.040743769578901 
v -1.810730145781506 0.016885246467278972 -11.010334645913986 
v -2.3291517605674117 -0.2847291825217336 -10.154968141075317 
v -2.8022312142493915 -0.6761812672346371 -8.725422638565792 
v -2.9332300389804025 -1.012024306225132 -6.721602109918671 
v -3.031300493818376 -1.2634509900938495 -5.221452234892535 
v -2.4200459295677565 -1.4409210256375518 -4.457729799859967 
v -2.5343169356767548 -1.7338790601607574 -2.7097838786876705 
v -2.648571803067729 -2.026798082578113 -0.9620678517870015 
v -2.7118353721896242 -2.1889886393798803 0.005650270430403874 
v -2.7750842226338537 -2.3511410231722003 0.9731401590173294 
v -2.8383180091640314 -2.5132554915526817 1.94040427226359 
v -2.901537271936344 -2.67533248538633 2.9074448585789305 
v -2.964742255328116 -2.8373724631743555 3.8742642916660066 
v -3.027932749648918 -2.999375763584869 4.840865124592313 
v -3.091109146928111 -3.1613428472644776 5.807249988707507 
v -3.154271778140982 -3.323274232561761 6.773421706575348 
v -3.217420509763668 -3.485170415040107 7.739383443784114 
v -3.2805557433287533 -3.6470319698463936 8.705138689491688 
v -3.343677920313082 -3.808859570721024 9.670691366940455 
v -3.406786966672147 -3.97065397610308 10.636045879334027 
v -3.4698833336347255 -4.13241591905627 11.601206797523709 
v -3.5329675684483925 -4.294146091214145 12.56617835677112 
v -3.5960394238086346 -4.455845126842617 13.530963857908068 
v -3.700962797360275 -4.724840170513331 15.135936576442415 
v -3.824857628815998 -5.042470362043973 17.031094889646536 
v -4.536423449884949 -5.08578655870502 18.588373893872845 
v -5.711377473289886 -4.989821365486097 20.05432926653835 
v -7.030131815164524 -4.837853159142377 21.121398034574714 
v -8.797751132542231 -4.662904827160943 21.822905063460233 
v -10.357714370884842 -4.561219405138117 22.344199113205196 
v -11.290564579830892 -4.559248810024901 22.67751347616806 
v -12.207424979134293 -4.468503475215241 23.041383623375353 
v -13.738829042000646 -4.368679689493846 23.553134022576184 
v -15.566795771089158 -4.364818290660086 24.20628036453458 
v -16.998935757205945 -4.596724440854761 24.9871983432938 
v -18.435621500071115 -5.1102206490138125 26.193433224021508 
v -19.49865776784525 -5.593199396721688 27.313491384090675 
v -20.08821292182024 -5.885685233331134 28.057629600517252 
v -20.8220075300071 -6.147956088871132 28.673720274913084 
v -21.924551361493094 -6.648884690884088 29.8354052943155 
v -23.040287910268606 -7.202415790149165 31.24369122106101 
v -23.77820183100939 -7.495512670237308 32.773570732369805 
v -24.490170029339293 -7.674720956740735 34.46101347769456 
v -25.132861661206995 -7.573280817214197 36.07515993251101 
v -25.843041763091186 -7.2249777114793 37.72773465863011 
v -26.600909964492264 -6.629944517200925 39.184324955893736 
v -27.520724259104618 -5.690909985823537 40.4776198585329 
v -28.458864994241825 -4.631254178365605 41.47281930425788 
v -29.5865041094699 -3.187956083253134 41.9734942755487 
v -30.57659790956625 -1.8774660681324442 42.23039875100886 
v -31.158716055289776 -1.077102990047373 42.29008590209693 
v -31.747441694826048 -0.3235759462049271 42.55148173443745 
v -32.73208504719902 0.9796998693703723 42.80697191873321 
v -33.85161878218648 2.5189638247317285 42.9217626825714 
v -34.75084796707292 3.9244810429640706 42.67477149069977 
v -35.66918304752868 5.499673625224879 42.204618304292744 
v -36.40442652102753 6.908605201721036 41.64462689165618 
v -37.04263973527531 8.478873409190054 40.78802082500185 
v -37.59940906573068 9.848756875504874 40.04072741561465 
v -37.934142476706086 10.672340199242663 39.5914493619968 
v -38.2689145011619 11.49601780730395 39.142120195372975 
v -38.60372436433187 12.319788908380112 38.69273985569247 
v -38.93857315958545 13.143656145035363 38.24330691709898 
v -39.273461460066315 13.967619861172412 37.79382166748937 
v -39.8570547868437 15.403501408274776 37.01052528772803 
v -40.46757882554243 16.905644541711528 36.19108175922245 
v -40.6526625627499 18.25151411362569 34.98436895465108 
v -40.78126066783288 19.50553945571593 33.78926920554424 
v -40.827437546583525 20.201804792558594 33.077592304504584 
v -40.92896757554387 20.94009862796544 32.415634684302724 
v -41.05727198934089 22.19126014898497 31.223264172090364 
v -41.14165296508903 23.463575401282323 29.9227866909774 
v -40.82752617996506 24.307892551547898 28.34039749677019 
v -40.52861071605004 25.11132447117005 26.83463339888405 
v -40.35665258597185 25.57351748020014 25.968407390609446 
v -40.184691116006654 26.035719214471623 25.102165167764507 
v -40.01272636273484 26.49793006919885 24.235905699248214 
v -39.84075832137448 26.960149736114104 23.369629725387846 
v -39.66878683666325 27.422378326494297 22.503337141286337 
v -39.496812126364 27.88461593863112 21.637027530721678 
v -39.21159959527589 28.651216775987706 20.200290982029546 
v -38.88332198982472 29.533567787186055 18.54661960610885 
v -38.232226978856566 30.18490980061858 17.125508785446428 
v -37.27020454140577 30.803311857156395 15.633602625784953 
v -36.17629825312585 31.247180108887562 14.41472513245666 
v -34.59007759005796 31.50315654929312 13.378446430379302 
v -33.22584017845903 31.72331062060412 12.487189656711593 
v -32.40202808144915 31.8562534658365 11.948992936738366 
v -31.578466879049657 31.98915562132009 11.410960160332824 
v -30.755156061837027 32.1220175572796 10.873090919499013 
v -29.932094690575834 32.2548392665717 10.335384645393852 
v -29.10928200354481 32.38762058944898 9.797840929922582 
v -28.286718260142727 32.520361958321004 9.260459755404627 
v -26.888903527072582 32.74593462384802 8.347266914504857 
v -25.33743122440618 32.996302967257584 7.333690115260696 
v -23.584450934902616 32.425536801541654 7.017953882458513 
v -21.99612535586784 31.92926630576366 6.75588224811817 
v -20.444482377232976 31.447621566145386 6.502675692100527 
v -18.652489315016542 30.86414054445415 6.1799206267111 
v -17.349428094347605 29.689068622252222 6.211456043415717 
v -16.316901703807062 28.183032756428624 6.3833201707444776 
v -15.832511941068773 26.487154596910905 6.632614846903096 
v -15.740096514422788 24.70066014523024 6.8737017431511465 
v -16.044294151924554 22.94898097742822 7.03346768180617 
v -16.59530565260977 21.246208728624726 7.079362462509494 
v -17.297784874498678 19.610405772869658 6.955105033818072 
v -18.021898613880452 18.007145534582648 6.652313552295606 
v -18.639081853034657 16.410060438657947 6.129278043705809 
v -19.038127515281662 14.822043649400925 5.41563728271744 
v -19.056981395066554 13.260597833303285 4.507623729209094 
v -18.67383129588786 11.824319711600038 3.5233300084317865 
v -17.720216802005055 10.6100990839583 2.5283419747046585 
v -16.471048293635622 9.707939343966094 1.6922146125613564 
v -14.66740379047943 9.331008981120043 1.1859963747824458 
v -13.1144904010074 9.006477753447415 0.7501500726237771 
v -12.180836700136153 8.811360743038806 0.48810735057280435 
v -11.246822369029633 8.616168183232345 0.2259632550493048 
v -10.312447123073055 8.420900399943326 -0.036281883886130455 
v -9.377711197308821 8.225557226524787 -0.29862834016416584 
v -8.442614506091763 8.030138525105638 -0.5610761700293855 
v -7.507156636667711 7.834644478739799 -0.8236251488639572 
v -6.5713373778331405 7.639074909903106 -1.0862756525677144 
v -5.635156455866082 7.443429652999896 -1.3490277673122963 
v -4.698613552843528 7.24770884666129 -1.6118812397433229 
v -3.7617087833228986 7.051912429567792 -1.8748364000535438 
v -2.1425044212940145 6.713527373938279 -2.3292884691430644 
v -0.4071919772005546 6.350877919046488 -2.8163271232483282 
v 1.3145083634438357 5.794437070904469 -2.4925895257004056 
v 2.923761181257742 5.291914553593325 -2.172666129835385 
v 4.543327053622083 4.679925820832048 -1.7727344466784403 
v 6.208011174745505 4.141861528562254 -1.4596398256023726 
v 7.758181629145762 3.5735061598346873 -1.0635575437041422 
v 9.450497528618445 2.9339730633061403 -0.6456200653324442 
v 10.721284570565889 1.8237302862469305 -0.08241134509426616 
v 11.86624175410091 0.5854014051482449 0.4954026484058054 
v 12.489020423633061 -1.083600538802719 1.0243923861114819 
v 13.055171134229127 -2.603035840752824 1.5230951520111013 
v 13.613614741852171 -4.099836051907077 2.0154703739850803 
v 14.244938482902587 -5.791772053838627 2.5517228830188774 
v 14.371737363317695 -7.5201322001389626 2.7275969710785954 
v 14.302384577637158 -9.346748034615647 2.739514158816619 
v 13.912957204464494 -11.047314971504035 2.4175723342348356 
v 13.337097202812467 -12.661366385394345 1.8607049066533832 
v 12.561603059038385 -14.015963114807603 0.9688284191056822 
v 11.709271269662276 -15.123488977944673 -0.13425952815566153 
v 10.806304693433514 -15.824122050433106 -1.5596021600342418 
v 9.990106302834914 -16.21749633890533 -3.0542918371937753 
v 9.375576371835471 -15.98714986632794 -4.830454159126771 
v 8.816320674033781 -15.769205504073117 -6.380601692357695 
v 8.256939564520717 -15.552114034504257 -7.92883583623146 
v 7.641798809322045 -15.321528313659929 -9.706783351912955 
v 7.632571745332267 -14.722738115957657 -11.34825027115482 
v 7.920016351495342 -13.963933139446183 -12.986905331994217 
v 8.644893257952024 -13.124157444743402 -14.374908537042826 
v 9.64789956694959 -12.273320298179964 -15.60419507370375 
v 10.933560158024438 -11.50592323732085 -16.58328415801605 
v 12.370504454043317 -10.839986119515727 -17.40158561400683 
v 13.958084559178701 -10.33275579999563 -18.070623913820565 
v 15.577799028008727 -9.952171039705235 -18.674107794915706 
v 17.259909182960854 -9.735557972545688 -19.289937117490947 
v 18.888727999630987 -9.61083505717086 -19.941398082115565 
v 20.495668352548524 -9.607843086673151 -20.79838579410622 
v 21.967296245807415 -9.637083827334404 -21.72740283204937 
v 23.230244543994278 -9.686805764841809 -23.102819116560912 
v 24.324315352183245 -9.702648833295807 -24.38769438668045 
v 25.063760706502965 -9.77186363180659 -25.21817945784212 
v 25.898161773094895 -9.804713797639568 -26.12688569621186 
v 26.698314874956385 -9.816300668913442 -27.066584443103206 
v 27.437801357174116 -9.88551931670284 -27.897115706893665 
v 28.529855500135458 -9.928513218415567 -29.086419613913467 
v 29.789392796538408 -9.946752215428328 -30.565618768472653 
v 30.6187967867176 -9.70758947261925 -31.97173095075232 
v 31.271900974496692 -9.121168647798479 -33.70528176363019 
v 31.808341210583283 -8.637980120444144 -35.149162005686584 
v 32.36851192850174 -8.134696081413251 -36.65050612658244 
v 32.99892641570026 -7.568640071814399 -38.32384271741572 
v 33.131988674773154 -6.601857931280956 -39.78970626475197 
v 33.09325675177467 -5.476257722543234 -41.20139252587869 
v 32.67194127574145 -4.1191369058370775 -42.31822927780115 
v 32.11119016667759 -2.7350032298825515 -43.24785143501242 
v 31.13291994843766 -1.1997204514185609 -43.69557213685929 
v 30.21184360188314 0.1728694448925493 -44.006636554758224 
v 29.635252381739765 0.9499121595828052 -44.24169975403685 
v 28.837064388459936 2.202576481459101 -44.60700290704823 
v 27.72413060326245 3.861072684434869 -44.98286101375166 
v 26.827127127391403 5.105056595823447 -45.07668215602053 
v 26.21519622206166 5.936794627098898 -45.03977011007325 
v 25.649652379074126 6.779569203263938 -45.230764602045696 
v 24.672172197044283 8.135159942987865 -45.33300307500865 
v 23.555762050430996 9.652587445533392 -45.265660497049566 
v 22.622732346168533 10.980964265795404 -44.6388330389545 
v 21.73929262702086 12.323703807582257 -43.768641890021875 
v 21.118660966918238 13.533778204044692 -42.64670051107206 
v 20.664771975762594 14.7321439381538 -41.37322735353888 
v 20.481983743560892 15.89229717232734 -40.04571535413114 
v 20.502972190799802 17.09453657015455 -38.709403312358226 
v 20.74320872995907 18.362235628404623 -37.48522649275521 
v 21.140586808149266 19.74556676823479 -36.41289095551148 
v 21.63931174421279 21.256649412125046 -35.604034391665465 
v 22.157403014253646 22.900289783611154 -35.09958514390238 
v 22.590172694669384 24.633689852851337 -34.96593392324998 
v 22.83765417840343 26.398499876913107 -35.20638296017366 
v 22.797701072965868 28.094955905845907 -35.79644103393505 
v 22.40196383337794 29.626068449910157 -36.657118378872134 
v 21.620849393915314 30.892715444150163 -37.667070520106265 
v 20.468961882059165 31.831340223761494 -38.68501356417304 
l 1 2
l 2 3
l 3 4
l 4 5
l 5 6
l 6 7
l 7 8
l 8 9
l 9 10
l 10 11
l 11 12
l 12 13
l 13 14
l 14 15
l 15 16
l 16 17
l 17 18
l 18 19
l 19 20
l 20 21
l 21 22
l 22 23
l 23 24
l 24 25
l 25 26
l 26 27
l 27 28
l 28 29
l 29 30
l 30 31
l 31 32
l 32 33
l 33 34
l 34 35
l 35 36
l 36 37
l 37 38
l 38 39
l 39 40
l 40 41
l 41 42
l 42 43
l 43 44
l 44 45
l 45 46
l 46 47
l 47 48
l 48 49
l 49 50
l 50 51
l 51 52
l 52 53
l 53 54
l 54 55
l 55 56
l 56 57
l 57 58
l 58 59
l 59 60
l 60 61
l 61 62
l 62 63
l 63 64
l 64 65
l 65 66
l 66 67
l 67 68
l 68 69
l 69 70
l 70 71
l 71 72
l 72 73
l 73 74
l 74 75
l 75 76
l 76 77
l 77 78
l 78 79
l 79 80
l 80 81
l 81 82
l 82 83
l 83 84
l 84 85
l 85 86
l 86 87
l 87 88
l 88 89
l 89 90
l 90 91
l 91 92
l 92 93
l 93 94
l 94 95
l 95 96
l 96 97
l 97 98
l 98 99
l 99 100
l 100 101
l 101 102
l 102 103
l 103 104
l 104 105
l 105 106
l 106 107
l 107 108
l 108 109
l 109 110
l 110 111
l 111 112
l 112 113
l 113 114
l 114 115
l 115 116
l 116 117
l 117 118
l 118 119
l 119 120
l 120 121
l 121 122
l 122 123
l 123 124
l 124 125
l 125 126
l 126 127
l 127 128
l 128 129
l 129 130
l 130 131
l 131 132
l 132 133
l 133 134
l 134 135
l 135 136
l 136 137
l 137 138
l 138 139
l 139 140
l 140 141
l 141 142
l 142 143
l 143 144
l 144 145
l 145 146
l 146 147
l 147 148
l 148 149
l 149 150
l 150 151
l 151 152
l 152 153
l 153 154
l 154 155
l 155 156
l 156 157
l 157 158
l 158 159
l 159 160
l 160 161
l 161 162
l 162 163
l 163 164
l 164 165
l 165 166
l 166 167
l 167 168
l 168 169
l 169 170
l 170 171
l 171 172
l 172 173
l 173 174
l 174 175
l 175 176
l 176 177
l 177 178
l 178 179
l 179 180
l 180 181
l 181 182
l 182 183
l 183 184
l 184 185
l 185 186
l 186 187
l 187 188
l 188 189
l 189 190
l 190 191
l 191 192
l 192 193
l 193 194
l 194 195
l 195 196
l 196 197
l 197 198
l 198 199
l 199 200
l 200 201
l 201 202
l 202 203
l 203 204
l 204 205
l 205 206
l 206 207
l 207 208
l 208 209
l 209 210
l 210 211
l 211 212
l 212 213
l 213 214
l 214 215
l 215 216
l 216 217
l 217 218
l 218 219
l 219 220
l 220 221
l 221 222
l 222 223
l 223 224
l 224 225
l 225 226
l 226 227
l 227 228
l 228 229
l 229 230
l 230 231
l 231 232
l 232 233
l 233 234
l 234 235
l 235 236
l 236 237
l 237 238
l 238 239
l 239 240
l 240 241
l 241 242
l 242 243
l 243 244
l 244 245
l 245 246
l 246 247
l 247 248
l 248 249
l 249 250
l 250 251
l 251 252
l 252 253
l 253 254
l 254 255
l 255 256
l 256 257
l 257 258
l 258 259
l 259 260
l 260 261
l 261 262
l 262 263
l 263 264
l 264 265
l 265 266
l 266 267
l 267 268
l 268 269
l 269 270
l 270 271
l 271 272
l 272 273
l 273 274
l 274 275
l 275 276
l 276 277
l 277 278
l 278 279
l 279 280
l 280 281
l 281 282
l 282 283
l 283 284
l 284 285
l 285 286
l 286 287
l 287 288
l 288 289
l 289 290
l 290 291
l 291 292
l 292 293
l 293 294
l 294 295
l 295 296
l 296 297
l 297 298
l 298 299
l 299 300
l 300 301
l 301 302
l 302 303
l 303 304
l 304 305
l 305 306
l 306 307
l 307 308
l 308 309
l 309 310
l 310 311
l 311 312
l 312 313
l 313 314
l 314 315
l 315 316
l 316 317
l 317 318
l 318 319
l 319 320
l 320 321
l 321 322
l 322 323
l 323 324
l 324 325
l 325 326
l 326 327
l 327 328
l 328 329
l 329 330
l 330 331
l 331 332
l 332 333
l 333 334
l 334 335
l 335 336
l 336 337
l 337 338
l 338 339
l 339 340
l 340 341
l 341 342
l 342 343
l 343 344
l 344 345
l 345 346
l 346 347
l 347 348
l 348 349
l 349 350
l 350 351
l 351 352
l 352 353
l 353 354
l 354 355
l 355 356
l 356 357
l 357 358
l 358 359
l 359 360
l 360 361
l 361 362
l 362 363
l 363 364
l 364 365
l 365 366
l 366 367
l 367 368
l 368 369
l 369 370
l 370 371
l 371 372
l 372 373
l 373 374
l 374 375
l 375 376
l 376 377
l 377 378
l 378 379
l 379 380
l 380 381
l 381 382
l 382 383
l 383 384
l 384 385
l 385 386
l 386 387
l 387 388
l 388 389
l 389 390
l 390 391
l 391 392
l 392 393
l 393 394
l 394 395
l 395 396
l 396 397
l 397 398
l 398 399
l 399 400
l 400 1
