v -13.820846787753826 -21.683198421188404 -19.045967259984913 
v -9.974872252469135 -22.30604022446349 -19.998314821974475 
v -6.0376900232047435 -22.29181541057473 -20.75596336116174 
v -2.1090862674473985 -21.694146241288315 -21.280596670975807 
v 1.7309971844726484 -20.57899524792403 -21.542589330285715 
v 5.421022082803271 -19.018539139888695 -21.51899491510655 
v 8.915091336944188 -17.086967656530675 -21.191594644584335 
v 12.179633312462137 -14.858072385117106 -20.54529971430188 
v 15.190061699058008 -12.404312381817212 -19.567075702712557 
v 17.92773422826746 -9.796992572847362 -18.245484229586076 
v 20.377388607462056 -7.1072035586310065 -16.570902328705685 
v 22.525150276985062 -4.407200370625817 -14.536469183542755 
v 24.35717295652165 -1.7719132309894279 -12.139805895721532 
v 25.858977212102964 0.7197309002035648 -9.385538608328375 
v 27.015618802650437 2.984060815284901 -6.28861873310718 
v 27.81338359627665 4.933194101210117 -2.87844084043552 
v 28.24806398616458 6.480277182424989 0.7961504176256033 
v 28.3449231782038 7.564449175607555 4.6644903747045205 
v 27.77703011190958 8.038001218142108 8.61813254285776 
v 27.239727952654416 7.830221259225485 12.588847076329522 
v 26.169389597718908 7.002131051152368 16.382045005191507 
v 24.818899302509674 5.4613240318238985 19.849655045626246 
v 22.87301986292367 3.307978979027741 22.64948618885191 
v 20.764486184260534 0.7146067067831449 24.882992637367956 
v 18.44731899505613 -2.1866597984286984 26.410484298115474 
v 15.998191937324636 -5.2632402234481885 27.20813131361073 
v 13.48249491169783 -8.385824711796502 27.292691016268297 
v 10.952440068388391 -11.440838231373636 26.708438668248913 
v 8.446522120625684 -14.333714283072366 25.517632945037114 
v 5.99005796150972 -16.988553205232574 23.792507940824272 
v 3.596722536688163 -19.34591297894209 21.609238852153982 
v 1.2706071220107267 -21.359738343364135 19.044014908377726 
v -0.991571900431536 -22.994143261087775 16.171007318361408 
v -3.1983306600707833 -24.220522146734165 13.061867462329332 
v -5.361432792080165 -25.015281738586793 9.786364669081133 
v -7.49406697532948 -25.35836721506827 6.4138047247316745 
v -9.609142864413187 -25.2326940828733 3.014911299599513 
v -11.717642281347587 -24.624572550819128 -0.3361272265618776 
v -13.826971073626263 -23.525202424010022 -3.5597606383152085 
v -15.939312194116537 -21.933332404285444 -6.569725282229385 
v -18.050318676503494 -19.85955026463608 -9.273045691692337 
v -20.151006420868843 -17.335584045174862 -11.575596129638368 
v -22.234793711345453 -14.429700015836428 -13.409316827667894 
v -24.028913606111058 -11.015462158967884 -14.550435569468844 
v -26.038804029550864 -7.578249547808819 -15.044750848010152 
v -27.705155868349635 -3.9193818830636356 -14.808812665742211 
v -29.156339341259617 -0.30854473172121416 -13.770471164380355 
v -29.923057017749027 3.180867084913465 -11.900030111967128 
v -30.347479119417972 6.349695206629989 -9.463137802522054 
v -30.27629438962311 9.112347143945994 -6.5506588297336314 
v -29.71795263719778 11.39666337932445 -3.2995099225019486 
v -28.697364774853504 13.169292347652984 0.1505054394182442 
v -27.25003169458897 14.427225777117705 3.671651380626907 
v -25.41684109274748 15.190850097570959 7.153413365844191 
v -23.239622328421568 15.497358094793505 10.503669211676117 
v -20.75813029469502 15.394994963623347 13.647485799739993 
v -18.00844783907268 14.938581911889067 16.524569860845695 
v -15.022590038724582 14.186415071209812 19.086171657653356 
v -11.829056265155412 13.198411522284385 21.292011768769196 
v -8.454106881154832 12.035267512109202 23.10760659955416 
v -4.923593712276613 10.758359994022811 24.502232313199844 
v -1.2652186075722722 9.430121087788695 25.447689890907963 
v 2.488885777539919 8.114617928222318 25.918002616169133 
v 6.299378093558324 6.8780616616472185 25.89017400241202 
v 10.116943990714455 5.788941673296461 25.346175674607103 
v 13.880157576921349 4.917387791446206 24.276837573951397 
v 17.517733317393283 4.332417769009804 22.692258335493253 
v 20.965925781377315 4.085801274355068 20.643351786895025 
v 23.91874045643617 4.175711628155812 17.91372778048607 
v 26.65658374195322 4.903392879784272 15.072400574244709 
v 28.7590538158132 5.975335769125765 11.808924808405566 
v 30.208337000055824 7.53948540341272 8.392017876783695 
v 30.61138650908369 9.328323754760847 4.800358808319959 
v 30.332240312199826 11.357584303132505 1.3414234653716643 
v 29.2858095961535 13.464166853959393 -1.9123656278108374 
v 27.540609506056832 15.54979248050647 -4.86266405549518 
v 25.18974035543248 17.522595977382498 -7.444888224453722 
v 22.33527688009829 19.305454405262992 -9.6241297009602 
v 19.07939857540765 20.83703752178168 -11.390449635953173 
v 15.518559809631922 22.07021601407832 -12.753585821872116 
v 11.740378659030865 22.969479995750046 -13.737726899875263 
v 7.822743549682962 23.50814328197165 -14.376987502930753 
v 3.8345245203045457 23.66581572771033 -14.711877636703344 
v -0.16267692197201641 23.426434047275766 -14.786803322456812 
v -4.112194801693155 22.777013876289068 -14.648488282649865 
v -7.95972658135307 21.707214158936512 -14.345137050221652 
v -11.650786409029562 20.209773335416447 -13.926134756072315 
v -15.128413669777062 18.281864626634203 -13.442071708583875 
v -18.33138177988982 15.927403483182978 -12.944875371606344 
v -21.19324911452962 13.160320189331044 -12.487829680593391 
v -23.643222371896346 10.008954848623906 -12.125345816142767 
v -25.614792089613132 6.522871213583646 -11.91280434074105 
v -27.076057522821078 2.779427419835909 -11.898515935069657 
v -27.66686057849495 -1.198276758788072 -11.981411570100581 
v -27.857508483931785 -5.155395109053691 -12.616485405083525 
v -27.223283812257623 -9.0581161684474 -13.38215135222022 
v -25.870889077167945 -12.69229086229246 -14.471205398261432 
v -23.56134040888006 -15.817185938088107 -15.54982350468795 
v -20.749238597360996 -18.421889796164177 -16.761289949307677 
v -17.456828310299958 -20.389846188571855 -17.947471795869795 
l 1 2
l 2 3
l 3 4
l 4 5
l 5 6
l 6 7
l 7 8
l 8 9
l 9 10
l 10 11
l 11 12
l 12 13
l 13 14
l 14 15
l 15 16
l 16 17
l 17 18
l 18 19
l 19 20
l 20 21
l 21 22
l 22 23
l 23 24
l 24 25
l 25 26
l 26 27
l 27 28
l 28 29
l 29 30
l 30 31
l 31 32
l 32 33
l 33 34
l 34 35
l 35 36
l 36 37
l 37 38
l 38 39
l 39 40
l 40 41
l 41 42
l 42 43
l 43 44
l 44 45
l 45 46
l 46 47
l 47 48
l 48 49
l 49 50
l 50 51
l 51 52
l 52 53
l 53 54
l 54 55
l 55 56
l 56 57
l 57 58
l 58 59
l 59 60
l 60 61
l 61 62
l 62 63
l 63 64
l 64 65
l 65 66
l 66 67
l 67 68
l 68 69
l 69 70
l 70 71
l 71 72
l 72 73
l 73 74
l 74 75
l 75 76
l 76 77
l 77 78
l 78 79
l 79 80
l 80 81
l 81 82
l 82 83
l 83 84
l 84 85
l 85 86
l 86 87
l 87 88
l 88 89
l 89 90
l 90 91
l 91 92
l 92 93
l 93 94
l 94 95
l 95 96
l 96 97
l 97 98
l 98 99
l 99 100
l 100 1
