v 19.005207599069752 32.41177428960999 -39.561420423960925 
v 12.07301210477813 32.26484270551572 -39.840886844152195 
v 6.785771933336205 32.521152695169405 -35.23846838266158 
v 3.4566084654087996 36.23762588976243 -30.251709110461526 
v -0.31420065778269024 39.68939667728509 -25.46505167501121 
v -4.088982683071418 37.65860316526276 -19.998093696656838 
v -3.9814997914294055 32.97032523860922 -14.702718336540263 
v -3.4171008936314946 30.44736798224684 -8.169671700757284 
v -6.200392418739461 30.320478551528584 -1.6285761091207296 
v -11.973299926466707 29.232239855838547 2.3772566648956452 
v -16.98067872664641 24.50554378433279 2.5761858331099576 
v -16.24508296278048 17.952182154260655 0.4511287287646927 
v -10.627340704548155 13.872186630910539 0.8522217254425947 
v -5.890554253729035 13.428265090237446 5.8960957169035755 
v -7.403882609282296 14.203298897431104 12.56308355410084 
v -13.708489417176995 12.72710970439271 15.029393786437195 
v -18.645228915807998 8.025417443762692 13.33934532826977 
v -21.34292501278788 1.9452255453259952 11.558087824276113 
v -20.266797085404903 -4.314521538547619 14.268310373657059 
v -16.00477308046741 -6.594353591630145 19.179717617477785 
v -10.00678874191787 -8.749725042960025 21.989790219272066 
v -6.033228466251215 -12.86695796144534 18.380008367486468 
v -9.628601791793272 -17.236911440440704 14.45089103962496 
v -14.640013439656906 -21.667812834276525 16.224729815732843 
v -13.273498923848944 -26.164420874037344 21.148318718431554 
v -7.149381089582347 -28.588369332770668 23.828543439897608 
v -0.6078985785646005 -31.29634770751703 24.331499005502636 
v 4.507303724682355 -36.16565172976911 23.919260250667243 
v 6.931280818023349 -42.610764650733856 22.28448233766744 
v 7.898327344875846 -47.408659336290896 17.289477274256527 
v 10.16461346939368 -46.55569927558703 10.804941680262441 
v 15.242259366522093 -42.58176846540127 8.082390455703116 
v 22.21305227801202 -41.71851854766122 8.095282479974383 
v 28.392309080165536 -44.36547160828874 6.013641620470701 
v 32.22158728556399 -45.3719172918914 0.24349147587874942 
v 33.76700465794854 -42.07868579438746 -5.805425970330834 
v 34.35350207320225 -37.2203126738187 -9.71447156094631 
v 34.69306676743445 -34.028780302093196 -12.068547379801064 
v 35.03256701342397 -30.8378551551987 -14.422175337415457 
v 35.43868068910622 -27.020834982754117 -17.237611289390912 
v 36.17914132131419 -22.147548372146208 -21.13464504258694 
v 34.12969077437974 -15.676136011012693 -22.817881405000463 
v 30.138873428392273 -10.484417293549965 -20.194200260060974 
v 25.88440676929941 -6.590976722590138 -15.972859170003478 
v 22.137689767111876 -3.1234114410792237 -12.58202267753084 
v 16.36849757079254 1.0249725952619526 -12.768936098496836 
v 10.102868032118678 2.8553618932762355 -15.59076623986645 
v 4.078559138386332 2.121702685957087 -15.747014669991843 
v -1.2450120392744475 0.6033613824602742 -13.577448771474277 
v -2.8129910528760456 -0.6836732549568137 -8.723689744015521 
v -2.545076774303409 -1.741371047882934 -2.7080509841373996 
v -2.8490778477906855 -2.5207474792748585 1.9421371668138607 
v -3.101868985554765 -3.1688348349866544 5.8089828832577775 
v -3.3544377589397363 -3.816351558443201 9.672424261490725 
v -3.6067992624352887 -4.463337114564794 13.532696752458339 
v -5.72213731191654 -4.997313353208273 20.05606216108862 
v -11.301324418457547 -4.5667407977470775 22.67924637071833 
v -17.0096955958326 -4.604216428576938 24.98893123784407 
v -20.832767368633753 -6.155448076593309 28.675453169463353 
v -24.500929867965947 -7.682212944462912 34.46274637224483 
v -27.531484097731273 -5.698401973545714 40.47935275308317 
v -31.16947589391643 -1.0845949777695496 42.291818796647206 
v -34.761607805699576 3.916989055241894 42.67650438525004 
v -37.61016890435734 9.841264887782698 40.04246031016492 
v -38.94933299821211 13.136164157313187 38.24503981164925 
v -40.66342240137656 18.244022125903513 34.986101849201354 
v -41.068031827967545 22.183768161262794 31.224997066640633 
v -40.367412424598506 25.566025492477966 25.970140285159715 
v -39.679546675289906 27.41488633877212 22.50507003583661 
v -38.24298681748322 30.177417812896405 17.1272416799967 
v -33.236600017085685 31.715818632881945 12.488922551261863 
v -29.94285452920249 32.247347278849524 10.337117539944122 
v -25.348191063032836 32.98881097953541 7.335423009810967 
v -18.663249153643196 30.856648556731972 6.181653521261371 
v -15.750856353049443 24.693168157508065 6.875434637701417 
v -18.032658452507107 17.999653546860472 6.654046446845877 
v -18.684591134514516 11.816827723877863 3.5250629029820573 
v -13.125250239634054 8.998985765725239 0.7518829671740479 
v -9.388471035935476 8.21806523880261 -0.296895445613895 
v -5.645916294492736 7.435937665277719 -1.3472948727620255 
v -0.4179518158272086 6.3433859313243115 -2.8145942286980574 
v 6.1972513361188515 4.134369540840077 -1.4579069310521018 
v 11.855481915474256 0.5779094174260683 0.4971355429560762 
v 14.234178644275932 -5.799264041560804 2.553455777569148 
v 13.326337364185813 -12.668858373116521 1.862437801203654 
v 9.979346464208259 -16.224988326627507 -3.0525589426435045 
v 7.631038970695391 -15.329020301382105 -9.705050457362685 
v 9.637139728322936 -12.28081228590214 -15.602462179153479 
v 15.567039189382072 -9.95966302742741 -18.672374900365433 
v 21.95653640718076 -9.64457581505658 -21.7256699374991 
v 25.88740193446824 -9.812205785361744 -26.125152801661592 
v 29.778632957911753 -9.954244203150504 -30.56388587392238 
v 32.357752089875085 -8.142188069135427 -36.64877323203217 
v 32.6611814371148 -4.126628893559254 -42.31649638325088 
v 29.62449254311311 0.9424201718606285 -44.23996685948658 
v 26.204436383435006 5.929302639376721 -45.03803721552298 
v 22.61197250754188 10.973472278073228 -44.63710014440423 
v 20.471223904934238 15.884805184605163 -40.04398245958087 
v 21.628551905586136 21.24915742440287 -35.60230149711519 
v 22.786941234339213 28.08746391812373 -35.794708139384774 
l 1 2
l 2 3
l 3 4
l 4 5
l 5 6
l 6 7
l 7 8
l 8 9
l 9 10
l 10 11
l 11 12
l 12 13
l 13 14
l 14 15
l 15 16
l 16 17
l 17 18
l 18 19
l 19 20
l 20 21
l 21 22
l 22 23
l 23 24
l 24 25
l 25 26
l 26 27
l 27 28
l 28 29
l 29 30
l 30 31
l 31 32
l 32 33
l 33 34
l 34 35
l 35 36
l 36 37
l 37 38
l 38 39
l 39 40
l 40 41
l 41 42
l 42 43
l 43 44
l 44 45
l 45 46
l 46 47
l 47 48
l 48 49
l 49 50
l 50 51
l 51 52
l 52 53
l 53 54
l 54 55
l 55 56
l 56 57
l 57 58
l 58 59
l 59 60
l 60 61
l 61 62
l 62 63
l 63 64
l 64 65
l 65 66
l 66 67
l 67 68
l 68 69
l 69 70
l 70 71
l 71 72
l 72 73
l 73 74
l 74 75
l 75 76
l 76 77
l 77 78
l 78 79
l 79 80
l 80 81
l 81 82
l 82 83
l 83 84
l 84 85
l 85 86
l 86 87
l 87 88
l 88 89
l 89 90
l 90 91
l 91 92
l 92 93
l 93 94
l 94 95
l 95 96
l 96 97
l 97 98
l 98 99
l 99 100
l 100 1
