v 7.243927604949876 -2.4432013047157985 -30.960171078627646 
v 6.597246767007854 -1.8601196808848084 -30.468470377722944 
v 5.967338449115408 -1.3197235608277924 -29.910669867012093 
v 5.357928981329264 -0.824780982309783 -29.29130729171634 
v 4.772400724102359 -0.37755796092525645 -28.61520772593251 
v 4.213769936415807 0.020178048672950137 -27.887399680820874 
v 3.6846736147835606 0.36714517865168245 -27.113033971934037 
v 3.187364785165354 0.6625259400741615 -26.297307275833937 
v 2.723715489849622 0.9059392056472256 -25.445391920015663 
v 2.2952265367158002 1.0974068703538582 -24.56237304584524 
v 1.903042968764821 1.2373166661696284 -23.653193886505647 
v 1.5479741630058317 1.3263825345013875 -22.722609531050725 
v 1.2305174721911967 1.3656038398810726 -21.775149216541834 
v 0.9508843710475949 1.3562245551846073 -20.815086912472267 
v 0.7087133640416572 1.299818468422116 -19.846489818797544 
v 0.5012942315899682 1.1989629490705493 -18.87344271634622 
v 0.3256091243831303 1.056334889931847 -17.899372332225244 
v 0.17844238590463538 0.8746294663245572 -16.927080364167843 
v 0.0564348760843263 0.6565136715977216 -15.958797756732785 
v -0.04387244596383276 0.40459173255357417 -14.996243968906741 
v -0.12600483782009939 0.12138122659938576 -14.040688581342467 
v -0.1935289056482192 -0.19070136419721712 -13.09301325979883 
v -0.25003536412419863 -0.5293470959625103 -12.153772203143916 
v -0.2991280386913679 -0.8923534521541229 -11.223252216632616 
v -0.34441804889874705 -1.2776178108808713 -10.301528727518274 
v -0.3895217571400124 -1.683125713895117 -9.38851983661089 
v -0.43806133120517926 -2.10693488448844 -8.484037902423754 
v -0.49366674897000257 -2.54715564847019 -7.587838913840947 
v -0.5559142790324227 -3.0010363104209694 -6.6989189790724195 
v -0.6217908014471037 -3.465410061229394 -5.81569746059393 
v -0.688298862039813 -3.937199657864457 -4.936461413333739 
v -0.7524481261818989 -4.413384504617114 -4.059421648067659 
v -0.8112459666424073 -4.8909661852087085 -3.182766158414171 
v -0.861688220551494 -5.366932864510002 -2.304713027566715 
v -0.900751244624705 -5.838223589620511 -1.423563701571543 
v -0.9253864083198966 -6.301693395772025 -0.5377577758728185 
v -0.9325182236226314 -6.754080212589433 0.3540696517687646 
v -0.9190473906359332 -7.191974720655529 1.2530271697611841 
v -0.8818938728434617 -7.611822951592737 2.1598914338182627 
v -0.8239162680641972 -8.014919473231586 3.0732424290115903 
v -0.7481236704147972 -8.402810479774214 3.9918589108833995 
v -0.6574926017891288 -8.777127496676892 4.914753579754633 
v -0.5549653963697044 -9.13956716443932 5.841138333298527 
v -0.442732569953188 -9.492087476851601 6.770222323626819 
v -0.322205627501934 -9.83689895688929 7.701158780094124 
v -0.1947723843961134 -10.176231602809413 8.633188190865388 
v -0.06180076346558865 -10.512329521241623 9.565615943873349 
v 0.07535674518107838 -10.847446574274187 10.497790285014199 
v 0.21535813434521686 -11.183842674251663 11.429080525473845 
v 0.3568665984134033 -11.523780366149907 12.358855409729921 
v 0.49854506981865293 -11.86952133987902 13.286461546152713 
v 0.6390507187704316 -12.223322513293555 14.211201802798817 
v 0.7770295633642621 -12.587431321084626 15.132313581907766 
v 0.9111113442654108 -12.964079835532596 16.048946908108615 
v 1.0399048306266154 -13.355477333203602 16.96014229811585 
v 1.161993741558187 -13.763800908474995 17.864808424754997 
v 1.2759334899673704 -14.191183722253385 18.761699646764875 
v 1.3802489823357773 -14.639700465061908 19.649393549370313 
v 1.4734337380959996 -15.11134961125769 20.526268730478407 
v 1.553950624349894 -15.608032049810683 21.390483174655223 
v 1.6202345338223427 -16.131525702091853 22.239953682383458 
v 1.6706973635396738 -16.683455784705213 23.072336965158353 
v 1.7037356752925468 -17.26526045266145 23.88501317602249 
v 1.717741432064469 -17.878151672903137 24.675072816466198 
v 1.7111162018387005 -18.523071338374624 25.439308137905638 
v 1.6822891951140306 -19.20064284608014 26.174210329570744 
v 1.6297394478310607 -19.911118635075965 26.875973941043092 
v 1.5520223695695892 -20.654324515526625 27.540510108950727 
v 1.447800740361182 -21.429602016805237 28.163470221031552 
v 1.315880051952392 -22.235750433690363 28.7402816304405 
v 1.1552478469575942 -23.07097073902704 29.266196899502933 
v 0.965116412156627 -23.932814032307878 29.73635777526356 
v 0.744967836088419 -24.818137668151337 30.145874652238575 
v 0.494600059456717 -25.7230726061462 30.489921641501734 
v 0.21417215202694603 -26.64300578291122 30.76384653379693 
v -0.0957533264314923 -27.572581360655676 30.96329393162047 
v -0.43417334013573405 -28.505724486085004 31.084338670483525 
v -0.7996154346430325 -29.435690640582024 31.123625421687226 
v -1.1901195586710243 -30.355142739580522 31.07850916695495 
v -1.603233221901054 -31.25625684169405 30.947190184206594 
v -2.036022175122952 -32.13085569664036 30.72883642451672 
v -2.485098165645425 -32.970567486779984 30.423685833378368 
v -2.9466644544220664 -33.76700514284999 30.033121393877934 
v -3.4165787293977226 -34.511959724942066 29.55971251993654 
v -3.890431891770808 -35.197599762789764 29.007217913918264 
v -4.363640033761679 -35.816667348822655 28.380547055481067 
v -4.831545887753117 -36.362661341557015 27.6856799576611 
v -5.289525224890688 -36.82999836849082 26.929547493262703 
v -5.733093213944923 -37.214143431701316 26.11987719818716 
v -6.158005679870627 -37.51170373402392 25.265011729804094 
v -6.560350540495964 -37.7204816879434 24.373708861672927 
v -6.936625413467429 -37.83948570594814 23.454932862422016 
v -7.283798393594621 -37.868900031447346 22.51764725977183 
v -7.599350190850953 -37.81001729268389 21.570618353884885 
v -7.881297064937873 -37.66513943173709 20.62223753191652 
v -8.128195171231075 -37.43745403053709 19.680368630418773 
v -8.339127943199237 -37.130893762706066 18.752224513154744 
v -8.513678907470972 -36.74998676202516 17.84427490087833 
v -8.651892825027435 -36.299705200490955 16.962185502455554 
v -8.754228275349748 -35.785318441685554 16.110786802417923 
v -8.821504777767627 -35.21225592996039 15.29406955118205 
v -8.854847322968174 -34.585983642811726 14.51520311689833 
v -8.855630824439514 -33.91189660433156 13.776572379861696 
v -8.825426552293363 -33.195228734056464 13.079828733300621 
v -8.765952132538061 -32.44098025681393 12.425950927887706 
v -8.679026225788055 -31.65386206192612 11.815311882370098 
v -8.566528571361047 -30.8382557835325 11.247748101883023 
v -8.43036571502472 -29.998187966160472 10.72262893037342 
v -8.27244244052266 -29.13731645556151 10.238923458808692 
v -8.09463869764033 -28.258927081446288 9.795263475643656 
v -7.898791658454363 -27.36593874114505 9.39000135339954 
v -7.686682430452554 -26.460915118020903 9.021262200216777 
v -7.46002690055102 -25.54608144624173 8.686989962478874 
v -7.22047016739378 -24.623344939958073 8.384987445661075 
v -6.9695840309598305 -23.694317721146632 8.112950431667043 
v -6.708867039790634 -22.76034129259004 7.8684962209839675 
v -6.43974663983483 -21.822511801378045 7.649187027066143 
v -6.163583019174426 -20.881705518305733 7.45254870856921 
v -5.881674295293384 -19.938604116828138 7.276085351876779 
v -5.595262742815257 -18.993719471097705 7.117290220213088 
v -5.305541807505486 -18.047417806769236 6.973653573714296 
v -5.013663695328311 -17.099943132287 6.842667843078173 
v -4.720747362586018 -16.151439954311503 6.72183061259125 
v -4.427886764194233 -15.20197534098166 6.608645840160244 
v -4.136159241793273 -14.251560442947275 6.500623715272753 
v -3.846633951669787 -13.300171616418083 6.395279532660021 
v -3.5603802444644685 -12.347771316395992 6.290131941306551 
v -3.278475914501755 -11.394328942924624 6.182700916331247 
v -3.002015236422462 -10.439841829305347 6.070505795731738 
v -2.732116700731916 -9.484356559032818 5.951063725266719 
v -2.4699303479732855 -8.527990787468708 5.821888862753665 
v -2.2166445835705892 -7.5709557243042775 5.680492707348289 
v -1.974792797557304 -6.613201876588737 5.524682626537149 
v -1.7471423761737486 -5.654804945622367 5.352314971092477 
v -1.536528380288934 -4.696055734742643 5.1612656333340405 
v -1.3458574564130381 -3.737498505635252 4.9494435630904725 
v -1.1781077550451142 -2.77997054036078 4.714808490429166 
v -1.0362797961786336 -1.8246297883969977 4.455461972584293 
v -0.9202154438086292 -0.8719725184827802 4.174348487712386 
v -0.8296023889344604 0.07774118299798946 3.8745437348023213 
v -0.7641143190120855 1.0244362349403748 3.5590625063963643 
v -0.723317660899563 1.9681900568994497 3.2308622979723873 
v -0.7061694318371425 2.909202011502326 2.8928448618403224 
v -0.7116399751963086 3.8478205754976487 2.5478513252912514 
v -0.7387193769161999 4.784515429497551 2.1986719004598694 
v -0.7864215360209423 5.719850517121015 1.8480570855075724 
v -0.8537861192151199 6.654458050744284 1.4987298437559153 
v -0.9398786149322372 7.589013235657443 1.153398339933811 
v -1.0437886739025775 8.524209450331274 0.8147688417607004 
v -1.164626896023622 9.460733599634963 0.48555841090978064 
v -1.3015201985842078 10.399241349025322 0.16850700973031582 
v -1.4536058799880764 11.340331950465904 -0.13361136092006368 
v -1.6200244771632462 12.284522385363587 -0.4179789012901915 
v -1.799911504872793 13.232220577080119 -0.6817260742562281 
v -1.9923881621809763 14.183697467223825 -0.9219259797127343 
v -2.1965510964074375 15.139057808217212 -1.1355915878559033 
v -2.4114613290659466 16.098209602359013 -1.3196764380720503 
v -2.636132472558293 17.060832217900018 -1.4710794724313896 
v -2.8695184017106867 18.026343338777423 -1.5866547312358588 
v -3.1105005913151254 18.993865059580717 -1.6632266855702806 
v -3.3578754877518113 19.96219000120443 -1.6976120145203542 
v -3.610341886515475 20.929746711099334 -1.6866485481485092 
v -3.866489257200574 21.89456739094211 -1.627232309736677 
v -4.124787205550496 22.854257866099505 -1.5163631485836004 
v -4.383576752443598 23.805971636351565 -1.3511994703769679 
v -4.641307087745059 24.746367964319994 -1.129309048778304 
v -4.897343826487991 25.67160158102131 -0.8493293168127855 
v -5.150956624945807 26.57751189440947 -0.5102087718782092 
v -5.401320124364654 27.459640170095753 -0.11126224303443333 
v -5.6475168050696825 28.313255670831865 0.34777256618465474 
v -5.888542031232427 29.133391617384834 0.866678737752688 
v -6.123311535218304 29.914891612074552 1.444705780937022 
v -6.35067153838512 30.652466858679286 2.080519310464521 
v -6.569411630728179 31.340764117543834 2.7721570407713263 
v -6.77828043453536 31.974443858561916 3.5169935226694564 
v -6.976003958772703 32.5482675318786 4.311716088140326 
v -7.161306415061267 33.05719229082796 5.15231437448247 
v -7.332933119071629 33.49647090746705 6.0340855496416586 
v -7.489674951590157 33.861754060070155 6.951656944401818 
v -7.63039371205713 34.149191691772714 7.899027215065243 
v -7.75404757598552 34.35552978955889 8.869626428503512 
v -7.859715778510292 34.478198758895694 9.856394612841543 
v -7.946621600472743 34.51538960829679 10.851877400339278 
v -8.01415273949398 34.466114431983556 11.848336466141244 
v -8.061878211204737 34.330248190354695 12.837871607364189 
v -8.089561045136616 34.10854951801969 13.812550582529227 
v -8.097166210418784 33.80265919656562 14.764542305978164 
v -8.084863417925886 33.41507595374084 15.686248715611834 
v -8.053024683190008 32.94911031849648 16.570430634218088 
v -8.002216780721177 32.408818292506794 17.410323229149224 
v -7.933188956936191 31.798917516239445 18.199737220708617 
v -7.84685647829751 31.124689345256293 18.93314275142103 
v -7.744280759044083 30.391870762008573 19.60573374335464 
v -7.626646928916644 29.60654030409729 20.21347156505395 
v -7.495239760547279 28.77500218971312 20.75310782725064 
v -7.351418878974437 27.90367258484872 21.222187056801808 
v -7.196594127093457 26.99897152308577 21.619030803000854 
v -7.032201869528812 26.067223407809482 21.94270536800898 
v -6.859682894598491 25.114568354938346 22.19297580089188 
v -6.680462431915375 24.14688592762859 22.370249048149173 
v -6.4959326536185875 23.169732123278273 22.47550922413736 
v -6.307437880789742 22.188289838576154 22.51024787605388 
v -6.116262581774925 21.207332490055354 22.47639190169281 
v -5.9236221319884885 20.23120002359216 22.37623146912277 
v -5.730656208964376 19.263786213577042 22.212349920750786 
v -5.538424623363755 18.308535928926823 21.98755725185572 
v -5.347905335914462 17.368450919573384 21.704828362560228 
v -5.159994380032091 16.446102639788595 21.36724691334997 
v -4.97550739742212 15.543650657452892 20.97795528246154 
v -4.795182496071648 14.66286528428039 20.540110837796206 
v -4.619684153365897 13.80515318497364 20.056848500550803 
v -4.449607908411942 12.971584868909893 19.531249392589014 
v -4.285485614151558 12.162923124131868 18.966315221871398 
v -4.1277910490614875 11.379651610475008 18.364947965235277 
v -3.9769457182117565 10.622002979382124 17.729934349575693 
v -3.8333247026872797 9.889986027324257 17.063934604713477 
v -3.6972624438095614 9.183411514655194 16.36947495772086 
v -3.5690583735290153 8.501916390620108 15.64894335341929 
v -3.448982324404208 7.844986257758356 14.904587914030657 
v -3.3372796715907236 7.2119759856023675 14.138517688166143 
v -3.234176175255138 6.602128445487336 13.352705281869945 
v -3.1398825049581993 6.014591386919606 12.548991009434149 
v -3.054598438044353 5.448432512953894 11.729088246976968 
v -2.978516732204524 4.902652839094547 10.894589715728344 
v -2.9118266784345717 4.376198439005548 10.04697446348501 
v -2.8547173448794636 3.867970692316953 9.187615351073372 
v -2.8073805248031176 3.3768351564302055 8.317786885498215 
v -2.770013403401912 2.9016291866628663 7.438673272603172 
v -2.7428209586028056 2.441168428376447 6.551376589543314 
v -2.7260181105408843 1.9942523017776401 5.65692500131108 
v -2.719831633251405 1.5596685956010228 4.75628096618089 
v -2.7245018403645243 1.136197280463495 3.8503493925071055 
v -2.7402840543566747 0.7226136468027342 2.9399857241037046 
v -2.7642267116542723 0.3201014111610079 2.0248498283804626 
v -2.7920695602351318 -0.06913757252539046 1.1040996623827248 
v -2.8195566625407666 -0.4428619217770419 0.17693347424635658 
v -2.8424285089420422 -0.798762164986486 -0.7573434790173372 
v -2.8564157929207923 -1.1344362084164128 -1.699250129406621 
v -2.8572366887381073 -1.447368954736251 -2.6490556506961846 
v -2.8405996816033046 -1.734919125085759 -3.6067052307477505 
v -2.802213837364236 -1.9943125356652343 -4.571739905841555 
v -2.73780869355067 -2.2226445367258143 -5.543213917322486 
v -2.6431658757532377 -2.416893143198284 -6.519610166501846 
v -2.5141644909807064 -2.573944765163161 -7.498755802644731 
v -2.3468421303234304 -2.6906344786427403 -8.477740988430543 
v -2.1381246980773185 -2.7639227647237696 -9.452977781539303 
v -1.8906699377943499 -2.7920645386110503 -10.421478335240325 
v -1.6077269066757682 -2.773605327212247 -11.380447471697561 
v -1.2926473752267575 -2.7072536115772645 -12.327200588421185 
v -0.9488760955160487 -2.5918793325876437 -13.259149449057505 
v -0.5799439405706982 -2.4265150078230033 -14.173786765479232 
v -0.1894632261122315 -2.210359783351065 -15.068671234549083 
v 0.2188752990341675 -1.9427865657690992 -15.941413531954513 
v 0.6413043437948646 -1.6233523094912337 -16.789663738288745 
v 1.0739814594389843 -1.2518114300705356 -17.611100708439498 
v 1.5129905529237204 -0.8281322069502899 -18.40342384775953 
v 1.9543437412612665 -0.3525164150318474 -19.164346986415648 
v 2.393984901742351 0.1745787062196492 -19.891596078937646 
v 2.8277950684862745 0.7524161497821295 -20.58291012705529 
v 3.2521321624588344 1.3797353964352974 -21.235910503246465 
v 3.6652406394568455 2.0542343942676164 -21.84778612144502 
v 4.06538980896752 2.7733751614881235 -22.41586608658433 
v 4.450883503379678 3.5343913375532834 -22.93763709493678 
v 4.820069874320283 4.33429764648618 -23.410760385418328 
v 5.171351221673799 5.169901271418929 -23.833088044690232 
v 5.503193755168794 6.0378151118398735 -24.202678467324617 
v 5.814137184298552 6.934472866464056 -24.517810774367344 
v 6.102804029966542 7.856145855673971 -24.77699799949416 
v 6.367908550762526 8.798961468752484 -24.97899886168114 
v 6.60826517828415 9.758923093335763 -25.122827956858263 
v 6.8227963594738865 10.73193135834442 -25.207764218234704 
v 7.0105397095378885 11.713806497783933 -25.233357515613434 
v 7.170654386588567 12.700311621880488 -25.199433287679927 
v 7.302426608584614 13.687176664612567 -25.106095127484792 
v 7.405274244252093 14.670122763304567 -24.95372526958444 
v 7.478750422227146 15.644886816955365 -24.74298295692973 
v 7.52254611638844 16.607245965651597 -24.474800695920624 
v 7.536491679932553 17.553041733901395 -24.15037843836828 
v 7.5205573158486105 18.478203586021813 -23.771175758714413 
v 7.474852486715302 19.378771651687696 -23.338902123059377 
v 7.399624281816662 20.250918394134196 -22.85550537269886 
v 7.295254774105128 21.09096901191093 -22.323158568382105 
v 7.162257413204351 21.895420387017214 -21.744245361883557 
v 7.001272513144876 22.660958417120902 -21.121344078325947 
v 6.813061904608203 23.384473596728302 -20.457210705715813 
v 6.598502830911838 24.063074740937235 -19.75476099717785 
v 6.358581174645158 24.69410077505873 -19.017051896345002 
v 6.094384107664136 25.27513054323213 -18.247262497332187 
v 5.807092261028928 25.803990618507147 -17.448674747855456 
v 5.497971513432737 26.278761125099567 -16.624654097611277 
v 5.168364496784504 26.697779610084382 -15.778630284340323 
v 4.819681915978297 27.059643026190468 -14.914078437468882 
v 4.453393776653621 27.36320790921339 -14.034500664297989 
v 4.07102061009946 27.607588852569943 -13.143408266875594 
v 3.6741247785797078 27.792155397478165 -12.24430471943172 
v 3.2643019374730486 27.916527470052074 -11.340669517069578 
v 2.843172722947678 27.9805695062316 -10.435942986757 
v 2.4123747256516905 27.984383411986393 -9.53351213199217 
v 1.9735548023081986 27.928300509768444 -8.636697563225484 
v 1.5283617683625874 27.812872622934265 -7.7487415475570804 
v 1.0784395061234302 27.638862448050546 -6.872797193696352 
v 0.6254205143339179 27.407233360911366 -6.0119187719095235 
v 0.17091991695025202 27.11913879602709 -5.1690531538822615 
v -0.2834700587934054 26.775911331603947 -4.347032344220212 
v -0.7361851320919209 26.379051602930257 -3.548567063784191 
v -1.1856935496141687 25.930217156925114 -2.7762413352446047 
v -1.6305002072797867 25.431211349678513 -2.0325080131359936 
v -2.0691503272805827 24.883972377389757 -1.3196851942563392 
v -2.5002327092597105 24.290562519439924 -0.6399534394160056 
v -2.9223825782488215 23.65315766063417 0.004646265796155749 
v -3.333933799049313 22.974078912248153 0.6124983548720659 
v -3.7323905137295554 22.255816923242936 1.182884749258799 
v -4.115345765256429 21.500884759562574 1.715269410842096 
v -4.480480136397798 20.71180992843701 2.2092840412579116 
v -4.825559783639009 19.89112868113214 2.6647143738387036 
v -5.148434102945074 19.041382430104424 3.0814872453170525 
v -5.447033251553462 18.16511610152879 3.459658596132583 
v -5.719365736496666 17.26487823371037 3.799402513646723 
v -5.963516336308522 16.34322234306611 4.1010014871915805 
v -6.177644223239821 15.402710514100907 4.3648375437754146 
v -6.359981989598788 14.44591723415849 4.591384955682109 
v -6.5088353379710515 13.475434468487178 4.781204035629742 
v -6.622583688775304 12.493877462553293 4.9349361525860855 
v -6.69968183642956 11.5038910588526 5.0532999455648735 
v -6.738662772432945 10.508156311342782 5.137088698038565 
v -6.738141780041171 9.509397175293492 5.187168821976105 
v -6.696821890441673 8.510387043733623 5.204479387480197 
v -6.613500773863534 7.513954893836597 5.1900326211293315 
v -6.487079120288783 6.522990797758094 5.144915283050069 
v -6.316570542742405 5.540450543035988 5.0702908191483695 
v -6.101113010908127 4.5693590982708585 4.967402170592092 
v -5.839981793460144 3.6128126512083734 4.8375751074373845 
v -5.532603853506093 2.6739789395151794 4.682221937223423 
v -5.1785736025124285 1.756095590640955 4.502845422551527 
v -4.777669873812825 0.8624661875326598 4.301042724396265 
v -4.329873927300878 -0.00354621689013634 4.0785091706158525 
v -3.8355882081827466 -0.8386659341321732 3.83709700648181 
v -3.299989116112603 -1.6431076229668593 3.5801117675097505 
v -2.728150068451904 -2.4180232504718293 3.3107629324441175 
v -2.1247776388684887 -3.1652343900416264 3.0320775693730098 
v -1.4948679295215501 -3.887290000635249 2.745890905209629 
v -0.8456607874868557 -4.587930645174586 2.4497664536793127 
v -0.18401671506841755 -5.271309341875691 2.141092368437209 
v 0.4834563469223835 -5.94182398041367 1.8171332927318375 
v 1.1502619291969889 -6.603966925687653 1.4750866968608498 
v 1.8155317239344857 -7.257555546078155 1.1141213411400046 
v 2.478885248743545 -7.901926469255847 0.7335884928267195 
v 3.1399003638833394 -8.536367367921802 0.3328394666502434 
v 3.798109799872949 -9.160114188977229 -0.08877073426805822 
v 4.452997513080729 -9.772348386053498 -0.5318791912280312 
v 5.103994883098571 -10.372194193684528 -0.9971101931300996 
v 5.750476771867227 -10.958715989744888 -1.4850696433702735 
v 6.391757471867714 -11.530915802256837 -1.996338681228082 
v 7.027086579366462 -12.087731027343766 -2.5314664469599877 
v 7.655644838830277 -12.62803243700387 -3.0909619196137044 
v 8.276540016330225 -13.15062256848594 -3.6752847581782206 
v 8.888802873126828 -13.654234601304255 -4.28483508058387 
v 9.491383325730915 -14.137531843197252 -4.919942121847343 
v 10.083146895568722 -14.599107962389207 -5.580851722975983 
v 10.66287156987494 -15.037488120017603 -6.2677126168335455 
v 11.229245215420306 -15.451131173063473 -6.980561496813668 
v 11.780863707849157 -15.838433133927294 -7.719306879693421 
v 12.31622996129178 -16.19773208709563 -8.483711806276139 
v 12.833754064865241 -16.527314775097526 -9.273375463165715 
v 13.331754753789957 -16.825425073873383 -10.087713856919562 
v 13.80846246196883 -17.090274580250952 -10.92593972838821 
v 14.262024218550316 -17.32005552968294 -11.787041960452042 
v 14.69051066146913 -17.512956248779474 -12.6697648063742 
v 15.091925444168675 -17.667179322340083 -13.572587347802848 
v 15.464217305324842 -17.780962616360355 -14.493703679555034 
v 15.805295052870676 -17.85260324472895 -15.431004410300627 
v 16.11304568032575 -17.880484496152636 -16.38206016071663 
v 16.38535578278463 -17.86310564783217 -17.344107829040848 
v 16.62013636961699 -17.799114482885024 -18.314040472467646 
v 16.81535107923617 -17.68734219985203 -19.288401714585014 
v 16.96904768734511 -17.526840256599375 -20.263385626131008 
v 17.07939266426193 -17.31691853100365 -21.234843030129912 
v 17.14470838127665 -17.05718401242606 -22.198295144119115 
v 17.16351239447956 -16.747579068716938 -23.148955383327813 
v 17.134558053339926 -16.388418173057108 -24.08176000227286 
v 17.056875499055216 -15.980421834972539 -24.9914080435854 
v 16.929811945139086 -15.524746373423236 -25.872410790678273 
v 16.75306998256434 -15.023008110682726 -26.719150588277472 
v 16.526742537936205 -14.477300567068829 -27.52594851037058 
v 16.251343049785376 -13.89020330996186 -28.287139933129705 
v 15.92782942824343 -13.26478126419062 -28.99715663107464 
v 15.557620437696047 -12.6045735282651 -29.650613583618853 
v 15.14260329708293 -11.91357105952977 -30.24239828551102 
v 14.685131529509173 -11.196182981624967 -30.767760029634807 
v 14.188012406505088 -10.45719171302042 -31.222396404302167 
v 13.65448371047462 -9.701697592514929 -31.602534145696943 
v 13.088179962810086 -8.935054157882439 -31.905001528521108 
v 12.493088710423514 -8.162795685569602 -32.12728967339318 
v 11.873497901869035 -7.390558990455161 -32.26760049569577 
v 11.23393578627037 -6.624001785863458 -32.32487950251005 
v 10.579105105818133 -5.868720091759918 -32.298832235386804 
v 9.913813601774752 -5.13016723814966 -32.18992382062089 
v 9.242902997471132 -4.413576935989873 -31.999361782524574 
v 8.571178650814815 -3.7238926848965743 -31.729062953530327 
v 7.903341983632489 -3.065705471129792 -31.381605934199293 
l 1 2
l 2 3
l 3 4
l 4 5
l 5 6
l 6 7
l 7 8
l 8 9
l 9 10
l 10 11
l 11 12
l 12 13
l 13 14
l 14 15
l 15 16
l 16 17
l 17 18
l 18 19
l 19 20
l 20 21
l 21 22
l 22 23
l 23 24
l 24 25
l 25 26
l 26 27
l 27 28
l 28 29
l 29 30
l 30 31
l 31 32
l 32 33
l 33 34
l 34 35
l 35 36
l 36 37
l 37 38
l 38 39
l 39 40
l 40 41
l 41 42
l 42 43
l 43 44
l 44 45
l 45 46
l 46 47
l 47 48
l 48 49
l 49 50
l 50 51
l 51 52
l 52 53
l 53 54
l 54 55
l 55 56
l 56 57
l 57 58
l 58 59
l 59 60
l 60 61
l 61 62
l 62 63
l 63 64
l 64 65
l 65 66
l 66 67
l 67 68
l 68 69
l 69 70
l 70 71
l 71 72
l 72 73
l 73 74
l 74 75
l 75 76
l 76 77
l 77 78
l 78 79
l 79 80
l 80 81
l 81 82
l 82 83
l 83 84
l 84 85
l 85 86
l 86 87
l 87 88
l 88 89
l 89 90
l 90 91
l 91 92
l 92 93
l 93 94
l 94 95
l 95 96
l 96 97
l 97 98
l 98 99
l 99 100
l 100 101
l 101 102
l 102 103
l 103 104
l 104 105
l 105 106
l 106 107
l 107 108
l 108 109
l 109 110
l 110 111
l 111 112
l 112 113
l 113 114
l 114 115
l 115 116
l 116 117
l 117 118
l 118 119
l 119 120
l 120 121
l 121 122
l 122 123
l 123 124
l 124 125
l 125 126
l 126 127
l 127 128
l 128 129
l 129 130
l 130 131
l 131 132
l 132 133
l 133 134
l 134 135
l 135 136
l 136 137
l 137 138
l 138 139
l 139 140
l 140 141
l 141 142
l 142 143
l 143 144
l 144 145
l 145 146
l 146 147
l 147 148
l 148 149
l 149 150
l 150 151
l 151 152
l 152 153
l 153 154
l 154 155
l 155 156
l 156 157
l 157 158
l 158 159
l 159 160
l 160 161
l 161 162
l 162 163
l 163 164
l 164 165
l 165 166
l 166 167
l 167 168
l 168 169
l 169 170
l 170 171
l 171 172
l 172 173
l 173 174
l 174 175
l 175 176
l 176 177
l 177 178
l 178 179
l 179 180
l 180 181
l 181 182
l 182 183
l 183 184
l 184 185
l 185 186
l 186 187
l 187 188
l 188 189
l 189 190
l 190 191
l 191 192
l 192 193
l 193 194
l 194 195
l 195 196
l 196 197
l 197 198
l 198 199
l 199 200
l 200 201
l 201 202
l 202 203
l 203 204
l 204 205
l 205 206
l 206 207
l 207 208
l 208 209
l 209 210
l 210 211
l 211 212
l 212 213
l 213 214
l 214 215
l 215 216
l 216 217
l 217 218
l 218 219
l 219 220
l 220 221
l 221 222
l 222 223
l 223 224
l 224 225
l 225 226
l 226 227
l 227 228
l 228 229
l 229 230
l 230 231
l 231 232
l 232 233
l 233 234
l 234 235
l 235 236
l 236 237
l 237 238
l 238 239
l 239 240
l 240 241
l 241 242
l 242 243
l 243 244
l 244 245
l 245 246
l 246 247
l 247 248
l 248 249
l 249 250
l 250 251
l 251 252
l 252 253
l 253 254
l 254 255
l 255 256
l 256 257
l 257 258
l 258 259
l 259 260
l 260 261
l 261 262
l 262 263
l 263 264
l 264 265
l 265 266
l 266 267
l 267 268
l 268 269
l 269 270
l 270 271
l 271 272
l 272 273
l 273 274
l 274 275
l 275 276
l 276 277
l 277 278
l 278 279
l 279 280
l 280 281
l 281 282
l 282 283
l 283 284
l 284 285
l 285 286
l 286 287
l 287 288
l 288 289
l 289 290
l 290 291
l 291 292
l 292 293
l 293 294
l 294 295
l 295 296
l 296 297
l 297 298
l 298 299
l 299 300
l 300 301
l 301 302
l 302 303
l 303 304
l 304 305
l 305 306
l 306 307
l 307 308
l 308 309
l 309 310
l 310 311
l 311 312
l 312 313
l 313 314
l 314 315
l 315 316
l 316 317
l 317 318
l 318 319
l 319 320
l 320 321
l 321 322
l 322 323
l 323 324
l 324 325
l 325 326
l 326 327
l 327 328
l 328 329
l 329 330
l 330 331
l 331 332
l 332 333
l 333 334
l 334 335
l 335 336
l 336 337
l 337 338
l 338 339
l 339 340
l 340 341
l 341 342
l 342 343
l 343 344
l 344 345
l 345 346
l 346 347
l 347 348
l 348 349
l 349 350
l 350 351
l 351 352
l 352 353
l 353 354
l 354 355
l 355 356
l 356 357
l 357 358
l 358 359
l 359 360
l 360 361
l 361 362
l 362 363
l 363 364
l 364 365
l 365 366
l 366 367
l 367 368
l 368 369
l 369 370
l 370 371
l 371 372
l 372 373
l 373 374
l 374 375
l 375 376
l 376 377
l 377 378
l 378 379
l 379 380
l 380 381
l 381 382
l 382 383
l 383 384
l 384 385
l 385 386
l 386 387
l 387 388
l 388 389
l 389 390
l 390 391
l 391 392
l 392 393
l 393 394
l 394 395
l 395 396
l 396 397
l 397 398
l 398 399
l 399 400
l 400 1
