v -15.531633328935829 -5.992597266774484 -3.791341685627186 
v -15.401766917809658 -6.024753346540049 -4.7823698852934395 
v -15.249278336709844 -6.034628835968756 -5.770643133458434 
v -15.072768380698841 -6.019376400541516 -6.754840154404904 
v -14.870906666499039 -5.97616490814876 -7.733315712815823 
v -14.642455985472049 -5.9022006967732095 -8.704071357974756 
v -14.386300527772747 -5.794754755391 -9.664729361951668 
v -14.101478249986146 -5.651196356860668 -10.612509964851265 
v -13.78721694623665 -5.4690333807501315 -11.544214706608873 
v -13.442973781952215 -5.245959448893285 -12.456216902921122 
v -13.068477612177775 -4.979907670783756 -13.34446134752061 
v -12.663773127718697 -4.6691104304326005 -14.204475278164077 
v -12.229533716774569 -4.312299657342309 -15.031593460675976 
v -11.769652275119402 -3.910385125330594 -15.823413364166568 
v -11.288745074475775 -3.464872478885841 -16.57856514421402 
v -10.791349288380786 -2.977301850786915 -17.296117931474104 
v -10.28190407877414 -2.449223684430526 -17.97553729897356 
v -9.764738874345962 -1.8821804720194226 -18.61664219071437 
v -9.244067905713704 -1.277694318563724 -19.21956256205437 
v -8.723989994467978 -0.6372601312745013 -19.784698719946764 
v -8.208492566746994 0.037655842095176376 -20.312683107406567 
v -7.701458865985635 0.7456124505319428 -20.804345058635047 
v -7.206677363708084 1.4851854044798831 -21.260678862664392 
v -6.727852403176698 2.254954733244157 -21.682815315009552 
v -6.268615151713234 3.0534883067474077 -22.071996807427727 
v -5.832533978848035 3.8793217989795177 -22.429555902913382 
v -5.4231234163229995 4.730935481042051 -22.756897263106747 
v -5.043850891412817 5.606728252037501 -23.055482734602137 
v -4.698140433597875 6.504989417247013 -23.326819374382275 
v -4.3893727123842465 7.423868457982315 -23.572450064386878 
v -4.120880545523729 8.361343704324305 -23.793946537500037 
v -3.8959393175829025 9.315190352465128 -23.99290441918382 
v -3.7177267287613938 10.282951063552488 -24.170901907577527 
v -3.5878208963684632 11.262173244843469 -24.326624230135444 
v -3.5075501057056266 12.250177712656905 -24.458541466160288 
v -3.478095289198216 13.244037664786374 -24.56517381033623 
v -3.5004637197551407 14.240583257040893 -24.645107391442398 
v -3.575462238809865 15.236410151503971 -24.69701110119703 
v -3.7036705096417686 16.22789237143614 -24.719654208294493 
v -3.88541485598485 17.21119972797936 -24.71192447889422 
v -4.120743306530992 18.182319993378936 -24.672846472346546 
v -4.409402513426428 19.137085884784554 -24.601599632403317 
v -4.750817242859991 20.071206793512527 -24.497535752445575 
v -5.14407314416746 20.98030504998676 -24.360195361385486 
v -5.587903486870766 21.859956358872775 -24.18932255783759 
v -6.080680509951621 22.705733877978275 -23.98487781661734 
v -6.620411952862229 23.51325525529683 -23.747048305830308 
v -7.2047432332598715 24.27823178897652 -23.476255286249653 
v -7.830965603925827 24.99651874331098 -23.17315821788795 
v -8.496030464366047 25.66416574830362 -22.83865527108629 
v -9.196569826603994 26.277466138495043 -22.47388002929937 
v -9.928922746730972 26.8330040548219 -22.08019427506803 
v -10.689167342249332 27.327698145674255 -21.659176865344023 
v -11.473157829317348 27.758840762075852 -21.21260882235408 
v -12.276565843081297 28.12413164640536 -20.742454885930314 
v -13.094925157310936 28.421705260916532 -20.250841886808995 
v -13.923678804375394 28.650151085457686 -19.74003440208616 
v -14.758227519336646 28.80852642488814 -19.212408238665535 
v -15.593978396547643 28.89636149563664 -18.670422353942023 
v -16.426392655102664 28.913656796488887 -18.116589862185858 
v -17.25103145971985 28.860872999611313 -17.553448788635137 
v -18.063598832627644 28.73891381314143 -16.98353322120281 
v -18.859980814150422 28.549102456803627 -16.40934547347293 
v -19.636280177680543 28.29315254922415 -15.833329815123998 
v -20.388846170267 27.9731343245009 -15.257848250944656 
v -21.11429892440532 27.591437173221493 -14.685158741785582 
v -21.80954836122682 27.150729539110877 -14.117396165062615 
v -22.471807572338864 26.653917198730547 -13.5565562137332 
v -23.09860082040427 26.104100912003833 -13.004482335635421 
v -23.687766431972832 25.504534361159816 -12.462855723752764 
v -24.237454966504973 24.85858320130789 -11.933188285632152 
v -24.746123130997493 24.169685934075584 -11.416818449255453 
v -25.212523969695127 23.441317193350983 -10.914909604667944 
v -25.63569389393322 22.676953905540493 -10.428450936270595 
v -26.0149371301608 21.88004466152902 -9.958260369792702 
v -26.349808157375783 21.05398251842831 -9.504989339851669 
v -26.640092681798723 20.20208133989338 -9.069129077466085 
v -26.885787660081668 19.327555686888633 -8.651018120372983 
v -27.087080836158137 18.433504187896823 -8.250850760778073 
v -27.244330204268742 17.52289624938212 -7.8686861634467595 
v -27.35804375470518 16.59856191377401 -7.504457910075822 
v -27.428859801956605 15.663184632652323 -7.15798375204862 
v -27.457528139319813 14.719296696054082 -6.828975381528783 
v -27.444892211290135 13.769277043456281 -6.517048059160883 
v -27.39187244638548 12.815351176411754 -6.221729964420725 
v -27.29945084927161 11.859592895366626 -5.942471161117355 
v -27.16865691260294 10.90392759223599 -5.678652095128996 
v -27.00055487602819 9.950136844325565 -5.429591563781195 
v -26.796232332259812 8.999864072767638 -5.194554116135812 
v -26.556790157719412 8.05462104856552 -4.972756860777639 
v -26.28333372767199 7.115795050567908 -4.763375672492486 
v -25.976965362492855 6.184656501359163 -4.5655508016386 
v -25.63877794227182 5.262366928463135 -4.378391900192708 
v -25.26984962083423 4.3499871188824635 -4.200982486610859 
v -24.871239566941714 3.4484853544403844 -4.032383878011993 
v -24.44398465944483 2.5587456333846452 -3.8716386230060706 
v -23.989097064049876 1.6815758000829109 -3.717773471983597 
v -23.507562621729445 0.8177155192964015 -3.569801924084558 
v -23.00033998229256 -0.032155955560180416 -3.426726391582228 
v -22.46836042092376 -0.8674122595541642 -3.2875400232427823 
v -21.91252828033208 -1.6874726685871755 -3.15122822852695 
v -21.333721986293053 -2.491795148789344 -3.0167699444360636 
v -20.732795589628036 -3.279869718247841 -2.883138686502589 
v -20.110580792886118 -4.051212131183573 -2.749303424995558 
v -19.467889425041857 -4.805357890755304 -2.614229326946718 
v -18.805516332288025 -5.541856593870285 -2.4768784041789904 
v -18.12424265739335 -6.26026660961167 -2.3362101071940575 
v -17.424839484033374 -6.960150092058396 -2.1911819045949557 
v -16.70807182591853 -7.641068328284236 -2.040749887712701 
v -15.975511296088198 -8.303475629967444 -1.8838787927727336 
v -15.229529379808486 -8.948872497613259 -1.7195251009308121 
v -14.472382277483394 -9.57884937515082 -1.5466181276573 
v -13.7062288095996 -10.195065576188124 -1.3640617940745237 
v -12.933149656421016 -10.799230352349717 -1.1707366058731912 
v -12.15516759904233 -11.393085785250745 -0.965502004037285 
v -11.374268480569484 -11.978391165523488 -0.7471992615103956 
v -10.592422645022662 -12.55690851305777 -0.5146551105119367 
v -9.811606636478974 -13.13038889017002 -0.2666862963228381 
v -9.033824951653308 -13.700559162317392 -0.0021052646167266393 
v -8.261131635376008 -14.269108868368605 0.28027279986016346 
v -7.495651490200411 -14.837676874063835 0.5816213562536043 
v -6.739600638727473 -15.407837498439122 0.9030920788788496 
v -5.994998506679854 -15.980649282962357 1.2458648879693628 
v -5.260194265486702 -16.552221991698534 1.611112619250352 
v -4.533430264998466 -17.1184560709524 1.9999966347296227 
v -3.813028177973194 -17.675190810131863 2.413643343350446 
v -3.097433758043043 -18.21816949963822 2.853112507521803 
v -2.385261513411103 -18.743008341689237 3.319360000089201 
v -1.6753397772101826 -19.245170882140037 3.8131946200667017 
v -0.9667564639129427 -19.71994989098942 4.335228712229134 
v -0.2589055139737636 -20.16245881908914 4.8858225685758345 
v 0.44853577698389524 -20.567680897056068 5.4649063200963335 
v 1.1559001308035104 -20.93082309439474 6.071351400908141 
v 1.8636836915566328 -21.247606783562897 6.702779432694851 
v 2.572280966003228 -21.514079842268853 7.356149784028925 
v 3.281957748068674 -21.72675400220711 8.027818358642712 
v 3.9928852169207936 -21.88283883013008 8.713550495126588 
v 4.705148029148362 -21.980319135702416 9.408666527260227 
v 5.418738700793986 -22.017918183136228 10.108222913255005 
v 6.133565613178188 -21.995119911392027 10.80715438157153 
v 6.8494422586980495 -21.912437429572165 11.50046945413742 
v 7.566120853850438 -21.771572252234726 12.183499787677038 
v 8.28343298921575 -21.574835037390148 12.85190114199944 
v 9.001362686059469 -21.324711414371514 13.501529853924024 
v 9.72002299099372 -21.023837616638353 14.128429506295674 
v 10.439630692844718 -20.674982734195357 14.728815344338402 
v 11.160480201996876 -20.281037242268773 15.29905836897171 
v 11.882918010763278 -19.845006622314113 15.835671083850276 
v 12.607314278183557 -19.370011584304155 16.335293060849864 
v 13.334034591684023 -18.85929300870969 16.794679943300007 
v 14.06281211417129 -18.31589319549738 17.21132462451467 
v 14.791811834489463 -17.741996743756474 17.58441440245111 
v 15.518946425296484 -17.139575414562067 17.913592821013438 
v 16.24222288351311 -16.510610916699537 18.19867231552106 
v 16.959746688269718 -15.857083255730856 18.439623693964066 
v 17.669724733063 -15.180960125842034 18.636565190604642 
v 18.37046711830203 -14.484187368137478 18.789751265697266 
v 19.060387898299815 -13.768680499988193 18.899561309483712 
v 19.738004881812888 -13.036317303328143 18.96648839192624 
v 20.401938587729916 -12.288931445494066 18.991128182428334 
v 21.050910457773163 -11.52830709430427 18.974168146539036 
v 21.683740426429495 -10.756174479492687 18.916377109750947 
v 22.299343945096783 -9.974206345224102 18.81859526231333 
v 22.896728552931965 -9.184015233046027 18.681724663747037 
v 23.47499008141675 -8.387151531086209 18.506720291655085 
v 24.033308573486906 -7.585102223372543 18.294581666597693 
v 24.570943991446356 -6.779290272617003 18.04634507331427 
v 25.08723178101972 -5.971074570454034 17.763076388452614 
v 25.581578351969263 -5.16175039074927 17.44586451619324 
v 26.05345652886505 -4.352550284003396 17.095815425690247 
v 26.502401018972982 -3.5446453538899516 16.714046778021203 
v 26.928003937909168 -2.73914686042451 16.30168312526229 
v 27.329910427772234 -1.9371080980241115 15.859851660284841 
v 27.70781439695709 -1.139526500657041 15.389678492802464 
v 28.061454405805165 -0.3473459302993769 14.892285424978795 
v 28.390609717673495 0.43854089108107636 14.368787198429414 
v 28.695096530909968 1.2172898418717404 13.820289183616715 
v 28.974764403597696 1.9881027855700437 13.247885482346247 
v 29.229492879761242 2.750224908424219 12.652657414238208 
v 29.459188322990247 3.5029420350544793 12.035672358584984 
v 29.663780961105022 4.245577944001666 11.397982923840043 
v 29.84322214353536 4.977491702253396 10.740626418048409 
v 29.997481811477293 5.698075035157713 10.064624594764137 
v 30.126546179601835 6.4067497457521565 9.37098365035449 
v 30.230415627083538 7.102965195408687 8.660694450018136 
v 30.309102794964954 7.78619585581513 7.934732961307466 
v 30.362630886346814 8.45593894067221 7.194060875410111 
v 30.391032165564955 9.111712124070781 6.439626397884202 
v 30.39434665235858 9.753051351313704 5.672365191933217 
v 30.372621007025604 10.379508746948192 4.8932014586301005 
v 30.325907602677812 10.990650623963505 4.103049139741438 
v 30.254263780930533 11.586055597472573 3.302813229948028 
v 30.157751287669747 12.165312805721088 2.4933911862980866 
v 30.0364358859165 12.728020240941232 1.6756744236552137 
v 29.890387143238105 13.273783192377294 0.8505498857085276 
v 29.71967839162281 13.802212803745602 0.018901681791392552 
v 29.524386858225405 14.312924747440123 -0.8183872196963827 
v 29.304593965892103 14.805538017947859 -1.6604332500542818 
v 29.060385802871142 15.279673847184448 -2.506350459750337 
v 28.791853761597938 15.7349547447909 -3.3552487069748422 
v 28.49909534689795 16.171003666837866 -4.206231823668692 
v 28.182215154363362 16.58744331685498 -5.058395767572518 
v 27.841326020018222 16.983895583630545 -5.910826769147869 
v 27.476550342676536 17.359981120801525 -6.76259948267858 
v 27.088021580604394 17.715319073865604 -7.612775151470873 
v 26.67588592420467 18.049526960885018 -8.460399797836677 
v 26.240304146434042 18.362220713804575 -9.304502449466947 
v 25.78145363251907 18.653014887960556 -10.144093414880873 
v 25.299530590241314 18.921523047998704 -10.978162621871546 
v 24.794752441589544 19.167358339032095 -11.805678034256577 
v 24.26736039590857 19.3901342524349 -12.625584163778607 
v 23.717622203784806 19.58946559616532 -13.436800695678661 
v 23.145835089773996 19.764969679917257 -14.238221248274517 
v 22.552328860671583 19.916267725689167 -15.028712288802655 
v 21.937469184324392 20.04298651450123 -15.807112229807439 
v 21.301661031958652 20.144760279956312 -16.57223073246102 
v 20.64535227462875 20.221232859090538 -17.32284824534183 
v 19.969037421650285 20.27206011045728 -18.057715809351734 
v 19.273261485749853 20.29691260859263 -18.77555516156631 
v 18.558623956125903 20.295478622876686 -19.475059172836218 
v 17.825782856659533 20.26746738728704 -20.15489265582626 
v 17.075458862137594 20.212612665591802 -20.813693581819155 
v 16.308439440558825 20.130676614100896 -21.450074745938885 
v 15.52558298440432 20.021453941140383 -22.06262592136838 
v 14.727822888197649 19.884776358891052 -22.6499165435419 
v 13.916171523804918 19.72051731910074 -23.210498965067355 
v 13.09172405879781 19.52859701940834 -23.742912321152026 
v 12.255662056911179 19.308987661584712 -24.245687043433286 
v 11.409256793283577 19.06171893689385 -24.71735005721572 
v 10.55387221091273 18.7868837070156 -25.156430693047238 
v 9.690967438754456 18.48464384157875 -25.561467338192433 
v 8.822098786338717 18.155236165384743 -25.931014846752163 
v 7.948921124893639 17.79897845994112 -26.263652718820044 
v 7.0731885610096406 17.416275455085522 -26.557994049067005 
v 6.1967543061172705 17.00762473741762 -26.81269523344326 
v 5.321569643790699 16.57362249315808 -27.02646640926192 
v 4.449681897434165 16.114968994150782 -27.1980825888097 
v 3.583231303576171 15.632473727288028 -27.326395429907045 
v 2.724446701094043 15.127060059978092 -27.410345568673122 
v 1.8756399545082705 14.599769327733949 -27.448975420378815 
v 1.0391990402739049 14.05176422491438 -27.441442334018998 
v 0.21757973895404933 13.484331376485525 -27.387031965519864 
v -0.5867041065863827 12.898882967790563 -27.285171713826543 
v -1.371091786246613 12.296957311107725 -27.135444044088548 
v -2.132988366464187 11.680218232604986 -26.93759950345448 
v -2.869778751273044 11.050453171479823 -26.69156921834957 
v -3.5788430996595766 10.40956989485 -26.39747664833329 
v -4.257573506486964 9.759591747490024 -26.055648361533812 
v -4.90339182099664 9.102651374825868 -25.666623591034014 
v -5.514116719957585 8.440898282574617 -25.23177515835353 
v -6.089203932547364 7.77606492722088 -24.755047190856295 
v -6.628524807575147 7.109578326641958 -24.240333960676782 
v -7.132301720003675 6.442570639430593 -23.691413796888565 
v -7.6010619210571635 5.775893141724199 -23.11192156028368 
v -8.035593548527325 5.110132799024907 -22.505329449043014 
v -8.43690456867486 4.445630554398174 -21.87493521342689 
v -8.806185161873206 3.7825005984574607 -21.22385681943613 
v -9.144773844703607 3.1206500301025932 -20.555032613078605 
v -9.45412744215118 2.4597984534450585 -19.87122608467901 
v -9.735794882823171 1.7994971814504586 -19.175034404500128 
v -9.991394699919466 1.1391477848403586 -18.468899939971855 
v -10.222595967302556 0.47802001686557055 -17.755124265392734 
v -10.431102488216782 -0.18473109383413533 -17.035883926609657 
v -10.618639920656964 -0.8500489225423623 -16.313247512614595 
v -10.786945511719969 -1.5189595546554975 -15.589193701350682 
v -10.937760141309889 -2.1925566114033446 -14.865629923610491 
v -11.072822367400898 -2.8719864236246115 -14.144411373199564 
v -11.193864173775722 -3.5584333522916403 -13.42736013587819 
v -11.302608132496566 -4.25310503121947 -12.716284241615988 
v -11.397845991749513 -4.955301685766851 -12.010683677346481 
v -11.477247972781678 -5.663660640016428 -11.309295840308623 
v -11.538465103161487 -6.3767750672354255 -10.610910924410891 
v -11.57912807468989 -7.093172379777826 -9.91438981258437 
v -11.596848275656846 -7.811292318610902 -9.218682387810286 
v -11.589221435567575 -8.529464944539358 -8.522846485750913 
v -11.553834345639723 -9.245888791932364 -7.826067665836718 
v -11.488275129072834 -9.9586096122553 -7.127679829253203 
v -11.390147592376971 -10.665499727942885 -6.427187126006149 
v -11.25709011750226 -11.364239195345672 -5.724286462021357 
v -11.086799577077246 -12.052298943818666 -5.018890922784679 
v -10.877060694726431 -12.726926796828922 -4.3111537124565045 
v -10.625781182954809 -13.385137280873863 -3.6014921867898533 
v -10.33103285700822 -14.023706252275009 -2.8906113937237667 
v -9.9910987349417 -14.63917147988159 -2.1795263559845757 
v -9.604525884839692 -15.227840399410365 -1.4695821415894057 
v -9.170183465412764 -15.785806285730606 -0.7624705803922909 
v -8.687325026067732 -16.30897405373124 -0.060242311191274836 
v -8.155653693248036 -16.79309677613296 0.6346872980912431 
v -7.575495727319098 -17.233998767078706 1.3195187748586832 
v -6.9500348351273145 -17.630886079121286 1.9912759850710826 
v -6.283908682373878 -17.9854607705968 2.647432683570291 
v -5.581486113558768 -18.2998655474891 3.285985592280371 
v -4.84682479024181 -18.576606416002363 3.90541446448298 
v -4.083646407769204 -18.81848149905352 4.504635466927366 
v -3.2953259463970697 -19.028518302014735 5.082952163406894 
v -2.4848918316018778 -19.209920092612737 5.640006758324764 
v -1.6550381878761602 -19.3660205917142 6.175730841288465 
v -0.8081432569102742 -19.5002477018101 6.690299783505769 
v 0.05358115220741916 -19.616009756987754 7.184327892663659 
v 0.927678034433745 -19.716182785131878 7.6596770244822965 
v 1.811681240723141 -19.803228052823734 8.119024233121845 
v 2.703271970671224 -19.87934373238305 8.565466507082505 
v 3.6002042225229878 -19.94617125158864 9.002597011702196 
v 4.500291254004869 -20.00466368536416 9.434403046590967 
v 5.401404723407078 -20.05521137937052 9.865069097200527 
v 6.301441070679416 -20.09763961099376 10.298851259088048 
v 7.198304773797423 -20.1310449612162 10.739929725279676 
v 8.08991490987298 -20.15345969225753 11.192209561765518 
v 8.974071293470914 -20.162410466236526 11.659341682044694 
v 9.848292861811144 -20.155412400189434 12.144840518542281 
v 10.709757051796299 -20.129977976697248 12.652038541771008 
v 11.55524358627252 -20.08363244354982 13.184032156184857 
v 12.381084803246303 -20.013936879318877 13.743617851825277 
v 13.183125267648823 -19.91852002980122 14.333217926086684 
v 13.95669403741443 -19.795119852491457 14.954795701886413 
v 14.696593554626746 -19.641635407628147 15.609760989201698 
v 15.397915397613676 -19.456566727342235 16.298151406074755 
v 16.057061592196366 -19.239488511366297 17.0181407887067 
v 16.670761840174418 -18.99038201738073 17.76733808654467 
v 17.23582309415817 -18.709427023427924 18.543060963053417 
v 17.749167516141625 -18.3970130168001 19.342340774081787 
v 18.207871827105507 -18.05374823481655 20.16193227624024 
v 18.609207339300667 -17.680466156481828 20.998328301690403 
v 18.950679869749134 -17.278229075377116 21.847779518101607 
v 19.230068659558327 -16.848328432760095 22.706319257146905 
v 19.445463374661642 -16.392281655563835 23.569793245955893 
v 19.595298244676876 -15.911825325621312 24.433893918892203 
v 19.678382411680538 -15.40890460176792 25.294198828474443 
v 19.693925612250478 -14.885658922227668 26.146212521597583 
v 19.641558404661037 -14.344404126686394 26.98541110819018 
v 19.52134627704236 -13.787611250797832 27.807288631673412 
v 19.333797127874014 -13.217882355219539 28.607404260996326 
v 19.079861791529954 -12.637923851206786 29.381429268311905 
v 18.760927481089613 -12.05051787015362 30.125192738541067 
v 18.37880422929458 -11.458492290767367 30.834724979099295 
v 17.935704616610256 -10.864690081289009 31.506297659626558 
v 17.434217272987585 -10.271938633077504 32.13645981006245 
v 16.877274817823558 -9.683019755131225 32.72206893611307 
v 16.26811705271073 -9.10064096737115 33.260316667524826 
v 15.610250337504688 -8.527408675811529 33.74874852874785 
v 14.907404157805 -7.965803738379493 34.18527760490963 
v 14.163485929239398 -7.418159840361623 34.56819205974774 
v 13.382535081391977 -6.886644998130857 34.896156637926076 
v 12.568677424406008 -6.373246404089966 35.168208444597745 
v 11.726080728632738 -5.8797587197249 35.383747434161926 
v 10.858912347992776 -5.407775821958008 35.54252215351347 
v 9.971299597663304 -4.958685914635526 35.64461137008331 
v 9.067293463381327 -4.533669835144032 35.69040227073638 
v 8.150836080042426 -4.133702318056989 35.68056594484891 
v 7.225732277850193 -3.7595559246374144 35.61603086569936 
v 6.29562536068123 -3.4118073093317007 35.4979550618024 
v 5.363977158180613 -3.0908454716475218 35.32769762783791 
v 4.434052283847251 -2.7968816329238737 35.10679016761562 
v 3.50890643829499 -2.529960380889893 34.83690869340058 
v 2.591378521166882 -2.2899717386636986 34.51984643106911 
v 1.6840862570407784 -2.0766638368914805 34.15748790277317 
v 0.7894249994801634 -1.889655895974144 33.75178458136072 
v -0.0904306480944987 -1.7284512577678306 33.30473233644774 
v -0.9535227675129464 -1.5924502409455554 32.81835082286671 
v -1.7981039891897728 -1.4809626297741507 32.294664899728936 
v -2.622629645465456 -1.3932196410643152 31.735688113482766 
v -3.425748557446479 -1.328385247438716 31.14340823158629 
v -4.206292774736937 -1.285566766049612 30.51977477479372 
v -4.963266559369928 -1.2638246499272663 29.86668846530838 
v -5.695834874791955 -1.2621814439366128 29.185992484667153 
v -6.403311609298006 -1.2796298887304611 28.479465418512493 
v -7.0851477319829925 -1.3151401741312525 27.748815754597793 
v -7.740919548950946 -1.367666358183803 26.995677794636876 
v -8.37031719886982 -1.4361519799162714 26.22160883912247 
v -8.973133500442005 -1.5195349028994172 25.428087506212066 
v -9.549253240274131 -1.6167514333109543 24.616513050476517 
v -10.098642968127693 -1.7267397607114001 23.788205554065467 
v -10.621341347653333 -1.8484427724373003 22.94440687108094 
v -11.11745009440676 -1.980810293720997 22.086282215167063 
v -11.587125519097794 -2.1228008056364835 21.214922290100013 
v -12.030570682474268 -2.273382692005843 20.331345873156657 
v -12.448028158798877 -2.4315350647098244 19.436502770979004 
v -12.839773397332795 -2.5962482146295844 18.531277077325484 
v -13.206108665382995 -2.766523732876767 17.616490671351606 
v -13.547357552092024 -2.941374344191037 16.69290690378173 
v -13.863860009049162 -3.1198234915186114 15.761234426448267 
v -14.155967901793394 -3.300904707930625 14.822131128142155 
v -14.42404104518942 -3.483660809275275 13.8762081465227 
v -14.668443695333105 -3.6671429383447203 12.924033931976444 
v -14.889541470944296 -3.850409488924503 11.966138344809272 
v -15.087698678011552 -4.032524935915895 11.00301677202777 
v -15.263276012660121 -4.212558595806132 10.035134254245756 
v -15.416628618731135 -4.389583340126716 9.062929616973365 
v -15.548104478309615 -4.562674283197862 8.086819603743768 
v -15.658043115357032 -4.730907464415413 7.1072030112394815 
v -15.74677459463655 -4.893358544598939 6.124464828827001 
v -15.81461880022029 -5.049101535487101 5.13898038672202 
v -15.861884980000628 -5.197207581337771 4.151119518409356 
v -15.888871544759475 -5.336743811762662 3.1612507439488113 
v -15.895866112454021 -5.466772285394888 2.1697454814209367 
v -15.883145790430566 -5.586349044746812 1.1769822940090848 
v -15.850977690258333 -5.694523303656678 0.18335118007416612 
v -15.799619671762 -5.790336790035722 -0.8107420869531863 
v -15.729321314604169 -5.872823268199523 -1.8048715629776015 
v -15.640325117405318 -5.941008266881437 -2.7985866774249164 
l 1 2
l 2 3
l 3 4
l 4 5
l 5 6
l 6 7
l 7 8
l 8 9
l 9 10
l 10 11
l 11 12
l 12 13
l 13 14
l 14 15
l 15 16
l 16 17
l 17 18
l 18 19
l 19 20
l 20 21
l 21 22
l 22 23
l 23 24
l 24 25
l 25 26
l 26 27
l 27 28
l 28 29
l 29 30
l 30 31
l 31 32
l 32 33
l 33 34
l 34 35
l 35 36
l 36 37
l 37 38
l 38 39
l 39 40
l 40 41
l 41 42
l 42 43
l 43 44
l 44 45
l 45 46
l 46 47
l 47 48
l 48 49
l 49 50
l 50 51
l 51 52
l 52 53
l 53 54
l 54 55
l 55 56
l 56 57
l 57 58
l 58 59
l 59 60
l 60 61
l 61 62
l 62 63
l 63 64
l 64 65
l 65 66
l 66 67
l 67 68
l 68 69
l 69 70
l 70 71
l 71 72
l 72 73
l 73 74
l 74 75
l 75 76
l 76 77
l 77 78
l 78 79
l 79 80
l 80 81
l 81 82
l 82 83
l 83 84
l 84 85
l 85 86
l 86 87
l 87 88
l 88 89
l 89 90
l 90 91
l 91 92
l 92 93
l 93 94
l 94 95
l 95 96
l 96 97
l 97 98
l 98 99
l 99 100
l 100 101
l 101 102
l 102 103
l 103 104
l 104 105
l 105 106
l 106 107
l 107 108
l 108 109
l 109 110
l 110 111
l 111 112
l 112 113
l 113 114
l 114 115
l 115 116
l 116 117
l 117 118
l 118 119
l 119 120
l 120 121
l 121 122
l 122 123
l 123 124
l 124 125
l 125 126
l 126 127
l 127 128
l 128 129
l 129 130
l 130 131
l 131 132
l 132 133
l 133 134
l 134 135
l 135 136
l 136 137
l 137 138
l 138 139
l 139 140
l 140 141
l 141 142
l 142 143
l 143 144
l 144 145
l 145 146
l 146 147
l 147 148
l 148 149
l 149 150
l 150 151
l 151 152
l 152 153
l 153 154
l 154 155
l 155 156
l 156 157
l 157 158
l 158 159
l 159 160
l 160 161
l 161 162
l 162 163
l 163 164
l 164 165
l 165 166
l 166 167
l 167 168
l 168 169
l 169 170
l 170 171
l 171 172
l 172 173
l 173 174
l 174 175
l 175 176
l 176 177
l 177 178
l 178 179
l 179 180
l 180 181
l 181 182
l 182 183
l 183 184
l 184 185
l 185 186
l 186 187
l 187 188
l 188 189
l 189 190
l 190 191
l 191 192
l 192 193
l 193 194
l 194 195
l 195 196
l 196 197
l 197 198
l 198 199
l 199 200
l 200 201
l 201 202
l 202 203
l 203 204
l 204 205
l 205 206
l 206 207
l 207 208
l 208 209
l 209 210
l 210 211
l 211 212
l 212 213
l 213 214
l 214 215
l 215 216
l 216 217
l 217 218
l 218 219
l 219 220
l 220 221
l 221 222
l 222 223
l 223 224
l 224 225
l 225 226
l 226 227
l 227 228
l 228 229
l 229 230
l 230 231
l 231 232
l 232 233
l 233 234
l 234 235
l 235 236
l 236 237
l 237 238
l 238 239
l 239 240
l 240 241
l 241 242
l 242 243
l 243 244
l 244 245
l 245 246
l 246 247
l 247 248
l 248 249
l 249 250
l 250 251
l 251 252
l 252 253
l 253 254
l 254 255
l 255 256
l 256 257
l 257 258
l 258 259
l 259 260
l 260 261
l 261 262
l 262 263
l 263 264
l 264 265
l 265 266
l 266 267
l 267 268
l 268 269
l 269 270
l 270 271
l 271 272
l 272 273
l 273 274
l 274 275
l 275 276
l 276 277
l 277 278
l 278 279
l 279 280
l 280 281
l 281 282
l 282 283
l 283 284
l 284 285
l 285 286
l 286 287
l 287 288
l 288 289
l 289 290
l 290 291
l 291 292
l 292 293
l 293 294
l 294 295
l 295 296
l 296 297
l 297 298
l 298 299
l 299 300
l 300 301
l 301 302
l 302 303
l 303 304
l 304 305
l 305 306
l 306 307
l 307 308
l 308 309
l 309 310
l 310 311
l 311 312
l 312 313
l 313 314
l 314 315
l 315 316
l 316 317
l 317 318
l 318 319
l 319 320
l 320 321
l 321 322
l 322 323
l 323 324
l 324 325
l 325 326
l 326 327
l 327 328
l 328 329
l 329 330
l 330 331
l 331 332
l 332 333
l 333 334
l 334 335
l 335 336
l 336 337
l 337 338
l 338 339
l 339 340
l 340 341
l 341 342
l 342 343
l 343 344
l 344 345
l 345 346
l 346 347
l 347 348
l 348 349
l 349 350
l 350 351
l 351 352
l 352 353
l 353 354
l 354 355
l 355 356
l 356 357
l 357 358
l 358 359
l 359 360
l 360 361
l 361 362
l 362 363
l 363 364
l 364 365
l 365 366
l 366 367
l 367 368
l 368 369
l 369 370
l 370 371
l 371 372
l 372 373
l 373 374
l 374 375
l 375 376
l 376 377
l 377 378
l 378 379
l 379 380
l 380 381
l 381 382
l 382 383
l 383 384
l 384 385
l 385 386
l 386 387
l 387 388
l 388 389
l 389 390
l 390 391
l 391 392
l 392 393
l 393 394
l 394 395
l 395 396
l 396 397
l 397 398
l 398 399
l 399 400
l 400 1
