v -33.28625072611734 -9.91266925579316 -9.150216188692104 
v -32.76940846279849 -10.745522547931122 -9.348444617574344 
v -32.23690688275586 -11.5703173965352 -9.538760436507607 
v -31.7361136877609 -12.41074653893427 -9.746005085395494 
v -31.219271421838393 -13.243599782512804 -9.944233492136055 
v -30.68676986312695 -14.068394582752704 -10.13454929767553 
v -30.185976694671016 -14.908823666059304 -10.34179392830886 
v -29.66913444328322 -15.74167683302372 -10.540022306469671 
v -29.136632920134375 -16.566471555195076 -10.730338090644446 
v -28.635839798131904 -17.406900553265952 -10.937582698417739 
v -27.952944966984077 -18.50733513588722 -11.199498436289055 
v -27.20547670282526 -19.66509289550793 -11.466643151706254 
v -26.382906778786108 -20.70626696722987 -11.668235312177977 
v -25.495116936834183 -21.75489769093492 -11.856552547410367 
v -24.56078459951385 -22.722329564745582 -12.002711196646361 
v -23.56967061415038 -23.671853653024062 -12.129043127207177 
v -22.539879467707692 -24.55341550551204 -12.221851841488828 
v -21.460395014848793 -25.400437105156847 -12.291555775664598 
v -20.347233043414803 -26.18397067733632 -12.332029110939018 
v -19.190639959070065 -26.921305035940883 -12.347933654869736 
v -18.005885407886293 -27.595563138231118 -12.337344656579607 
v -16.78316918545695 -28.214848161724863 -12.301695094123978 
v -15.539416952008517 -28.769801478697104 -12.241902148372464 
v -14.262051589858189 -29.262424454618774 -12.156925975278439 
v -12.97312147865083 -29.689364796770395 -12.050441265604864 
v -11.65309163428203 -30.046527805075883 -11.91843193344863 
v -10.334296814751879 -30.337959254094123 -11.76839187888066 
v -8.983873830245535 -30.549535330797536 -11.591417358627275 
v -7.6525039607187795 -30.698308348136095 -11.401400582238013 
v -6.284316995857486 -30.748032279173678 -11.180222586316233 
v -4.96134369134993 -30.743463791080938 -10.953592177684415 
v -3.592533533200644 -30.58489967435988 -10.68309803366718 
v -2.309672707864392 -30.407159968447303 -10.423553008738631 
v -1.3424659211857128 -30.25005296506159 -10.22401048493154 
v -0.36771539806270925 -30.13713695871285 -10.031387469561988 
v 0.6035069846877612 -30.0025745629685 -9.83489230694527 
v 1.5707135014633071 -29.845467597964614 -9.635349838157413 
v 2.5454637445190107 -29.732551610083842 -9.4427268744592 
v 3.516685840736728 -29.59798921741761 -9.24623176284892 
v 4.483892073611696 -29.44088228761008 -9.04668935130431 
v 5.4586420249184 -29.327966324208486 -8.854066442810238 
v 6.429863824294944 -29.19340393577644 -8.657571384494595 
v 7.397069763705274 -29.036297037260145 -8.458029031502761 
v 8.371819418234459 -28.923381103578656 -8.265406180431029 
v 9.654780052622968 -28.74562737756392 -8.005840926623003 
v 11.01290641794689 -28.52502165865101 -7.725648532590942 
v 12.272576239998122 -28.155073494522053 -7.441984164852219 
v 13.552923988844322 -27.715338544510704 -7.144906801240612 
v 14.760208213597227 -27.1770245189363 -6.848580997951272 
v 15.9566942678198 -26.567415381856502 -6.545390619757576 
v 17.08942418314148 -25.874391046445243 -6.244545483273226 
v 18.189286422776437 -25.113900664127705 -5.942473780148713 
v 19.226689196150467 -24.275972743351844 -5.644476960187548 
v 20.214958890266015 -23.379846021304658 -5.3491598709878545 
v 21.138115500851594 -22.409995602312055 -5.054953962549925 
v 22.000799558159812 -21.39789553832258 -4.763250924001028 
v 22.79244209401611 -20.31116157278847 -4.467464645794919 
v 23.516158527166347 -19.20413035578202 -4.174802857210793 
v 24.155197934321865 -18.012457713329283 -3.870796856097541 
v 24.722568030917596 -16.832034619663744 -3.5729797908480028 
v 25.158995895211785 -15.53713547892505 -3.2503977779696194 
v 25.53827493586799 -14.309687029469194 -2.94233946310317 
v 25.801908642506202 -13.375305749047827 -2.7026888662088093 
v 26.112749135552132 -12.453029164948957 -2.472933657333734 
v 26.39983676247938 -11.523936664400395 -2.2397550864029183 
v 26.66347055728689 -10.589555052641984 -2.000104402214618 
v 26.97431114963853 -9.667278137663184 -1.7703491124717732 
v 27.261398839985006 -8.73818529792425 -1.5371704508429964 
v 27.525032717908946 -7.803803353893546 -1.297519676808411 
v 27.835873414548512 -6.881526111370016 -1.0677643062485487 
v 28.215061980123924 -5.65436994224048 -0.7597793246295501 
v 28.585297382188905 -4.342166152135178 -0.4232245580338956 
v 28.790056741085724 -3.0689440609217713 -0.049637057873655355 
v 28.945549565379267 -1.7517284367049042 0.354396801771117 
v 28.993269480034332 -0.4673612456264553 0.7790975318397966 
v 28.97974998727831 0.8353816828469125 1.2272446154860595 
v 28.87910060742794 2.1103338284742783 1.6889530041199703 
v 28.71270627049926 3.386379020877906 2.1673655697288865 
v 28.46932593158505 4.636096613292782 2.6545490296055405 
v 28.160014985652065 5.874621893712272 3.1520206042940777 
v 27.779884495366687 7.086136664534829 3.6540078293597493 
v 27.33630352740793 8.277368107203209 4.160223853924698 
v 26.8262367825223 9.439946053716627 4.666886660197232 
v 26.25704309896336 10.575213575552072 5.172041685828585 
v 25.624448942965575 11.679987987621633 5.673751290630651 
v 24.938688088054356 12.751711745606844 6.168459263656185 
v 24.19111726163595 13.79134236765253 6.656054044387734 
v 23.398328323950416 14.792876383292654 7.131298434590441 
v 22.54282054216969 15.761092880504224 7.59595221503421 
v 21.65303139661276 16.68632063650012 8.042957032885466 
v 20.69493084757055 17.576973577163255 8.475717444171202 
v 19.718429579308765 18.419246980237926 8.885487445362346 
v 18.65846254323403 19.223343601103952 9.275523296542087 
v 17.604720660835515 19.97215524870458 9.637061908604595 
v 16.42779401907759 20.663194930002213 9.962395177892368 
v 15.305489747812716 21.296637619437472 10.25704375043499 
v 14.44713518303475 21.763688405432436 10.469750410590988 
v 13.608233122331406 22.256254818605303 10.701644824938757 
v 12.75921161177364 22.735453240361874 10.924546012256524 
v 11.9008569126556 23.202504095898078 11.137252702371192 
v 11.061954723451633 23.695070575242607 11.369147148002478 
v 10.212933078950208 24.174269042215666 11.592048350229005 
v 9.354578264340956 24.641319953480362 11.804755062299547 
v 8.51567596967246 25.133886490110005 12.036649534965292 
v 7.381865429358004 25.77382334345893 12.334318871505547 
v 6.189917682198371 26.42238988660606 12.629692322628898 
v 4.9429304036581785 26.94207132354812 12.809654023881833 
v 3.6822697447070887 27.43626729265409 12.965181594436677 
v 2.3462673432284085 27.813751639636838 13.000952315650522 
v 1.0581251170787704 28.165406976587995 13.022923086434133 
v 0.09438697511173344 28.43124935423094 13.048917220335134 
v -0.8676852214524243 28.70308050065312 13.074676086605518 
v -1.832319370622757 28.96641999812646 13.091129031339271 
v -2.796057543958341 29.232262384422334 13.117123166086365 
v -4.080249277529266 29.59510759596706 13.151506556142015 
v -5.420368730878223 29.960952270200394 13.174363686374297 
v -6.756411779170854 30.200401488500876 13.051415682836899 
v -8.093751770380887 30.413615605653195 12.89637025905037 
v -9.444846206319479 30.50615723482839 12.585652887763057 
v -10.741576598322656 30.57972073362357 12.277720392945815 
v -11.7109566744629 30.65066054399559 12.042424102092257 
v -12.683400686344958 30.717266897233706 11.818786554818374 
v -13.654911614870262 30.77238067928998 11.588083393170841 
v -14.624297004607037 30.843320880211515 11.35278581037684 
v -15.596740953682913 30.909927216970416 11.129148251878773 
v -16.568251814807148 30.96504096993949 10.898445094216926 
v -17.537636826478884 31.03598114446699 10.663147601556346 
v -18.510079901688034 31.10258740775274 10.439510221669691 
v -19.48158936195192 31.157701051993214 10.208807386334296 
v -20.45097271207036 31.228641105775854 9.97351029589112 
v -21.423413993149218 31.295247231114992 9.749873309565594 
v -22.394921542585713 31.350360733702537 9.519170919344042 
v -23.364302873842046 31.42130064016789 9.283874318391945 
v -24.648138783602914 31.509235322258853 8.988624395299503 
v -26.012829599073488 31.586653815792385 8.664553338874308 
v -27.30572776912482 31.503291333410708 8.313370027120548 
v -28.632847669361798 31.355169194064583 7.938485384271269 
v -29.904776382431606 31.092487874787132 7.5572590117555265 
v -31.18064340025085 30.750494527016933 7.163969592031327 
v -32.40577168533286 30.306729659414085 6.7749511365476796 
v -33.61093840241867 29.775479480185187 6.385209223651895 
v -34.76018230983364 29.14846121171307 6.004381265558996 
v -35.867087198577586 28.432343424478486 5.6282220639504885 
v -36.907101615455765 27.626717997419533 5.262388987085663 
v -37.88439629222061 26.736700722723544 4.903915561031313 
v -38.782095398964934 25.767331113219708 4.554619889599611 
v -39.59963643373624 24.724197233186395 4.212322792054072 
v -40.32516769926805 23.614731228927763 3.8777128803672545 
v -40.956020039930095 22.445608440506277 3.5494497677919727 
v -41.48391534925886 21.22575796823837 3.22764453048231 
v -41.9058625656298 19.963241194188154 2.911386896649532 
v -42.2164243639441 18.66796112540713 2.600484944596212 
v -42.41344743001753 17.34921540115934 2.2942474828678674 
v -42.493978049276606 16.01745402989339 1.992309842674858 
v -42.45744988363524 14.682836738941418 1.6940927821999745 
v -42.30316829760245 13.355918048300078 1.3991118075473605 
v -42.03263566755892 12.047240281378308 1.1068518698605219 
v -41.647146256486295 10.766988428415917 0.816715156561143 
v -41.15060174111735 9.525567271938158 0.5282456359610432 
v -40.546281078379764 8.331969225393342 0.24137157034286894 
v -39.843021587298985 7.193628982877247 -0.040727603355706576 
v -39.0461702788929 6.1156494346231565 -0.3155592934481306 
v -38.16667362875232 5.103219671530547 -0.5802884970808608 
v -37.208287348727815 4.159206446498032 -0.8329394288695031 
v -36.18448463510094 3.2865196340676577 -1.0711284232518794 
v -35.09544907158107 2.4864242202607576 -1.2932851372013647 
v -33.95849154039929 1.7593708815395763 -1.4976268323827597 
v -32.7674888085934 1.106182531745853 -1.6826342571262312 
v -31.546259429937653 0.5242294480670637 -1.8474992912685506 
v -30.2782604218234 0.01590346193470693 -1.9899319785081762 
v -28.998631114481466 -0.4260308355897875 -2.111001339899828 
v -27.67382543066396 -0.7939211274378031 -2.2058016946410794 
v -26.35867310701766 -1.1029495599529135 -2.279365188827546 
v -24.99161780245943 -1.3322464291262501 -2.319657818654737 
v -23.661905361580285 -1.5128723494514742 -2.3407830221492403 
v -22.260959566480217 -1.5852480751800289 -2.3085814339512702 
v -20.94121796425086 -1.6477865049401963 -2.2711759885909206 
v -19.94203402710155 -1.6847962899110867 -2.247600074595599 
v -18.9434854047959 -1.7363832060112694 -2.2246477803750895 
v -17.944861799212244 -1.7837048536099216 -2.1963437749795793 
v -16.945677126506563 -1.8207146658263955 -2.172767843629039 
v -15.947127830461751 -1.8723015888617205 -2.1498155237929204 
v -14.948503617143002 -1.9196232635402928 -2.1215114902040555 
v -13.949318398382717 -1.9566330959835736 -2.0979355459698446 
v -12.9507686155551 -2.0082200195807136 -2.074983204952479 
v -11.952143976121981 -2.0555417150574025 -2.046679147251472 
v -10.952958388553839 -2.092551561162448 -2.023103194315854 
v -9.954408292417636 -2.144138479644469 -2.0001508362416027 
v -8.955783396971816 -2.191460190183153 -1.971846758183073 
v -7.95659760782459 -2.2284700437557987 -1.9482708004918203 
v -6.958047363418537 -2.2800569518814275 -1.9253184292910532 
v -5.959422375256508 -2.327378672068285 -1.8970143344366446 
v -4.960236546623695 -2.364388527104394 -1.8734383758142554 
v -3.961686315556597 -2.4159754198094103 -1.8504859953384138 
v -2.9630612762211586 -2.463297149999965 -1.822181883798815 
v -1.9638753446659158 -2.5003070088488673 -1.7986059227482634 
v -0.6193918360523007 -2.5697654190423873 -1.7677020098432505 
v 0.7554808737971463 -2.6349164316101077 -1.7287337526247648 
v 2.1152405327786683 -2.7270067619746237 -1.532267770658354 
v 3.4445017874294006 -2.8230249177321096 -1.3392722255661942 
v 4.43042719800075 -2.8862056687353195 -1.18361185747178 
v 5.418067307189931 -2.953094031496988 -1.0409117236270136 
v 6.405304301991288 -3.0244063411201476 -0.8975747065465225 
v 7.391229393536105 -3.087587072700034 -0.7419143864397639 
v 8.378869145575253 -3.1544754122454477 -0.5992142786166923 
v 9.366105747691797 -3.2257877076566177 -0.45587731804589526 
v 10.352033975607807 -3.2889686422649143 -0.30021649799879824 
v 11.339672225232588 -3.3558568828595035 -0.157516582264851 
v 12.326908312459583 -3.4271691573523166 -0.014179698044708977 
v 13.3128359821621 -3.490350057939327 0.1414810379517965 
v 14.300473624948655 -3.5572382607523205 0.2841808873475238 
v 15.287709061074723 -3.6285505060019303 0.4275176719491295 
v 16.27363603119426 -3.6917313632173063 0.5831783008947451 
v 17.261272920710052 -3.7586195188471723 0.7258780591476124 
v 18.248507554074838 -3.8299317254124845 0.8692147186199077 
v 19.23443366769272 -3.893112528909177 1.0248752150594944 
v 20.22206964197168 -3.960000626902078 1.1675748551206042 
v 21.20930330562014 -4.031312784236864 1.3109113617323374 
v 22.195228390990692 -4.094493522717379 1.4665716978699408 
v 23.18286327390525 -4.161381551660067 1.6092711906443875 
v 24.170095787689288 -4.232693648264737 1.7526075147489808 
v 25.15601966115409 -4.295874309667864 1.9082676609079379 
v 26.143653266241266 -4.362762257446779 2.050966975807638 
v 27.130884441068005 -4.434074281175224 2.194303086460013 
v 28.116806915092763 -4.497254853191038 2.3499630123518367 
v 29.42239855389215 -4.585676665078074 2.5386028433408545 
v 30.807105902017682 -4.685700300365266 2.7396483751752263 
v 32.129089456915594 -4.8762319000193735 2.870988468080356 
v 33.491469573027686 -5.108429983296029 2.983799889331845 
v 34.80978938069939 -5.405246151360249 3.0481940299988532 
v 36.143475947687186 -5.7504132539799055 3.08580030883322 
v 37.44105727465156 -6.154380458162862 3.081041949836875 
v 38.73566636148917 -6.611460492791368 3.043829673921973 
v 39.994846780515715 -7.126273915020853 2.965820570073903 
v 41.2358189454666 -7.697227448654692 2.8513990637690747 
v 42.43710612594166 -8.325837403399932 2.696154432184188 
v 43.60620476883496 -9.011812441680657 2.501882911643873 
v 44.72792652363271 -9.754786413041401 2.2664398989444106 
v 45.803809060421614 -10.554366062657321 1.9905977149592997 
v 46.82224625576131 -11.408802949632609 1.6736556304829597 
v 47.78118487469124 -12.316841561965115 1.3162469806468367 
v 48.67111886343404 -13.275489159335493 0.9187494711928252 
v 49.48797963593317 -14.282207833064492 0.4821793806859772 
v 50.223657895303376 -15.3327428778093 0.007865682966456122 
v 50.87320899260426 -16.42306548600298 -0.5024814721020321 
v 51.42972141189842 -17.547618746814678 -1.0466049005739955 
v 51.888277447594916 -18.700839941131363 -1.621931951446351 
v 52.24328354913138 -19.875896991465364 -2.225283643033661 
v 52.49061187565132 -21.065807448828288 -2.8531731481408875 
v 52.62628404559053 -22.26261604292992 -3.5015476295824333 
v 52.64760985835055 -23.45819364736426 -4.166065350401762 
v 52.55257761962901 -24.643765512393575 -4.841924424445848 
v 52.34044597834136 -25.810479793138832 -5.524095225242855 
v 52.011465615416625 -26.949191373217158 -6.207241825255888 
v 51.56717459344458 -28.05087061601316 -6.88590980293672 
v 51.01023347305892 -29.10655653008196 -7.554525273784531 
v 50.34456692790046 -30.10765218383678 -8.207542153127264 
v 49.57518182885427 -31.045972220172036 -8.839495860017086 
v 48.708253597351344 -31.913954159993953 -9.445111855345724 
v 47.750838456256204 -32.704732649400476 -10.019388359425413 
v 46.71100136001559 -33.41229465872511 -10.557668360787268 
v 45.597339712435954 -34.0315094199056 -11.055722056128543 
v 44.419279341072915 -34.55827946940571 -11.50979485360612 
v 43.186299166238236 -34.98942879619257 -11.916648054948583 
v 41.908578258364095 -35.322964309095305 -12.273624495876271 
v 40.59574645974701 -35.557653201037716 -12.578572436092163 
v 39.25815005023888 -35.69363471010262 -12.830032703155885 
v 37.904848722610964 -35.73136354018107 -13.02689382389726 
v 36.545883331664726 -35.6730430547043 -13.168925537902162 
v 35.189094378092484 -35.52031294968397 -13.255855637990402 
v 33.84392408117193 -35.27738812233119 -13.288700449413652 
v 32.51645277694975 -34.94632469556865 -13.267652966645109 
v 31.215440473840363 -34.53347237548989 -13.195071671761298 
v 29.944788276163383 -34.04019762299807 -13.071019492753106 
v 28.71269029520978 -33.47550580992134 -12.89950625706722 
v 27.520581893017056 -32.83845915919774 -12.67953838168279 
v 26.37635478368841 -32.141955671021854 -12.417504351014674 
v 25.278872063071237 -31.380290752129252 -12.109873918985478 
v 24.236027205542868 -30.57269764311405 -11.766883954883419 
v 23.244358763482285 -29.70476675626795 -11.380005581589465 
v 22.311899910287067 -28.806527072222444 -10.966087943540922 
v 21.434046884084466 -27.848278976659834 -10.507311369275127 
v 20.618411974383392 -26.878814839976183 -10.032242787419715 
v 19.863628857342526 -25.841461105021004 -9.505683509512151 
v 19.173482601408367 -24.81850542264169 -8.97782740128436 
v 18.571121108560213 -23.70225256485242 -8.377168365773485 
v 18.01788704272058 -22.64502252333784 -7.8091489584765075 
v 17.604135240188782 -21.839683494230894 -7.3843625896121345 
v 17.17488911080512 -21.04423530371727 -6.956329470139117 
v 16.756215073507892 -20.244149376950737 -6.526466230087609 
v 16.34246273553136 -19.43880930398388 -6.10167931387754 
v 15.913216096683767 -18.64336012723863 -5.6736456556542265 
v 15.494541584685885 -17.8432732569674 -5.243781912881872 
v 15.08078878881758 -17.03793228943705 -4.818994531325979 
v 14.651541716934705 -16.242482275115467 -4.390960415686964 
v 14.232866805340969 -15.442394606504136 -3.961096249678294 
v 13.819113625162906 -14.63705288597666 -3.53630848069912 
v 13.389866191150915 -13.841602172499526 -3.1082739834717574 
v 12.971190949339334 -13.041513839768065 -2.6784094678310226 
v 12.557437452404896 -12.236171496074661 -2.2536213831612315 
v 12.128189720647356 -11.440720209774906 -1.8255865736683448 
v 11.709514211472047 -10.64063133467538 -1.3957217753011102 
v 11.295760458814442 -9.835288484955374 -0.9709334399788503 
v 10.866512486934207 -9.039836739636804 -0.5428983808012757 
v 10.447836766726036 -8.239747431454651 -0.11303335991510743 
v 10.034082813165353 -7.434404180753191 0.31175516740073383 
v 9.604834651997841 -6.638952077640976 0.7397904204507887 
v 9.041592405331006 -5.562596098209312 1.318085579074233 
v 8.471405984793355 -4.452767857092152 1.9034784061991492 
v 7.9527610446738 -3.244487168476556 2.316486533949009 
v 7.448084016678526 -2.060685469963516 2.709070949826615 
v 7.084564928377085 -1.1750968589070911 2.998494310650013 
v 6.577829874937149 0.005437669088990571 3.4020182512176302 
v 6.061303922518067 1.2170329485809512 3.803819750584524 
v 5.540388298058869 2.468190949074079 4.047632810090195 
v 5.023715833969918 3.6896061350054103 4.280995396902957 
v 4.655245144494961 4.603838304909809 4.450179459691907 
v 4.276915230981148 5.51252782504104 4.627255600210857 
v 3.8931822398488896 6.4196736801821945 4.80057414126685 
v 3.5247115444470065 7.333905864790987 4.969758206776879 
v 3.1463816475894024 8.242595362345916 5.146834324830364 
v 2.7626486700431814 9.14974113893409 5.320152847624968 
v 2.394178022076199 10.063973205847741 5.48933689135475 
v 2.015848195249154 10.972662546070348 5.666412962696503 
v 1.6321152846159517 11.879808108351169 5.839731442524544 
v 1.2636447391721124 12.794039920887107 6.008915439180184 
v 0.8853150375892138 13.702728964604232 6.185991438703212 
v 0.5015822497544269 14.609874170775747 6.359309849704083 
v 0.13311186492658011 15.524105584796883 6.528493772612196 
v -0.2452176525675036 16.43279418411446 6.705569673510075 
v -0.6289502575032337 17.339938882410337 6.878887987919381 
v -0.9974204190892269 18.25416974253278 7.048071808325291 
v -1.3757496885292146 19.162857737258157 7.225147581394966 
v -1.759482044573358 20.070001761984077 7.39846576878721 
v -2.127951915455633 20.9842319008253 7.5676494557158005 
v -2.627801217098124 22.184792071001947 7.801602266956515 
v -3.1663619639229905 23.45795007531873 8.044850802076372 
v -3.802585189878539 24.61940263462882 8.262759355829258 
v -4.5054495367695955 25.79448416407354 8.483116870717167 
v -5.27837398136427 26.88562706640724 8.690309855820107 
v -6.118529571822116 27.958426011469836 8.897289128569946 
v -7.022431358005063 28.954038819882893 9.09656316983433 
v -7.992396955579807 29.906167208758976 9.294756210240884 
v -9.02231501542587 30.777814422747973 9.488217725862754 
v -10.114109444673236 31.58443422247383 9.68043870862895 
v -11.260146564902518 32.30178545765916 9.869583211898636 
v -12.459932651345792 32.93508868854235 10.05733228612696 
v -13.703528011827313 33.471324140336165 10.238498235202785 
v -14.98728378440334 33.91427618982486 10.409690222730765 
v -16.301305468059137 34.25723766201354 10.56553691674359 
v -17.640606362381913 34.501930622984595 10.702471983425468 
v -18.995604750649683 34.64542239280935 10.81568761844259 
v -20.360342115024014 34.6889829831107 10.901589068608043 
v -21.725496888501546 34.63241057810584 10.956005636843097 
v -23.084605277327928 34.47728841629615 10.975466349903508 
v -24.4285482619557 34.22569140150928 10.956540821437555 
v -25.75082762300516 33.879732039192 10.8959549677513 
v -27.042508238456612 33.44370144194018 10.791216901420487 
v -28.297487210907573 32.92002101636608 10.639164869685548 
v -29.50706408222978 32.315487131800445 10.438626025330084 
v -30.665856805993158 31.632150450480907 10.186180976373812 
v -31.765595198185864 30.880031856065102 9.882702239752057 
v -32.80168589345622 30.059530361632035 9.523615669325043 
v -33.76705673954068 29.185179255915887 9.113955970837647 
v -34.65834826527414 28.252996278447796 8.649080030149081 
v -35.47193926071443 27.283327262146003 8.142592399438193 
v -36.20411973769518 26.263475205516237 7.585554479924133 
v -36.85620933109382 25.223506002571348 7.000520335903694 
v -37.41909766869139 24.134546102758424 6.370653783427281 
v -37.90381294909722 23.044213005041488 5.731700975032751 
v -38.284707912183656 21.897255235220683 5.05123194793609 
v -38.59465762009984 20.774559070141628 4.383893282320194 
v -38.75292135130819 19.572830372455655 3.674016324114514 
v -38.883469124226295 18.43926187853944 3.009655668413039 
v -38.980248601964206 17.587791483771877 2.494229569714864 
v -39.09291863694291 16.732263722353967 1.9888580508393516 
v -39.1917915736822 15.873733024526974 1.4856912739793935 
v -39.28857128931397 15.022260536757392 0.9702639083107125 
v -39.40124157206 14.166730650752172 0.4648911350342786 
v -39.500114732507505 13.308197819325462 -0.0382768778140784 
v -39.59689468830464 12.456723218569003 -0.5537055225508285 
v -39.74826411956012 11.30734202367716 -1.2326601303438176 
v -39.88473823483178 10.122312127380006 -1.927181058711318 
v -39.78635615827664 8.879632432009075 -2.5199155710278935 
v -39.674040488248835 7.667919807958615 -3.089218948389445 
v -39.59701892491487 6.765676946780589 -3.5135749402332883 
v -39.501253294697285 5.55604805632886 -4.090544757000323 
v -39.38586886912216 4.311230121533123 -4.675402040620833 
v -39.036529312670446 3.0618034700912298 -5.146591506819641 
v -38.66766767894081 1.84830837227293 -5.590233329308868 
v -38.36929456273985 0.9483456977185837 -5.908202701436961 
v -38.11618991078561 0.04310706259018726 -6.249590400920594 
v -37.75775264100145 -1.1360934082125755 -6.68069442469718 
v -37.333970683305246 -2.414318198262233 -7.132309068418795 
v -36.85312721372323 -3.5858376515352153 -7.507122692066783 
v -36.2856095901746 -4.82409056240547 -7.8789412968470955 
v -35.705587665567904 -5.966448495037556 -8.19950811354938 
v -34.994313515294266 -7.16010614507784 -8.493856788919867 
v -34.31954551474151 -8.247445213450986 -8.75265570187299 
v -33.78704392730831 -9.072240081164734 -8.942971526332789 
l 1 2
l 2 3
l 3 4
l 4 5
l 5 6
l 6 7
l 7 8
l 8 9
l 9 10
l 10 11
l 11 12
l 12 13
l 13 14
l 14 15
l 15 16
l 16 17
l 17 18
l 18 19
l 19 20
l 20 21
l 21 22
l 22 23
l 23 24
l 24 25
l 25 26
l 26 27
l 27 28
l 28 29
l 29 30
l 30 31
l 31 32
l 32 33
l 33 34
l 34 35
l 35 36
l 36 37
l 37 38
l 38 39
l 39 40
l 40 41
l 41 42
l 42 43
l 43 44
l 44 45
l 45 46
l 46 47
l 47 48
l 48 49
l 49 50
l 50 51
l 51 52
l 52 53
l 53 54
l 54 55
l 55 56
l 56 57
l 57 58
l 58 59
l 59 60
l 60 61
l 61 62
l 62 63
l 63 64
l 64 65
l 65 66
l 66 67
l 67 68
l 68 69
l 69 70
l 70 71
l 71 72
l 72 73
l 73 74
l 74 75
l 75 76
l 76 77
l 77 78
l 78 79
l 79 80
l 80 81
l 81 82
l 82 83
l 83 84
l 84 85
l 85 86
l 86 87
l 87 88
l 88 89
l 89 90
l 90 91
l 91 92
l 92 93
l 93 94
l 94 95
l 95 96
l 96 97
l 97 98
l 98 99
l 99 100
l 100 101
l 101 102
l 102 103
l 103 104
l 104 105
l 105 106
l 106 107
l 107 108
l 108 109
l 109 110
l 110 111
l 111 112
l 112 113
l 113 114
l 114 115
l 115 116
l 116 117
l 117 118
l 118 119
l 119 120
l 120 121
l 121 122
l 122 123
l 123 124
l 124 125
l 125 126
l 126 127
l 127 128
l 128 129
l 129 130
l 130 131
l 131 132
l 132 133
l 133 134
l 134 135
l 135 136
l 136 137
l 137 138
l 138 139
l 139 140
l 140 141
l 141 142
l 142 143
l 143 144
l 144 145
l 145 146
l 146 147
l 147 148
l 148 149
l 149 150
l 150 151
l 151 152
l 152 153
l 153 154
l 154 155
l 155 156
l 156 157
l 157 158
l 158 159
l 159 160
l 160 161
l 161 162
l 162 163
l 163 164
l 164 165
l 165 166
l 166 167
l 167 168
l 168 169
l 169 170
l 170 171
l 171 172
l 172 173
l 173 174
l 174 175
l 175 176
l 176 177
l 177 178
l 178 179
l 179 180
l 180 181
l 181 182
l 182 183
l 183 184
l 184 185
l 185 186
l 186 187
l 187 188
l 188 189
l 189 190
l 190 191
l 191 192
l 192 193
l 193 194
l 194 195
l 195 196
l 196 197
l 197 198
l 198 199
l 199 200
l 200 201
l 201 202
l 202 203
l 203 204
l 204 205
l 205 206
l 206 207
l 207 208
l 208 209
l 209 210
l 210 211
l 211 212
l 212 213
l 213 214
l 214 215
l 215 216
l 216 217
l 217 218
l 218 219
l 219 220
l 220 221
l 221 222
l 222 223
l 223 224
l 224 225
l 225 226
l 226 227
l 227 228
l 228 229
l 229 230
l 230 231
l 231 232
l 232 233
l 233 234
l 234 235
l 235 236
l 236 237
l 237 238
l 238 239
l 239 240
l 240 241
l 241 242
l 242 243
l 243 244
l 244 245
l 245 246
l 246 247
l 247 248
l 248 249
l 249 250
l 250 251
l 251 252
l 252 253
l 253 254
l 254 255
l 255 256
l 256 257
l 257 258
l 258 259
l 259 260
l 260 261
l 261 262
l 262 263
l 263 264
l 264 265
l 265 266
l 266 267
l 267 268
l 268 269
l 269 270
l 270 271
l 271 272
l 272 273
l 273 274
l 274 275
l 275 276
l 276 277
l 277 278
l 278 279
l 279 280
l 280 281
l 281 282
l 282 283
l 283 284
l 284 285
l 285 286
l 286 287
l 287 288
l 288 289
l 289 290
l 290 291
l 291 292
l 292 293
l 293 294
l 294 295
l 295 296
l 296 297
l 297 298
l 298 299
l 299 300
l 300 301
l 301 302
l 302 303
l 303 304
l 304 305
l 305 306
l 306 307
l 307 308
l 308 309
l 309 310
l 310 311
l 311 312
l 312 313
l 313 314
l 314 315
l 315 316
l 316 317
l 317 318
l 318 319
l 319 320
l 320 321
l 321 322
l 322 323
l 323 324
l 324 325
l 325 326
l 326 327
l 327 328
l 328 329
l 329 330
l 330 331
l 331 332
l 332 333
l 333 334
l 334 335
l 335 336
l 336 337
l 337 338
l 338 339
l 339 340
l 340 341
l 341 342
l 342 343
l 343 344
l 344 345
l 345 346
l 346 347
l 347 348
l 348 349
l 349 350
l 350 351
l 351 352
l 352 353
l 353 354
l 354 355
l 355 356
l 356 357
l 357 358
l 358 359
l 359 360
l 360 361
l 361 362
l 362 363
l 363 364
l 364 365
l 365 366
l 366 367
l 367 368
l 368 369
l 369 370
l 370 371
l 371 372
l 372 373
l 373 374
l 374 375
l 375 376
l 376 377
l 377 378
l 378 379
l 379 380
l 380 381
l 381 382
l 382 383
l 383 384
l 384 385
l 385 386
l 386 387
l 387 388
l 388 389
l 389 390
l 390 391
l 391 392
l 392 393
l 393 394
l 394 395
l 395 396
l 396 397
l 397 398
l 398 399
l 399 400
l 400 1
