v 24.855904374146736 2.365727103785481 -5.076900304502084 
v 24.450510078635766 2.9839337840496003 -5.750384633924874 
v 24.005568674896658 3.5870256624236196 -6.4125127950894285 
v 23.521804938338278 4.173665509467899 -7.062077182736841 
v 23.000040619770804 4.742540635161094 -7.697884540426312 
v 22.441318626738287 5.2927266377207225 -8.318554705738865 
v 21.846953838841184 5.823926993379283 -8.92242574612262 
v 21.218312543163865 6.33591284338146 -9.507901269466462 
v 20.556806988998986 6.828520656705769 -10.073450929850104 
v 19.863889944956384 7.30165029771825 -10.617611182517459 
v 19.14104962829154 7.755262860173781 -11.138985598797815 
v 18.389804986141804 8.189378373065363 -11.636244859830642 
v 17.611701351714853 8.604073401052762 -12.108126460324835 
v 16.808306487038905 8.999478569298546 -12.553434164552302 
v 15.981207019437143 9.375776039764029 -12.971037256361734 
v 15.13200527386777 9.733196964121529 -13.359869625258641 
v 14.262316498617716 10.072018936314025 -13.718928730290466 
v 13.373766477465393 10.392563465587852 -14.047274482787824 
v 12.467989517360715 10.695193488555715 -14.344028087977376 
v 11.546626796913351 10.980310936546209 -14.60837088414377 
v 10.611325057513666 11.248354372192887 -14.839543216417164 
v 9.663735615902201 11.499796706905913 -15.036843380421356 
v 8.705513672637684 11.735143008876085 -15.199626668999477 
v 7.738317903727682 11.954928406780445 -15.327304553333398 
v 6.763810160983054 12.15971611319824 -15.419344015727022 
v 5.783655636794872 12.350095500521876 -15.475267040234744 
v 4.799524055511299 12.526680240358855 -15.494650564290675 
v 3.8129099677998655 12.689122948675056 -15.478083324031273 
v 2.8252033057149455 12.836883170732321 -15.426426299863524 
v 1.8377220761391566 12.969453595243403 -15.340585597898253 
v 0.8517134163551752 13.086358059614081 -15.221506117653671 
v -0.13164507723824118 13.187149569236032 -15.070165713303266 
v -1.1112436082852755 13.271408306723703 -14.887569824023222 
v -2.0860381044064313 13.338739657545505 -14.674746578700743 
v -3.0550478583907204 13.388772271461763 -14.432742371349338 
v -4.017352936822141 13.42115617721281 -14.162617898350842 
v -4.972091401603419 13.435560965560702 -13.865444644239757 
v -5.91845638612844 13.431674053515183 -13.542301798826156 
v -6.855693051124037 13.409199041573949 -13.194273591475751 
v -7.783095607624424 13.367854153865096 -12.822446941085746 
v -8.700003847233978 13.307370816675338 -12.427909668944906 
v -9.60580014725723 13.22749235136388 -12.011748884832743 
v -10.499906258734208 13.127972771549379 -11.57504974405484 
v -11.381780116337708 13.00857570282087 -11.118894499616058 
v -12.250912667073015 12.869073427425608 -10.644361832361362 
v -13.106824729037205 12.70924605676383 -10.152526438411252 
v -13.94906388831511 12.528880834614572 -9.644458855209718 
v -14.77720144076963 12.327771574491793 -9.121225509308404 
v -15.590829384763165 12.105718235351924 -8.58388897095331 
v -16.389557470461863 11.862526641171122 -8.033508402784204 
v -17.173010317534104 11.598008348992806 -7.471140187446458 
v -17.9408245262025 11.31198071336456 -6.897838793841646 
v -18.69264711064597 11.004266449065437 -6.314656716027156 
v -19.428131541000337 10.674694222425689 -5.72264639499092 
v -20.14693372052797 10.323100186898143 -5.12286295589749 
v -20.84871144633928 9.949328288174117 -4.516364390922366 
v -21.53312206015117 9.553231310647337 -3.904213171121486 
v -22.19982034112994 9.134672170237558 -3.2874779489462695 
v -22.84845736783535 8.693524803895725 -2.667234547491825 
v -23.47867764867658 8.229676612259663 -2.0445688942860003 
v -24.090118057449903 7.743030463486205 -1.420578726025402 
v -24.68240690867649 7.233506930007354 -0.7963753530008456 
v -25.255162719962208 6.701047380432331 -0.173086059479856 
v -25.807994020169495 6.145616807717439 0.4481443206344125 
v -26.340499136537264 5.567207064479814 1.066151712174316 
v -26.852266083186354 4.965840511437253 1.6797511388425825 
v -27.34276770924301 4.341802175027308 2.2880548746666722 
v -27.810928387662162 3.6965612174463867 2.8918241148014 
v -28.255569983327078 3.031746573879519 3.492125446516462 
v -28.675535597117737 2.3489792025021123 4.090041085337803 
v -29.069682566312522 1.649879817687129 4.686659311243228 
v -29.436876571753334 0.9360774276455238 5.283065062120141 
v -29.775986930028594 0.20921864120385916 5.88033055430909 
v -30.08588320188388 -0.5290223913205582 6.47950588164463 
v -30.36543322433355 -1.2769335546011498 7.081609537600383 
v -30.613502656577467 -2.0327540324319897 7.687618803907652 
v -30.82895611319279 -2.7946634420278436 8.29845994505188 
v -31.01065994790061 -3.5607710840789526 8.914998187775915 
v -31.157396942133673 -4.329134414501225 9.53801406497839 
v -31.267325599706844 -5.097966674448552 10.168001758810775 
v -31.338552409688265 -5.865354375173276 10.805281452700477 
v -31.369215448167104 -6.629210381508722 11.450013012326657 
v -31.357452196716668 -7.387314496822539 12.102124521714938 
v -31.301337068341056 -8.13740423421151 12.761171691033603 
v -31.198931206092013 -8.877185511855794 13.426290175184377 
v -31.048366034823967 -9.604309859350593 14.096206006338624 
v -30.847917908549658 -10.316364178818338 14.769250249860653 
v -30.596074287685983 -11.010869062325604 15.443379838647566 
v -30.29159710415184 -11.685298252375594 16.116191368219003 
v -29.93364260905012 -12.337280140821509 16.784805959138115 
v -29.52188270303769 -12.964810012122706 17.445816618518514 
v -29.056430584495413 -13.566079406951935 18.095525494278224 
v -28.53774062049966 -14.139261312863715 18.730138118268343 
v -27.966630467242844 -14.68252908623841 19.34578520408474 
v -27.34430045860968 -15.194078326842636 19.938549051474407 
v -26.672349408626452 -15.672150524262847 20.50449360644865 
v -25.952786038030222 -16.11505829991543 21.039698060268975 
v -25.188035268355975 -16.52121180738517 21.540293569648217 
v -24.380938691838885 -16.88914580554611 22.0025025694297 
v -23.534748628498285 -17.217546843818752 22.42268000712093 
v -22.653115316162044 -17.50527994264205 22.797355702707225 
v -21.740066961603638 -17.75141411362407 23.123276928291368 
v -20.799982514598103 -17.95524603664619 23.397450208735435 
v -19.83755757086463 -18.116321277621893 23.617181358366608 
v -18.85776243409299 -18.234452091976685 23.78011229816035 
v -17.865799461580757 -18.309733110902616 23.884256081694957 
v -16.8670839653154 -18.34244991362975 23.92881915132941 
v -15.866998102380167 -18.333028474457244 23.914589142266554 
v -14.870658023455713 -18.282182714124865 23.842763496165443 
v -13.882869876949822 -18.1908834466843 23.71489472679977 
v -12.908088563103416 -18.060327977928985 23.532847201693382 
v -11.950387581066703 -17.89190738220997 23.298750955275516 
v -11.01343791488049 -17.68717319170801 23.014954937958134 
v -10.100495864259 -17.447804264646546 22.683980756637954 
v -9.214399047453275 -17.175574629244746 22.308477998337096 
v -8.35756972530876 -16.872322947022642 21.89118201243969 
v -7.532024469627336 -16.539924105996647 21.43487483933737 
v -6.739389146761925 -16.180263318578643 20.94234978313688 
v -5.980918178762935 -15.795212971070619 20.41637994772328 
v -5.257517075828625 -15.38661235551936 19.859690894356483 
v -4.569767296009284 -14.956250313466965 19.274937439266434 
v -3.917952572755446 -14.505850736454452 18.664684493536733 
v -3.3020859500659108 -14.037060800469694 18.031391755412386 
v -2.721936871703084 -13.551441760383739 17.37740199619931 
v -2.1770577793373866 -13.050462094586194 16.704932633336554 
v -1.6668097798948383 -12.535492767829325 16.01607025556966 
v -1.1903870413275515 -12.00780436977028 15.312767752635715 
v -0.7468396661100849 -11.468565885814305 14.596843702575299 
v -0.33509487154137535 -10.918844863597545 13.869983680872753 
v 0.046023625247847415 -10.359608750930313 13.133743174456718 
v 0.39777806184188086 -9.791727197570498 12.389551807818012 
v 0.7215009215926792 -9.215975132364436 11.638718616105013 
v 1.0185810205783163 -8.633036447874384 10.882438129367152 
v 1.2904513210899393 -8.043508145641061 10.121797061800303 
v 1.5385783811760134 -7.447904815961773 9.357781428880562 
v 1.764453335241403 -6.8466633459513355 8.591283942906342 
v 1.9695842916350428 -6.240147768316924 7.823111563190577 
v 2.155490028534756 -5.628654180482303 7.05399310063671 
v 2.323694868312545 -5.012415679319008 6.284586797531659 
v 2.475724612104103 -4.391607270747892 5.51548782205299 
v 2.6131034197863547 -3.7663507258957716 4.747235633261565 
v 2.7373515253671874 -3.1367193664072768 3.9803211863405554 
v 2.8499836833738192 -2.5027427711407677 3.2151939598243655 
v 2.9525082464158507 -1.864411412851704 2.4522688062023694 
v 3.046426779105367 -1.2216812130574914 1.6919326070817253 
v 3.1332341357918962 -0.574478027623753 0.9345507290657885 
v 3.2144189112060433 0.07729789486642695 0.1804733193398507 
v 3.29146418244363 0.7337674626743069 -0.5699585456759846 
v 3.3658484713443957 1.395068278407948 -1.3164068501372628 
v 3.4390468580731595 2.0613501340259406 -2.0585307486333955 
v 3.512532178829147 2.73277043019663 -2.795980777533088 
v 3.587776241764409 3.4094894846153405 -3.5283931501288888 
v 3.666250995366038 4.091665692073102 -4.255384119775782 
v 3.7494295827489945 4.779450497720464 -4.976544398130725 
v 3.83878721351735 5.472983143982978 -5.691433619434423 
v 3.935712221286032 6.17201085643065 -6.399956899514606 
v 4.041308351533237 6.875063808833823 -7.103239094120035 
v 4.1566886622818835 7.580683354048656 -7.80240185666896 
v 4.282975183709631 8.287410310979482 -8.498554870420213 
v 4.421298143879991 8.993773187815771 -9.19278725177753 
v 4.57279465699046 9.698276423776845 -9.886158984692052 
v 4.738606746036632 10.399388706490251 -10.57969221955227 
v 4.9198785902383495 11.095531434811866 -11.274362279017952 
v 5.117752874731746 11.78506743761821 -11.971088255649988 
v 5.333366110711101 12.466290060127957 -12.670723079424102 
v 5.56784279026731 13.137412752991802 -13.374042947200648 
v 5.82228824275014 13.796559341490969 -14.081736039147309 
v 6.097779903894676 14.441754874920655 -14.794390109411966 
v 6.395556270712988 15.072127406956806 -15.511335813188243 
v 6.7168294190443545 15.686752741274303 -16.23180366381938 
v 7.062773852629558 16.284631663228886 -16.954936943927144 
v 7.434517461802065 16.86468829349109 -17.679784519117923 
v 7.833131247448201 17.42576913203404 -18.405293724702027 
v 8.2596177998306 17.96664296675409 -19.130303506337835 
v 8.714898305499563 18.486001602422462 -19.85353767750441 
v 9.199798357319544 18.9824619515768 -20.573598970669835 
v 9.715032344837319 19.45456927621741 -21.288963605547803 
v 10.26118654830674 19.900801928254012 -21.9979767909748 
v 10.838701003745696 20.319577736187195 -22.698849368400634 
v 11.447850223880021 20.70926220241377 -23.389655828937848 
v 12.088723347388703 21.068178772491045 -24.06833428685782 
v 12.761202922427172 21.39462087801304 -24.732687731434535 
v 13.464943726847244 21.686866717228348 -25.380388244545056 
v 14.199351534115932 21.94319624462987 -26.008983660569044 
v 14.963562316715363 22.161910545512804 -26.615907110517544 
v 15.756422435817736 22.341353608405754 -27.19848976277086 
v 16.576470417892967 22.479936408260542 -27.753976995839132 
v 17.421920986586034 22.576163133068288 -28.27954818672034 
v 18.290652070564562 22.628659291820426 -28.772340222759357 
v 19.180195543209123 22.636201338599413 -29.22947475047903 
v 20.087732461881725 22.59774733876917 -29.648089061346266 
v 21.010093557753788 22.512468093026374 -30.02537038363624 
v 21.943765675768113 22.37977802928425 -30.35859320456265 
v 22.884904779818648 22.19936507433858 -30.645159092107164 
v 23.82935598792652 21.97121865210239 -30.88263833161832 
v 24.772681045351707 21.695654820349084 -31.068812510513386 
v 25.71019307864029 21.373337733408835 -31.201717073742596 
v 26.636998845157244 21.005296436481892 -31.279682860002936 
v 27.548047845628528 20.592936104635925 -31.301375301412595 
v 28.43818769760745 20.138042981835113 -31.265830128964367 
v 29.302224794051003 19.642782398992825 -31.172484361069067 
v 30.134989024916873 19.10968944328809 -31.02120142897942 
v 30.931401102867135 18.54165207619599 -30.812289410801554 
v 31.686540849156405 17.941886749957675 -30.546511521968114 
v 32.395714671417586 17.313906838992743 -30.22508823569273 
v 33.054520413488525 16.66148447017511 -29.849690673434605 
v 33.658907785329255 15.988606589057559 -29.422425200045165 
v 34.20523269039685 15.299426323306903 -28.945809465868646 
v 34.69030395504006 14.598210886427475 -28.422740441930664 
v 35.111421220690914 13.889287393410411 -27.856455277573044 
v 35.46640307126101 13.176988027758293 -27.250486056710834 
v 35.753604817878575 12.465596002936719 -26.608609725922605 
v 35.97192573128284 11.759293701515148 -25.934794604896478 
v 36.12080587842886 11.06211425703727 -25.233144961547776 
v 36.20021306460463 10.377897675588452 -24.50784513907177 
v 36.21062068839674 9.710252387490247 -23.763104663335703 
v 36.15297757042473 9.062522887712289 -23.003105643273255 
v 36.02867100844148 8.437763880277346 -22.23195361434045 
v 35.83948443634206 7.838721100555993 -21.453632777740395 
v 35.58755112256231 7.267818761952899 -20.671966369152386 
v 35.275305338097404 6.727153370037252 -19.890582663193488 
v 34.90543236309499 6.218493475067893 -19.112886895911274 
v 34.48081859325797 5.7432847977583465 -18.342039177670653 
v 34.00450286413827 5.302660064966238 -17.58093828108569 
v 33.47962994429059 4.8974528312862535 -16.832211028963712 
v 32.90940696828955 4.528214536758654 -16.09820687894391 
v 32.29706339785568 4.195234056029312 -15.3809972057402 
v 31.64581492233914 3.8985590252594813 -14.682378717816071 
v 30.95883154534337 3.638018284325473 -14.003880410570677 
v 30.239209957239833 3.4132448377453857 -13.346773449246676 
v 29.489950166832127 3.223698812985273 -12.712083387653143 
v 28.713936260951318 3.0686899745424436 -12.10060415901439 
v 27.91392107841287 2.947399432404672 -11.512913318418214 
v 27.09251452356168 2.8589002608630922 -10.949388068328563 
v 26.252175202803276 2.802176815743873 -10.410221655771863 
v 25.39520504282806 2.77614260320978 -9.89543978898819 
v 24.523746538741875 2.7796566104122844 -9.404916779854364 
v 23.639782285118986 2.8115380563860457 -8.938391175670862 
v 22.745136422686933 2.870579567790443 -8.495480684764253 
v 21.841477996227386 2.9555587461933097 -8.075696366535535 
v 20.93003820714101 3.0644874146280343 -7.678904542031462 
v 20.011826078651172 3.195221729630733 -7.30497840981197 
v 19.08769814327686 3.345631551509526 -6.953715854030749 
v 18.158370129038232 3.513606067280483 -6.624852337868582 
v 17.224428950360824 3.6970575817871847 -6.318072555963149 
v 16.286344876435127 3.893923697345774 -6.033020886659174 
v 15.344483744570546 4.102168095170768 -5.769310677268226 
v 14.399119126236917 4.319780121585799 -5.526532410563568 
v 13.450444385187957 4.544773370408828 -5.304260809108081 
v 12.498584594603942 4.775183440679426 -5.10206093873921 
v 11.543608303427508 5.0090650369033005 -4.919493374186657 
v 10.585539161259112 5.244488567876349 -4.756118489028918 
v 9.624367426602658 5.479536390427914 -4.611499929563392 
v 8.66006139518026 5.712298836476572 -4.485207328151 
v 7.6925787937084475 5.940870155898739 -4.376818306605487 
v 6.721878190124789 6.163344504054001 -4.285919814571506 
v 5.747930474144849 6.377812101432137 -4.2121088418803 
v 4.770730452886875 6.582355695646872 -4.154992537480818 
v 3.7903089036759323 6.775047404927376 -4.114187767695308 
v 2.8068668431139567 6.9545364075826095 -4.088732692049096 
v 1.8207963380037944 7.120494144002697 -4.076652799171092 
v 0.8324202282310522 7.272598705515994 -4.075977887530945 
v -0.1579950119644043 7.410530664313741 -4.084742650956278 
v -1.1502269777204024 7.533969521884849 -4.100986475605962 
v -2.144085062436296 7.642590672840283 -4.122752639969414 
v -3.139398201395337 7.736062899438142 -4.148087071182852 
v -4.1360025961001865 7.814046412646041 -4.175036807529085 
v -5.133729381311037 7.876191460122859 -4.201648314383279 
v -6.132392195872237 7.922137526556473 -4.225965799835128 
v -7.131774621003449 7.951513157158231 -4.24602967675317 
v -8.131617455860122 7.963936440494775 -4.2598753200691934 
v -9.131605809928605 7.959016191914939 -4.2655322713649415 
v -10.131356005327369 7.936353883253657 -4.261024047157526 
v -11.130402299459305 7.895546367881396 -4.244368712219933 
v -12.128183459804678 7.836189452096926 -4.213580384346407 
v -13.124029248022804 7.757882363882926 -4.166671841574775 
v -14.117146899933559 7.660233167685241 -4.101658406290504 
v -15.106607721265725 7.54286516865669 -4.0165632820310915 
v -16.09133395604108 7.405424341254457 -3.9094245172533504 
v -17.07008612470036 7.247587804759182 -3.7783037648010596 
v -18.041451071970464 7.069073351814966 -3.621296995229465 
v -19.003831009214473 6.869650015175458 -3.436547305373308 
v -19.955433881571295 6.649149632287779 -3.2222599394328353 
v -20.894265435324783 6.407479337076655 -2.9767196072486866 
v -21.8181234041567 6.1446348733613085 -2.69831014222543 
v -22.724594272492332 5.86071458496227 -2.3855364885063524 
v -23.611053108217323 5.555933894062845 -2.037048942476347 
v -24.47466698234481 5.230640033043923 -1.6516694975105262 
v -25.312402515663177 4.885326741472466 -1.228420045278682 
v -26.121038050190787 4.520648622981875 -0.7665521313925372 
v -26.89718122684627 4.137434554078034 -0.26557747375922974 
v -27.637290893434905 3.736701295245846 0.2746989218034532 
v -28.33800203103694 3.3190434485554414 0.8533402913304385 
v -28.99643007607924 2.884306868599179 1.467947540559285 
v -29.609886245058075 2.4323380832420307 2.115764463572488 
v -30.175820732112378 1.9630881453013993 2.7938497606584374 
v -30.69183909036977 1.476616787382972 3.499082761637901 
v -31.155719591484324 0.9730956719004925 4.228171408367104 
v -31.565430385218775 0.4528111162090964 4.9776618409295965 
v -31.919146788563527 -0.0838340482560311 5.743949951819424 
v -32.21526828914219 -0.6363195290659237 6.523294862694098 
v -32.452435036964225 -1.2040076302077443 7.311834333186848 
v -32.62954356083066 -1.7861443919758653 8.10560207983905 
v -32.74576148105612 -2.381861813223048 8.900546878401542 
v -32.80057801403251 -2.9901690132170384 9.692559255176842 
v -32.794055771782816 -3.609866242164504 10.477579981120147 
v -32.726967550910175 -4.239541974109173 11.25174109176163 
v -32.600425426575384 -4.87776868352846 12.01132257097723 
v -32.415815171074954 -5.523140431356291 12.752750805610008 
v -32.174833279044 -6.17423230483982 13.47267922972536 
v -31.879532065645297 -6.829538180979642 14.168126397494037 
v -31.532267265784455 -7.487483543248062 14.836537680479173 
v -31.135613927490954 -8.146470828864507 15.47578898850342 
v -30.692290335947746 -8.804914479655494 16.08417892924621 
v -30.205092661141773 -9.461265267778863 16.66041279545078 
v -29.676834725451176 -10.114021909958163 17.203585401895438 
v -29.110243113235583 -10.761600967682517 17.713271609200987 
v -28.507807146202573 -11.40212901641639 18.189653932227074 
v -27.87181712693004 -12.033630103471491 18.63333281695534 
v -27.204494360720766 -12.654308163668178 19.045101204002723 
v -26.5079792414981 -13.262538286131061 19.425921548554246 
v -25.784319991966033 -13.856859016751878 19.776905807747873 
v -25.035464989918886 -14.435962198936295 20.099295528739457 
v -24.263257623816646 -14.998682090583639 20.39444353435803 
v -23.469433537939643 -15.54398389975265 20.663797162787393 
v -22.655619996823276 -16.070952030737974 20.90888312747055 
v -21.823337122960503 -16.578778272485092 21.131294000842942 
v -20.974000772843528 -17.06675012735416 21.33267629142339 
v -20.10892683375592 -17.53423944443181 21.514720056005856 
v -19.22933674093503 -17.98069149240369 21.679149968703342 
v -18.336364068756684 -18.405614567593993 21.827717750925814 
v -17.43106151920206 -18.808570412799412 21.962195913108545 
v -16.51429141176588 -19.189322628735244 22.082986233041517 
v -15.586850729663245 -19.54773431242308 22.189872531927822 
v -14.649532939760327 -19.88367902908041 22.28264228332199 
v -13.70312873247676 -20.197040210409337 22.36108649655584 
v -12.748426958834044 -20.487710574337537 22.424999578742725 
v -11.786215587834912 -20.75559164861123 22.47417922676156 
v -10.817282689225411 -21.0005933875632 22.508426362785404 
v -9.842417435748027 -21.222633878612996 22.527545125906023 
v -8.862411119323411 -21.421639136375884 22.531342929432157 
v -7.87805817518648 -21.597542983513943 22.5196305907609 
v -6.890157207607558 -21.750287018336753 22.49222253833125 
v -5.899512010445316 -21.879820669694396 22.448937098127363 
v -4.906932575432253 -21.986101339943882 22.38959686052378 
v -3.9132360808002233 -22.06909463676069 22.314029126946718 
v -2.9192478526185535 -22.128774694362246 22.222066434836687 
v -1.9258022910402937 -22.165124584358374 22.113547158698225 
v -0.9337437535274767 -22.178136815990165 21.988316184566298 
v 0.0560726129552811 -22.167813925000935 21.846225654956797 
v 1.0427800988374432 -22.13416914983114 21.687135781252177 
v 2.0254997260136927 -22.077227193266438 21.510915720457078 
v 3.0033396171853135 -21.997025067110073 21.317444513300778 
v 3.975394448573319 -21.893613016906595 21.1066120807278 
v 4.940744994108757 -21.76705552321755 20.878320275873367 
v 5.898457769210299 -21.617432375440778 20.632483988642328 
v 6.84758478226338 -21.44483981366967 20.36903229997863 
v 7.787163401915164 -21.249391733601424 20.08790968281352 
v 8.716216348289182 -21.031220949017385 19.789077246504643 
v 9.63375181619403 -20.790480505866736 19.472514021320215 
v 10.538763738341645 -20.527345041480938 19.138218279180528 
v 11.430232196490584 -20.242012181924466 18.786208886445145 
v 12.307123988275572 -19.934703969944405 18.41652668403251 
v 13.168393357262994 -19.605668315414572 18.029235889585745 
v 14.012982893469381 -19.25518045957967 17.62442551576253 
v 14.839824611183033 -18.88354444379335 17.20221079803822 
v 15.647841210424826 -18.491094572815786 16.762734624680593 
v 16.43594752776146 -18.07819686209751 16.306168960794345 
v 17.203052181431964 -17.64525045783637 15.83271625755677 
v 17.948059414857816 -17.192689017962884 15.342610836986728 
v 18.669871141570884 -16.720982041599758 14.836120241822071 
v 19.367389193407373 -16.230636133966556 14.31354653934116 
v 20.039517772477133 -15.722196193176172 13.77522756726812 
v 20.68516610592688 -15.19624650491191 13.221538109265294 
v 21.303251300876216 -14.653411730598975 12.652890986956812 
v 21.892701395123655 -14.094357774409312 12.069738054961123 
v 22.452458597306006 -13.51979251428088 11.472571085054946 
v 22.981482708162353 -12.93046638210775 10.86192252536304 
v 23.478754712420518 -12.327172778381692 10.238366120383633 
v 23.943280528610536 -11.710748306853112 9.602517377734209 
v 24.37409490184072 -11.082072815241874 8.95503386775027 
v 24.770265422275713 -10.442069228676628 8.296615342503689 
v 25.13089664976332 -9.791703163382762 7.628003661437689 
v 25.455134322802543 -9.13198230917834 6.949982511650141 
v 25.742169627864797 -8.463955570576061 6.263376911900577 
v 25.991243503012313 -7.788711957725255 5.569052490670327 
v 26.20165094784091 -7.107379220055815 4.867914530066573 
v 26.372745310047417 -6.421122217296688 4.160906769022926 
v 26.503942517423962 -5.731141024522422 3.449009961099127 
v 26.594725222847586 -5.03866877001722 2.733240184204454 
v 26.64464682889889 -4.344969207018054 2.0146469017412048 
v 26.653335358137287 -3.651334022786765 1.294310776960369 
v 26.620497134809007 -2.9590798909430736 0.5733412447097777 
v 26.545920243888116 -2.2695452755435777 -0.14712615279876484 
v 26.429477733865955 -1.5840869979924144 -0.8659326571116333 
v 26.27113053062007 -0.9040765804947022 -1.5818994000094613 
v 26.07093003101417 -0.2308963823917946 -2.2938307114227996 
v 25.829020346604487 0.43406445167348257 -3.000517612601849 
v 25.545640169949213 1.0894142102427071 -3.7007414762330995 
v 25.221124238519508 1.7337629761560536 -4.393277833272902 
l 1 2
l 2 3
l 3 4
l 4 5
l 5 6
l 6 7
l 7 8
l 8 9
l 9 10
l 10 11
l 11 12
l 12 13
l 13 14
l 14 15
l 15 16
l 16 17
l 17 18
l 18 19
l 19 20
l 20 21
l 21 22
l 22 23
l 23 24
l 24 25
l 25 26
l 26 27
l 27 28
l 28 29
l 29 30
l 30 31
l 31 32
l 32 33
l 33 34
l 34 35
l 35 36
l 36 37
l 37 38
l 38 39
l 39 40
l 40 41
l 41 42
l 42 43
l 43 44
l 44 45
l 45 46
l 46 47
l 47 48
l 48 49
l 49 50
l 50 51
l 51 52
l 52 53
l 53 54
l 54 55
l 55 56
l 56 57
l 57 58
l 58 59
l 59 60
l 60 61
l 61 62
l 62 63
l 63 64
l 64 65
l 65 66
l 66 67
l 67 68
l 68 69
l 69 70
l 70 71
l 71 72
l 72 73
l 73 74
l 74 75
l 75 76
l 76 77
l 77 78
l 78 79
l 79 80
l 80 81
l 81 82
l 82 83
l 83 84
l 84 85
l 85 86
l 86 87
l 87 88
l 88 89
l 89 90
l 90 91
l 91 92
l 92 93
l 93 94
l 94 95
l 95 96
l 96 97
l 97 98
l 98 99
l 99 100
l 100 101
l 101 102
l 102 103
l 103 104
l 104 105
l 105 106
l 106 107
l 107 108
l 108 109
l 109 110
l 110 111
l 111 112
l 112 113
l 113 114
l 114 115
l 115 116
l 116 117
l 117 118
l 118 119
l 119 120
l 120 121
l 121 122
l 122 123
l 123 124
l 124 125
l 125 126
l 126 127
l 127 128
l 128 129
l 129 130
l 130 131
l 131 132
l 132 133
l 133 134
l 134 135
l 135 136
l 136 137
l 137 138
l 138 139
l 139 140
l 140 141
l 141 142
l 142 143
l 143 144
l 144 145
l 145 146
l 146 147
l 147 148
l 148 149
l 149 150
l 150 151
l 151 152
l 152 153
l 153 154
l 154 155
l 155 156
l 156 157
l 157 158
l 158 159
l 159 160
l 160 161
l 161 162
l 162 163
l 163 164
l 164 165
l 165 166
l 166 167
l 167 168
l 168 169
l 169 170
l 170 171
l 171 172
l 172 173
l 173 174
l 174 175
l 175 176
l 176 177
l 177 178
l 178 179
l 179 180
l 180 181
l 181 182
l 182 183
l 183 184
l 184 185
l 185 186
l 186 187
l 187 188
l 188 189
l 189 190
l 190 191
l 191 192
l 192 193
l 193 194
l 194 195
l 195 196
l 196 197
l 197 198
l 198 199
l 199 200
l 200 201
l 201 202
l 202 203
l 203 204
l 204 205
l 205 206
l 206 207
l 207 208
l 208 209
l 209 210
l 210 211
l 211 212
l 212 213
l 213 214
l 214 215
l 215 216
l 216 217
l 217 218
l 218 219
l 219 220
l 220 221
l 221 222
l 222 223
l 223 224
l 224 225
l 225 226
l 226 227
l 227 228
l 228 229
l 229 230
l 230 231
l 231 232
l 232 233
l 233 234
l 234 235
l 235 236
l 236 237
l 237 238
l 238 239
l 239 240
l 240 241
l 241 242
l 242 243
l 243 244
l 244 245
l 245 246
l 246 247
l 247 248
l 248 249
l 249 250
l 250 251
l 251 252
l 252 253
l 253 254
l 254 255
l 255 256
l 256 257
l 257 258
l 258 259
l 259 260
l 260 261
l 261 262
l 262 263
l 263 264
l 264 265
l 265 266
l 266 267
l 267 268
l 268 269
l 269 270
l 270 271
l 271 272
l 272 273
l 273 274
l 274 275
l 275 276
l 276 277
l 277 278
l 278 279
l 279 280
l 280 281
l 281 282
l 282 283
l 283 284
l 284 285
l 285 286
l 286 287
l 287 288
l 288 289
l 289 290
l 290 291
l 291 292
l 292 293
l 293 294
l 294 295
l 295 296
l 296 297
l 297 298
l 298 299
l 299 300
l 300 301
l 301 302
l 302 303
l 303 304
l 304 305
l 305 306
l 306 307
l 307 308
l 308 309
l 309 310
l 310 311
l 311 312
l 312 313
l 313 314
l 314 315
l 315 316
l 316 317
l 317 318
l 318 319
l 319 320
l 320 321
l 321 322
l 322 323
l 323 324
l 324 325
l 325 326
l 326 327
l 327 328
l 328 329
l 329 330
l 330 331
l 331 332
l 332 333
l 333 334
l 334 335
l 335 336
l 336 337
l 337 338
l 338 339
l 339 340
l 340 341
l 341 342
l 342 343
l 343 344
l 344 345
l 345 346
l 346 347
l 347 348
l 348 349
l 349 350
l 350 351
l 351 352
l 352 353
l 353 354
l 354 355
l 355 356
l 356 357
l 357 358
l 358 359
l 359 360
l 360 361
l 361 362
l 362 363
l 363 364
l 364 365
l 365 366
l 366 367
l 367 368
l 368 369
l 369 370
l 370 371
l 371 372
l 372 373
l 373 374
l 374 375
l 375 376
l 376 377
l 377 378
l 378 379
l 379 380
l 380 381
l 381 382
l 382 383
l 383 384
l 384 385
l 385 386
l 386 387
l 387 388
l 388 389
l 389 390
l 390 391
l 391 392
l 392 393
l 393 394
l 394 395
l 395 396
l 396 397
l 397 398
l 398 399
l 399 400
l 400 1
